<svg width="105" height="105" viewBox="0 0 105 105" fill="none" xmlns="http://www.w3.org/2000/svg">
<path d="M78.75 92.855V36.9775C83.5888 34.3787 86.2181 29.2688 86.2181 23.3975C86.2181 15.1988 79.7781 8.47437 71.6975 8.01937C68.3244 3.32937 62.6806 0 56.0569 0C51.8088 0 47.5475 1.40875 44.0431 4.2175C37.9137 2.2225 30.94 3.815 26.32 8.77625C20.0944 8.89437 14.6694 11.0819 11.5938 16.4325C9.35813 20.3219 9.03 24.71 8.86812 29.2469C8.58813 37.3275 0 37.415 0 47.9369C0 56.77 6.74625 63.5075 17.5 60.1956V92.8594C17.5 95.7644 16.03 98.1225 13.125 98.1225V105H83.125V98.1181C80.2156 98.1181 78.75 95.76 78.75 92.855ZM6.9475 46.9875C7.95375 40.2544 15.4044 39.7162 15.7631 29.4875C16.0387 21.6475 16.7256 14.5513 29.7325 15.8113C31.4125 12.5256 34.825 10.2769 38.7669 10.2769C41.3525 10.2769 43.715 11.2481 45.5044 12.8406C47.6656 9.27938 51.5856 6.895 56.0569 6.895C61.5519 6.895 66.2025 10.4825 67.8037 15.4481C68.74 15.0894 69.755 14.8969 70.8181 14.8969C75.5125 14.8969 79.3231 18.7075 79.3231 23.4019C79.3231 28.0963 75.5125 31.9069 70.8181 31.9069C68.075 31.9069 65.6381 30.6119 64.085 28.5994C58.8394 33.0969 50.8769 32.4275 46.4756 26.9981C42.9975 31.0669 36.8681 32.0119 31.9113 27.8819C30.2488 26.4994 28.6563 25.8869 27.1863 25.8869C21.1094 25.8869 17.1719 36.3475 19.4031 45.7056C22.3169 57.9644 5.56063 56.2362 6.9475 46.9875ZM26.2894 52.5C26.7531 50.3169 26.705 46.6156 26.11 44.1131C25.5063 41.5887 25.5194 38.7231 26.1494 36.2469C26.5431 34.6937 27.0681 33.6963 27.4531 33.145L27.5012 33.18C30.8481 35.9713 34.7725 37.45 38.85 37.45C41.4225 37.45 43.9294 36.8594 46.2044 35.7525C49.1444 37.5112 52.535 38.465 56.0656 38.465C58.6381 38.465 61.1669 37.9444 63.5031 36.9644C65.6031 38.1019 67.5325 38.7363 70 38.7975V52.5H26.2894ZM83.125 84.9625V75.5125C96.9238 67.5062 100.192 48.125 89.6219 48.125H83.125V39.3969H91.1969C100.581 39.3969 105 46.1081 105 54.4994C105 65.6075 97.1644 79.6556 83.125 84.9625Z" fill="#FDB813"/>
</svg>
