<svg width="923" height="417" viewBox="0 0 923 417" fill="none" xmlns="http://www.w3.org/2000/svg">
    <path d="M0.474731 363.695V306.661C0.474731 305.221 1.19449 304.5 2.63498 304.5H22.0772C23.5177 304.5 24.2374 305.221 24.2374 306.661V362.401C24.2374 374.498 25.8211 382.78 28.9923 387.245C32.1596 391.709 38.2079 393.943 47.1401 393.943C56.646 393.943 63.1277 391.638 66.5814 387.028C70.0389 382.42 71.7696 374.211 71.7696 362.401V274.253C71.7696 263.884 69.0318 254.664 63.5572 246.599C58.0864 238.534 49.7309 228.885 38.4981 217.649C29.8552 209.007 23.0872 201.805 18.1891 196.044C13.2921 190.285 9.1138 183.443 5.65913 175.521C2.20158 167.599 0.474731 158.741 0.474731 148.947V52.4459C0.474731 34.2981 4.57901 21.0464 12.7885 12.6927C20.9971 4.33908 32.8794 0.16272 48.4336 0.16272C64.2779 0.16272 76.0872 4.48416 83.8662 13.1242C91.6443 21.7671 95.5323 34.8737 95.5323 52.4459V106.888C95.5323 108.329 94.8126 109.049 93.3721 109.049H73.9298C72.4894 109.049 71.7696 108.329 71.7696 106.888V53.7412C71.7696 41.6427 70.183 33.3611 67.0147 28.8965C63.8474 24.4319 57.653 22.1986 48.4336 22.1986C39.2179 22.1986 32.8794 24.5039 29.4228 29.1118C25.9681 33.7215 24.2374 41.9319 24.2374 53.7412V145.49C24.2374 156.148 27.0483 165.655 32.6632 174.008C38.281 182.363 46.7067 192.012 57.9423 202.959C70.3291 215.058 79.6889 225.858 86.0265 235.363C92.365 244.872 95.5323 256.248 95.5323 269.499V363.695C95.5323 398.841 79.4016 416.412 47.1401 416.412C31.2957 416.412 19.5566 412.017 11.9246 403.232C4.28976 394.446 0.474731 381.267 0.474731 363.695Z" fill="#F5E3CE" />
    <path d="M303.807 414.252C303.807 415.692 303.087 416.412 301.647 416.412H223.87C222.429 416.412 221.71 415.692 221.71 414.252V239.025H204.428V414.252C204.428 415.692 203.708 416.412 202.267 416.412H124.492C123.051 416.412 122.331 415.692 122.331 414.252V2.32401C122.331 0.883514 123.051 0.163757 124.492 0.163757H202.267C203.708 0.163757 204.428 0.883514 204.428 2.32401V178.53H221.71V2.32401C221.71 0.883514 222.429 0.163757 223.87 0.163757H301.647C303.087 0.163757 303.807 0.883514 303.807 2.32401V414.252Z" fill="#F5E3CE" />
    <path d="M422.729 112.937C422.438 113.513 421.935 113.804 421.215 113.804C420.495 113.804 419.992 113.656 419.702 113.37L387.729 88.7406V134.112C387.729 135.549 387.01 136.269 385.569 136.269H371.309C369.869 136.269 369.149 135.549 369.149 134.112V88.7406L337.607 113.804C336.741 114.666 335.734 114.666 334.58 113.804L326.372 101.704C325.794 100.552 325.941 99.5428 326.804 98.6799L363.53 70.1613L326.372 41.6438C325.508 40.7789 325.364 39.7718 325.941 38.6196L333.717 26.9516C334.87 25.7994 335.877 25.6562 336.741 26.5201L369.149 51.5811V5.34818C369.149 3.90768 369.869 3.18695 371.309 3.18695H385.136C386.576 3.18695 387.297 3.90768 387.297 5.34818V51.5811L420.135 26.0877C420.999 25.2247 422.009 25.3679 423.159 26.5201L430.074 37.3223C430.648 38.4745 430.504 39.4826 429.641 40.3465L392.915 69.7289L430.074 98.6799C430.937 99.5428 431.081 100.552 430.504 101.704L422.729 112.937Z" fill="#FDB813" />
    <path d="M591.887 57.1989C591.887 59.5033 591.167 60.6546 589.727 60.6546H534.836V229.749H581.645C583.085 229.749 583.805 231.045 583.805 233.64V286.786C583.805 289.09 583.085 290.243 581.645 290.243H534.836V414.252C534.836 415.691 534.116 416.412 532.676 416.412H454.899C453.459 416.412 452.739 415.691 452.739 414.252V2.32309C452.739 0.883545 453.459 0.162842 454.899 0.162842H589.727C591.167 0.162842 591.887 1.45822 591.887 4.05185V57.1989Z" fill="#F5E3CE" />
    <path d="M838.245 327.245C836.24 328.986 833.235 329.857 829.226 329.857H816.216C815.886 329.857 815.721 329.691 815.721 329.366V324.928C815.721 324.601 815.886 324.436 816.216 324.436H828.931C831.69 324.436 833.579 324.075 834.597 323.352C835.616 322.628 836.128 321.248 836.128 319.213C836.128 317.043 835.601 315.565 834.548 314.775C833.499 313.985 831.624 313.592 828.931 313.592H819.864C817.498 313.592 815.394 314.217 813.555 315.467C811.716 316.713 809.511 318.619 806.948 321.182C804.978 323.155 803.336 324.699 802.022 325.816C800.706 326.932 799.147 327.884 797.339 328.674C795.532 329.464 793.509 329.857 791.277 329.857H782.405C778.266 329.857 775.244 328.92 773.337 327.048C771.432 325.174 770.481 322.463 770.481 318.914C770.481 315.302 771.463 312.605 773.436 310.832C775.405 309.059 778.396 308.172 782.405 308.172H794.826C795.152 308.172 795.318 308.337 795.318 308.664V313.1C795.318 313.427 795.152 313.592 794.826 313.592H782.7C779.941 313.592 778.052 313.954 777.034 314.677C776.017 315.4 775.507 316.812 775.507 318.914C775.507 321.017 776.03 322.463 777.083 323.253C778.133 324.04 780.008 324.436 782.7 324.436H790.487C792.92 324.436 795.089 323.794 796.995 322.513C798.898 321.231 801.1 319.311 803.599 316.748C806.358 313.922 808.823 311.784 810.992 310.341C813.158 308.895 815.756 308.172 818.779 308.172H829.226C837.244 308.172 841.254 311.851 841.254 319.213C841.254 322.825 840.249 325.504 838.245 327.245ZM840.464 353.999C840.464 354.329 840.298 354.49 839.972 354.49H771.66C771.333 354.49 771.169 354.329 771.169 353.999V336.552C771.169 336.225 771.333 336.06 771.66 336.06H775.802C776.128 336.06 776.293 336.225 776.293 336.552V349.07H802.317V338.525C802.317 338.194 802.483 338.03 802.809 338.03H806.948C807.278 338.03 807.443 338.194 807.443 338.525V349.07H835.338V336.552C835.338 336.225 835.503 336.06 835.83 336.06H839.972C840.298 336.06 840.464 336.225 840.464 336.552V353.999ZM840.464 379.426C840.464 379.756 840.298 379.917 839.972 379.917H771.66C771.333 379.917 771.169 379.756 771.169 379.426V361.979C771.169 361.652 771.333 361.487 771.66 361.487H775.802C776.128 361.487 776.293 361.652 776.293 361.979V374.497H802.317V363.952C802.317 363.621 802.483 363.457 802.809 363.457H806.948C807.278 363.457 807.443 363.621 807.443 363.952V374.497H839.972C840.298 374.497 840.464 374.663 840.464 374.992V379.426ZM839.972 244.905H771.365C771.038 244.905 770.874 244.739 770.874 244.413V231.402C770.874 231.072 771.038 230.907 771.365 230.907H839.972C840.298 230.907 840.464 231.072 840.464 231.402V244.413C840.464 244.739 840.298 244.905 839.972 244.905ZM839.972 271.311C840.298 271.311 840.464 271.472 840.464 271.802V284.91C840.464 285.241 840.298 285.405 839.972 285.405H782.209V303.05C782.209 303.443 781.978 303.64 781.517 303.64H771.562C771.101 303.64 770.874 303.443 770.874 303.05V253.667C770.874 253.337 771.101 253.172 771.562 253.172H781.517C781.978 253.172 782.209 253.337 782.209 253.667V271.311H839.972ZM770.481 197.006C770.481 196.809 770.642 196.644 770.972 196.514L789.996 190.698C795.188 189.054 801.349 187.379 808.479 185.67C815.608 183.96 820.552 183.108 823.311 183.108V182.121C820.552 182.121 815.542 181.268 808.278 179.558C801.019 177.849 794.857 176.205 789.799 174.629L770.972 168.914C770.642 168.781 770.481 168.616 770.481 168.42V142.792C770.481 142.662 770.53 142.528 770.628 142.399C770.726 142.265 770.838 142.234 770.972 142.301L839.972 164.972C840.298 165.101 840.464 165.267 840.464 165.464V199.962C840.464 200.158 840.298 200.324 839.972 200.457L770.972 223.128C770.838 223.192 770.726 223.16 770.628 223.03C770.53 222.897 770.481 222.767 770.481 222.633V197.006ZM770.481 85.1444C770.481 84.9483 770.642 84.7831 770.972 84.6533L839.972 60.5005C840.101 60.437 840.218 60.4688 840.316 60.5985C840.415 60.7321 840.464 60.8618 840.464 60.9954V86.6223C840.464 86.8193 840.298 86.9846 839.972 87.1172L828.833 90.5652V115.308L839.972 118.66C840.298 118.791 840.464 118.955 840.464 119.152V144.779C840.464 144.912 840.415 145.042 840.316 145.176C840.218 145.306 840.101 145.337 839.972 145.274L770.972 121.121C770.642 120.991 770.481 120.826 770.481 120.63V85.1444ZM920.84 0.163452H840.464V51.6432C840.464 51.9738 840.298 52.1381 839.972 52.1381H770.972C770.642 52.1381 770.481 51.9738 770.481 51.6432V27.0022C770.481 26.6726 770.642 26.5073 770.972 26.5073H820.748V0.163452H614.056C612.616 0.163452 611.896 0.88324 611.896 2.3237V58.5612C611.896 60.0017 612.616 60.7215 614.056 60.7215H655.103V414.251C655.103 415.692 655.823 416.413 657.264 416.413H877.632C879.072 416.413 879.792 415.692 879.792 414.251V60.7215H920.84C922.28 60.7215 923 60.0017 923 58.5612V2.3237C923 0.88324 922.28 0.163452 920.84 0.163452Z" fill="#F5E3CE" />
    <path d="M798.965 106.142L811.091 109.887V96.087L798.965 99.8329C796.929 100.489 794.809 101.048 792.607 101.508C790.406 101.967 788.745 102.298 787.63 102.494V103.477C788.745 103.677 790.406 104.021 792.607 104.513C794.809 105.008 796.929 105.549 798.965 106.142Z" fill="#F5E3CE" />
</svg>
