<svg width="284" height="128" viewBox="0 0 284 128" fill="none" xmlns="http://www.w3.org/2000/svg">
<path d="M0.00012207 111.706V94.1809C0.00012207 93.7383 0.221291 93.5168 0.663926 93.5168H6.63816C7.08079 93.5168 7.30196 93.7383 7.30196 94.1809V111.309C7.30196 115.026 7.78859 117.571 8.76304 118.943C9.7363 120.315 11.5948 121.001 14.3395 121.001C17.2605 121.001 19.2522 120.293 20.3135 118.876C21.3759 117.46 21.9077 114.938 21.9077 111.309V84.2224C21.9077 81.0363 21.0664 78.2033 19.3842 75.7249C17.7031 73.2466 15.1356 70.2816 11.684 66.8291C9.0282 64.1736 6.9485 61.9605 5.44343 60.1902C3.93865 58.4206 2.65475 56.3184 1.59319 53.8841C0.530751 51.4498 0.00012207 48.7278 0.00012207 45.7182V16.0653C0.00012207 10.4888 1.26129 6.41683 3.78392 3.84991C6.30626 1.28298 9.95747 -0.000335693 14.737 -0.000335693C19.6057 -0.000335693 23.2344 1.32756 25.6248 3.98248C28.0148 6.63828 29.2095 10.6657 29.2095 16.0653V32.7944C29.2095 33.2371 28.9884 33.4583 28.5457 33.4583H22.5715C22.1289 33.4583 21.9077 33.2371 21.9077 32.7944V16.4633C21.9077 12.7457 21.4202 10.2009 20.4466 8.82903C19.4734 7.45712 17.57 6.77087 14.737 6.77087C11.9052 6.77087 9.95747 7.47927 8.89533 8.89516C7.83377 10.3117 7.30196 12.8346 7.30196 16.4633V44.6561C7.30196 47.9311 8.16567 50.8524 9.89103 53.419C11.6173 55.9865 14.2063 58.9515 17.6588 62.3151C21.4651 66.0331 24.3412 69.3515 26.2886 72.2725C28.2363 75.1943 29.2095 78.6899 29.2095 82.7616V111.706C29.2095 122.506 24.2529 127.905 14.3395 127.905C9.47084 127.905 5.86362 126.555 3.51846 123.855C1.17241 121.156 0.00012207 117.106 0.00012207 111.706Z" fill="#FDB813"/>
<path d="M93.2083 127.241C93.2083 127.684 92.9871 127.905 92.5445 127.905H68.6452C68.2026 127.905 67.9814 127.684 67.9814 127.241V73.3975H62.671V127.241C62.671 127.684 62.4498 127.905 62.0072 127.905H38.1082C37.6656 127.905 37.4441 127.684 37.4441 127.241V0.66375C37.4441 0.221115 37.6656 -4.57764e-05 38.1082 -4.57764e-05H62.0072C62.4498 -4.57764e-05 62.671 0.221115 62.671 0.66375V54.8086H67.9814V0.66375C67.9814 0.221115 68.2026 -4.57764e-05 68.6452 -4.57764e-05H92.5445C92.9871 -4.57764e-05 93.2083 0.221115 93.2083 0.66375V127.241Z" fill="#FDB813"/>
<path d="M129.751 34.6537C129.662 34.8309 129.507 34.92 129.286 34.92C129.065 34.92 128.91 34.8749 128.821 34.7869L118.996 27.2187V41.1603C118.996 41.6021 118.775 41.8232 118.332 41.8232H113.951C113.508 41.8232 113.287 41.6021 113.287 41.1603V27.2187L103.595 34.92C103.328 35.1852 103.019 35.1852 102.664 34.92L100.142 31.2021C99.9647 30.848 100.01 30.538 100.275 30.2728L111.56 21.5096L100.142 12.7467C99.8767 12.4809 99.8324 12.1715 100.01 11.8174L102.399 8.23207C102.753 7.87802 103.063 7.83402 103.328 8.09948L113.287 15.8003V1.59374C113.287 1.1511 113.508 0.929634 113.951 0.929634H118.199C118.642 0.929634 118.863 1.1511 118.863 1.59374V15.8003L128.954 7.96661C129.219 7.70144 129.53 7.74543 129.883 8.09948L132.008 11.4188C132.184 11.7728 132.14 12.0826 131.875 12.3481L120.59 21.3767L132.008 30.2728C132.273 30.538 132.317 30.848 132.14 31.2021L129.751 34.6537Z" fill="#F5E3CE"/>
<path d="M181.73 17.5258C181.73 18.2339 181.509 18.5876 181.066 18.5876H164.199V70.5471H178.583C179.025 70.5471 179.247 70.9454 179.247 71.7427V88.0735C179.247 88.7816 179.025 89.136 178.583 89.136H164.199V127.241C164.199 127.684 163.978 127.905 163.535 127.905H139.636C139.194 127.905 138.972 127.684 138.972 127.241V0.663467C138.972 0.22113 139.194 -0.000335693 139.636 -0.000335693H181.066C181.509 -0.000335693 181.73 0.397713 181.73 1.19469V17.5258Z" fill="#FDB813"/>
<path d="M257.431 100.507C256.815 101.042 255.892 101.309 254.66 101.309H250.662C250.561 101.309 250.51 101.258 250.51 101.158V99.7947C250.51 99.6943 250.561 99.6435 250.662 99.6435H254.569C255.417 99.6435 255.998 99.5325 256.31 99.3104C256.623 99.0881 256.781 98.6641 256.781 98.0386C256.781 97.3719 256.619 96.9177 256.295 96.675C255.973 96.4323 255.397 96.3115 254.569 96.3115H251.783C251.056 96.3115 250.41 96.5034 249.844 96.8876C249.279 97.2703 248.602 97.8562 247.814 98.6437C247.209 99.2499 246.704 99.7244 246.301 100.068C245.896 100.411 245.417 100.703 244.862 100.946C244.306 101.188 243.685 101.309 242.999 101.309H240.273C239.001 101.309 238.072 101.021 237.486 100.446C236.901 99.8703 236.609 99.0373 236.609 97.9468C236.609 96.8368 236.91 96.0082 237.517 95.4634C238.122 94.9186 239.041 94.6458 240.273 94.6458H244.089C244.19 94.6458 244.24 94.6966 244.24 94.797V96.1603C244.24 96.2607 244.19 96.3115 244.089 96.3115H240.363C239.516 96.3115 238.935 96.4225 238.622 96.6449C238.31 96.8669 238.153 97.3007 238.153 97.9468C238.153 98.5929 238.314 99.0373 238.637 99.28C238.96 99.5219 239.536 99.6435 240.363 99.6435H242.756C243.504 99.6435 244.17 99.4463 244.756 99.0526C245.341 98.6587 246.017 98.0688 246.785 97.2812C247.633 96.4128 248.39 95.7558 249.057 95.3126C249.722 94.8681 250.521 94.6458 251.45 94.6458H254.66C257.124 94.6458 258.356 95.7764 258.356 98.0386C258.356 99.1486 258.047 99.9716 257.431 100.507ZM258.113 108.728C258.113 108.829 258.062 108.879 257.962 108.879H236.971C236.87 108.879 236.82 108.829 236.82 108.728V103.366C236.82 103.266 236.87 103.215 236.971 103.215H238.244C238.344 103.215 238.395 103.266 238.395 103.366V107.213H246.391V103.973C246.391 103.871 246.442 103.821 246.543 103.821H247.814C247.916 103.821 247.966 103.871 247.966 103.973V107.213H256.538V103.366C256.538 103.266 256.589 103.215 256.689 103.215H257.962C258.062 103.215 258.113 103.266 258.113 103.366V108.728ZM258.113 116.541C258.113 116.642 258.062 116.692 257.962 116.692H236.971C236.87 116.692 236.82 116.642 236.82 116.541V111.18C236.82 111.079 236.87 111.029 236.971 111.029H238.244C238.344 111.029 238.395 111.079 238.395 111.18V115.026H246.391V111.786C246.391 111.684 246.442 111.634 246.543 111.634H247.814C247.916 111.634 247.966 111.684 247.966 111.786V115.026H257.962C258.062 115.026 258.113 115.077 258.113 115.179V116.541ZM257.962 75.205H236.88C236.78 75.205 236.729 75.1543 236.729 75.0539V71.056C236.729 70.9547 236.78 70.9039 236.88 70.9039H257.962C258.062 70.9039 258.113 70.9547 258.113 71.056V75.0539C258.113 75.1543 258.062 75.205 257.962 75.205ZM257.962 83.3192C258.062 83.3192 258.113 83.3688 258.113 83.4701V87.4981C258.113 87.5997 258.062 87.6502 257.962 87.6502H240.212V93.0719C240.212 93.1927 240.141 93.2532 240 93.2532H236.941C236.799 93.2532 236.729 93.1927 236.729 93.0719V77.8975C236.729 77.7962 236.799 77.7454 236.941 77.7454H240C240.141 77.7454 240.212 77.7962 240.212 77.8975V83.3192H257.962ZM236.609 60.4868C236.609 60.4263 236.658 60.3755 236.759 60.3356L242.605 58.5482C244.201 58.0433 246.094 57.5286 248.285 57.0033C250.475 56.478 251.994 56.2161 252.842 56.2161V55.9128C251.994 55.9128 250.455 55.6506 248.223 55.1253C245.992 54.6 244.099 54.095 242.545 53.6108L236.759 51.8547C236.658 51.8136 236.609 51.7629 236.609 51.7026V43.8276C236.609 43.7878 236.624 43.7467 236.654 43.7069C236.684 43.6658 236.718 43.6564 236.759 43.6767L257.962 50.6431C258.062 50.683 258.113 50.7338 258.113 50.7943V61.3951C258.113 61.4553 258.062 61.5061 257.962 61.5472L236.759 68.5136C236.718 68.533 236.684 68.5233 236.654 68.4834C236.624 68.4424 236.609 68.4025 236.609 68.3615V60.4868ZM236.609 26.1137C236.609 26.0535 236.658 26.0027 236.759 25.9628L257.962 18.5411C258.002 18.5216 258.037 18.5313 258.068 18.5712C258.098 18.6123 258.113 18.6521 258.113 18.6932V26.5678C258.113 26.6284 258.062 26.6792 257.962 26.7199L254.539 27.7794V35.3824L257.962 36.4124C258.062 36.4526 258.113 36.5031 258.113 36.5636V44.4383C258.113 44.4793 258.098 44.5192 258.068 44.5602C258.037 44.6001 258.002 44.6098 257.962 44.5903L236.759 37.1686C236.658 37.1288 236.609 37.078 236.609 37.0177V26.1137ZM282.811 0.000648499H258.113V15.8194C258.113 15.921 258.062 15.9715 257.962 15.9715H236.759C236.658 15.9715 236.609 15.921 236.609 15.8194V8.2477C236.609 8.14642 236.658 8.09563 236.759 8.09563H252.055V0.000648499H188.542C188.1 0.000648499 187.878 0.221825 187.878 0.664459V17.9452C187.878 18.3878 188.1 18.609 188.542 18.609H201.155V127.242C201.155 127.685 201.376 127.906 201.819 127.906H269.534C269.977 127.906 270.198 127.685 270.198 127.242V18.609H282.811C283.254 18.609 283.475 18.3878 283.475 17.9452V0.664459C283.475 0.221825 283.254 0.000648499 282.811 0.000648499Z" fill="#FDB813"/>
<path d="M245.361 32.5658L249.087 33.7168V29.4762L245.361 30.6272C244.736 30.8289 244.084 31.0005 243.408 31.1419C242.731 31.283 242.221 31.3846 241.878 31.4449V31.7469C242.221 31.8084 242.731 31.9141 243.408 32.0653C244.084 32.2173 244.736 32.3836 245.361 32.5658Z" fill="#FDB813"/>
</svg>
