<svg width="511" height="325" viewBox="0 0 511 325" fill="none" xmlns="http://www.w3.org/2000/svg">
<g clip-path="url(#clip0_585_8)">
<path d="M140.266 162.895L134.453 144.01L128.742 162.895H140.266ZM113.29 181.741L127.179 141.063C128.742 136.492 131.267 134.547 134.855 134.547C138.341 134.547 140.967 136.612 142.47 141.063L156.119 181.741H146.058L142.49 170.174H126.557L123.07 181.741H113.29Z" fill="black"/>
<path d="M191.703 180.819C188.656 181.64 184.368 182.223 179.496 182.223C163.985 182.223 160.157 174.965 160.157 158.384C160.157 141.785 164.005 134.547 179.496 134.547C184.387 134.547 188.656 135.148 191.703 135.972L190.861 143.288C187.794 142.786 184.568 142.487 181.241 142.487C170.017 142.487 169.817 149.202 169.817 158.384C169.817 167.607 169.976 174.283 181.241 174.283C184.528 174.283 187.834 173.982 190.84 173.482L191.703 180.819Z" fill="black"/>
<path d="M207.886 156.38C209.81 156.601 211.714 156.621 213.658 156.621C219.53 156.621 222.997 155.118 222.997 149.183C222.997 144.01 220.672 141.944 213.858 141.944C211.994 141.944 209.81 142.086 207.886 142.346V156.38ZM207.886 181.741H198.426V135.83C202.474 135.088 208.027 134.547 213.618 134.547C223.94 134.547 232.377 136.593 232.377 149.223C232.377 157.483 228.91 161.372 223.419 163.036L234.082 181.741H223.178L213.598 164.118C211.693 164.118 209.53 164.019 207.886 163.918V181.741Z" fill="black"/>
<path d="M269.403 142.607H256.516C250.925 142.607 249.963 143.769 249.963 148.922V154.215H268.522V161.753H249.963V167.807C249.963 172.981 250.925 174.164 256.516 174.164H269.403V181.501C266.117 181.662 259.844 181.862 256.717 181.862C248.279 181.862 240.503 181.4 240.503 170.454V146.296C240.503 135.349 248.279 134.908 256.717 134.908C260.103 134.908 266.176 135.088 269.403 135.249V142.607Z" fill="black"/>
<path d="M287.551 142.627V174.144C288.754 174.324 290.257 174.484 291.98 174.484C304.286 174.484 304.386 167.507 304.386 158.385C304.386 149.263 304.286 142.306 291.98 142.306C290.257 142.306 288.754 142.466 287.551 142.627ZM278.071 135.871C282.04 135.109 287.731 134.547 293.283 134.547C310.78 134.547 313.885 142.507 313.885 158.385C313.885 174.264 310.78 182.223 293.283 182.223C287.671 182.223 282.08 181.681 278.071 180.94V135.871Z" fill="black"/>
<path d="M322.032 135.029H331.532V181.742H322.032V135.029Z" fill="black"/>
<path d="M371.106 180.819C368.059 181.64 363.771 182.223 358.899 182.223C343.388 182.223 339.559 174.965 339.559 158.384C339.559 141.785 343.407 134.547 358.899 134.547C363.79 134.547 368.059 135.148 371.106 135.972L370.264 143.288C367.197 142.786 363.971 142.487 360.644 142.487C349.42 142.487 349.22 149.202 349.22 158.384C349.22 167.607 349.379 174.283 360.644 174.283C363.93 174.283 367.237 173.982 370.243 173.482L371.106 180.819Z" fill="black"/>
<path d="M404.244 158.384C404.244 148.862 404.044 142.346 395.205 142.346C386.347 142.346 386.147 148.862 386.147 158.384C386.147 167.907 386.347 174.403 395.205 174.403C404.044 174.403 404.244 167.907 404.244 158.384ZM376.526 158.384C376.526 141.465 380.675 134.547 395.205 134.547C409.715 134.547 413.864 141.465 413.864 158.384C413.864 175.306 409.715 182.223 395.205 182.223C380.675 182.223 376.526 175.306 376.526 158.384Z" fill="black"/>
<path d="M448.466 158.384C448.466 148.862 448.266 142.346 439.427 142.346C430.569 142.346 430.369 148.862 430.369 158.384C430.369 167.907 430.569 174.403 439.427 174.403C448.266 174.403 448.466 167.907 448.466 158.384ZM420.748 158.384C420.748 141.465 424.897 134.547 439.427 134.547C453.937 134.547 458.086 141.465 458.086 158.384C458.086 175.306 453.937 182.223 439.427 182.223C424.897 182.223 420.748 175.306 420.748 158.384Z" fill="black"/>
<path d="M475.732 156.761C477.657 157.002 479.56 157.022 481.505 157.022C487.478 157.022 490.824 155.478 490.824 149.382C490.824 144.07 488.599 141.966 481.705 141.966C479.821 141.966 477.657 142.106 475.732 142.366V156.761ZM475.732 181.741H466.273V135.83C470.322 135.088 475.873 134.547 481.465 134.547C491.866 134.547 500.224 136.612 500.224 149.382C500.224 161.793 492.688 164.48 481.966 164.48C479.921 164.48 477.536 164.38 475.732 164.259V181.741Z" fill="black"/>
<path d="M124.845 213.95C123.699 214.208 122.228 214.403 120.565 214.403C114.722 214.403 113.289 211.575 113.289 205.117C113.289 198.651 114.729 195.831 120.565 195.831C122.22 195.831 123.699 196.018 124.845 196.277L124.614 198.253C123.575 198.088 122.421 197.964 121.295 197.964C116.115 197.964 115.853 200.712 115.853 205.117C115.853 209.538 116.161 212.271 121.295 212.271C122.436 212.271 123.552 212.153 124.622 211.983L124.845 213.95Z" fill="black"/>
<path d="M139.051 205.117C139.051 200.885 138.897 197.933 134.586 197.933C130.259 197.933 130.121 200.885 130.121 205.117C130.121 209.342 130.259 212.302 134.586 212.302C138.897 212.302 139.051 209.342 139.051 205.117ZM127.565 205.117C127.565 198.526 129.12 195.831 134.586 195.831C140.052 195.831 141.6 198.526 141.6 205.117C141.6 211.708 140.052 214.403 134.586 214.403C129.12 214.403 127.565 211.708 127.565 205.117Z" fill="black"/>
<path d="M156.672 205.117C156.672 200.885 156.518 197.933 152.207 197.933C147.88 197.933 147.741 200.885 147.741 205.117C147.741 209.342 147.88 212.302 152.207 212.302C156.518 212.302 156.672 209.342 156.672 205.117ZM145.186 205.117C145.186 198.526 146.741 195.831 152.207 195.831C157.672 195.831 159.22 198.526 159.22 205.117C159.22 211.708 157.672 214.403 152.207 214.403C146.741 214.403 145.186 211.708 145.186 205.117Z" fill="black"/>
<path d="M165.755 204.923C166.925 205.054 167.879 205.071 168.841 205.071C171.759 205.071 173.4 204.336 173.4 201.399C173.4 198.863 172.244 197.846 168.935 197.846C168.002 197.846 166.848 197.909 165.755 198.057V204.923ZM165.755 214.216H163.252V196.285C164.785 196.018 166.848 195.831 168.841 195.831C172.729 195.831 175.894 196.62 175.894 201.399C175.894 206.071 173.068 207.085 169.049 207.085C168.102 207.085 166.61 207.022 165.755 206.976V214.216Z" fill="black"/>
<path d="M189.655 198.05H185.019C182.087 198.05 181.594 198.613 181.594 201.221V203.938H189.301V205.961H181.594V209.022C181.594 211.638 182.087 212.185 185.019 212.185H189.655V214.153C188.285 214.216 186.413 214.262 185.098 214.262C181.986 214.262 179.093 214.099 179.093 210.116V200.127C179.093 196.144 181.986 195.972 185.098 195.972C186.29 195.972 188.261 196.027 189.655 196.089V198.05Z" fill="black"/>
<path d="M196.008 204.765C197.178 204.898 198.126 204.906 199.088 204.906C201.975 204.906 203.645 204.18 203.645 201.323C203.645 198.807 202.46 197.83 199.18 197.83C198.249 197.83 197.101 197.901 196.008 198.05V204.765ZM193.499 214.216V196.285C195.038 196.018 197.101 195.831 199.088 195.831C202.945 195.831 206.139 196.581 206.139 201.33C206.139 204.774 204.531 206.203 202.052 206.703L206.348 214.216H203.422L199.426 206.937H199.296C198.349 206.937 196.863 206.866 196.008 206.82V214.216H193.499Z" fill="black"/>
<path d="M219.287 207.202L216.346 198.425L213.421 207.202H219.287ZM208.508 214.216L214.36 197.574C214.774 196.386 215.483 195.831 216.453 195.831C217.416 195.831 218.131 196.386 218.539 197.574L224.305 214.216H221.641L219.949 209.171H212.766L211.087 214.216H208.508Z" fill="black"/>
<path d="M237.722 198.073H232.98V214.216H230.463V198.073H225.713V196.019H237.722V198.073Z" fill="black"/>
<path d="M240.62 196.018H243.137V214.215H240.62V196.018Z" fill="black"/>
<path d="M255.556 212.654C255.139 213.887 254.525 214.404 253.593 214.404C252.662 214.404 252.037 213.895 251.622 212.654L246.079 196.019H248.751L253.623 211.373L258.55 196.019H261.107L255.556 212.654Z" fill="black"/>
<path d="M273.353 207.202L270.412 198.425L267.487 207.202H273.353ZM262.574 214.216L268.426 197.574C268.841 196.386 269.549 195.831 270.519 195.831C271.482 195.831 272.197 196.386 272.606 197.574L278.371 214.216H275.708L274.015 209.171H266.832L265.154 214.216H262.574Z" fill="black"/>
<path d="M297.834 207.202L294.893 198.425L291.968 207.202H297.834ZM287.055 214.216L292.907 197.574C293.321 196.386 294.03 195.831 295 195.831C295.963 195.831 296.678 196.386 297.087 197.574L302.852 214.216H300.188L298.496 209.171H291.313L289.635 214.216H287.055Z" fill="black"/>
<path d="M305.829 196.018H308.347V214.215H305.829V196.018Z" fill="black"/>
<path d="M323.016 214.169C321.63 214.224 319.976 214.262 318.766 214.262C315.664 214.262 312.761 214.098 312.761 210.115V196.019H315.279V209.022C315.279 211.623 315.764 212.185 318.698 212.185H323.016V214.169Z" fill="black"/>
<path d="M336.674 205.117C336.674 200.885 336.52 197.933 332.209 197.933C327.883 197.933 327.744 200.885 327.744 205.117C327.744 209.342 327.883 212.302 332.209 212.302C336.52 212.302 336.674 209.342 336.674 205.117ZM325.188 205.117C325.188 198.526 326.743 195.831 332.209 195.831C337.676 195.831 339.222 198.526 339.222 205.117C339.222 211.708 337.676 214.403 332.209 214.403C326.743 214.403 325.188 211.708 325.188 205.117Z" fill="black"/>
<path d="M344.886 200.448C344.886 202.737 346.103 203.072 348.759 203.829C351.83 204.696 353.702 205.914 353.702 209.178C353.702 213.006 351.384 214.403 347.242 214.403C345.318 214.403 343.886 214.232 342.462 213.935L342.708 211.888C344.094 212.091 345.826 212.248 347.166 212.248C349.483 212.248 351.108 211.732 351.108 209.272C351.108 207.117 349.537 206.617 347.451 205.977C344.248 205.001 342.377 204.118 342.377 200.791C342.377 197.051 344.602 195.832 348.59 195.832C350.291 195.832 352.047 196.043 353.325 196.293L353.094 198.284C351.984 198.12 350.66 197.955 349.406 197.955C347.304 197.955 344.886 198.167 344.886 200.448Z" fill="black"/>
<path d="M78.4129 167.758C78.0673 168.266 77.4002 168.548 76.5361 168.548H70.0345L70.0207 176.176C70.0207 176.646 69.6405 177.022 69.1808 177.022H68.0264C67.5632 177.022 67.1865 176.646 67.1865 176.176L67.1968 168.548H64.1586C64.6494 167.448 64.6425 166.139 64.1206 164.802L61.5871 158.427L68.092 143.199C68.3305 142.628 68.5379 142.161 68.7073 141.802C68.9631 142.321 69.2257 142.937 69.3433 143.202L78.4613 165.711C78.7758 166.522 78.7585 167.249 78.4129 167.758ZM61.7979 167.709C61.5214 168.158 60.9822 168.437 60.2909 168.517C59.5927 168.437 59.05 168.158 58.7701 167.705C58.459 167.201 58.4486 166.494 58.7562 165.711L60.2632 161.808L61.8152 165.714C62.1159 166.501 62.1124 167.208 61.7979 167.709ZM56.4128 168.548H53.3711L53.3815 176.176C53.3815 176.646 53.0048 177.022 52.5416 177.022H51.3872C50.9275 177.022 50.5473 176.646 50.5473 176.176L50.5334 173.13V168.548H44.0319C43.1678 168.548 42.5007 168.266 42.1551 167.758C41.8094 167.249 41.7921 166.522 42.0998 165.728L51.2143 143.23C51.3353 142.948 51.6049 142.328 51.8607 141.802C52.0301 142.161 52.2374 142.628 52.4759 143.206L58.9049 158.43L56.4474 164.802C55.9289 166.135 55.9185 167.448 56.4128 168.548ZM80.7633 164.784L71.6245 142.231C70.7224 140.145 70.0518 138.655 68.6865 138.648C67.2971 138.662 66.6403 140.236 65.8108 142.22L60.2494 155.234L54.7606 142.231C53.9276 140.236 53.2709 138.662 51.8814 138.648C50.5196 138.662 49.8456 140.145 48.9296 142.259L39.7978 164.802C39.186 166.382 39.3001 167.974 40.1089 169.164C40.9177 170.358 42.3486 171.044 44.0319 171.044H48.0552L48.0725 176.176C48.0725 178.021 49.5587 179.522 51.3872 179.522H52.5416C54.3701 179.522 55.8598 178.021 55.8598 176.176V173.662C55.8598 173.579 55.8563 173.485 55.8494 173.398V171.044H59.8969C60.0317 171.044 60.1596 171.034 60.2874 171.027C60.4119 171.034 60.5363 171.044 60.6711 171.044H64.7186V173.398C64.7082 173.485 64.7082 173.579 64.7082 173.662V176.176C64.7082 178.021 66.1979 179.522 68.0264 179.522H69.1808C71.0058 179.522 72.4955 178.021 72.4955 176.176L72.5128 171.044H76.5361C78.2193 171.044 79.6503 170.358 80.4591 169.164C81.2679 167.974 81.382 166.382 80.7633 164.784Z" fill="black"/>
<path d="M98.8557 172.11C98.8139 172.166 98.7756 172.225 98.7372 172.281C98.1481 173.053 97.5276 173.797 96.8863 174.524C96.6841 174.751 96.4749 174.964 96.2693 175.187C95.8092 175.683 95.3421 176.169 94.861 176.64C94.6066 176.888 94.3486 177.126 94.0907 177.363C93.6201 177.804 93.1391 178.226 92.6441 178.638C92.3792 178.862 92.1177 179.086 91.8458 179.299C91.2916 179.739 90.7199 180.161 90.1378 180.57C89.9217 180.727 89.7091 180.888 89.4895 181.038C88.7121 181.566 87.9174 182.072 87.1017 182.54C80.2905 189.806 70.7011 193.966 60.7562 193.966C59.7523 193.966 58.7171 193.924 57.6888 193.833C57.2077 193.959 56.7197 194.057 56.2352 194.165C55.9459 194.228 55.6566 194.305 55.3603 194.361C54.9071 194.451 54.447 194.514 53.9904 194.588C52.8889 194.762 51.7804 194.902 50.6684 194.986C50.6161 194.986 50.5638 194.993 50.5116 195C49.9434 195.038 49.3717 195.045 48.7966 195.059C48.5456 195.066 48.2911 195.087 48.0367 195.087C47.9739 195.087 47.9147 195.094 47.8519 195.094C47.6637 195.094 47.4789 195.073 47.2907 195.066C46.5134 195.059 45.7395 195.024 44.9692 194.968C44.6346 194.944 44.3069 194.916 43.9723 194.881C43.1636 194.801 42.3583 194.699 41.5566 194.567C41.3754 194.539 41.1906 194.521 41.0094 194.486C40.1728 194.34 39.3431 194.168 38.5205 193.966C45.4119 201.207 54.8548 205.29 64.9775 205.29C85.1671 205.29 101.589 188.831 101.589 168.599C101.589 168.393 101.589 168.18 101.585 167.971C101.369 168.351 101.128 168.715 100.898 169.088C100.735 169.357 100.574 169.626 100.403 169.892C99.9119 170.65 99.3995 171.39 98.8557 172.11Z" fill="black"/>
<path d="M52.2846 117.271C52.6466 117.313 53.0051 117.355 53.3636 117.407C53.8161 117.47 54.2652 117.546 54.7142 117.63C55.0658 117.689 55.4208 117.752 55.7758 117.825C56.2283 117.919 56.6774 118.031 57.1264 118.139C57.4675 118.223 57.8052 118.299 58.1463 118.393C58.6092 118.522 59.0757 118.665 59.5351 118.812C59.8484 118.909 60.1652 119 60.4715 119.104C60.9831 119.279 61.4844 119.477 61.9891 119.672C62.2432 119.77 62.5008 119.861 62.7514 119.962C63.4998 120.275 64.2377 120.606 64.9687 120.965C65.0348 120.997 65.0975 121.035 65.1671 121.066C65.7936 121.38 66.4202 121.704 67.0328 122.053C78.2654 124.029 87.9769 131.299 93.0798 141.555C93.7202 142.228 94.3329 142.925 94.9246 143.636C95.0917 143.838 95.2483 144.05 95.4119 144.256C95.847 144.8 96.2682 145.354 96.672 145.915C96.8669 146.194 97.0549 146.473 97.2428 146.751C97.5944 147.271 97.9355 147.8 98.2592 148.337C98.4368 148.626 98.6108 148.919 98.7814 149.215C99.1086 149.794 99.4218 150.386 99.7212 150.982C99.85 151.233 99.9822 151.481 100.104 151.732C100.508 152.585 100.887 153.446 101.228 154.324C101.274 154.436 101.308 154.554 101.35 154.666C101.639 155.436 101.907 156.217 102.151 157.008C102.245 157.308 102.321 157.614 102.408 157.918C102.516 158.308 102.638 158.691 102.736 159.085C103.745 155.701 104.253 152.188 104.253 148.595C104.253 128.413 87.8551 111.991 67.6942 111.991C61.098 111.991 54.7699 113.72 49.1797 117.027C49.399 117.034 49.6183 117.055 49.8376 117.069C50.203 117.086 50.5651 117.111 50.9271 117.139C51.383 117.174 51.8321 117.219 52.2846 117.271Z" fill="black"/>
<path d="M92.7056 175.968C92.9473 175.739 93.1989 175.524 93.4339 175.288C93.5697 175.155 93.7054 175.028 93.8379 174.894C94.4272 174.285 95.0032 173.659 95.5528 173.012C95.672 172.871 95.7813 172.73 95.8972 172.589C96.3574 172.033 96.7977 171.463 97.2248 170.879C97.344 170.72 97.4665 170.559 97.5823 170.397C98.0757 169.696 98.5491 168.982 98.9961 168.25C99.0821 168.106 99.1649 167.954 99.251 167.806C99.6251 167.177 99.976 166.529 100.314 165.874C100.406 165.691 100.506 165.508 100.595 165.322C100.949 164.604 101.277 163.872 101.588 163.129C101.482 162.334 101.357 161.546 101.204 160.768C101.165 160.56 101.122 160.36 101.075 160.159C100.926 159.448 100.757 158.744 100.569 158.048C100.526 157.879 100.483 157.706 100.433 157.537C100.201 156.717 99.9396 155.904 99.6516 155.105C99.5887 154.929 99.5192 154.753 99.4496 154.574C99.2013 153.909 98.9298 153.251 98.6451 152.6C98.5656 152.424 98.4928 152.248 98.4134 152.075C98.0591 151.308 97.6817 150.555 97.2778 149.816C97.195 149.665 97.1089 149.52 97.0261 149.372C96.844 149.049 96.6421 148.739 96.4501 148.422C97.142 151.322 97.4896 154.317 97.4896 157.379C97.4896 163.992 95.821 170.386 92.7056 175.968Z" fill="black"/>
<path d="M29.0514 184.462C28.9849 184.308 28.929 184.147 28.8625 183.993C28.5476 183.239 28.2502 182.475 27.9808 181.707C27.8688 181.385 27.7744 181.062 27.6729 180.74C27.477 180.119 27.288 179.492 27.1236 178.861C27.0256 178.5 26.9382 178.139 26.8542 177.774C26.7107 177.157 26.5848 176.537 26.4728 175.909C26.4028 175.548 26.3399 175.184 26.2804 174.819C26.1789 174.146 26.1019 173.469 26.0355 172.793C26.004 172.47 25.962 172.155 25.9375 171.832C25.864 170.833 25.815 169.831 25.815 168.818C25.815 168.555 25.8185 168.289 25.8255 168.026C24.8809 164.752 24.4015 161.351 24.4015 157.92C24.4015 151.105 26.2944 144.466 29.8771 138.71C30.1326 137.753 30.43 136.807 30.7553 135.871C30.8498 135.605 30.9618 135.345 31.0632 135.075C31.3221 134.385 31.5951 133.698 31.8924 133.018C32.0429 132.678 32.2073 132.345 32.3648 132.008C32.6517 131.412 32.9456 130.823 33.2605 130.241C33.4424 129.901 33.6314 129.565 33.8238 129.232C34.1562 128.654 34.5061 128.093 34.8699 127.532C35.0659 127.227 35.2583 126.918 35.4647 126.62C35.8986 125.989 36.3569 125.372 36.8293 124.77C36.9867 124.566 37.1301 124.356 37.2946 124.16C37.9349 123.364 38.6101 122.593 39.3134 121.85C39.4673 121.681 39.6388 121.531 39.7997 121.366C40.2546 120.9 40.7059 120.433 41.1853 119.988C23.9642 123.105 10.9836 138.314 10.9836 156.223C10.9836 170.343 19.1148 183.172 31.5741 189.296C31.2872 188.83 31.0282 188.346 30.7623 187.869C30.6224 187.621 30.4754 187.379 30.3425 187.126C29.8771 186.253 29.4433 185.367 29.0514 184.462Z" fill="black"/>
<path d="M28.7493 175.079C28.8844 175.947 29.05 176.808 29.2425 177.661C29.2966 177.898 29.3608 178.135 29.4182 178.373C29.5872 179.066 29.773 179.751 29.9791 180.433C30.0534 180.681 30.1277 180.929 30.2054 181.174C30.4859 182.049 30.7899 182.913 31.1345 183.767C31.1582 183.821 31.1852 183.88 31.2055 183.935C31.5298 184.73 31.888 185.514 32.263 186.287C32.3779 186.528 32.5029 186.761 32.6211 186.998C32.9522 187.64 33.2968 188.267 33.6583 188.891C33.7732 189.084 33.8779 189.278 33.9928 189.467C34.432 190.193 34.8983 190.901 35.3848 191.597C36.074 191.86 36.77 192.101 37.4727 192.312C37.6248 192.36 37.7768 192.396 37.9288 192.443C38.6181 192.64 39.3141 192.819 40.01 192.972C40.1317 192.994 40.2533 193.027 40.3716 193.053C42.0439 193.395 43.7366 193.614 45.4394 193.698C45.5239 193.702 45.6151 193.709 45.7029 193.713C47.1591 193.775 48.6153 193.724 50.0681 193.596C40.9865 190.784 33.236 184.044 28.7493 175.079Z" fill="black"/>
<path d="M59.4649 121.915C59.2623 121.845 59.0597 121.781 58.8571 121.718C58.3317 121.55 57.8029 121.397 57.2706 121.253C57.1161 121.213 56.9616 121.169 56.807 121.129C55.3751 120.764 53.9157 120.483 52.4425 120.293C52.3635 120.283 52.2811 120.276 52.2021 120.263C51.5669 120.186 50.9316 120.129 50.2929 120.082C50.1246 120.072 49.9529 120.059 49.7812 120.048C49.2078 120.018 48.6343 119.998 48.054 119.995C47.8857 119.995 47.7106 119.988 47.5423 119.988C46.859 119.988 46.1584 120.018 45.4614 120.059C44.7986 120.55 44.153 121.055 43.5315 121.587C43.3667 121.728 43.2053 121.875 43.0439 122.015C42.4944 122.504 41.9656 123.002 41.4471 123.517C41.3063 123.661 41.1586 123.798 41.0179 123.942C40.4066 124.574 39.8194 125.226 39.2597 125.899C39.1395 126.043 39.0262 126.193 38.9094 126.337C38.4493 126.906 38.0097 127.488 37.5874 128.08C37.4603 128.26 37.3298 128.438 37.2062 128.618C36.7117 129.344 36.2413 130.08 35.8052 130.836C35.7331 130.956 35.6747 131.08 35.606 131.204C35.3759 131.602 35.1768 132.017 34.9673 132.428C41.4643 125.956 50.3238 122.193 59.8392 122.049C59.7121 122.009 59.5885 121.958 59.4649 121.915Z" fill="black"/>
</g>
<defs>
<clipPath id="clip0_585_8">
<rect width="511" height="325" fill="white"/>
</clipPath>
</defs>
</svg>
