<svg width="511" height="325" viewBox="0 0 511 325" fill="none" xmlns="http://www.w3.org/2000/svg">
<path d="M198.226 108.088L203.759 175.13C203.838 176.097 204.648 176.84 205.616 176.84C206.589 176.84 207.394 176.103 207.478 175.135L213.707 102.529L201.96 103.805C199.429 104.119 197.991 105.787 198.226 108.088Z" fill="black"/>
<path d="M261.608 189.167C247.681 189.104 237.08 178.211 237.096 163.991C237.122 149.792 247.77 139.076 261.823 139.112C275.88 139.149 286.497 149.912 286.471 164.08C286.445 178.347 275.666 189.225 261.608 189.167ZM269.986 129.019C257.283 126.911 246.243 130.269 237.054 140.744V99.632L228.158 100.736C225.836 101.075 225.36 101.274 225.365 103.418C225.428 133.804 225.407 165.183 225.407 195.568V198.33C225.407 198.33 225.674 198.11 226.092 197.76C227.635 196.526 231.73 193.633 236.327 193.633C242.148 193.633 246.013 195.997 249.893 197.247C249.925 197.263 249.951 197.263 249.982 197.273C262.45 202.111 277.606 199.266 286.56 191.191C299.995 179.074 302.375 156.59 291.277 141.91C285.901 134.803 278.71 130.462 269.986 129.019Z" fill="black"/>
<path d="M320.591 129.703C314.724 129.624 308.85 129.651 302.7 129.651C302.7 129.651 300.953 135.163 305.618 135.163C310.283 135.163 310.252 139.797 310.252 139.797V198.329H321.627C321.685 197.398 321.768 196.603 321.768 195.813C321.779 174.664 321.773 153.514 321.773 132.365C321.773 131.873 321.909 131.319 321.721 130.911C321.491 130.425 320.984 129.708 320.591 129.703Z" fill="black"/>
<path d="M96.5983 174.821C96.5041 175.166 96.3995 175.496 96.2949 175.825C96.2636 175.935 96.2217 176.035 96.1851 176.139C92.4562 187.362 81.7507 190.082 77.321 190.082C63.9169 190.082 62.9023 184.392 62.9023 180.025C62.9023 174.643 66.9502 171.961 73.9373 170.219C74.9258 169.958 75.9247 169.717 76.9183 169.518C77.5145 169.403 78.1212 169.319 78.7226 169.236C78.8691 169.21 79.005 169.183 79.1515 169.157C89.2974 167.437 97.456 165.35 97.456 165.35C97.7959 168.54 97.4873 171.772 96.5983 174.821ZM187.101 191.259C187.101 191.217 187.096 191.175 187.096 191.128C187.096 190.662 187.075 190.275 187.043 189.946C187.064 178.54 187.127 167.133 186.886 155.738C186.756 149.336 184.674 143.327 180.59 138.202C171.056 126.257 150.936 124.892 138.903 134.551C137.035 136.052 135.603 138.034 134.53 140.179L134.185 140.869V138.416V135.006V105.311L125.425 106.132C123.145 106.378 122.355 106.896 122.361 109.307C122.449 139.818 122.418 189.298 122.418 189.298C122.418 192.859 119.531 195.751 115.97 195.751C112.403 195.751 109.443 192.859 109.443 189.298V164.158C109.511 162.981 109.532 161.872 109.506 160.873C109.469 159.55 109.453 158.222 109.443 156.893V156.82C109.438 156.208 109.427 155.602 109.417 154.995C109.035 143.625 107.346 140.085 103.109 135.21C99.9401 131.56 94.4697 129.756 91.0076 128.94C79.9412 126.503 69.1363 128.14 58.708 133.27C58.6557 133.296 58.6034 133.328 58.5511 133.359C58.2164 133.568 57.3953 134.18 57.092 135.221C57.0449 135.519 57.0135 135.822 56.9664 136.126V140.906C56.9664 140.906 56.3127 145.806 62.1335 142.679C62.5049 142.475 62.8605 142.318 63.2057 142.203C70.6948 138.699 78.6756 137.627 87.0904 139.41C89.9145 140.001 92.9531 141.46 95.0136 143.432C100.092 148.301 98.2352 155.779 91.5619 157.782C87.6657 158.954 83.555 159.493 79.5019 160.052C72.9698 160.946 66.49 161.924 60.7267 165.418C53.8495 169.586 50.9155 176.526 52.3589 185.103C53.5461 192.163 58.6452 197.461 66.3017 198.837C70.0515 199.511 74.0053 199.71 77.797 199.365C86.0235 198.633 92.8955 195.155 97.5763 188.048C97.8116 187.697 98.1463 187.394 98.6902 186.803V187.671C98.6902 191.703 100.05 195.406 102.314 198.387C103.815 200.364 105.714 202.027 107.905 203.23C110.436 204.621 113.344 205.421 116.435 205.421C120.755 205.421 124.709 203.878 127.779 201.31C128.819 200.448 129.74 199.459 130.566 198.387C132.825 195.406 134.185 191.703 134.185 187.671C134.175 178.827 134.18 166.621 134.295 159.425C134.473 147.694 143.28 139.054 154.817 138.934C166.621 138.798 174.769 146.659 175.182 158.907C175.444 166.61 175.292 174.324 175.318 182.033C175.323 184.517 175.313 187.002 175.313 189.491V198.539H192.807C192.807 198.539 187.174 198.439 187.101 191.259Z" fill="black"/>
<path d="M423.359 187.645C409.772 187.645 398.763 176.636 398.763 163.054C398.763 149.467 409.772 138.463 423.359 138.463C436.941 138.463 447.95 149.467 447.95 163.054C447.95 176.636 436.941 187.645 423.359 187.645ZM423.359 126.409C403.12 126.409 386.714 142.82 386.714 163.054C386.714 166.04 387.08 168.943 387.754 171.725C387.754 171.72 387.744 171.715 387.744 171.715C387.744 180.517 380.616 187.645 371.819 187.645C363.022 187.645 355.889 180.517 355.889 171.715C355.873 162.254 355.852 151.078 355.863 141.607C355.868 140.749 355.873 138.85 355.873 138.85H358.488C365.69 138.85 375.088 138.887 382.284 138.793C383.027 138.782 384.318 138.113 384.413 137.585C384.857 135.054 384.967 132.465 385.223 129.62H382.012C374.648 129.62 365.59 129.573 358.227 129.651C356.443 129.672 355.769 129.191 355.816 127.313L355.847 105.311C352.469 105.704 348.724 106.201 345.649 106.452C344.117 106.572 343.777 107.267 343.803 108.648C343.866 112.973 343.73 122.46 343.866 126.78C343.923 128.584 343.295 129.207 341.57 129.374C337.187 129.803 332.768 129.656 328.291 129.656V133.903C328.291 135.441 329.494 137.083 331.021 137.224C340.325 138.097 343.824 138.599 343.824 143.578V146.517C343.824 155.9 343.839 171.715 343.839 171.715C343.839 187.169 356.365 199.695 371.819 199.695C381.735 199.695 390.448 194.527 395.416 186.745C402.137 194.663 412.157 199.695 423.359 199.695C443.594 199.695 460 183.289 460 163.054C460 142.82 443.594 126.409 423.359 126.409Z" fill="black"/>
<path d="M316.035 105.228C311.856 105.228 308.472 108.612 308.472 112.791C308.472 116.969 311.856 120.358 316.035 120.358C320.213 120.358 323.597 116.969 323.597 112.791C323.597 108.612 320.213 105.228 316.035 105.228Z" fill="black"/>
<path d="M213.247 192.16C213.247 187.981 209.863 184.592 205.684 184.592C201.506 184.592 198.117 187.981 198.117 192.16C198.117 196.339 201.506 199.722 205.684 199.722C209.863 199.722 213.247 196.339 213.247 192.16Z" fill="black"/>
<path d="M210.073 225.035V226.515H201.434V214.612H209.833V216.087H203.133V219.743H209.101V221.191H203.133V225.035H210.073Z" fill="black"/>
<path d="M217.183 225.153L217.815 223.824C218.699 224.625 220.211 225.205 221.743 225.205C223.804 225.205 224.687 224.405 224.687 223.369C224.687 220.462 217.475 222.297 217.475 217.873C217.475 216.037 218.903 214.473 222.031 214.473C223.422 214.473 224.871 214.845 225.859 215.53L225.299 216.89C224.264 216.225 223.087 215.917 222.031 215.917C220.007 215.917 219.139 216.769 219.139 217.81C219.139 220.713 226.351 218.898 226.351 223.27C226.351 225.085 224.891 226.648 221.743 226.648C219.918 226.648 218.14 226.037 217.183 225.153Z" fill="black"/>
<path d="M236.474 216.087H232.395V214.612H242.243V216.087H238.158V226.515H236.474V216.087Z" fill="black"/>
<path d="M255.304 211.43H257.375L254.52 213.642H252.993L255.304 211.43ZM249.211 221.377V214.609H250.911V221.314C250.911 223.95 252.124 225.137 254.263 225.137C256.408 225.137 257.631 223.95 257.631 221.314V214.609H259.284V221.377C259.284 224.834 257.391 226.648 254.248 226.648C251.115 226.648 249.211 224.834 249.211 221.377Z" fill="black"/>
<path d="M273.128 225.035C276.067 225.035 277.955 223.231 277.955 220.564C277.955 217.891 276.067 216.087 273.128 216.087H269.912V225.035H273.128ZM268.212 214.612H273.233C277.056 214.612 279.655 217.028 279.655 220.564C279.655 224.099 277.056 226.515 273.233 226.515H268.212V214.612Z" fill="black"/>
<path d="M287.703 214.612H289.403V226.515H287.703V214.612Z" fill="black"/>
<path d="M308.404 220.562C308.404 217.926 306.433 215.986 303.792 215.986C301.124 215.986 299.147 217.926 299.147 220.562C299.147 223.198 301.124 225.138 303.792 225.138C306.433 225.138 308.404 223.198 308.404 220.562ZM297.448 220.562C297.448 217.079 300.136 214.474 303.792 214.474C307.421 214.474 310.104 217.058 310.104 220.562C310.104 224.066 307.421 226.65 303.792 226.65C300.136 226.65 297.448 224.05 297.448 220.562Z" fill="black"/>
</svg>
