<svg width="511" height="325" viewBox="0 0 511 325" fill="none" xmlns="http://www.w3.org/2000/svg">
<path d="M72.9249 148.045L85.4442 175.38H60.4264L72.9249 148.045ZM52.2833 178.42L46.0219 192.088H52.7601L57.6249 181.504H88.2477L93.1012 192.088H99.8363L73.3779 134.381H72.3395L53.921 174.825L53.9215 174.826L52.2833 178.42Z" fill="black"/>
<path d="M294.603 179.487C285.351 179.342 277.869 171.784 277.869 162.5C277.869 153.216 285.351 145.658 294.603 145.512C303.854 145.658 311.336 153.216 311.336 162.5C311.336 171.784 303.854 179.342 294.603 179.487ZM294.603 132.792C278.338 132.938 265.148 146.201 265.148 162.5C265.148 178.798 278.338 192.062 294.603 192.208C310.868 192.062 324.057 178.798 324.057 162.5C324.057 146.201 310.868 132.938 294.603 132.792Z" fill="black"/>
<path d="M119.766 134.381H113.586V192.088H119.71V145.203L151.802 192.088H157.621V134.381H151.498V180.773L119.766 134.381Z" fill="black"/>
<path d="M101.641 192.088H107.765V134.381H101.641V192.088Z" fill="black"/>
<path d="M250.108 134.283H237.576V191.857H272.109V180.97H250.108V134.283Z" fill="black"/>
<path d="M392.881 173.86L402.027 152.558L411.406 173.86H392.881ZM399.287 134.283L372.819 191.677H385.65L389.201 184.054H415.061L418.613 191.677H431.444L404.888 134.283H399.287Z" fill="black"/>
<path d="M443.977 134.283H431.445V191.857H465.978V180.97H443.977V134.283Z" fill="black"/>
<path d="M359.522 179.117C358.465 180.424 356.911 181.144 355.138 181.144H353.704H342.069H340.636V168.591H342.069H353.623H355.056C358.402 168.591 360.928 171.311 360.928 174.918C360.928 176.503 360.427 177.993 359.522 179.117ZM340.636 146.268H344.65H349.696H353.71C356.57 146.268 358.726 148.504 358.726 151.471C358.726 152.788 358.293 154.03 357.507 154.965C356.604 156.04 355.28 156.632 353.78 156.632H349.766H344.65H340.636V146.268ZM359.339 162.612C365.72 161.18 370.497 155.503 370.497 148.69C370.497 140.798 364.099 134.399 356.207 134.399H328.709V162.98V191.677H358.231C366.288 191.677 372.819 185.145 372.819 177.088C372.819 169.411 366.869 163.188 359.339 162.612Z" fill="black"/>
<path d="M203.686 168.153H211.244L204.201 175.242C201.094 177.988 197.104 179.501 192.964 179.501C183.588 179.501 175.963 171.874 175.963 162.499C175.963 153.125 183.588 145.499 192.964 145.499C197.975 145.499 202.596 147.69 205.803 151.45H220.539C215.978 140.101 205.186 132.778 192.964 132.778C176.576 132.778 163.242 146.111 163.242 162.499C163.242 178.888 176.576 192.222 192.964 192.222C202.146 192.222 210.619 188.121 216.085 181.109L219.081 178.115V185.804H231.79L231.955 155.431H203.686V168.153Z" fill="black"/>
</svg>
