<svg width="511" height="325" viewBox="0 0 511 325" fill="none" xmlns="http://www.w3.org/2000/svg">
<g clip-path="url(#clip0_661_2)">
<path fill-rule="evenodd" clip-rule="evenodd" d="M211.139 134.977C206.708 134.977 205.192 131.711 205.192 126.231V99.9927C205.192 84.9497 197.029 80.0523 184.202 80.0523C172.541 80.0523 163.795 85.1832 163.795 92.2964C163.795 98.3601 169.509 98.4771 169.509 98.4771C169.509 92.8795 172.774 85.0667 184.202 85.0667C197.146 85.0667 197.379 94.7455 197.379 99.9927V105.474H189.916C172.891 105.474 159.13 108.738 159.13 123.082C159.13 134.86 170.675 138.825 177.905 138.825C190.615 138.825 191.782 134.51 191.782 132.061C191.782 130.312 189.799 128.796 189.333 128.796C189.333 128.796 186.067 134.043 178.255 134.043C173.24 134.043 167.293 130.778 167.293 123.199C167.293 113.753 175.456 110.488 189.799 110.488H197.379V128.329C197.379 131.595 197.612 138.008 206.941 138.008H212.888V134.977H211.139ZM239.825 133.927C234.578 133.927 232.362 128.679 232.362 121.566V63.9596C232.362 59.7617 229.914 56.263 224.782 56.263H215.57V59.0621H218.602C221.634 59.0621 224.666 60.4612 224.666 65.5922V120.75C224.666 135.676 232.129 139.174 239.476 139.174C246.938 139.174 251.72 135.793 251.72 130.778C251.72 127.396 247.522 126.813 247.522 126.813C247.055 129.962 244.723 133.81 239.825 133.927V133.927ZM271.777 63.8431C271.777 60.6947 269.445 58.9451 266.063 58.9451C263.031 58.9451 260.466 60.6947 260.466 63.8431C260.466 66.7584 263.148 68.5074 266.063 68.5074C269.212 68.5074 271.777 66.8748 271.777 63.8431V63.8431ZM276.558 135.093C273.876 135.093 270.261 132.994 270.261 128.679V92.1799C270.261 86.4659 268.512 83.0842 261.865 83.0842H253.819V86.1162H256.618C260.699 86.1162 262.565 88.3314 262.565 92.1799V128.679C262.565 133.344 258.95 135.093 256.268 135.093H253.469V138.125H279.357V135.093H276.558ZM320.871 59.1786C320.754 58.3625 318.888 55.2136 316.672 55.2136C314.573 55.2136 314.69 56.263 314.107 58.2455C312.824 62.5602 311.541 64.5427 308.393 68.6239C306.993 70.0238 304.545 71.8893 304.545 72.8223C304.545 73.5219 304.661 73.6384 306.061 73.6384C310.492 73.6384 320.871 64.4262 320.871 59.1786V59.1786ZM338.129 134.977C333.698 134.977 332.182 131.711 332.182 126.231V99.9927C332.182 84.9497 324.019 80.0523 311.192 80.0523C299.531 80.0523 290.785 85.1832 290.785 92.2964C290.785 98.3601 296.499 98.4771 296.499 98.4771C296.499 92.8795 299.764 85.0667 311.192 85.0667C324.136 85.0667 324.369 94.7455 324.369 99.9927V105.474H316.906C299.88 105.474 286.12 108.738 286.12 123.082C286.12 134.86 297.665 138.825 304.895 138.825C317.605 138.825 318.772 134.51 318.772 132.061C318.772 130.312 316.789 128.796 316.322 128.796C316.322 128.796 313.057 134.043 305.244 134.043C300.23 134.043 294.283 130.778 294.283 123.199C294.283 113.753 302.446 110.488 316.789 110.488H324.369V128.329C324.369 131.595 324.602 138.008 333.931 138.008H339.878V134.977H338.129ZM383.141 125.997C383.141 129.729 378.71 134.743 369.148 134.743C355.621 134.743 352.356 123.898 352.356 123.898C352.356 123.898 346.525 124.015 346.525 129.145C346.525 134.977 356.787 140.107 368.565 140.107C381.392 140.107 390.954 134.277 390.954 123.898C390.954 105.474 355.154 110.255 355.154 94.5121C355.154 88.7983 361.684 85.6493 369.264 85.6493C376.727 85.6493 382.675 88.6813 382.675 99.1766C383.841 99.1766 388.855 98.4771 388.855 92.2964C388.855 86.1162 383.724 80.5186 369.264 80.5186C354.921 80.5186 347.458 87.9817 347.458 95.5615C347.458 116.085 383.141 109.671 383.141 125.997V125.997Z" fill="black"/>
<path fill-rule="evenodd" clip-rule="evenodd" d="M340.909 205.143C274.005 201.938 202.857 200.897 142.682 167.473C125.517 157.938 110.686 145.763 97.8782 130.925C96.6546 129.507 95.2555 130.548 96.4092 132.066C107.225 146.33 122.005 157.826 137.235 167.006C159.453 180.396 184.196 189.314 209.254 195.677C252.539 206.666 297.91 212.083 342.576 210.132C345.621 209.998 343.007 205.24 340.909 205.143V205.143Z" fill="black"/>
<path fill-rule="evenodd" clip-rule="evenodd" d="M97.8594 134.764C114.927 132.766 129.815 143.538 146.303 145.703C147.22 145.822 146.834 144.562 146.529 144.186C135.253 130.346 113.816 122.437 97.7232 132.866C96.8238 133.45 98.331 135.452 99.215 135.151C108.091 132.132 115.992 127.038 124.297 122.802C132.376 118.68 141.567 117.332 149.391 112.607C150.151 112.145 149.107 110.868 148.704 110.588C139.385 104.144 126.95 105.766 117.034 109.791C107.073 113.833 96.9364 122.076 95.3187 133.311C95.1671 134.363 97.3007 136.046 97.4418 134.684C98.5836 123.702 108.042 116.057 117.572 111.957C126.947 107.926 139.61 106.399 148.436 112.507C148.207 111.835 147.977 111.162 147.749 110.49C140.155 115.076 131.256 116.447 123.358 120.333C114.886 124.501 106.994 129.905 97.929 132.771C98.4257 133.533 98.9233 134.294 99.4189 135.055C114.48 125.763 134.707 131.851 145.364 145.088C145.441 144.584 145.516 144.078 145.591 143.572C128.968 141.256 114.133 130.234 96.8243 132.847C95.8563 132.993 97.0158 134.862 97.8594 134.764V134.764Z" fill="black"/>
<path fill-rule="evenodd" clip-rule="evenodd" d="M96.0927 133.823C95.4219 142.29 97.4453 151.16 99.7078 159.27C102.174 168.104 105.825 176.621 110.002 184.773C110.245 185.245 112.003 186.623 112.043 185.291C112.623 166.944 112.741 147.088 98.3962 133.506C97.906 133.041 97.0992 132.685 96.6192 133.331C86.6837 146.73 85.2486 163.489 83.3535 179.496C83.2463 180.417 84.9257 182.644 85.7458 181.365C93.9071 168.674 96.0578 152.628 97.2763 137.901C97.3789 136.668 94.8499 134.57 94.7071 136.24C93.4727 150.796 91.764 166.788 83.4375 179.225C84.2343 179.849 85.0324 180.473 85.8295 181.096C86.8692 173.282 87.633 165.419 89.3874 157.722C91.2259 149.671 94.6654 142.561 99.1388 135.667C98.5468 135.609 97.9555 135.55 97.3619 135.492C110.719 147.54 110.468 167.284 109.782 183.829C110.465 184.002 111.145 184.175 111.827 184.348C107.931 176.602 104.597 168.608 102.146 160.285C99.6602 151.849 98.7897 143.411 97.8207 134.718C97.7529 134.102 96.1832 132.67 96.0927 133.823V133.823Z" fill="black"/>
<path fill-rule="evenodd" clip-rule="evenodd" d="M94.7901 138.859C90.353 144.023 84.3754 146.672 77.568 146.337C70.4565 145.989 64.6636 142.279 60.8308 136.425C60.5838 136.047 59.894 136.008 60.1028 136.6C65.0347 150.544 89.4203 154.882 96.4159 140.637C96.7571 139.939 95.419 138.129 94.7901 138.859V138.859Z" fill="black"/>
<path fill-rule="evenodd" clip-rule="evenodd" d="M55.5284 127.949C52.5506 125.085 51.516 120.742 50.4547 116.893C49.4079 113.1 48.6122 109.215 47.0592 105.581C46.9357 105.289 46.3066 105.016 46.4905 105.516C49.1685 112.838 48.6246 123.274 55.1753 128.626C55.7985 129.136 55.9672 128.372 55.5284 127.949Z" fill="black"/>
<path fill-rule="evenodd" clip-rule="evenodd" d="M46.0327 101.351C45.3429 99.9098 44.9033 98.3717 44.3072 96.8919C44.1079 97.2591 43.9083 97.6269 43.7073 97.9923C49.0316 99.1503 54.2964 97.6169 59.5343 96.7361C65.5046 95.7308 71.155 96.322 77.0169 97.6786C82.3623 98.9188 87.3893 101.233 91.3142 105.123C95.8953 109.666 97.8321 115.573 99.209 121.683C99.3558 122.33 101.346 124.263 101.351 122.791C101.376 116.895 98.215 111.205 94.6885 106.656C91.1409 102.077 86.6057 98.8876 81.181 96.8889C75.8377 94.9175 69.4222 93.6419 63.7282 93.9192C56.7723 94.2596 49.8886 96.5877 42.897 95.565C42.0701 95.4437 42.1487 96.5249 42.4358 96.9812C43.4148 98.5415 44.2447 100.185 45.3174 101.685C45.6966 102.214 46.3496 102.009 46.0327 101.351V101.351Z" fill="black"/>
<path fill-rule="evenodd" clip-rule="evenodd" d="M75.9716 147.084C72.0919 147.108 68.3842 146.968 64.6491 145.807C60.715 144.585 57.117 142.413 53.9184 139.853C50.8014 137.359 48.0941 134.409 45.6921 131.231C43.3267 128.104 40.6167 124.431 39.1057 120.811C39.0223 121.064 38.94 121.319 38.8566 121.574C42.9272 120.691 46.9707 120.23 50.9755 121.667C52.0884 122.064 51.5037 120.287 50.7816 120.035C46.5409 118.559 42.2672 119.032 37.9436 119.886C37.5972 119.955 37.6061 120.397 37.6958 120.651C39.0613 124.616 41.5633 128.259 43.9889 131.656C46.5742 135.275 49.6726 138.575 53.1205 141.381C59.3443 146.447 68.4186 150.75 76.5861 148.493C77.2851 148.299 76.4751 147.081 75.9716 147.084V147.084Z" fill="black"/>
<path fill-rule="evenodd" clip-rule="evenodd" d="M82.5411 147.581C78.8502 145.881 75.156 144.861 71.8047 142.426C68.955 140.355 66.6846 137.509 64.7994 134.563C60.7989 128.312 58.1859 121.279 54.4917 114.853C54.1505 115.014 53.8078 115.173 53.465 115.333C55.0743 117.461 59.3564 116.554 61.5686 116.321C65.5945 115.899 69.1357 115.167 73.1603 116.02C78.6953 117.194 83.8379 120.416 87.5616 124.625C89.4631 126.777 91.0174 129.307 92.0097 132.002C93.0042 134.707 93.1624 137.534 93.57 140.349C93.6686 141.039 95.4702 142.799 95.6113 141.407C96.1202 136.375 93.6597 130.804 90.9075 126.722C87.9397 122.321 83.9427 118.884 79.2245 116.476C75.3288 114.487 70.6605 113.314 66.2892 113.843C64.232 114.091 62.1845 114.408 60.1248 114.636C59.1617 114.743 55.0775 115.583 54.3557 114.644C53.8114 113.935 52.7838 114.191 53.3293 115.124C57.3907 122.059 60.047 129.811 64.5079 136.504C66.4628 139.441 68.7644 141.984 71.5672 144.133C74.5702 146.433 78.9761 148.774 82.8279 148.826C83.6337 148.838 82.8948 147.744 82.5411 147.581V147.581Z" fill="black"/>
<path fill-rule="evenodd" clip-rule="evenodd" d="M75.6467 115.323C72.0392 110.398 67.0927 106.029 62.4195 102.144C62.5216 102.589 62.6272 103.033 62.7315 103.478C66.1004 100.411 71.7453 100.288 76.0234 100.377C78.5974 100.43 81.1666 100.736 83.6899 101.234C85.5657 101.604 87.5198 102.653 89.4313 102.71C89.9253 102.725 89.6076 102.089 89.4329 101.912C88.0173 100.484 85.9511 100.031 84.0566 99.5737C81.2272 98.8877 78.3001 98.5949 75.3981 98.4993C71.0219 98.3528 64.7519 98.4338 61.5257 101.923C61.0834 102.4 61.624 103.111 62.0295 103.405C67.0082 107.003 70.1542 112.723 75.2017 116.161C75.8926 116.63 75.9563 115.747 75.6467 115.323V115.323Z" fill="black"/>
<path fill-rule="evenodd" clip-rule="evenodd" d="M68.6072 94.2299C65.8146 91.2523 63.041 88.3056 59.4194 86.331C59.4915 86.9279 59.5635 87.5267 59.6353 88.1242C68.6754 87.9162 77.6129 90.6608 85.0953 95.7029C89.0121 98.3438 92.3633 101.741 95.0611 105.608C97.9542 109.759 100.769 115.484 100.209 120.626C100.13 121.368 101.615 122.788 101.84 121.68C102.818 116.877 99.9578 111.289 97.6305 107.227C95.0923 102.796 91.5817 98.9546 87.5929 95.7899C79.4933 89.3651 69.2664 86.1146 58.9785 86.1606C57.883 86.1642 58.6884 87.654 59.1938 87.9541C62.5242 89.9271 65.2014 92.6931 68.0769 95.2466C68.9977 96.0658 69.2109 94.8758 68.6072 94.2299V94.2299Z" fill="black"/>
<path fill-rule="evenodd" clip-rule="evenodd" d="M110.296 178.539C109.58 177.905 109.392 176.14 109.162 175.249C108.805 173.883 108.457 172.513 108.129 171.139C107.226 167.338 106.49 163.511 105.266 159.793C102.736 152.111 101.321 144.103 99.1463 136.32C99.0865 136.108 98.564 135.821 98.6404 136.192C100.388 144.634 102.683 153.083 105.224 161.316C106.456 165.307 107.139 169.451 108.184 173.494C108.591 175.074 108.776 177.805 110.084 178.944C110.445 179.255 110.571 178.784 110.296 178.539V178.539Z" fill="black"/>
<path fill-rule="evenodd" clip-rule="evenodd" d="M105.941 131.959C112.561 132.697 119.065 134.033 125.387 136.153C131.525 138.21 137.042 141.49 142.988 143.969C143.447 144.162 143.172 143.422 142.909 143.297C136.847 140.396 130.918 137.296 124.519 135.177C118.436 133.163 112.106 131.957 105.737 131.345C105.374 131.31 105.681 131.93 105.941 131.959V131.959Z" fill="black"/>
<path fill-rule="evenodd" clip-rule="evenodd" d="M97.8229 132.879C105.209 128.416 112.148 123.216 119.847 119.279C124.07 117.118 128.473 115.695 133.07 114.573C137.321 113.536 141.898 113.105 145.993 111.551C146.36 111.411 145.915 110.881 145.682 110.841C137.284 109.355 128.101 111.598 120.208 114.397C115.59 116.034 111.393 118.41 107.463 121.328C105.416 122.847 103.369 124.502 101.654 126.392C100.12 128.08 98.8534 129.847 96.8926 131.084C96.6299 131.252 97.083 131.821 97.3565 131.683C99.2069 130.754 100.43 129.142 101.733 127.585C103.186 125.848 104.949 124.411 106.705 122.992C110.733 119.739 115.178 117.166 120.018 115.333C127.938 112.332 137.455 110.062 145.92 111.554C145.817 111.319 145.713 111.08 145.61 110.844C141.524 112.396 136.959 112.888 132.719 113.924C128.324 115 124.109 116.347 120.016 118.287C111.979 122.096 104.891 127.611 97.3728 132.298C97.1228 132.453 97.5591 133.039 97.8229 132.879V132.879Z" fill="black"/>
<path fill-rule="evenodd" clip-rule="evenodd" d="M92.18 143.628C88.0105 143.552 83.9085 143.005 79.99 141.526C75.8401 139.958 72.5714 137.209 69.5481 134.047C69.4162 133.909 69.3395 134.076 69.4243 134.195C74.6573 141.617 83.652 144.608 92.4273 144.367C92.8752 144.353 92.4942 143.634 92.18 143.628Z" fill="black"/>
<path fill-rule="evenodd" clip-rule="evenodd" d="M92.9267 141.292C87.3094 140.175 82.2705 137.621 77.8139 134.058C73.6786 130.753 70.4776 126.622 67.0802 122.612C66.9714 122.482 66.7582 122.524 66.8785 122.709C72.8049 131.937 82.088 139.998 93.1242 141.887C93.4689 141.947 93.168 141.339 92.9267 141.292Z" fill="black"/>
<path fill-rule="evenodd" clip-rule="evenodd" d="M93.1839 140.252C91.6689 134.622 84.3314 131.656 79.8551 128.823C79.6173 128.673 79.6311 129.003 79.7636 129.121C83.8691 132.719 90.9517 134.537 92.7928 140.208C92.8651 140.426 93.2776 140.601 93.1839 140.252V140.252Z" fill="black"/>
<path fill-rule="evenodd" clip-rule="evenodd" d="M93.7678 137.412C92.2514 133.837 89.8734 130.816 87.1212 128.107C84.3901 125.419 80.8095 122.571 77.0159 121.651C76.751 121.588 77.0032 122.029 77.1161 122.086C84.0034 125.502 90.017 130.325 93.3745 137.43C93.4736 137.638 93.9024 137.731 93.7678 137.412V137.412Z" fill="black"/>
<path fill-rule="evenodd" clip-rule="evenodd" d="M96.6268 131.594C95.8755 127 93.4212 122.996 90.6425 119.343C87.8596 115.68 84.3797 111.685 80.4621 109.207C80.1994 109.041 80.237 109.4 80.3646 109.529C86.7121 115.963 94.1863 122.047 96.1385 131.404C96.1845 131.625 96.688 131.971 96.6268 131.594V131.594Z" fill="black"/>
<path fill-rule="evenodd" clip-rule="evenodd" d="M98.9834 127.724C98.0311 122.471 95.8815 117.601 92.5744 113.404C89.5874 109.611 85.026 105.857 80.2287 104.743C80.0532 104.701 80.2187 104.994 80.2951 105.032C84.952 107.285 88.8678 109.627 92.2088 113.688C95.4696 117.653 97.5507 122.522 98.5073 127.539C98.5503 127.766 99.0503 128.085 98.9834 127.724V127.724Z" fill="black"/>
<path fill-rule="evenodd" clip-rule="evenodd" d="M66.3614 145.808C61.3253 142.181 55.8794 139.605 51.9937 134.59C51.7356 134.257 51.4447 134.502 51.6714 134.839C55.2223 140.141 61.1809 142.769 66.3021 146.237C66.6312 146.461 66.5605 145.953 66.3614 145.808V145.808Z" fill="black"/>
<path fill-rule="evenodd" clip-rule="evenodd" d="M61.868 138.879C56.9129 136.941 53.6409 132.57 50.964 128.187C50.8541 128.005 50.4229 127.859 50.5613 128.206C52.4552 132.94 57.0886 137.664 61.9233 139.343C62.2453 139.453 62.0628 138.955 61.868 138.879V138.879Z" fill="black"/>
<path fill-rule="evenodd" clip-rule="evenodd" d="M55.1519 108.141C55.1941 107.806 54.5127 107.233 54.455 107.69C54.4125 108.026 55.0939 108.599 55.1519 108.141Z" fill="black"/>
<path fill-rule="evenodd" clip-rule="evenodd" d="M50.6501 104.63C50.5987 104.617 50.5632 104.605 50.5131 104.607C50.4221 104.613 50.3874 104.639 50.3595 104.726C50.3443 104.776 50.3449 104.813 50.3479 104.865C50.3508 105.088 50.7213 105.555 50.973 105.359C51.2246 105.164 50.8657 104.691 50.6501 104.63V104.63Z" fill="black"/>
<path fill-rule="evenodd" clip-rule="evenodd" d="M57.2554 103.882C57.2869 103.636 56.7885 103.217 56.746 103.552C56.7151 103.797 57.2135 104.216 57.2554 103.882Z" fill="black"/>
<path fill-rule="evenodd" clip-rule="evenodd" d="M53.669 101.149C53.7029 100.882 53.1596 100.426 53.1133 100.791C53.08 101.056 53.6233 101.511 53.669 101.149Z" fill="black"/>
<path fill-rule="evenodd" clip-rule="evenodd" d="M51.4553 109.283C51.4848 109.051 51.0136 108.654 50.9735 108.97C50.944 109.204 51.4152 109.601 51.4553 109.283Z" fill="black"/>
<path fill-rule="evenodd" clip-rule="evenodd" d="M59.7646 109.785C59.7868 109.609 59.4268 109.307 59.3965 109.547C59.3743 109.722 59.7342 110.026 59.7646 109.785Z" fill="black"/>
<path fill-rule="evenodd" clip-rule="evenodd" d="M54.4844 105.639C54.5212 105.347 53.9243 104.847 53.8742 105.244C53.8371 105.539 54.4338 106.038 54.4844 105.639Z" fill="black"/>
<path fill-rule="evenodd" clip-rule="evenodd" d="M58.4395 106.168C58.4157 106.178 58.3959 106.19 58.3791 106.209C58.251 106.316 58.4181 106.527 58.5094 106.59C58.54 106.614 58.5703 106.635 58.605 106.652C59.07 106.927 58.843 105.949 58.4395 106.168V106.168Z" fill="black"/>
<path fill-rule="evenodd" clip-rule="evenodd" d="M52.399 111.401C52.3874 111.407 52.3736 111.412 52.3597 111.418C52.1469 111.515 52.3297 111.829 52.4749 111.908C52.4903 111.917 52.5055 111.927 52.5233 111.935C53.0406 112.215 52.7511 111.241 52.399 111.401Z" fill="black"/>
<path fill-rule="evenodd" clip-rule="evenodd" d="M57.1718 111.662C57.1986 111.449 56.7682 111.089 56.7317 111.377C56.7049 111.589 57.1352 111.95 57.1718 111.662Z" fill="black"/>
<path fill-rule="evenodd" clip-rule="evenodd" d="M54.3316 110.985C54.3571 110.782 53.9438 110.435 53.9089 110.713C53.8831 110.916 54.2964 111.263 54.3316 110.985Z" fill="black"/>
<path fill-rule="evenodd" clip-rule="evenodd" d="M62.8661 109.078C62.8997 108.813 62.3629 108.364 62.3174 108.724C62.2841 108.988 62.8209 109.438 62.8661 109.078Z" fill="black"/>
<path fill-rule="evenodd" clip-rule="evenodd" d="M58.9994 102.658C59.0338 102.387 58.4851 101.929 58.4385 102.296C58.4047 102.564 58.9531 103.024 58.9994 102.658Z" fill="black"/>
<path fill-rule="evenodd" clip-rule="evenodd" d="M54.6374 103.463C54.6724 103.187 54.1093 102.714 54.0616 103.091C54.0267 103.367 54.5897 103.84 54.6374 103.463Z" fill="black"/>
<path fill-rule="evenodd" clip-rule="evenodd" d="M51.9764 103.324C51.8889 103.595 52.2778 104.296 52.6212 104.03C53.0442 103.702 52.0963 102.946 51.9764 103.324Z" fill="black"/>
<path fill-rule="evenodd" clip-rule="evenodd" d="M50.5492 102.341C50.5887 102.029 49.9558 101.497 49.9022 101.922C49.8626 102.234 50.4958 102.764 50.5492 102.341Z" fill="black"/>
<path fill-rule="evenodd" clip-rule="evenodd" d="M51.9498 107.11C51.9547 107.085 51.9617 107.058 51.9685 107.033C52.1001 106.533 51.0913 106.058 51.2573 106.757C51.2646 106.787 51.2716 106.818 51.2806 106.85C51.3356 107.084 51.8401 107.523 51.9498 107.11V107.11Z" fill="black"/>
<path fill-rule="evenodd" clip-rule="evenodd" d="M57.7281 109.066C57.727 109.064 57.7251 109.062 57.7253 109.06C58.192 108.518 56.8375 107.816 57.0545 108.622C57.0542 108.624 57.0537 108.627 57.0556 108.629C57.087 108.831 57.5276 109.428 57.7281 109.066V109.066Z" fill="black"/>
<path fill-rule="evenodd" clip-rule="evenodd" d="M60.3164 108.041C60.3529 107.753 59.766 107.261 59.7165 107.653C59.6802 107.942 60.2668 108.433 60.3164 108.041Z" fill="black"/>
<path fill-rule="evenodd" clip-rule="evenodd" d="M62.211 108.03C62.2378 107.819 61.8078 107.459 61.7717 107.745C61.7447 107.958 62.175 108.316 62.211 108.03Z" fill="black"/>
<path fill-rule="evenodd" clip-rule="evenodd" d="M58.9936 111.595C58.9516 111.593 58.9072 111.594 58.8649 111.593C58.2639 111.593 58.7972 112.422 59.0824 112.541C59.1295 112.562 59.1769 112.581 59.2262 112.599C59.8545 112.862 59.6056 111.595 58.9936 111.595Z" fill="black"/>
<path fill-rule="evenodd" clip-rule="evenodd" d="M61.9865 112.49C62.0163 112.256 61.5361 111.854 61.4954 112.175C61.4659 112.409 61.9458 112.811 61.9865 112.49Z" fill="black"/>
<path fill-rule="evenodd" clip-rule="evenodd" d="M63.7008 110.638C63.7333 110.382 63.2133 109.944 63.1694 110.293C63.1369 110.548 63.6569 110.987 63.7008 110.638Z" fill="black"/>
<path fill-rule="evenodd" clip-rule="evenodd" d="M62.9987 88.918C65.463 89.6612 67.9509 90.5674 70.4746 91.0765C70.7519 91.1315 70.5108 90.6627 70.3665 90.6055C67.9588 89.6763 65.3983 88.8917 62.8706 88.3563C62.5546 88.2907 62.8051 88.8584 62.9987 88.918V88.918Z" fill="black"/>
<path fill-rule="evenodd" clip-rule="evenodd" d="M187.314 213.36C204.053 206.959 222.949 205.725 240.612 203.377C259.761 200.832 278.346 196.54 296.751 190.668C315.201 184.778 333.431 178.045 351.283 170.536C359.627 167.024 367.934 163.451 376.137 159.626C384.661 155.651 392.545 150.226 401.122 146.448C402.147 145.995 401.736 147.954 401.252 148.314C394.409 153.399 386.285 157.053 378.719 160.932C370.157 165.323 361.504 169.42 352.646 173.18C334.214 181.01 315.709 188.489 296.646 194.652C278.819 200.418 260.819 205.835 242.335 209.045C232.974 210.664 223.535 211.813 214.14 213.236C204.996 214.618 195.939 216.493 186.796 217.803C184.704 218.102 186.014 213.854 187.314 213.36V213.36Z" fill="black"/>
<path fill-rule="evenodd" clip-rule="evenodd" d="M401.658 149.308C411.429 142.393 425.752 143.412 436.803 145.941C443.27 147.423 449.545 149.995 455.145 153.559C457.508 155.061 459.708 156.801 461.703 158.764C462.67 159.714 463.553 160.749 464.364 161.836C464.741 162.338 465.019 162.905 465.425 163.387C466.027 164.106 467 164.352 467.774 164.837C468.539 165.313 467.929 166.703 467.184 166.866C456.474 169.206 444.62 168.342 433.936 166.357C428.357 165.32 422.862 163.697 417.624 161.521C411.962 159.168 406.952 155.896 402.117 152.157C401.016 151.305 402.642 148.041 403.892 149.109C408.455 153.003 413.152 156.402 418.613 158.923C423.558 161.205 428.78 162.797 434.095 163.945C439.645 165.143 445.329 165.685 450.999 165.823C456.599 165.96 462.043 165.3 467.601 164.811C467.357 165.456 467.111 166.099 466.867 166.744C465.977 166.032 465.008 165.436 464.11 164.741C463.183 164.023 462.459 162.677 461.651 161.803C459.637 159.619 457.229 157.812 454.721 156.236C449.449 152.926 443.513 150.837 437.515 149.287C425.924 146.288 412.772 145.834 401.788 151.164C400.809 151.64 401.153 149.664 401.658 149.308V149.308Z" fill="black"/>
<path fill-rule="evenodd" clip-rule="evenodd" d="M420.053 144.194C432.864 137.537 444.783 129.574 452.637 117.132C461.612 102.913 463.167 85.8665 462.268 69.4304C462.849 69.1802 463.425 68.9296 464.006 68.6791C463.937 71.0015 461.707 72.7043 460.05 74.0067C456.61 76.7099 452.719 78.879 448.956 81.0917C440.013 86.3562 431.676 91.8812 424.322 99.2793C411.125 112.554 402.061 130.59 404.256 149.648C404.362 150.57 404.035 151.611 403.284 152.202C402.64 152.708 401.886 152.444 401.755 151.617C398.848 133.532 407.169 115.308 418.639 101.766C424.947 94.3187 432.591 88.155 440.991 83.215C445.306 80.6773 449.679 78.2409 453.944 75.6173C455.757 74.5048 457.535 73.3418 459.259 72.0989C459.924 71.6188 462.25 70.0355 462.268 69.4304C462.303 68.3398 463.913 66.9347 464.006 68.6791C464.915 85.6867 463.056 102.95 454.09 117.763C446.357 130.536 433.947 141.04 419.995 146.413C418.777 146.882 419.318 144.575 420.053 144.194V144.194Z" fill="black"/>
<path fill-rule="evenodd" clip-rule="evenodd" d="M403.297 149.567C402.606 147.433 404.407 145.629 405.85 144.311C408.417 141.961 411.493 140.222 414.123 137.916C421.543 131.4 428.494 124.128 434.072 115.959C439.182 108.474 443.285 100.372 447.964 92.6236C450.238 88.862 452.63 85.115 455.363 81.6683C458.134 78.1735 461.347 75.0335 462.161 70.4658C462.356 69.3736 463.797 68.97 463.527 70.3743C462.874 73.7857 461.099 76.6463 458.978 79.3405C456.309 82.7286 453.706 86.0098 451.413 89.6799C446.599 97.387 442.528 105.533 437.85 113.322C433.003 121.391 427.137 128.497 420.461 135.119C417.522 138.036 414.456 141.081 411.042 143.441C409.167 144.736 405.054 146.539 404.369 148.918C404.297 149.178 403.552 150.353 403.297 149.567V149.567Z" fill="black"/>
<path fill-rule="evenodd" clip-rule="evenodd" d="M464.377 165.707C455.931 161.865 446.574 162.136 437.644 160.314C431.987 159.16 426.641 157.15 421.296 155.026C418.603 153.955 415.88 152.926 413.038 152.346C410.005 151.728 406.82 151.739 403.739 151.702C402.194 151.682 403.088 148.358 404.399 148.447C407.136 148.628 409.899 148.626 412.621 149.023C415.538 149.45 418.256 150.359 421.008 151.398C426.6 153.513 431.923 156.372 437.685 158.014C442.461 159.373 447.499 159.678 452.403 160.332C456.801 160.919 461.416 161.481 465.182 164.017C465.724 164.38 465.033 166.005 464.377 165.707V165.707Z" fill="black"/>
<path fill-rule="evenodd" clip-rule="evenodd" d="M408.362 146.125C415.931 142.247 422.453 136.91 428.244 130.712C433.609 124.97 439.001 118.592 442.913 111.761C446.66 105.221 449.078 98.0083 452.237 91.1849C455.578 83.9585 460.658 77.6064 462.697 69.805C462.807 69.389 463.385 69.2124 463.244 69.7692C461.325 77.2383 456.641 83.3239 453.283 90.1397C449.724 97.3653 447.179 105.046 443.242 112.093C439.207 119.315 433.638 125.938 428.01 131.96C422.368 137.994 415.904 143.296 408.344 146.725C408.036 146.866 408.155 146.232 408.36 146.125H408.362Z" fill="black"/>
<path fill-rule="evenodd" clip-rule="evenodd" d="M408.831 146.13C415.772 142.616 422.173 138.612 427.902 133.315C433.89 127.78 439.18 121.406 443.389 114.424C447.478 107.642 450.6 100.324 453.838 93.1138C455.256 89.9591 456.752 86.8781 458.389 83.8304C460.284 80.3047 461.961 76.7237 462.354 72.6888C462.4 72.2279 463.163 71.6586 463.086 72.3722C462.291 79.7316 457.728 86.022 454.721 92.6132C451.291 100.126 448.015 107.716 443.786 114.83C435.814 128.237 423.458 140.732 408.818 146.625C408.552 146.732 408.662 146.216 408.831 146.13H408.831Z" fill="black"/>
<path fill-rule="evenodd" clip-rule="evenodd" d="M412.106 144.947C426.24 138.241 437.99 126.671 446.14 113.389C450.142 106.871 453.137 99.776 456.175 92.7768C458.992 86.2822 462.728 80.2464 462.509 72.9494C462.5 72.6214 463.113 71.9895 463.169 72.5482C463.886 79.4491 460.045 85.483 457.397 91.5591C454.198 98.8974 451.05 106.261 446.959 113.158C442.808 120.16 437.481 126.406 431.715 132.128C426.035 137.763 419.511 142.48 412.09 145.532C411.782 145.659 411.899 145.044 412.107 144.947H412.106Z" fill="black"/>
<path fill-rule="evenodd" clip-rule="evenodd" d="M414.132 144.619C427.882 138.505 438.077 127.925 446.589 115.75C450.481 110.181 453.82 104.246 456.381 97.9517C457.716 94.6692 458.721 91.265 459.892 87.9251C461.212 84.1597 462.344 80.3911 462.555 76.3819C462.58 75.9524 463.255 75.3974 463.244 76.0854C463.188 79.4998 462.323 82.7609 461.275 85.9908C460.103 89.6094 458.897 93.2454 457.565 96.8055C454.974 103.732 451.294 110.195 447.103 116.271C438.727 128.415 428.17 139.957 414.114 145.357C413.717 145.511 413.866 144.738 414.133 144.619H414.132Z" fill="black"/>
<path fill-rule="evenodd" clip-rule="evenodd" d="M415.548 144.534C421.839 141.593 427.89 138.322 433.32 133.955C438.754 129.583 443.116 124.066 447.15 118.418C455.241 107.091 460.332 94.2612 463.032 80.6448C463.141 80.0826 463.864 79.8591 463.743 80.5969C461.487 94.1781 455.828 107.181 447.998 118.444C444.118 124.021 439.831 129.365 434.699 133.84C429.103 138.716 422.475 142.563 415.53 145.158C415.193 145.286 415.33 144.636 415.549 144.534H415.548Z" fill="black"/>
<path fill-rule="evenodd" clip-rule="evenodd" d="M417.527 143.821C423.49 141.484 429.146 138.485 434.247 134.595C439.313 130.733 443.434 125.913 447.247 120.847C451.096 115.728 454.443 110.226 457.121 104.407C459.98 98.1995 460.932 91.6559 462.674 85.1188C462.775 84.7315 463.278 84.5419 463.187 85.086C462.104 91.527 460.691 97.9319 458.074 103.935C455.54 109.75 452.213 115.186 448.513 120.325C440.511 131.442 430.529 139.853 417.512 144.426C417.186 144.54 417.302 143.91 417.528 143.821H417.527Z" fill="black"/>
<path fill-rule="evenodd" clip-rule="evenodd" d="M462.688 73.0366C462.712 71.5752 461.85 72.3427 461.143 72.8844C460.432 73.4325 459.74 74.0032 459.058 74.5871C457.494 75.928 456.098 77.4444 454.756 79.0036C451.904 82.3178 449.506 86.0106 447.225 89.7316C442.945 96.7088 439.122 103.916 434.502 110.686C429.501 118.011 423.975 124.966 418.307 131.781C416.318 134.176 414.266 136.256 411.941 138.32C409.746 140.27 406.26 142.739 405.454 145.726C405.303 146.283 404.52 146.513 404.724 145.775C405.339 143.541 407.118 141.839 408.724 140.266C410.977 138.063 413.517 136.148 415.668 133.846C422.225 126.821 428.104 118.786 433.568 110.897C438.537 103.727 442.576 96.0331 447.125 88.606C451.005 82.2671 455.851 74.5354 462.708 71.0711C462.815 71.0175 462.911 71.1061 462.925 71.2109C463 71.8482 462.938 72.3657 462.843 72.9984C462.829 73.0913 462.683 73.1807 462.688 73.0366V73.0366Z" fill="black"/>
<path fill-rule="evenodd" clip-rule="evenodd" d="M460.987 71.6672C461.006 73.0777 459.199 74.4176 458.291 75.2647C456.14 77.2654 453.782 78.9922 451.848 81.216C445.503 88.5047 440.999 97.0674 435.701 105.095C430.955 112.284 425.708 119.13 419.992 125.578C417.204 128.727 414.202 131.659 411.326 134.727C408.074 138.201 405.903 141.872 404.763 146.509C404.646 146.992 404.061 147.209 404.138 146.551C405.006 139.134 410.974 134.02 415.808 128.941C422.083 122.345 427.791 115.229 432.981 107.754C438.026 100.486 442.199 92.6531 447.449 85.5299C449.504 82.7405 451.671 79.9726 454.303 77.7028C455.454 76.7112 456.623 75.7403 457.763 74.7355C458.37 74.2009 460.446 72.7963 460.483 71.885C460.497 71.5697 460.981 71.1589 460.987 71.6672Z" fill="black"/>
<path fill-rule="evenodd" clip-rule="evenodd" d="M459.315 73.7242C445.716 81.7455 439.96 97.157 429.846 108.591C424.399 114.747 418.172 120.151 412.779 126.356C407.865 132.01 403.567 138.102 403.765 145.858C403.775 146.331 403.071 146.901 403.032 146.174C402.667 139.651 405.661 134.413 409.439 129.33C414.818 122.096 421.757 116.187 427.913 109.65C433.905 103.285 438.362 95.8898 443.307 88.7355C447.485 82.6913 452.482 76.2162 459.333 73.0685C459.681 72.9085 459.521 73.604 459.314 73.7242H459.315Z" fill="black"/>
<path fill-rule="evenodd" clip-rule="evenodd" d="M453.581 77.462C440.164 83.0788 436.003 98.4754 427.275 108.823C422.544 114.43 416.836 119.122 411.903 124.54C406.674 130.282 403.78 136.704 401.388 144C401.253 144.408 400.721 144.414 400.852 143.923C402.591 137.472 405.234 131.429 409.489 126.234C414.651 119.936 421.039 114.793 426.433 108.709C435.539 98.4408 439.634 81.9546 453.6 76.7741C453.969 76.6368 453.836 77.3556 453.582 77.462H453.581Z" fill="black"/>
<path fill-rule="evenodd" clip-rule="evenodd" d="M443.172 83.5853C436.279 91.5145 431.549 101.051 424.358 108.748C417.352 116.242 408.42 122.551 404.658 132.414C404.59 132.589 404.337 132.706 404.338 132.431C404.343 128.789 407.708 125.206 409.906 122.599C413.749 118.043 418.141 114.078 422.356 109.878C430.421 101.848 435.34 91.4638 442.931 83.0655C443.283 82.675 443.394 83.3318 443.172 83.5853V83.5853Z" fill="black"/>
<path fill-rule="evenodd" clip-rule="evenodd" d="M439.077 85.8262C433.482 92.7433 428.24 99.9263 422.677 106.866C419.968 110.248 417.108 113.509 414.057 116.592C411.102 119.58 408.07 122.325 405.817 125.916C405.61 126.247 405.319 125.998 405.463 125.679C406.886 122.582 409.481 120.212 411.89 117.874C415.258 114.609 418.407 111.152 421.396 107.535C427.377 100.297 432.598 92.4231 438.902 85.4546C439.16 85.1716 439.225 85.6434 439.077 85.8262V85.8262Z" fill="black"/>
<path fill-rule="evenodd" clip-rule="evenodd" d="M432.64 90.9097C428.823 95.5396 425.197 100.249 421.611 105.062C419.818 107.467 417.961 109.822 415.984 112.082C413.9 114.468 411.665 116.517 409.838 119.138C409.654 119.402 409.428 119.215 409.546 118.943C410.54 116.624 412.356 114.863 414.122 113.109C416.402 110.841 418.391 108.305 420.345 105.75C424.28 100.607 427.807 94.9116 432.479 90.3884C432.771 90.1073 432.779 90.7434 432.64 90.9097V90.9097Z" fill="black"/>
<path fill-rule="evenodd" clip-rule="evenodd" d="M462.34 163.316C460.368 160.081 455.689 159.389 452.272 158.908C448.255 158.341 444.186 158.32 440.145 158.006C434.976 157.607 430.097 155.686 425.293 153.874C422.623 152.871 419.936 151.891 417.151 151.265C413.96 150.55 410.692 150.411 407.438 150.254C406.959 150.229 407.24 149.246 407.642 149.249C413.722 149.295 419.281 150.47 424.972 152.566C430.292 154.526 435.517 156.59 441.229 156.99C445.39 157.281 449.552 157.376 453.679 158.036C456.94 158.555 461.221 159.533 462.735 162.847C462.834 163.063 462.527 163.623 462.34 163.316V163.316Z" fill="black"/>
<path fill-rule="evenodd" clip-rule="evenodd" d="M459.509 160.103C457.325 157.267 453.575 156.272 450.229 155.59C446.169 154.762 441.977 154.617 437.846 154.47C433.114 154.3 428.467 153.651 423.813 152.801C418.397 151.813 412.555 149.896 407.021 150.474C406.525 150.525 406.806 149.448 407.238 149.396C412.289 148.778 417.686 150.48 422.614 151.416C428.071 152.451 433.504 153.176 439.055 153.389C443.13 153.545 447.211 153.813 451.214 154.635C454.478 155.305 458.083 156.515 459.977 159.435C460.129 159.672 459.728 160.39 459.509 160.103V160.103Z" fill="black"/>
<path fill-rule="evenodd" clip-rule="evenodd" d="M455.71 157.302C450.38 152.076 441.587 152.564 434.687 151.947C424.896 151.068 415.182 148.64 405.302 150.176C404.885 150.24 405.151 149.358 405.483 149.28C410.267 148.148 415.765 148.714 420.631 149.1C425.587 149.493 430.459 150.582 435.408 151.027C442.275 151.647 450.941 151.246 456.035 156.744C456.207 156.93 455.923 157.513 455.71 157.302V157.302Z" fill="black"/>
<path fill-rule="evenodd" clip-rule="evenodd" d="M463.994 165.215C453.809 162.845 443.337 162.259 433.03 160.619C427.881 159.801 422.809 158.616 417.887 156.898C412.954 155.178 408.5 152.332 403.494 150.835C403.075 150.707 403.444 149.703 403.88 149.821C408.895 151.176 413.379 154.141 418.253 155.932C423.14 157.73 428.274 158.806 433.401 159.645C443.701 161.328 454.132 161.907 464.289 164.445C464.606 164.524 464.332 165.29 463.994 165.215V165.215Z" fill="black"/>
<path fill-rule="evenodd" clip-rule="evenodd" d="M464.669 165.386C459.286 166.233 453.999 164.564 448.635 164.327C442.957 164.074 437.296 163.877 431.709 162.773C426.183 161.68 420.876 159.805 415.626 157.809C411.207 156.129 406.394 153.719 403.434 149.896C403.241 149.645 403.543 148.866 403.876 149.142C405.853 150.788 407.618 152.487 409.826 153.851C411.976 155.181 414.318 156.181 416.665 157.102C421.687 159.076 426.762 160.769 432.053 161.867C437.799 163.056 443.696 163.146 449.539 163.394C454.661 163.61 459.645 165.283 464.805 164.725C465.11 164.693 464.93 165.346 464.669 165.386V165.386Z" fill="black"/>
<path fill-rule="evenodd" clip-rule="evenodd" d="M91.0086 238.069C92.8619 234.154 96.6875 231.469 101.117 231.469C107.361 231.469 112.416 236.821 112.416 243.421V259.417L112.475 260.072H111.346L111.286 259.477L111.226 243.421C111.226 237.534 106.767 232.658 101.117 232.658C95.4682 232.658 91.0086 237.534 91.0086 243.421V244.016V259.417V260.012H89.8188V259.417V244.016V243.421V223.381V222.786H91.0086V223.381V238.069ZM119.552 245.74C119.552 237.772 125.498 231.469 132.634 231.469C139.83 231.469 145.716 237.772 145.716 245.74C145.716 253.709 139.83 260.012 132.634 260.012C125.498 260.012 119.552 253.709 119.552 245.74ZM120.741 245.74C120.741 252.995 126.093 258.823 132.634 258.823C139.235 258.823 144.527 252.995 144.527 245.74C144.527 238.485 139.235 232.658 132.634 232.658C126.093 232.658 120.741 238.485 120.741 245.74ZM171.643 238.624C173.002 234.392 176.569 231.469 180.742 231.469C186.093 231.469 190.435 236.285 190.435 242.47V259.417L190.494 260.072H189.364L189.305 259.477L189.245 242.47C189.245 236.999 185.499 232.658 180.742 232.658C175.985 232.658 172.238 236.999 172.238 242.47V243.064V259.417L172.298 260.072H171.168L171.108 259.477L171.059 243.064H171.049V242.47C171.049 236.999 167.302 232.658 162.545 232.658C157.788 232.658 154.042 236.999 154.042 242.47V243.064V259.417V260.012H152.852V259.417V243.064V242.47V232.063V231.469H154.042V232.063V237.137C155.687 233.728 158.878 231.469 162.545 231.469C166.718 231.469 170.286 234.392 171.643 238.624V238.624ZM221.118 253.53L222.07 254.244C220.226 256.801 216.837 260.072 210.643 260.012C203.388 260.012 197.57 253.709 197.57 245.74C197.57 237.772 203.388 231.469 210.643 231.469C217.848 231.469 223.735 237.772 223.735 245.74V246.335H223.14H198.76C199.037 253.312 204.161 258.823 210.643 258.823C216.361 258.882 219.394 255.849 221.118 253.53V253.53ZM198.76 245.145H222.545C222.545 238.485 217.253 232.658 210.643 232.658C204.161 232.658 199.037 238.168 198.76 245.145V245.145ZM254.062 245.74C254.062 237.772 260.009 231.469 267.145 231.469C272.408 231.469 276.967 234.829 279.038 239.754V232.063V231.528H280.346L280.287 232.123L280.227 259.417C280.227 263.52 275.232 269.289 267.204 269.348H266.61V268.159H267.204C274.281 268.099 279.038 263.164 279.038 259.417V251.726C276.967 256.652 272.408 260.012 267.145 260.012C260.009 260.012 254.062 253.709 254.062 245.74V245.74ZM255.252 245.74C255.252 252.995 260.604 258.823 267.145 258.823C273.745 258.823 279.038 252.995 279.038 245.74C279.038 238.485 273.745 232.658 267.145 232.658C260.604 232.658 255.252 238.485 255.252 245.74ZM287.363 245.74C287.363 237.772 292.953 231.469 299.732 231.469C304.39 231.469 308.493 234.69 310.436 239.486V232.063V231.469H311.625V232.063V245.74V259.417V260.012H310.436V259.417V251.994C308.493 256.791 304.39 260.012 299.732 260.012C292.953 260.012 287.363 253.709 287.363 245.74V245.74ZM288.552 245.74C288.552 252.995 293.548 258.823 299.732 258.823C305.619 258.823 310.436 252.935 310.436 245.74C310.436 238.545 305.619 232.658 299.732 232.658C293.548 232.658 288.552 238.485 288.552 245.74ZM322.329 239.229C324.45 234.194 329.246 231.469 335.292 231.469H335.887V232.658H335.292C327.819 232.658 322.388 237.197 322.329 245.463V245.74V246.335V259.417V260.012H321.139V259.417V246.335V245.74C321.139 245.641 321.139 245.552 321.139 245.463V232.063V231.469H322.329V232.063V239.229ZM338.86 245.74C338.86 237.772 344.807 231.469 351.942 231.469C357.205 231.469 361.764 234.829 363.835 239.754V219.576V218.981H365.025V219.576V245.74V259.417V260.012H363.835V259.417V251.726C361.764 256.652 357.205 260.012 351.942 260.012C344.807 260.012 338.86 253.709 338.86 245.74ZM340.049 245.74C340.049 252.995 345.401 258.823 351.942 258.823C358.543 258.823 363.835 252.995 363.835 245.74C363.835 238.485 358.543 232.658 351.942 232.658C345.401 232.658 340.049 238.485 340.049 245.74ZM395.709 253.53L396.661 254.244C394.817 256.801 391.428 260.072 385.233 260.012C377.978 260.012 372.16 253.709 372.16 245.74C372.16 237.772 377.978 231.469 385.233 231.469C392.438 231.469 398.325 237.772 398.325 245.74V246.335H397.731H373.35C373.627 253.312 378.751 258.823 385.233 258.823C390.952 258.882 393.985 255.849 395.709 253.53V253.53ZM373.35 245.145H397.136C397.136 238.485 391.844 232.658 385.233 232.658C378.751 232.658 373.627 238.168 373.35 245.145V245.145ZM428.058 259.417L428.117 260.072H426.988L426.928 259.477L426.869 243.421C426.869 237.534 422.409 232.658 416.76 232.658C411.11 232.658 406.651 237.534 406.651 243.421V244.016V259.417V260.012H405.461V259.417V244.016V243.421V232.063V231.469H406.651V232.063V238.069C408.504 234.154 412.33 231.469 416.76 231.469C423.004 231.469 428.058 236.821 428.058 243.421V259.417Z" fill="black" stroke="black" stroke-width="0.5669"/>
</g>
<defs>
<clipPath id="clip0_661_2">
<rect width="511" height="325" fill="white"/>
</clipPath>
</defs>
</svg>
