<svg width="511" height="325" viewBox="0 0 511 325" fill="none" xmlns="http://www.w3.org/2000/svg">
<g clip-path="url(#clip0_582_2)">
<path fill-rule="evenodd" clip-rule="evenodd" d="M205.359 82.3158C217.322 108.661 206.211 132.761 172.535 149.212C173.962 146.539 173.138 142.259 171.312 139.278C167.373 132.851 162.296 125.777 155.168 123.326C151.336 122.009 148.129 123.069 145.448 130.301C141.545 113.928 147.325 111.838 155.875 115.224C148.182 105.91 142.351 108.863 140.283 125.88C132.794 114.896 137.659 99.9745 147.018 98.6733C151.901 97.9945 156.942 101.25 161.784 107.266C159.152 95.3081 149.328 91.7132 142.405 95.528C137.589 98.182 134.686 105.341 133.308 115.557C127.843 98.9592 132.517 89.6707 142.764 82.8779C147.293 79.8759 153.095 77.8016 159.027 83.9808C165.831 91.0684 169.212 104.2 169.996 111.557C174.026 106.303 160.696 80.2473 186.676 68.0452C185.293 81.0469 194.055 84.5547 205.359 82.3158Z" fill="black"/>
<path fill-rule="evenodd" clip-rule="evenodd" d="M152.913 74.6632C166.46 81.3403 175.654 76.3079 178.471 71.6456C182.807 64.4687 180.308 58.1495 170.746 53C171.97 64.1171 166.37 71.5251 152.913 74.6632ZM198.752 78.9719C191.199 85.1415 185.065 72.9153 188.938 67.482C190.228 72.8366 193.314 76.809 198.752 78.9719Z" fill="black"/>
<path fill-rule="evenodd" clip-rule="evenodd" d="M352.588 241.397C352.608 245.173 355.47 246.657 358.708 246.657C361.806 246.657 364.847 245.461 364.847 241.727C364.847 239.067 362.794 238.076 360.76 237.478C358.708 236.88 356.674 236.674 356.674 235.539C356.674 234.569 357.661 234.281 358.451 234.281C359.576 234.281 360.78 234.714 360.721 236.055H364.393C364.373 232.734 361.55 231.31 358.747 231.31C356.102 231.31 353.003 232.568 353.003 235.787C353.003 238.489 355.115 239.437 357.128 240.036C359.161 240.634 361.175 240.882 361.175 242.181C361.175 243.275 360.029 243.687 358.924 243.687C357.365 243.687 356.339 243.13 356.26 241.397H352.588ZM343.2 246.348H346.872V231.62H343.2V246.348ZM323.881 246.348H327.653L328.541 243.708H333.456L334.325 246.348H338.154L332.884 231.62H329.153L323.881 246.348ZM330.988 235.704H331.028L332.588 240.861H329.39L330.988 235.704ZM306.675 246.348H310.13V237.169H310.17L315.065 246.348H318.837V231.62H315.382V240.696H315.342L310.446 231.62H306.675V246.348ZM290.516 238.984C290.516 236.798 291.424 234.611 293.793 234.611C296.161 234.611 297.07 236.798 297.07 238.984C297.07 241.17 296.161 243.357 293.793 243.357C291.424 243.357 290.516 241.17 290.516 238.984ZM286.844 238.984C286.844 243.254 289.351 246.657 293.793 246.657C298.235 246.657 300.742 243.254 300.742 238.984C300.742 234.714 298.235 231.31 293.793 231.31C289.351 231.31 286.844 234.714 286.844 238.984ZM277.18 246.348H280.851V231.62H277.18V246.348ZM259.223 241.397C259.244 245.173 262.106 246.657 265.343 246.657C268.443 246.657 271.483 245.461 271.483 241.727C271.483 239.067 269.43 238.076 267.397 237.478C265.343 236.88 263.31 236.674 263.31 235.539C263.31 234.569 264.297 234.281 265.087 234.281C266.212 234.281 267.416 234.714 267.357 236.055H271.029C271.009 232.734 268.186 231.31 265.384 231.31C262.738 231.31 259.639 232.568 259.639 235.787C259.639 238.489 261.751 239.437 263.764 240.036C265.797 240.634 267.811 240.882 267.811 242.181C267.811 243.275 266.666 243.687 265.56 243.687C264.001 243.687 262.975 243.13 262.896 241.397H259.223ZM242.077 241.397C242.098 245.173 244.959 246.657 248.197 246.657C251.296 246.657 254.336 245.461 254.336 241.727C254.336 239.067 252.284 238.076 250.25 237.478C248.197 236.88 246.164 236.674 246.164 235.539C246.164 234.569 247.151 234.281 247.941 234.281C249.066 234.281 250.27 234.714 250.211 236.055H253.882C253.863 232.734 251.04 231.31 248.237 231.31C245.592 231.31 242.492 232.568 242.492 235.787C242.492 238.489 244.604 239.437 246.618 240.036C248.651 240.634 250.665 240.882 250.665 242.181C250.665 243.275 249.519 243.687 248.414 243.687C246.855 243.687 245.828 243.13 245.75 241.397H242.077ZM232.689 246.348H236.361V231.62H232.689V246.348ZM216.648 246.348H220.32V240.675H226.124V237.705H220.32V234.693H227.032V231.62H216.648V246.348ZM200.449 238.984C200.449 236.798 201.358 234.611 203.726 234.611C206.095 234.611 207.003 236.798 207.003 238.984C207.003 241.17 206.095 243.357 203.726 243.357C201.358 243.357 200.449 241.17 200.449 238.984ZM196.777 238.984C196.777 243.254 199.284 246.657 203.726 246.657C208.167 246.657 210.675 243.254 210.675 238.984C210.675 234.714 208.167 231.31 203.726 231.31C199.284 231.31 196.777 234.714 196.777 238.984ZM182.75 234.693H185.671C186.698 234.693 187.527 235.189 187.527 236.281C187.527 237.396 186.935 238.015 185.829 238.015H182.75V234.693ZM179.077 246.348H182.75V240.985H185.533C187.25 240.985 187.487 242.512 187.585 243.996C187.626 244.409 187.685 245.853 188.001 246.348H191.633C191.139 245.811 191.08 243.646 191.04 243.027C190.922 241.624 190.488 239.871 188.988 239.5V239.458C190.468 238.86 191.199 237.355 191.199 235.766C191.199 232.796 188.751 231.62 186.264 231.62H179.077V246.348ZM165.247 234.693H167.715C168.84 234.693 169.689 235.25 169.689 236.632C169.689 237.973 168.86 238.468 167.715 238.468H165.247V234.693ZM161.575 246.348H165.247V241.439H168.268C171.367 241.439 173.361 240.015 173.361 236.364C173.361 232.878 170.893 231.62 168.268 231.62H161.575V246.348ZM352.677 216.149C352.636 219.78 355.689 221.389 358.948 221.389C362.95 221.389 365.074 219.367 365.074 216.665C365.074 213.323 361.774 212.643 360.702 212.374C357.009 211.425 356.307 211.281 356.307 210.146C356.307 208.908 357.504 208.476 358.536 208.476C360.082 208.476 361.34 208.93 361.444 210.703H364.579C364.579 207.3 361.754 205.959 358.679 205.959C356.019 205.959 353.173 207.403 353.173 210.415C353.173 213.179 355.38 214.024 357.566 214.602C359.731 215.18 361.939 215.448 361.939 217.036C361.939 218.542 360.207 218.872 359.071 218.872C357.339 218.872 355.812 218.109 355.812 216.149H352.677ZM339.274 213.736C339.274 211.157 340.368 208.682 343.276 208.682C346.185 208.682 347.278 211.157 347.278 213.736C347.278 216.19 346.185 218.666 343.276 218.666C340.368 218.666 339.274 216.19 339.274 213.736ZM336.036 213.736C336.036 217.985 338.717 221.389 343.276 221.389C347.835 221.389 350.516 217.985 350.516 213.736C350.516 209.362 347.835 205.959 343.276 205.959C338.717 205.959 336.036 209.362 336.036 213.736ZM323.746 209.033H326.056C329.274 209.033 330.306 210.931 330.306 213.901C330.306 217.16 328.511 218.315 326.633 218.315H323.746V209.033ZM320.507 221.038H326.861C331.358 221.038 333.544 217.861 333.544 213.592C333.544 208.702 330.677 206.31 326.861 206.31H320.507V221.038ZM299.658 213.736C299.658 211.157 300.751 208.682 303.66 208.682C306.568 208.682 307.662 211.157 307.662 213.736C307.662 216.19 306.568 218.666 303.66 218.666C300.751 218.666 299.658 216.19 299.658 213.736ZM296.419 213.736C296.419 217.985 299.101 221.389 303.66 221.389C308.219 221.389 310.9 217.985 310.9 213.736C310.9 209.362 308.219 205.959 303.66 205.959C299.101 205.959 296.419 209.362 296.419 213.736ZM289.431 202.246C289.452 202.638 289.183 202.968 288.565 202.968C288.09 202.968 287.636 202.782 287.203 202.597C286.77 202.431 286.358 202.246 285.883 202.246C284.068 202.246 283.552 203.567 283.284 204.763H284.542C284.666 204.247 284.852 203.896 285.409 203.896C285.883 203.896 286.337 204.062 286.852 204.247C287.368 204.412 287.925 204.597 288.544 204.597C289.39 204.597 289.885 204.247 290.215 203.772C290.545 203.298 290.71 202.721 290.854 202.246H289.431ZM287.059 209.94H287.1L288.956 215.345H285.14L287.059 209.94ZM279.86 221.038H283.139L284.294 217.758H289.802L290.916 221.038H294.278L288.771 206.31H285.45L279.86 221.038ZM277.595 211.26C277.204 207.857 274.48 205.959 271.242 205.959C266.683 205.959 264.002 209.362 264.002 213.736C264.002 217.696 266.332 220.915 270.334 221.327L269.344 222.75L269.777 223.245C270.004 223.162 270.313 223.101 270.602 223.101C271.056 223.101 271.428 223.245 271.428 223.761C271.428 224.256 271.098 224.462 270.602 224.462C269.901 224.462 269.303 224.277 268.87 224.091L268.437 225.081C269.221 225.349 269.695 225.535 270.994 225.535C272.211 225.535 273.408 225.081 273.408 223.472C273.408 222.461 272.439 222.028 271.51 222.028C271.159 222.028 270.933 222.07 270.809 222.131H270.767L271.304 221.389C274.894 221.347 277.389 219.017 277.719 215.365H274.583C274.337 217.305 273.222 218.666 271.242 218.666C268.334 218.666 267.24 216.19 267.24 213.736C267.24 211.157 268.334 208.682 271.242 208.682C272.851 208.682 274.254 209.796 274.46 211.26H277.595ZM254.641 209.94H254.682L256.539 215.345H252.723L254.641 209.94ZM247.442 221.038H250.721L251.877 217.758H257.384L258.498 221.038H261.861L256.353 206.31H253.033L247.442 221.038ZM241.423 221.038H244.663V206.31H241.423V221.038ZM237.591 211.26C237.2 207.857 234.477 205.959 231.239 205.959C226.679 205.959 223.998 209.362 223.998 213.736C223.998 217.985 226.679 221.389 231.239 221.389C234.848 221.389 237.385 219.037 237.715 215.365H234.58C234.333 217.305 233.218 218.666 231.239 218.666C228.33 218.666 227.236 216.19 227.236 213.736C227.236 211.157 228.33 208.682 231.239 208.682C232.847 208.682 234.25 209.796 234.456 211.26H237.591ZM209.687 213.736C209.687 211.157 210.78 208.682 213.689 208.682C216.597 208.682 217.691 211.157 217.691 213.736C217.691 216.19 216.597 218.666 213.689 218.666C210.78 218.666 209.687 216.19 209.687 213.736ZM206.449 213.736C206.449 217.985 209.13 221.389 213.689 221.389C218.248 221.389 220.929 217.985 220.929 213.736C220.929 209.362 218.248 205.959 213.689 205.959C209.13 205.959 206.449 209.362 206.449 213.736ZM191.271 216.149C191.23 219.78 194.283 221.389 197.542 221.389C201.544 221.389 203.668 219.367 203.668 216.665C203.668 213.323 200.368 212.643 199.296 212.374C195.603 211.425 194.901 211.281 194.901 210.146C194.901 208.908 196.098 208.476 197.13 208.476C198.676 208.476 199.934 208.93 200.038 210.703H203.173C203.173 207.3 200.348 205.959 197.273 205.959C194.613 205.959 191.767 207.403 191.767 210.415C191.767 213.179 193.974 214.024 196.16 214.602C198.325 215.18 200.533 215.448 200.533 217.036C200.533 218.542 198.801 218.872 197.665 218.872C195.933 218.872 194.406 218.109 194.406 216.149H191.271ZM176.383 216.149C176.341 219.78 179.394 221.389 182.654 221.389C186.655 221.389 188.78 219.367 188.78 216.665C188.78 213.323 185.479 212.643 184.407 212.374C180.714 211.425 180.013 211.281 180.013 210.146C180.013 208.908 181.21 208.476 182.241 208.476C183.788 208.476 185.046 208.93 185.15 210.703H188.285C188.285 207.3 185.459 205.959 182.385 205.959C179.724 205.959 176.878 207.403 176.878 210.415C176.878 213.179 179.085 214.024 181.271 214.602C183.437 215.18 185.644 215.448 185.644 217.036C185.644 218.542 183.912 218.872 182.777 218.872C181.045 218.872 179.518 218.109 179.518 216.149H176.383ZM167.311 209.94H167.352L169.209 215.345H165.392L167.311 209.94ZM160.112 221.038H163.391L164.547 217.758H170.054L171.168 221.038H174.53L169.023 206.31H165.702L160.112 221.038ZM358.014 260.561H358.055L359.911 265.966H356.095L358.014 260.561ZM350.814 271.659H354.094L355.249 268.379H360.757L361.871 271.659H365.233L359.726 256.931H356.405L350.814 271.659ZM338.844 259.654H341.154C344.372 259.654 345.403 261.552 345.403 264.522C345.403 267.781 343.609 268.936 341.731 268.936H338.844V259.654ZM335.605 271.659H341.958C346.455 271.659 348.641 268.482 348.641 264.212C348.641 259.323 345.774 256.931 341.958 256.931H335.605V271.659ZM318.827 271.659H321.86V261.799H321.901L328.028 271.659H331.266V256.931H328.234V266.811H328.193L322.045 256.931H318.827V271.659ZM308.837 260.561H308.878L310.734 265.966H306.918L308.837 260.561ZM301.638 271.659H304.917L306.072 268.379H311.58L312.694 271.659H316.056L310.549 256.931H307.228L301.638 271.659ZM297.031 271.659H299.094V263.696H292.906V266.11H296.165C295.979 268.152 294.762 269.287 292.658 269.287C289.75 269.287 288.656 266.811 288.656 264.357C288.656 261.778 289.75 259.303 292.658 259.303C294.184 259.303 295.402 260.149 295.773 261.778H298.867C298.517 258.437 295.67 256.58 292.658 256.58C288.099 256.58 285.418 259.983 285.418 264.357C285.418 268.606 288.099 272.01 292.658 272.01C294.081 272.01 295.567 271.453 296.701 269.988L297.031 271.659ZM276.067 260.561H276.107L277.964 265.966H274.148L276.067 260.561ZM268.867 271.659H272.147L273.302 268.379H278.81L279.924 271.659H283.286L277.779 256.931H274.458L268.867 271.659ZM259.949 259.447H262.466C263.972 259.447 265.313 259.777 265.313 261.655C265.313 263.531 263.972 263.862 262.466 263.862H259.949V259.447ZM256.711 271.659H259.949V266.378H263.353C267.025 266.378 268.448 264.047 268.448 261.655C268.448 259.262 267.025 256.931 263.353 256.931H256.711V271.659ZM241.769 264.357C241.769 261.778 242.863 259.303 245.771 259.303C248.68 259.303 249.773 261.778 249.773 264.357C249.773 266.811 248.68 269.287 245.771 269.287C242.863 269.287 241.769 266.811 241.769 264.357ZM238.531 264.357C238.531 268.606 241.213 272.01 245.771 272.01C250.33 272.01 253.012 268.606 253.012 264.357C253.012 259.983 250.33 256.58 245.771 256.58C241.213 256.58 238.531 259.983 238.531 264.357ZM226.024 259.447H229.572C231.015 259.447 231.799 260.066 231.799 261.489C231.799 262.974 231.015 263.593 229.572 263.593H226.024V259.447ZM222.785 271.659H226.024V265.903H229.262C230.892 265.903 231.49 266.584 231.717 268.132C231.882 269.307 231.841 270.731 232.233 271.659H235.471C234.894 270.834 234.914 269.101 234.852 268.173C234.749 266.688 234.296 265.14 232.707 264.728V264.686C234.337 264.027 235.038 262.727 235.038 260.995C235.038 258.766 233.367 256.931 230.727 256.931H222.785V271.659ZM210.773 259.447H213.29C214.796 259.447 216.137 259.777 216.137 261.655C216.137 263.531 214.796 263.862 213.29 263.862H210.773V259.447ZM207.534 271.659H210.773V266.378H214.177C217.849 266.378 219.272 264.047 219.272 261.655C219.272 259.262 217.849 256.931 214.177 256.931H207.534V271.659ZM176.965 271.659H188.145V268.936H180.204V265.326H187.341V262.81H180.204V259.654H187.981V256.931H176.965V271.659ZM164.918 259.654H167.228C170.447 259.654 171.478 261.552 171.478 264.522C171.478 267.781 169.683 268.936 167.806 268.936H164.918V259.654ZM161.679 271.659H168.033C172.53 271.659 174.716 268.482 174.716 264.212C174.716 259.323 171.849 256.931 168.033 256.931H161.679V271.659Z" fill="black"/>
<path fill-rule="evenodd" clip-rule="evenodd" d="M160.076 174.929V176.795H365.27V174.929H160.076Z" fill="black"/>
<path fill-rule="evenodd" clip-rule="evenodd" d="M329.113 145.043H342.599V121.184H363.524C374.439 121.184 380 112.762 380 98.5408C380 89.5586 376.593 78.2373 362.481 78.2373H329.113V145.043ZM342.599 90.4001H358.31C362.134 90.4001 366.096 91.1492 366.096 99.8504C366.096 108.833 361.23 109.02 357.059 109.02H342.599V90.4001ZM271.203 145.043H284.69V121.184H305.615C316.529 121.184 322.091 112.762 322.091 98.5408C322.091 89.5586 318.685 78.2373 304.572 78.2373H271.203V145.043ZM284.69 90.4001H300.401C304.225 90.4001 308.187 91.1492 308.187 99.8504C308.187 108.833 303.321 109.02 299.15 109.02H284.69V90.4001ZM252.919 145.043H267.449L245.619 78.2373H229.353L207.523 145.043H222.053L226.084 131.288H248.887L252.919 145.043ZM245.272 119.125H229.7L237.486 92.6461L245.272 119.125Z" fill="black"/>
</g>
<defs>
<clipPath id="clip0_582_2">
<rect width="511" height="325" fill="white"/>
</clipPath>
</defs>
</svg>
