<svg width="511" height="325" viewBox="0 0 511 325" fill="none" xmlns="http://www.w3.org/2000/svg">
<path fill-rule="evenodd" clip-rule="evenodd" d="M364.921 172.278C364.921 186.98 373.684 198.225 386.952 203.677C393.825 206.225 398.391 212.757 398.391 220.057C385.669 220.022 373.597 214.982 364.607 206.037C355.912 197.384 350.518 185.438 350.518 172.283C350.518 166.727 350.512 105.948 350.526 105.942C358.519 105.912 364.921 112.301 364.921 120.241V172.278ZM408.3 172.278C408.3 186.98 417.062 198.225 430.331 203.677C437.203 206.225 441.769 212.757 441.769 220.057C429.048 220.022 416.976 214.982 407.986 206.037C399.29 197.384 393.896 185.438 393.896 172.283C393.896 166.727 393.89 105.948 393.904 105.942C401.897 105.912 408.3 112.301 408.3 120.241V172.278ZM322.522 133.556C335.842 144.503 342.425 161.468 339.878 178.431C339.825 178.773 288.91 178.614 284.054 178.614C276.07 178.431 269.622 171.896 269.622 163.916C269.622 163.889 320.765 163.894 324.893 163.892C321.505 148.561 307.733 137.033 291.333 137.033C272.319 137.033 257.003 152.432 257.003 171.175C257.003 189.761 272.291 205.408 291.333 205.408C300.606 205.408 309.235 201.745 315.763 195.22C322.899 189.133 327.375 189.286 335.15 193.184C330.846 201.639 324.133 208.703 315.929 213.456C308.691 217.651 300.285 220.057 291.333 220.057C279.085 220.057 267.86 215.552 259.246 208.124C248.849 199.157 242.255 185.93 242.255 171.216C242.255 159.634 246.345 148.969 253.16 140.581C256.73 136.187 261.049 132.417 265.919 129.468C283.635 118.734 306.513 120.4 322.522 133.556ZM104.085 132.695C106.993 125.681 113.903 121.082 121.537 121.138C129.862 121.199 136.908 126.709 139.269 134.23L171.843 219.089C164.267 221.978 155.721 218.19 152.81 210.656L152.809 210.656L146.182 193.382L127.852 193.38C119.868 193.197 113.421 186.663 113.421 178.682C113.421 178.637 138.015 178.672 140.539 178.673L124.895 137.896C124.211 136.641 122.876 135.821 121.428 135.81C119.752 135.797 118.21 136.87 117.653 138.439L88.6461 210.833C85.5184 218.147 77.0316 221.687 69.5811 218.73C69.5419 218.73 100.65 141.255 104.085 132.695ZM180.246 208.5C183.155 215.514 190.066 220.112 197.699 220.057C206.024 219.997 213.07 214.486 215.432 206.965L248.005 122.107C240.428 119.218 231.883 123.005 228.972 130.539L201.057 203.299C200.374 204.555 199.038 205.375 197.59 205.386C195.915 205.398 194.372 204.326 193.816 202.756L164.808 130.362C161.82 123.373 152.769 119.134 145.722 122.474L180.246 208.5Z" fill="black"/>
</svg>
