<svg width="511" height="325" viewBox="0 0 511 325" fill="none" xmlns="http://www.w3.org/2000/svg">
<g clip-path="url(#clip0_648_76)">
<g clip-path="url(#clip1_648_76)">
<mask id="mask0_648_76" style="mask-type:alpha" maskUnits="userSpaceOnUse" x="-75" y="-168" width="661" height="661">
<path d="M-75 -168H586V493H-75V-168Z" fill="white"/>
</mask>
<g mask="url(#mask0_648_76)">
<path d="M396.597 211.078H393.733L394.515 209.257L432.252 123.371C432.643 122.46 434.204 122.46 434.594 123.371L472.332 209.257L473.112 211.078H470.25L433.423 127.145L396.597 211.078Z" fill="black"/>
<path d="M470.432 210.825H472.727L472.098 209.356L434.361 123.473C434.223 123.15 433.855 122.942 433.423 122.942C432.99 122.942 432.623 123.149 432.485 123.471L394.747 209.358L394.118 210.825H396.413L433.423 126.514L470.432 210.825ZM473.497 211.332H470.067L433.423 127.776L396.78 211.332H393.348L394.281 209.156L432.019 123.269C432.24 122.755 432.778 122.434 433.423 122.434C434.069 122.434 434.607 122.755 434.827 123.271L472.565 209.154L473.497 211.332Z" fill="black"/>
<path d="M181.212 125.828C156.983 124.715 137.031 144.666 138.144 168.895C139.115 190.019 156.222 207.126 177.345 208.098C201.576 209.213 221.529 189.259 220.415 165.029C219.443 143.905 202.336 126.799 181.212 125.828ZM181.373 211.534C155.121 212.74 133.502 191.121 134.709 164.868C135.761 141.981 154.297 123.445 177.185 122.392C203.438 121.186 225.057 142.804 223.85 169.057C222.798 191.946 204.262 210.481 181.373 211.534Z" fill="black"/>
<path d="M219.508 111.113H139.051V107.582H205.372L147.794 76.9058L149.454 73.7898L219.508 111.113Z" fill="black"/>
<path d="M209.105 260.662L139.051 223.338H219.508V226.87H153.188L210.765 257.547L209.105 260.662Z" fill="black"/>
<path d="M379.923 211.33L348.689 167.921H351.687C358.481 167.921 364.165 165.634 368.123 161.307C371.64 157.464 373.577 152.275 373.577 146.698C373.577 136.476 366.727 125.475 351.687 125.475H313.735V211.324H310.663V122.404H351.687C359.366 122.404 365.834 125.035 370.389 130.014C374.426 134.426 376.649 140.351 376.649 146.698C376.649 153.045 374.426 158.97 370.389 163.382C366.421 167.719 361 170.276 354.592 170.862L383.768 211.329L379.923 211.33Z" fill="black"/>
<path d="M237.468 208.518H273.971C281.418 208.518 287.67 206.248 292.051 201.954C295.937 198.144 298.077 193.015 298.077 187.512C298.077 182.008 295.937 176.88 292.051 173.07C289.4 170.471 286.078 168.612 282.175 167.546L278.369 166.506L282.066 165.126C284.975 164.04 287.483 162.33 289.522 160.043C292.864 156.292 294.705 151.243 294.705 145.824C294.705 140.407 292.864 135.358 289.522 131.607C285.753 127.379 280.377 125.144 273.971 125.144H237.468V208.518ZM273.971 211.064H234.922V122.599H273.971C281.123 122.599 287.158 125.128 291.421 129.914C295.18 134.131 297.25 139.781 297.25 145.824C297.25 151.868 295.18 157.519 291.421 161.736C289.837 163.515 288.003 164.986 285.945 166.132C288.96 167.351 291.603 169.066 293.833 171.252C298.211 175.544 300.622 181.319 300.622 187.512C300.622 193.705 298.211 199.478 293.833 203.772C288.966 208.542 282.098 211.064 273.971 211.064Z" fill="black"/>
<path d="M237.722 208.264H273.971C281.35 208.264 287.541 206.019 291.873 201.772C295.709 198.01 297.823 192.946 297.823 187.512C297.823 182.077 295.709 177.012 291.873 173.251C289.253 170.683 285.968 168.846 282.108 167.792L277.541 166.543L281.977 164.887C284.846 163.816 287.321 162.129 289.331 159.873C292.632 156.169 294.45 151.18 294.45 145.824C294.45 140.469 292.632 135.48 289.331 131.776C285.613 127.604 280.302 125.399 273.971 125.399H237.722V208.264ZM273.971 208.773H237.213V124.89H273.971C280.451 124.89 285.893 127.154 289.711 131.438C293.096 135.234 294.959 140.344 294.959 145.824C294.959 151.305 293.096 156.415 289.711 160.212C287.645 162.53 285.103 164.264 282.155 165.364L279.198 166.468L282.242 167.3C286.186 168.378 289.547 170.258 292.229 172.888C296.164 176.745 298.332 181.939 298.332 187.512C298.332 193.084 296.164 198.277 292.229 202.136C287.8 206.478 281.486 208.773 273.971 208.773ZM235.177 210.809H273.971C282.031 210.809 288.837 208.313 293.655 203.59C297.984 199.345 300.368 193.635 300.368 187.512C300.368 181.388 297.984 175.678 293.655 171.433C291.455 169.277 288.829 167.573 285.85 166.368L285.356 166.169L285.821 165.91C287.851 164.778 289.672 163.318 291.232 161.567C294.949 157.396 296.996 151.805 296.996 145.824C296.996 139.844 294.949 134.253 291.232 130.083C287.017 125.353 281.048 122.853 273.971 122.853H235.177V210.809ZM273.971 211.318H234.668V122.344H273.971C281.198 122.344 287.298 124.903 291.612 129.744C295.412 134.008 297.505 139.719 297.505 145.824C297.505 151.931 295.412 157.642 291.612 161.905C290.13 163.568 288.42 164.976 286.52 166.096C289.364 167.311 291.883 168.983 294.011 171.07C298.439 175.411 300.877 181.25 300.877 187.512C300.877 193.773 298.439 199.612 294.011 203.953C289.096 208.771 282.166 211.318 273.971 211.318Z" fill="black"/>
<path d="M52.8477 208.257H75.9305C89.4129 208.257 100.709 203.787 108.598 195.332C115.595 187.832 119.449 177.725 119.449 166.871C119.449 146.938 105.83 125.485 75.9305 125.485H52.8477V208.257ZM75.9305 211.329H49.7754V122.412H75.9305C90.2861 122.412 102.359 127.22 110.845 136.314C118.374 144.384 122.521 155.236 122.521 166.871C122.521 178.506 118.374 189.358 110.845 197.428C102.359 206.522 90.2861 211.329 75.9305 211.329Z" fill="black"/>
</g>
</g>
</g>
<defs>
<clipPath id="clip0_648_76">
<rect width="511" height="325" fill="white"/>
</clipPath>
<clipPath id="clip1_648_76">
<rect width="661" height="661" fill="white" transform="translate(-75 -168)"/>
</clipPath>
</defs>
</svg>
