<svg width="511" height="325" viewBox="0 0 511 325" fill="none" xmlns="http://www.w3.org/2000/svg">
<g clip-path="url(#clip0_540_1061)">
<path fill-rule="evenodd" clip-rule="evenodd" d="M326.634 199.496V137.562H341.694V188.574H363.532V199.496H326.634Z" fill="black"/>
<path fill-rule="evenodd" clip-rule="evenodd" d="M303.896 199.496L300.078 185.722H279.347L275.562 199.496H260.551L280.703 137.562H299.73L319.585 199.496H303.896ZM282.107 176.19H297.35L289.944 149.358L282.107 176.19Z" fill="black"/>
<path fill-rule="evenodd" clip-rule="evenodd" d="M234.412 199.496V147.724H218.146V137.562H266.136V147.724H249.771V199.496H234.412Z" fill="black"/>
<path fill-rule="evenodd" clip-rule="evenodd" d="M197.528 199.496V137.562H212.109V199.496H197.528Z" fill="black"/>
<path fill-rule="evenodd" clip-rule="evenodd" d="M143.205 137.562H166.795C175.986 137.562 182.451 139.841 186.187 144.413C189.906 148.971 191.773 157.012 191.773 168.551C191.773 180.06 189.906 188.086 186.187 192.645C182.451 197.217 175.986 199.496 166.795 199.496H143.205V137.562ZM158.364 146.965V189.793H164.795C169.539 189.793 172.813 188.431 174.597 185.693C176.4 182.97 177.292 177.193 177.292 168.379C177.292 159.563 176.4 153.788 174.597 151.064C172.813 148.326 169.539 146.965 164.795 146.965H158.364Z" fill="black"/>
<path fill-rule="evenodd" clip-rule="evenodd" d="M80 199.496V114.655H132.877V127.771H100.63V148.014H130.296V161.071H100.63V185.81H134.078V199.496H80Z" fill="black"/>
<path fill-rule="evenodd" clip-rule="evenodd" d="M83.0095 211.985V218.277H84.9961C86.4546 218.277 87.4256 218.051 87.9135 217.594C88.4056 217.137 88.6495 216.299 88.6495 215.08C88.6495 213.936 88.4276 213.134 87.9888 212.672C87.5454 212.216 86.7739 211.985 85.6745 211.985H83.0095ZM85.7012 209.83C87.7449 209.83 89.1725 210.225 89.9885 211.014C90.7999 211.799 91.2078 213.165 91.2078 215.107C91.2078 216.942 90.8088 218.29 90.0106 219.146C89.217 220.002 87.9668 220.432 86.2597 220.432H83.0095V228.989H80.4779V209.83H85.7012ZM96.4302 219.115H93.9736V218.853C93.9736 217.696 94.3729 216.814 95.1755 216.215C95.978 215.612 97.1574 215.311 98.7137 215.311C100.256 215.311 101.392 215.625 102.119 216.25C102.846 216.88 103.209 217.86 103.209 219.195V225.429C103.209 226.045 103.227 226.648 103.267 227.242C103.307 227.836 103.365 228.417 103.444 228.989H101.157L101.001 227.313C100.549 227.894 100.026 228.337 99.4273 228.652C98.8289 228.962 98.2038 229.118 97.5432 229.118C96.4078 229.118 95.4859 228.741 94.7765 227.987C94.0668 227.233 93.7123 226.244 93.7123 225.025C93.7123 223.491 94.2087 222.338 95.2021 221.558C96.1906 220.778 97.6715 220.388 99.6356 220.388H100.922V219.727C100.922 218.676 100.766 217.953 100.461 217.559C100.154 217.159 99.6225 216.96 98.8687 216.96C98.0662 216.96 97.4589 217.133 97.0464 217.474C96.6339 217.816 96.4302 218.317 96.4302 218.986V219.115ZM100.948 221.984C99.1037 221.984 97.818 222.196 97.0909 222.626C96.3638 223.056 96 223.783 96 224.803C96 225.464 96.1995 226.009 96.5988 226.448C96.9977 226.887 97.4987 227.104 98.1017 227.104C99.0063 227.104 99.7025 226.75 100.199 226.045C100.7 225.34 100.948 224.334 100.948 223.025V221.984ZM107.944 212.282V209.839H110.152V212.282H107.944ZM107.944 228.989V215.634H110.152V228.989H107.944ZM122.012 228.989V220.458C122.012 219.159 121.844 218.268 121.511 217.789C121.179 217.306 120.611 217.067 119.804 217.067C118.895 217.067 118.23 217.403 117.818 218.073C117.401 218.742 117.193 219.811 117.193 221.274V228.989H114.905V217.74C114.905 217.457 114.896 217.137 114.874 216.791C114.852 216.446 114.816 216.06 114.776 215.634H117.113L117.219 217.182C117.685 216.534 118.203 216.06 118.771 215.758C119.339 215.462 119.999 215.311 120.753 215.311C121.853 215.311 122.722 215.634 123.36 216.277C124.003 216.925 124.322 217.803 124.322 218.911V228.989H122.012ZM130.88 221.115H136.036V219.975C136.036 218.968 135.828 218.21 135.411 217.692C134.999 217.173 134.387 216.911 133.58 216.911C132.68 216.911 132.01 217.248 131.576 217.922C131.137 218.596 130.906 219.66 130.88 221.115V221.115ZM138.297 224.803C138.226 226.213 137.77 227.322 136.927 228.115C136.08 228.914 134.941 229.312 133.504 229.312C131.722 229.312 130.441 228.767 129.665 227.677C128.889 226.586 128.503 224.763 128.503 222.21C128.503 219.811 128.902 218.064 129.7 216.973C130.494 215.882 131.762 215.337 133.504 215.337C135.158 215.337 136.369 215.772 137.14 216.641C137.912 217.51 138.297 218.884 138.297 220.764V222.844H130.866V223.611C130.866 224.928 131.075 225.881 131.496 226.475C131.917 227.069 132.587 227.366 133.504 227.366C134.205 227.366 134.768 227.145 135.198 226.701C135.628 226.262 135.899 225.628 136.009 224.803H138.297ZM131.695 213.883L134.347 209.36H136.958L133.256 213.883H131.695ZM142.607 212.282V209.839H144.815V212.282H142.607ZM142.607 228.989V215.634H144.815V228.989H142.607ZM149.075 224.923H151.571C151.598 225.734 151.802 226.355 152.183 226.781C152.56 227.202 153.11 227.415 153.828 227.415C154.489 227.415 155.016 227.251 155.411 226.927C155.81 226.603 156.01 226.174 156.01 225.637C156.01 225.238 155.859 224.874 155.562 224.546C155.265 224.218 154.768 223.872 154.077 223.509L151.647 222.258C150.773 221.802 150.157 221.336 149.798 220.862C149.439 220.392 149.257 219.807 149.257 219.115C149.257 217.971 149.683 217.049 150.529 216.344C151.376 215.639 152.494 215.284 153.881 215.284C155.234 215.284 156.302 215.603 157.087 216.246C157.876 216.884 158.271 217.753 158.271 218.853V219.088H155.828C155.828 218.432 155.637 217.918 155.256 217.545C154.874 217.173 154.347 216.986 153.673 216.986C153.075 216.986 152.587 217.146 152.21 217.461C151.833 217.776 151.647 218.175 151.647 218.663C151.647 218.999 151.749 219.292 151.957 219.545C152.165 219.793 152.516 220.042 153.012 220.285L155.216 221.376C156.484 222.006 157.344 222.604 157.805 223.163C158.262 223.722 158.493 224.409 158.493 225.233C158.493 226.47 158.062 227.459 157.202 228.2C156.338 228.94 155.189 229.312 153.753 229.312C152.219 229.312 151.057 228.94 150.272 228.195C149.483 227.45 149.084 226.359 149.075 224.923V224.923ZM193.918 219.62C193.918 221.655 193.839 223.203 193.684 224.254C193.528 225.305 193.275 226.138 192.93 226.754C192.446 227.583 191.768 228.217 190.899 228.656C190.03 229.095 189.006 229.312 187.826 229.312C186.864 229.312 185.995 229.162 185.224 228.865C184.448 228.568 183.809 228.133 183.304 227.57C182.728 226.932 182.319 226.067 182.084 224.981C181.85 223.894 181.734 222.037 181.734 219.416C181.734 217.191 181.809 215.559 181.956 214.53C182.102 213.502 182.355 212.677 182.71 212.061C183.175 211.24 183.845 210.615 184.714 210.185C185.587 209.755 186.625 209.542 187.826 209.542C188.788 209.542 189.657 209.689 190.429 209.985C191.205 210.278 191.843 210.708 192.349 211.272C192.916 211.928 193.324 212.81 193.559 213.914C193.799 215.018 193.918 216.92 193.918 219.62V219.62ZM191.334 219.416C191.334 216.175 191.076 214.078 190.562 213.125C190.043 212.171 189.126 211.697 187.8 211.697C187.219 211.697 186.709 211.803 186.261 212.016C185.813 212.229 185.459 212.535 185.188 212.943C184.869 213.43 184.643 214.069 184.505 214.863C184.372 215.652 184.306 217.173 184.306 219.416C184.306 221.327 184.346 222.671 184.43 223.442C184.51 224.214 184.647 224.821 184.838 225.26C185.126 225.903 185.507 226.377 185.995 226.692C186.478 227.003 187.081 227.158 187.8 227.158C189.126 227.158 190.043 226.679 190.562 225.717C191.076 224.755 191.334 222.653 191.334 219.416ZM200.697 215.634V224.143C200.697 225.433 200.861 226.32 201.189 226.799C201.522 227.282 202.089 227.521 202.905 227.521C203.805 227.521 204.466 227.189 204.878 226.528C205.295 225.863 205.504 224.808 205.504 223.349V215.634H207.791V226.883C207.8 227.18 207.813 227.499 207.836 227.845C207.858 228.191 207.884 228.572 207.92 228.989H205.596L205.477 227.419C205.011 228.067 204.492 228.546 203.921 228.851C203.348 229.157 202.688 229.312 201.943 229.312C200.843 229.312 199.974 228.989 199.336 228.346C198.693 227.699 198.374 226.825 198.374 225.717V215.634H200.697ZM215.399 211.852V215.634H218.064V217.284H215.399V225.282C215.399 226 215.51 226.497 215.732 226.772C215.954 227.043 216.357 227.18 216.947 227.18C217.155 227.18 217.501 227.162 217.984 227.127H218.064L218.051 228.856C217.696 228.936 217.364 228.993 217.049 229.033C216.738 229.073 216.446 229.091 216.18 229.091C215.054 229.091 214.26 228.869 213.799 228.43C213.342 227.987 213.111 227.206 213.111 226.089V217.284H211.085V215.634H213.111V212.943L215.399 211.852ZM228.767 217.102V209.83H231.077V226.595C231.077 227.282 231.086 227.783 231.104 228.102C231.121 228.426 231.148 228.709 231.179 228.962H228.922L228.794 227.663C228.368 228.217 227.898 228.625 227.375 228.892C226.856 229.153 226.262 229.286 225.597 229.286C224.089 229.286 222.981 228.736 222.267 227.637C221.558 226.537 221.203 224.812 221.203 222.467C221.203 220.015 221.558 218.206 222.267 217.035C222.981 215.869 224.08 215.284 225.57 215.284C226.253 215.284 226.865 215.435 227.397 215.736C227.929 216.042 228.386 216.494 228.767 217.102V217.102ZM226.076 217.23C225.216 217.23 224.581 217.643 224.164 218.463C223.748 219.288 223.539 220.551 223.539 222.258C223.539 224.249 223.739 225.632 224.142 226.409C224.546 227.184 225.233 227.57 226.204 227.57C227.1 227.57 227.747 227.158 228.155 226.338C228.563 225.513 228.767 224.178 228.767 222.334C228.767 220.516 228.554 219.212 228.128 218.419C227.703 217.625 227.02 217.23 226.076 217.23V217.23ZM235.306 222.285C235.306 219.851 235.706 218.086 236.508 216.986C237.311 215.887 238.583 215.337 240.334 215.337C242.09 215.337 243.367 215.887 244.152 216.982C244.941 218.077 245.336 219.851 245.336 222.311C245.336 224.772 244.941 226.555 244.148 227.659C243.354 228.763 242.086 229.312 240.334 229.312C238.566 229.312 237.288 228.763 236.495 227.659C235.701 226.555 235.306 224.763 235.306 222.285V222.285ZM240.334 217.284C239.381 217.284 238.694 217.674 238.273 218.454C237.852 219.234 237.643 220.52 237.643 222.311C237.643 224.138 237.852 225.438 238.268 226.209C238.685 226.98 239.372 227.366 240.334 227.366C241.288 227.366 241.97 226.98 242.383 226.209C242.795 225.438 242.999 224.147 242.999 222.338C242.999 220.503 242.795 219.199 242.383 218.432C241.97 217.665 241.288 217.284 240.334 217.284ZM249.242 222.285C249.242 219.851 249.641 218.086 250.444 216.986C251.246 215.887 252.518 215.337 254.27 215.337C256.026 215.337 257.302 215.887 258.087 216.982C258.876 218.077 259.271 219.851 259.271 222.311C259.271 224.772 258.876 226.555 258.083 227.659C257.289 228.763 256.021 229.312 254.27 229.312C252.501 229.312 251.224 228.763 250.43 227.659C249.636 226.555 249.242 224.763 249.242 222.285V222.285ZM254.27 217.284C253.316 217.284 252.629 217.674 252.208 218.454C251.787 219.234 251.578 220.52 251.578 222.311C251.578 224.138 251.787 225.438 252.204 226.209C252.62 226.98 253.308 227.366 254.27 227.366C255.223 227.366 255.906 226.98 256.318 226.209C256.731 225.438 256.934 224.147 256.934 222.338C256.934 220.503 256.731 219.199 256.318 218.432C255.906 217.665 255.223 217.284 254.27 217.284ZM265.593 215.608L265.815 217.359C266.059 216.694 266.462 216.184 267.034 215.825C267.607 215.466 268.316 215.284 269.162 215.284C269.207 215.284 269.273 215.289 269.367 215.297C269.456 215.306 269.531 215.311 269.593 215.311V217.661C269.513 217.661 269.411 217.656 269.282 217.647C269.149 217.638 269.061 217.634 269.007 217.634C267.859 217.634 267.039 217.882 266.547 218.379C266.059 218.88 265.815 219.718 265.815 220.893V228.989H263.527V217.869C263.527 217.762 263.478 217.252 263.385 216.335C263.35 216.024 263.323 215.78 263.306 215.608H265.593ZM272.306 224.923H274.802C274.829 225.734 275.033 226.355 275.414 226.781C275.791 227.202 276.341 227.415 277.059 227.415C277.719 227.415 278.247 227.251 278.642 226.927C279.041 226.603 279.241 226.174 279.241 225.637C279.241 225.238 279.09 224.874 278.793 224.546C278.496 224.218 277.999 223.872 277.307 223.509L274.877 222.258C274.004 221.802 273.388 221.336 273.028 220.862C272.669 220.392 272.488 219.807 272.488 219.115C272.488 217.971 272.913 217.049 273.76 216.344C274.607 215.639 275.724 215.284 277.112 215.284C278.464 215.284 279.533 215.603 280.318 216.246C281.107 216.884 281.502 217.753 281.502 218.853V219.088H279.058C279.058 218.432 278.868 217.918 278.487 217.545C278.105 217.173 277.578 216.986 276.904 216.986C276.305 216.986 275.818 217.146 275.441 217.461C275.064 217.776 274.877 218.175 274.877 218.663C274.877 218.999 274.979 219.292 275.188 219.545C275.396 219.793 275.746 220.042 276.243 220.285L278.447 221.376C279.715 222.006 280.575 222.604 281.036 223.163C281.493 223.722 281.723 224.409 281.723 225.233C281.723 226.47 281.293 227.459 280.433 228.2C279.568 228.94 278.42 229.312 276.983 229.312C275.45 229.312 274.288 228.94 273.503 228.195C272.714 227.45 272.315 226.359 272.306 224.923V224.923ZM305.227 228.989V209.83H314.436V211.936H307.758V218.082H314.112V220.237H307.758V228.989H305.227ZM320.044 215.608L320.265 217.359C320.509 216.694 320.913 216.184 321.485 215.825C322.057 215.466 322.766 215.284 323.613 215.284C323.657 215.284 323.724 215.289 323.817 215.297C323.906 215.306 323.981 215.311 324.043 215.311V217.661C323.963 217.661 323.861 217.656 323.733 217.647C323.6 217.638 323.511 217.634 323.458 217.634C322.309 217.634 321.489 217.882 320.997 218.379C320.509 218.88 320.265 219.718 320.265 220.893V228.989H317.977V217.869C317.977 217.762 317.929 217.252 317.836 216.335C317.8 216.024 317.774 215.78 317.756 215.608H320.044ZM326.911 222.285C326.911 219.851 327.311 218.086 328.113 216.986C328.916 215.887 330.188 215.337 331.939 215.337C333.695 215.337 334.972 215.887 335.757 216.982C336.546 218.077 336.941 219.851 336.941 222.311C336.941 224.772 336.546 226.555 335.752 227.659C334.959 228.763 333.691 229.312 331.939 229.312C330.17 229.312 328.893 228.763 328.1 227.659C327.306 226.555 326.911 224.763 326.911 222.285V222.285ZM331.939 217.284C330.986 217.284 330.299 217.674 329.878 218.454C329.456 219.234 329.248 220.52 329.248 222.311C329.248 224.138 329.456 225.438 329.873 226.209C330.29 226.98 330.977 227.366 331.939 227.366C332.893 227.366 333.575 226.98 333.988 226.209C334.4 225.438 334.604 224.147 334.604 222.338C334.604 220.503 334.4 219.199 333.988 218.432C333.575 217.665 332.893 217.284 331.939 217.284ZM348.291 228.989V220.458C348.291 219.159 348.122 218.268 347.79 217.789C347.458 217.306 346.89 217.067 346.083 217.067C345.174 217.067 344.509 217.403 344.097 218.073C343.68 218.742 343.471 219.811 343.471 221.274V228.989H341.184V217.74C341.184 217.457 341.175 217.137 341.153 216.791C341.13 216.446 341.095 216.06 341.055 215.634H343.392L343.498 217.182C343.964 216.534 344.482 216.06 345.05 215.758C345.618 215.462 346.278 215.311 347.032 215.311C348.131 215.311 349 215.634 349.639 216.277C350.282 216.925 350.601 217.803 350.601 218.911V228.989H348.291ZM358.107 211.852V215.634H360.772V217.284H358.107V225.282C358.107 226 358.218 226.497 358.44 226.772C358.661 227.043 359.065 227.18 359.654 227.18C359.863 227.18 360.209 227.162 360.692 227.127H360.772L360.758 228.856C360.404 228.936 360.072 228.993 359.756 229.033C359.446 229.073 359.153 229.091 358.887 229.091C357.761 229.091 356.968 228.869 356.507 228.43C356.05 227.987 355.819 227.206 355.819 226.089V217.284H353.793V215.634H355.819V212.943L358.107 211.852ZM372.911 228.989H370.623V209.83H372.911V228.989ZM377.637 212.282V209.839H379.845V212.282H377.637ZM377.637 228.989V215.634H379.845V228.989H377.637ZM386.598 222.263C386.598 224.072 386.801 225.375 387.209 226.169C387.617 226.967 388.273 227.366 389.182 227.366C390.145 227.366 390.849 226.958 391.302 226.147C391.754 225.331 391.976 224.036 391.976 222.263C391.976 220.374 391.767 219.022 391.342 218.206C390.916 217.394 390.224 216.986 389.262 216.986C388.291 216.986 387.604 217.368 387.201 218.135C386.797 218.902 386.598 220.277 386.598 222.263ZM385.068 230.483H387.666C387.684 231.091 387.865 231.569 388.211 231.928C388.557 232.288 389.018 232.47 389.59 232.47C390.428 232.47 391.018 232.252 391.359 231.818C391.701 231.388 391.874 230.576 391.874 229.392V227.468C391.399 228.102 390.898 228.568 390.38 228.865C389.861 229.162 389.293 229.312 388.677 229.312C387.143 229.312 386.021 228.736 385.307 227.579C384.593 226.422 384.234 224.604 384.234 222.13C384.234 219.776 384.593 218.046 385.307 216.942C386.021 215.838 387.134 215.284 388.65 215.284C389.329 215.284 389.927 215.417 390.459 215.688C390.987 215.954 391.457 216.361 391.874 216.907L392.002 215.634H394.312C394.272 215.936 394.237 216.277 394.215 216.654C394.193 217.031 394.184 217.479 394.184 218.002V229.703C394.184 230.536 394.122 231.175 394.002 231.618C393.882 232.066 393.687 232.456 393.417 232.793C393.026 233.29 392.53 233.644 391.918 233.866C391.306 234.088 390.522 234.199 389.559 234.199C388.176 234.199 387.094 233.875 386.314 233.232C385.533 232.585 385.121 231.671 385.068 230.483V230.483ZM405.875 228.989V220.458C405.875 219.159 405.707 218.268 405.374 217.789C405.042 217.306 404.474 217.067 403.667 217.067C402.758 217.067 402.093 217.403 401.681 218.073C401.264 218.742 401.056 219.811 401.056 221.274V228.989H398.768V209.83H401.056V217.182C401.548 216.525 402.076 216.047 402.638 215.754C403.202 215.457 403.862 215.311 404.616 215.311C405.716 215.311 406.585 215.634 407.223 216.277C407.866 216.925 408.185 217.803 408.185 218.911V228.989H405.875ZM415.678 211.852V215.634H418.343V217.284H415.678V225.282C415.678 226 415.789 226.497 416.011 226.772C416.232 227.043 416.636 227.18 417.225 227.18C417.434 227.18 417.78 227.162 418.263 227.127H418.343L418.329 228.856C417.975 228.936 417.642 228.993 417.327 229.033C417.017 229.073 416.724 229.091 416.458 229.091C415.332 229.091 414.539 228.869 414.078 228.43C413.621 227.987 413.39 227.206 413.39 226.089V217.284H411.364V215.634H413.39V212.943L415.678 211.852ZM421.353 224.923H423.849C423.876 225.734 424.08 226.355 424.461 226.781C424.838 227.202 425.388 227.415 426.106 227.415C426.767 227.415 427.294 227.251 427.689 226.927C428.088 226.603 428.288 226.174 428.288 225.637C428.288 225.238 428.137 224.874 427.84 224.546C427.543 224.218 427.046 223.872 426.354 223.509L423.924 222.258C423.051 221.802 422.435 221.336 422.076 220.862C421.716 220.392 421.535 219.807 421.535 219.115C421.535 217.971 421.96 217.049 422.807 216.344C423.654 215.639 424.771 215.284 426.159 215.284C427.511 215.284 428.58 215.603 429.365 216.246C430.154 216.884 430.549 217.753 430.549 218.853V219.088H428.106C428.106 218.432 427.915 217.918 427.534 217.545C427.152 217.173 426.625 216.986 425.951 216.986C425.352 216.986 424.865 217.146 424.488 217.461C424.111 217.776 423.924 218.175 423.924 218.663C423.924 218.999 424.027 219.292 424.235 219.545C424.443 219.793 424.793 220.042 425.29 220.285L427.494 221.376C428.762 222.006 429.622 222.604 430.083 223.163C430.54 223.722 430.771 224.409 430.771 225.233C430.771 226.47 430.34 227.459 429.48 228.2C428.615 228.94 427.467 229.312 426.031 229.312C424.497 229.312 423.335 228.94 422.55 228.195C421.761 227.45 421.362 226.359 421.353 224.923Z" fill="black"/>
<path fill-rule="evenodd" clip-rule="evenodd" d="M169.309 217.525C171.21 217.525 172.751 219.066 172.751 220.967C172.751 222.867 171.21 224.408 169.309 224.408C167.409 224.408 165.868 222.867 165.868 220.967C165.868 219.066 167.409 217.525 169.309 217.525Z" fill="black"/>
<path fill-rule="evenodd" clip-rule="evenodd" d="M293.088 217.525C294.989 217.525 296.53 219.066 296.53 220.967C296.53 222.867 294.989 224.408 293.088 224.408C291.188 224.408 289.647 222.867 289.647 220.967C289.647 219.066 291.188 217.525 293.088 217.525Z" fill="black"/>
<path fill-rule="evenodd" clip-rule="evenodd" d="M374.728 199.496L374.778 188.653L420.592 188.589V100.922H210.224L210.279 126.235H199.357V90L210.2 90.0317V90.0773L420.592 90.0039V90L421.011 90.0036L431.514 90V100.922H431.442L431.507 188.574H431.514V198.479V199.496H374.728Z" fill="black"/>
</g>
<defs>
<clipPath id="clip0_540_1061">
<rect width="511" height="325" fill="white"/>
</clipPath>
</defs>
</svg>
