<svg width="511" height="325" viewBox="0 0 511 325" fill="none" xmlns="http://www.w3.org/2000/svg">
<g clip-path="url(#clip0_496_315)">
<path d="M323.984 100.998V125.589H343.752V224.988H370.072V125.589H390V100.998H323.984ZM121 113.91V212.087C120.989 213.773 121.321 215.445 121.976 217.007C122.631 218.569 123.597 219.99 124.819 221.189C126.041 222.389 127.494 223.342 129.096 223.996C130.698 224.649 132.417 224.99 134.154 224.998H172.417V201.733H147.469V174.651H168.587V150.04H147.469V124.295H172.417V100.998H134.154C132.417 101.007 130.698 101.348 129.097 102.002C127.495 102.655 126.042 103.609 124.82 104.808C123.599 106.007 122.633 107.428 121.977 108.99C121.322 110.552 120.99 112.223 121 113.91ZM243.938 100.998L226.975 136.549L210.013 100.998H184.766L213.971 163.8L184.766 225.003H211.549L227.018 191.777L242.487 225.003H269.244L239.98 163.811L269.185 100.998H243.938ZM282.398 225.003H308.712V100.998H282.398V225.003Z" fill="black"/>
</g>
<defs>
<clipPath id="clip0_496_315">
<rect width="269" height="124" fill="white" transform="translate(121 101)"/>
</clipPath>
</defs>
</svg>
