<svg width="511" height="325" viewBox="0 0 511 325" fill="none" xmlns="http://www.w3.org/2000/svg">
<path d="M65.6878 126.086H115.646V143.559H63.473V169.892H46V134.946C46 125.433 49.4031 117.227 56.213 110.336C63.0192 103.445 71.2632 100 80.946 100H115.646V117.473H80.946C77.6625 117.473 74.6701 118.296 71.9629 119.934C69.2565 121.576 67.1643 123.626 65.6878 126.086Z" fill="black"/>
<path d="M131.837 110.336C125.027 117.226 121.625 125.433 121.625 134.946C121.625 144.629 125.027 152.873 131.837 159.679C138.644 166.489 146.888 169.892 156.57 169.892H191.27V134.946C191.27 125.433 187.864 117.226 181.057 110.336C174.247 103.445 166.084 100 156.57 100C146.888 100 138.644 103.445 131.837 110.336ZM144.142 147.374C140.778 144.013 139.097 139.867 139.097 134.946C139.097 130.19 140.778 126.087 144.142 122.642C147.503 119.196 151.648 117.473 156.57 117.473C161.327 117.473 165.43 119.196 168.875 122.642C172.322 126.087 174.044 130.19 174.044 134.946C174.044 139.867 172.322 144.013 168.875 147.374C165.43 150.738 161.327 152.419 156.57 152.419C151.648 152.419 147.503 150.738 144.142 147.374" fill="black"/>
<path d="M214.723 152.419H240.809C243.271 152.419 245.362 151.558 247.085 149.834C248.808 148.112 249.669 146.02 249.669 143.559C249.669 141.264 248.808 139.253 247.085 137.529C245.362 135.808 243.271 134.946 240.809 134.946H214.723V152.419ZM214.723 117.473H240.809C248.027 117.473 254.18 120.057 259.267 125.225C264.351 130.393 266.896 136.507 266.896 143.559C266.896 150.943 264.351 157.179 259.267 162.263C254.18 167.35 248.027 169.892 240.809 169.892H218.907H197.25V100H214.723V117.473Z" fill="black"/>
<path d="M292.563 126.086H322.833C321.356 123.626 319.265 121.576 316.558 119.934C313.85 118.296 310.936 117.473 307.821 117.473C304.537 117.473 301.545 118.296 298.838 119.934C296.131 121.576 294.039 123.626 292.563 126.086ZM342.767 134.946H342.521V143.559H292.563C294.039 146.186 296.131 148.319 298.838 149.958C301.545 151.6 304.537 152.419 307.821 152.419H342.767V169.892H307.821C298.138 169.892 289.894 166.489 283.088 159.679C276.278 152.873 272.875 144.628 272.875 134.946C272.875 125.433 276.278 117.226 283.088 110.336C289.894 103.445 298.138 100 307.821 100C317.334 100 325.54 103.445 332.431 110.336C339.322 117.226 342.767 125.433 342.767 134.946" fill="black"/>
<path d="M348.5 134.946C348.5 125.268 351.903 117.023 358.713 110.213C365.519 103.407 373.763 100 383.446 100H408.347V117.473H383.446C378.524 117.473 374.379 119.195 371.018 122.641C367.654 126.086 365.973 130.189 365.973 134.946V169.892H348.5V134.946Z" fill="black"/>
<path d="M408.346 130.135V150.014C408.346 152.813 407.366 155.172 405.406 157.083C403.446 158.997 401.113 159.953 398.406 159.953C395.607 159.953 393.249 158.997 391.337 157.083C389.423 155.172 388.467 152.813 388.467 150.014V130.135H378.527V150.014C378.527 155.521 380.464 160.211 384.337 164.082C388.209 167.957 392.898 169.892 398.406 169.892C403.818 169.892 408.462 167.957 412.336 164.082C416.207 160.211 418.146 155.521 418.146 150.014V130.135H408.346Z" fill="black"/>
<path d="M434.189 130.135H421.87V169.892H431.809V159.953H446.649C450.754 159.953 454.254 158.507 457.148 155.613C460.039 152.722 461.488 149.173 461.488 144.973C461.488 140.962 460.039 137.484 457.148 134.544C454.254 131.604 450.754 130.135 446.649 130.135H434.189ZM431.809 140.074H446.649C448.048 140.074 449.238 140.565 450.219 141.543C451.198 142.524 451.688 143.714 451.688 145.114C451.688 146.514 451.198 147.681 450.219 148.614C449.238 149.547 448.048 150.014 446.649 150.014H431.809V140.074Z" fill="black"/>
<path d="M452.584 197.06C452.543 197.439 452.469 197.832 452.36 198.24L443.42 198.199C443.447 198.063 443.468 197.921 443.482 197.772C443.495 197.622 443.502 197.494 443.502 197.385C443.502 196.408 443.225 195.691 442.669 195.229C442.115 194.768 441.51 194.457 440.861 194.294C440.509 194.213 440.163 194.158 439.825 194.131C439.486 194.104 439.195 194.092 438.95 194.092C438.707 194.092 438.462 194.11 438.219 194.152C437.975 194.193 437.731 194.24 437.488 194.294C436.269 194.673 435.09 195.602 433.953 197.08C432.815 198.558 431.921 200.761 431.27 203.689C431.215 203.934 431.168 204.178 431.128 204.423C431.087 204.666 431.054 204.911 431.026 205.155C430.945 205.67 430.884 206.171 430.844 206.659C430.803 207.147 430.783 207.622 430.783 208.083C430.783 209.629 431.087 210.944 431.697 212.029C432.306 213.114 433.451 213.656 435.131 213.656H435.578C435.74 213.656 435.903 213.641 436.066 213.615C436.336 213.615 436.614 213.581 436.898 213.513C437.184 213.445 437.488 213.344 437.814 213.208C438.598 212.856 439.329 212.32 440.007 211.601C440.684 210.884 441.077 210.063 441.186 209.14L449.801 209.099C449.828 209.181 449.848 209.256 449.862 209.324C449.875 209.392 449.881 209.466 449.881 209.547C449.881 210.035 449.706 210.713 449.354 211.582C449.002 212.448 448.433 213.357 447.647 214.307C446.509 215.663 444.878 216.896 442.749 218.008C440.624 219.119 437.88 219.676 434.521 219.676H434.196H433.83C429.279 219.676 426.23 218.74 424.686 216.869C423.144 214.997 422.263 212.924 422.045 210.645C422.018 210.293 421.997 209.934 421.985 209.567C421.971 209.202 421.964 208.842 421.964 208.489V208.45C421.964 207.392 422.045 206.206 422.207 204.891C422.372 203.574 422.654 202.253 423.062 200.924C424.009 197.915 425.777 195.141 428.365 192.606C430.951 190.071 434.9 188.748 440.21 188.641C440.834 188.641 441.497 188.661 442.201 188.701C442.906 188.742 443.624 188.816 444.355 188.925C446.414 189.224 448.31 189.888 450.045 190.918C451.779 191.948 452.644 193.63 452.644 195.961C452.644 196.314 452.625 196.68 452.584 197.06ZM419.465 197.02C419.397 197.507 419.282 198.022 419.119 198.564L410.789 198.525C410.844 198.362 410.877 198.199 410.891 198.036C410.904 197.873 410.91 197.725 410.91 197.589C410.937 196.639 410.613 195.955 409.936 195.534C409.259 195.114 408.486 194.904 407.62 194.904H407.375H407.091C406.197 194.986 405.363 195.291 404.591 195.819C403.819 196.348 403.434 197.047 403.434 197.915C403.434 198.729 404.212 199.454 405.771 200.091C407.328 200.728 409.218 201.29 411.439 201.779C413.253 202.185 414.616 202.782 415.524 203.568C416.43 204.355 417.047 205.181 417.371 206.049C417.535 206.457 417.649 206.869 417.717 207.29C417.785 207.71 417.82 208.11 417.82 208.489C417.82 211.364 416.539 213.946 413.98 216.238C411.419 218.53 407.579 219.676 402.458 219.676C398.015 219.676 395.116 218.903 393.761 217.357C392.407 215.811 391.731 214.049 391.731 212.069C391.731 211.852 391.737 211.636 391.75 211.418C391.764 211.201 391.77 210.985 391.77 210.767C391.797 210.55 391.826 210.334 391.852 210.117C391.879 209.901 391.906 209.682 391.933 209.466L400.222 209.425C400.195 209.615 400.183 209.785 400.183 209.934V210.36C400.183 211.418 400.467 212.279 401.035 212.944C401.605 213.608 402.512 213.94 403.759 213.94C404.029 213.94 404.369 213.907 404.774 213.839C405.18 213.771 405.588 213.668 405.993 213.534C406.724 213.289 407.389 212.924 407.984 212.436C408.581 211.947 408.88 211.296 408.88 210.484V210.3V210.117C408.88 209.439 408.365 208.87 407.335 208.409C406.306 207.947 405.168 207.541 403.922 207.189C403.135 206.972 402.378 206.768 401.645 206.579C400.914 206.389 400.304 206.199 399.817 206.008C399.79 206.008 399.757 206.002 399.715 205.989C399.674 205.975 399.641 205.954 399.614 205.927H399.592H399.573C399.302 205.818 399.018 205.717 398.719 205.622C398.422 205.528 398.11 205.412 397.784 205.276C396.973 204.924 396.22 204.341 395.53 203.527C394.838 202.714 394.494 201.385 394.494 199.541V199.5C394.791 195.839 396.356 193.169 399.187 191.487C402.018 189.805 405.357 188.965 409.203 188.965C409.529 188.965 409.86 188.972 410.2 188.985C410.537 188.999 410.871 189.02 411.196 189.047C413.282 189.21 415.191 189.758 416.926 190.694C418.658 191.629 419.539 193.278 419.566 195.636C419.566 196.07 419.533 196.532 419.465 197.02M388.723 201.087L387.463 207.189H374.337L373.036 212.924H387.463L386.162 219.024H363.446L369.542 189.576H392.258L390.957 195.312H376.897L375.597 201.087H388.723ZM358.976 219.024H350.32L356.701 189.576H365.031L358.976 219.024ZM348.084 207.799H336.26L334.024 219.024H325.694L331.749 189.576H352.556L351.621 195.312H338.819L337.52 201.738H349.386L348.084 207.799ZM464.066 188.965V182.845H417.161H360.972H314.066V188.965H322.897V190.069H314.066V196.018H322.897V197.126H314.066V203.26H322.897V204.366H314.066V210.599H322.897V211.705H314.066V217.676H322.897V218.783H314.066V224.845H360.972H417.161H464.066V218.783H455.239V217.676H464.066V211.705H455.239V210.599H464.066V204.366H455.239V203.26H464.066V197.126H455.239V196.018H464.066V190.069H455.239V188.965H464.066Z" fill="black"/>
</svg>
