<svg width="511" height="325" viewBox="0 0 511 325" fill="none" xmlns="http://www.w3.org/2000/svg">
<g clip-path="url(#clip0_496_73)">
<path d="M217.813 136.315V110.729C217.778 110.403 217.817 110.074 217.926 109.766C218.036 109.458 218.214 109.178 218.446 108.947C218.679 108.717 218.961 108.541 219.27 108.433C219.58 108.325 219.91 108.288 220.237 108.324H236.173C236.387 108.295 236.605 108.315 236.809 108.384C237.014 108.453 237.199 108.568 237.351 108.721C237.504 108.874 237.618 109.059 237.686 109.264C237.753 109.468 237.773 109.685 237.742 109.898V112.259C237.763 112.468 237.737 112.679 237.665 112.876C237.593 113.074 237.478 113.253 237.327 113.4C237.176 113.547 236.994 113.658 236.795 113.726C236.595 113.793 236.383 113.815 236.173 113.789H224.668V120.926H233.442C233.812 120.885 234.187 120.925 234.54 121.045C234.893 121.165 235.215 121.36 235.483 121.618C235.751 121.876 235.959 122.189 236.091 122.536C236.224 122.883 236.278 123.255 236.25 123.626V123.8C236.278 124.171 236.224 124.543 236.091 124.891C235.958 125.238 235.751 125.552 235.483 125.811C235.215 126.069 234.893 126.266 234.541 126.387C234.188 126.508 233.813 126.55 233.442 126.511H224.668V136.348C224.682 136.574 224.648 136.802 224.568 137.014C224.488 137.227 224.363 137.42 224.202 137.581C224.042 137.742 223.849 137.868 223.636 137.949C223.423 138.03 223.195 138.066 222.968 138.053H219.469C219.241 138.065 219.012 138.028 218.8 137.944C218.587 137.859 218.396 137.73 218.238 137.565C218.081 137.4 217.961 137.202 217.887 136.987C217.814 136.771 217.789 136.542 217.813 136.315V136.315Z" fill="black"/>
<path d="M241.197 136.315V132.205C241.122 129.771 241.528 127.346 242.392 125.068L246.988 110.859C247.591 109.001 248.348 108.236 250.18 108.236H254.457C256.289 108.236 257.057 109.001 257.649 110.859L262.244 125.068C263.108 127.346 263.515 129.771 263.44 132.205V136.315C263.453 136.545 263.417 136.775 263.333 136.99C263.25 137.205 263.121 137.4 262.956 137.561C262.791 137.723 262.593 137.847 262.376 137.926C262.158 138.005 261.927 138.037 261.696 138.02H258.504C258.273 138.037 258.041 138.005 257.823 137.926C257.605 137.847 257.407 137.723 257.241 137.562C257.075 137.401 256.945 137.206 256.86 136.991C256.776 136.776 256.738 136.545 256.749 136.315V130.544H247.723V136.315C247.741 136.542 247.709 136.771 247.63 136.985C247.551 137.199 247.427 137.394 247.265 137.556C247.104 137.718 246.909 137.843 246.695 137.923C246.48 138.003 246.251 138.036 246.023 138.02H242.908C242.679 138.034 242.45 138 242.236 137.919C242.022 137.839 241.828 137.714 241.666 137.552C241.504 137.391 241.378 137.197 241.297 136.984C241.217 136.77 241.182 136.542 241.197 136.315V136.315ZM255.675 125.243L252.263 113.789L248.765 125.298L255.675 125.243Z" fill="black"/>
<path d="M267.618 135.649V110.729C267.598 110.412 267.645 110.094 267.756 109.796C267.868 109.498 268.041 109.227 268.264 109C268.488 108.773 268.757 108.595 269.054 108.479C269.351 108.363 269.669 108.31 269.988 108.325H279.146C285.628 108.325 288.776 110.751 288.776 115.757V117.156C288.85 118.381 288.525 119.597 287.849 120.624C287.173 121.65 286.182 122.431 285.025 122.85C286.282 123.239 287.375 124.032 288.132 125.106C288.888 126.18 289.265 127.474 289.204 128.785V130.403C289.204 135.503 285.968 138.053 279.497 138.053H269.988C269.669 138.068 269.351 138.015 269.054 137.899C268.757 137.783 268.488 137.605 268.264 137.378C268.041 137.151 267.868 136.88 267.756 136.582C267.645 136.284 267.598 135.966 267.618 135.649V135.649ZM274.43 113.33V120.675H278.586C280.978 120.675 282.041 119.735 282.041 117.746V116.249C282.041 114.205 280.945 113.276 278.586 113.276L274.43 113.33ZM278.905 133.102C281.339 133.102 282.48 132.129 282.48 130.053V128.424C282.48 126.348 281.383 125.408 278.905 125.408H274.43V133.059L278.905 133.102Z" fill="black"/>
<path d="M294.611 135.649V110.008C294.6 109.782 294.636 109.556 294.719 109.345C294.801 109.135 294.927 108.943 295.088 108.785C295.25 108.626 295.443 108.503 295.656 108.423C295.868 108.344 296.095 108.31 296.322 108.324H299.81C300.036 108.313 300.261 108.349 300.472 108.432C300.682 108.514 300.873 108.64 301.03 108.801C301.188 108.963 301.31 109.156 301.387 109.367C301.464 109.579 301.494 109.805 301.477 110.029V132.501H312.884C313.098 132.472 313.316 132.493 313.521 132.562C313.726 132.631 313.912 132.746 314.065 132.898C314.217 133.05 314.333 133.236 314.402 133.44C314.471 133.644 314.492 133.861 314.463 134.075V136.447C314.497 136.661 314.479 136.88 314.412 137.086C314.344 137.293 314.229 137.48 314.075 137.634C313.921 137.787 313.733 137.902 313.526 137.969C313.319 138.037 313.099 138.054 312.884 138.02H297.046C296.725 138.044 296.402 137.999 296.1 137.889C295.797 137.779 295.522 137.606 295.291 137.382C295.061 137.158 294.881 136.887 294.764 136.588C294.647 136.289 294.594 135.969 294.611 135.649V135.649Z" fill="black"/>
<path d="M317.874 136.315V132.205C317.8 129.771 318.206 127.346 319.07 125.068L323.666 110.859C324.258 109.001 325.026 108.236 326.857 108.236H331.124C332.956 108.236 333.723 109.001 334.316 110.859L338.911 125.068C339.775 127.346 340.181 129.771 340.107 132.205V136.315C340.12 136.545 340.084 136.775 340 136.99C339.917 137.205 339.788 137.4 339.623 137.561C339.458 137.723 339.26 137.847 339.043 137.926C338.825 138.005 338.593 138.037 338.363 138.02H335.171C334.94 138.037 334.708 138.005 334.49 137.926C334.272 137.847 334.074 137.723 333.908 137.562C333.742 137.401 333.612 137.206 333.527 136.991C333.442 136.776 333.405 136.545 333.416 136.315V130.544H324.389V136.315C324.407 136.542 324.376 136.771 324.297 136.985C324.218 137.199 324.094 137.394 323.932 137.556C323.771 137.718 323.576 137.843 323.362 137.923C323.147 138.003 322.918 138.036 322.689 138.02H319.574C319.347 138.033 319.119 137.997 318.906 137.916C318.694 137.835 318.5 137.709 318.34 137.548C318.179 137.387 318.055 137.194 317.974 136.981C317.894 136.769 317.86 136.541 317.874 136.315V136.315ZM332.33 125.243L328.908 113.789L325.409 125.298L332.33 125.243Z" fill="black"/>
<path d="M344.242 135.648V110.728C344.219 110.406 344.266 110.082 344.379 109.779C344.493 109.476 344.671 109.201 344.901 108.973C345.131 108.745 345.408 108.569 345.712 108.457C346.017 108.345 346.342 108.299 346.665 108.324H355.824C362.306 108.324 365.454 110.75 365.454 115.756V117.155C365.528 118.38 365.203 119.597 364.527 120.623C363.851 121.649 362.86 122.43 361.703 122.849C362.96 123.238 364.053 124.031 364.81 125.105C365.566 126.179 365.943 127.473 365.881 128.784V130.402C365.881 135.502 362.642 138.053 356.164 138.053H346.665C346.342 138.077 346.017 138.031 345.712 137.919C345.408 137.807 345.131 137.631 344.901 137.403C344.671 137.175 344.493 136.9 344.379 136.597C344.266 136.294 344.219 135.971 344.242 135.648V135.648ZM351.053 113.33V120.674H355.232C357.612 120.674 358.686 119.734 358.686 117.745V116.248C358.686 114.204 357.59 113.275 355.232 113.275L351.053 113.33ZM355.528 133.101C357.963 133.101 359.103 132.129 359.103 130.052V128.423C359.103 126.347 358.006 125.407 355.528 125.407H351.053V133.058L355.528 133.101Z" fill="black"/>
<path d="M215.641 172.362V170.449C215.579 170.016 215.616 169.575 215.751 169.159C215.885 168.743 216.112 168.363 216.415 168.047C216.718 167.731 217.089 167.488 217.501 167.336C217.912 167.184 218.352 167.127 218.789 167.17H219.216C219.641 167.131 220.07 167.187 220.47 167.335C220.87 167.482 221.233 167.717 221.53 168.022C221.828 168.327 222.053 168.694 222.19 169.097C222.327 169.5 222.371 169.928 222.32 170.35V172.263C222.32 174.449 223.604 175.662 226.247 175.662C228.89 175.662 230.163 174.471 230.163 172.263V152.459C230.143 152.235 230.173 152.009 230.248 151.797C230.324 151.585 230.444 151.392 230.601 151.231C230.758 151.069 230.948 150.943 231.158 150.861C231.368 150.778 231.593 150.742 231.819 150.754H235.317C235.545 150.741 235.773 150.776 235.986 150.857C236.198 150.939 236.392 151.064 236.552 151.225C236.713 151.386 236.837 151.58 236.918 151.792C236.998 152.005 237.032 152.232 237.018 152.459V171.979C237.018 177.837 232.926 180.974 226.247 180.974C219.567 180.974 215.641 178.045 215.641 172.362Z" fill="black"/>
<path d="M241.372 171.553V159.629C241.372 153.683 245.408 150.251 252.34 150.251C259.272 150.251 263.308 153.683 263.308 159.629V171.553C263.308 177.542 259.305 180.974 252.34 180.974C245.375 180.974 241.372 177.499 241.372 171.553ZM256.365 171.728V159.541C256.365 156.863 255.038 155.508 252.318 155.508C249.598 155.508 248.271 156.863 248.271 159.541V171.717C248.271 174.34 249.631 175.706 252.318 175.706C255.005 175.706 256.365 174.351 256.365 171.717V171.728Z" fill="black"/>
<path d="M268.167 179.105V176.351C268.143 176.171 268.16 175.988 268.217 175.816C268.274 175.643 268.369 175.486 268.496 175.356C268.622 175.225 268.777 175.125 268.948 175.063C269.119 175 269.302 174.977 269.483 174.995H274.419V156.185H269.483C269.306 156.204 269.126 156.184 268.958 156.124C268.789 156.065 268.636 155.969 268.51 155.843C268.384 155.718 268.288 155.565 268.228 155.397C268.169 155.23 268.148 155.051 268.167 154.874V152.12C268.143 151.939 268.16 151.756 268.217 151.583C268.274 151.411 268.369 151.253 268.496 151.122C268.622 150.99 268.776 150.889 268.947 150.825C269.118 150.762 269.301 150.737 269.483 150.753H286.264C286.448 150.736 286.633 150.76 286.807 150.823C286.98 150.886 287.138 150.986 287.268 151.117C287.398 151.247 287.497 151.405 287.559 151.578C287.621 151.752 287.643 151.937 287.624 152.12V154.874C287.636 155.053 287.609 155.233 287.544 155.4C287.48 155.568 287.379 155.719 287.249 155.844C287.12 155.969 286.965 156.064 286.795 156.123C286.624 156.182 286.443 156.203 286.264 156.185H281.329V174.995H286.264C286.444 174.977 286.626 174.999 286.797 175.058C286.968 175.118 287.124 175.214 287.254 175.34C287.384 175.466 287.484 175.619 287.548 175.788C287.612 175.957 287.638 176.138 287.624 176.318V179.072C287.646 179.257 287.627 179.444 287.567 179.621C287.507 179.797 287.408 179.957 287.277 180.09C287.147 180.224 286.988 180.326 286.813 180.39C286.638 180.454 286.45 180.478 286.264 180.46H269.483C269.302 180.476 269.12 180.452 268.95 180.389C268.78 180.326 268.627 180.225 268.5 180.096C268.374 179.966 268.279 179.809 268.221 179.638C268.163 179.467 268.145 179.284 268.167 179.105Z" fill="black"/>
<path d="M292.845 178.81V153.343C292.818 152.993 292.868 152.64 292.992 152.311C293.116 151.981 293.31 151.682 293.562 151.436C293.814 151.189 294.117 151 294.45 150.882C294.782 150.764 295.137 150.72 295.488 150.753H298C298.684 150.664 299.377 150.828 299.948 151.212C300.52 151.596 300.931 152.176 301.104 152.841L308.047 169.771V152.414C308.026 152.199 308.052 151.981 308.123 151.776C308.194 151.571 308.308 151.384 308.458 151.226C308.607 151.069 308.789 150.945 308.991 150.864C309.192 150.782 309.409 150.744 309.626 150.753H312.434C312.649 150.745 312.864 150.784 313.062 150.867C313.261 150.949 313.44 151.074 313.586 151.231C313.731 151.389 313.841 151.577 313.908 151.781C313.974 151.985 313.995 152.201 313.97 152.414V177.881C313.993 178.228 313.94 178.576 313.816 178.902C313.692 179.228 313.499 179.523 313.251 179.768C313.002 180.012 312.703 180.201 312.375 180.32C312.047 180.44 311.697 180.487 311.348 180.46H308.88C308.197 180.544 307.507 180.379 306.936 179.995C306.366 179.611 305.954 179.035 305.776 178.372L298.79 161.573V178.81C298.808 179.023 298.782 179.237 298.711 179.439C298.641 179.641 298.529 179.826 298.382 179.982C298.234 180.138 298.056 180.261 297.858 180.343C297.66 180.426 297.447 180.465 297.232 180.46H294.424C294.207 180.472 293.99 180.437 293.787 180.358C293.585 180.278 293.402 180.155 293.252 179.998C293.102 179.841 292.988 179.654 292.917 179.449C292.847 179.243 292.822 179.025 292.845 178.81V178.81Z" fill="black"/>
<path d="M340.106 152.458V156.567C340.191 159.041 339.785 161.508 338.911 163.825L334.271 177.924C333.679 179.782 332.911 180.547 331.167 180.547H326.846C325.102 180.547 324.334 179.782 323.742 177.924L319.168 163.825C318.28 161.511 317.858 159.044 317.929 156.567V152.458C317.916 152.228 317.952 151.997 318.036 151.782C318.119 151.567 318.248 151.373 318.413 151.211C318.578 151.05 318.776 150.925 318.993 150.846C319.21 150.767 319.442 150.735 319.673 150.753H322.963C323.19 150.742 323.417 150.778 323.628 150.86C323.839 150.942 324.031 151.068 324.191 151.229C324.35 151.39 324.474 151.582 324.553 151.794C324.633 152.006 324.667 152.232 324.652 152.458V156.611C324.616 158.644 324.92 160.668 325.552 162.601L329.04 174.306L332.582 162.601C333.201 160.666 333.486 158.641 333.427 156.611V152.458C333.414 152.228 333.45 151.997 333.533 151.782C333.617 151.567 333.746 151.373 333.911 151.211C334.076 151.05 334.274 150.925 334.491 150.846C334.708 150.767 334.94 150.735 335.171 150.753H338.373C338.604 150.735 338.835 150.767 339.052 150.846C339.269 150.925 339.466 151.05 339.63 151.211C339.795 151.373 339.922 151.568 340.004 151.783C340.086 151.998 340.121 152.228 340.106 152.458V152.458Z" fill="black"/>
<path d="M344.834 179.105V176.351C344.812 176.17 344.83 175.987 344.889 175.815C344.947 175.643 345.043 175.486 345.171 175.356C345.298 175.225 345.453 175.126 345.625 175.063C345.796 175.001 345.979 174.978 346.161 174.995H351.097V156.185H346.161C345.983 156.204 345.803 156.183 345.634 156.124C345.466 156.065 345.312 155.969 345.185 155.843C345.058 155.718 344.961 155.566 344.9 155.398C344.839 155.23 344.817 155.051 344.834 154.874V152.12C344.812 151.939 344.831 151.755 344.889 151.583C344.947 151.41 345.044 151.252 345.171 151.121C345.298 150.991 345.453 150.89 345.624 150.826C345.795 150.762 345.979 150.737 346.161 150.753H362.898C363.082 150.736 363.267 150.76 363.441 150.823C363.614 150.886 363.772 150.986 363.902 151.117C364.032 151.247 364.131 151.405 364.193 151.578C364.255 151.752 364.277 151.937 364.258 152.12V154.874C364.27 155.053 364.243 155.233 364.178 155.4C364.114 155.568 364.013 155.719 363.884 155.844C363.754 155.969 363.599 156.064 363.429 156.123C363.258 156.182 363.077 156.203 362.898 156.185H357.995V174.995H362.898C363.078 174.977 363.26 174.999 363.431 175.058C363.603 175.118 363.758 175.214 363.888 175.34C364.018 175.466 364.118 175.619 364.182 175.788C364.246 175.957 364.272 176.138 364.258 176.318V179.072C364.28 179.257 364.261 179.444 364.201 179.621C364.141 179.797 364.042 179.957 363.911 180.09C363.781 180.224 363.622 180.326 363.447 180.39C363.272 180.454 363.084 180.478 362.898 180.46H346.161C345.98 180.476 345.797 180.451 345.627 180.388C345.457 180.325 345.302 180.225 345.175 180.096C345.048 179.966 344.952 179.81 344.893 179.639C344.834 179.467 344.814 179.285 344.834 179.105V179.105Z" fill="black"/>
<path d="M371.289 178.045V152.458C371.274 152.231 371.308 152.002 371.389 151.789C371.47 151.576 371.596 151.382 371.758 151.221C371.919 151.059 372.114 150.934 372.328 150.854C372.542 150.773 372.771 150.739 373 150.753H376.487C376.713 150.741 376.938 150.778 377.148 150.86C377.358 150.943 377.548 151.069 377.705 151.23C377.862 151.392 377.982 151.585 378.058 151.797C378.133 152.009 378.163 152.234 378.144 152.458V174.995H389.561C389.775 174.964 389.993 174.984 390.198 175.051C390.403 175.119 390.589 175.233 390.742 175.384C390.896 175.536 391.011 175.721 391.08 175.924C391.15 176.128 391.17 176.345 391.141 176.558V178.941C391.165 179.151 391.14 179.364 391.069 179.563C390.997 179.762 390.88 179.942 390.728 180.089C390.575 180.236 390.39 180.346 390.188 180.41C389.986 180.475 389.771 180.492 389.561 180.46H373.724C373.398 180.484 373.072 180.439 372.766 180.326C372.46 180.214 372.183 180.037 371.952 179.807C371.721 179.578 371.542 179.302 371.427 178.998C371.313 178.694 371.266 178.369 371.289 178.045V178.045Z" fill="black"/>
<path d="M396.855 178.045V152.459C396.841 152.232 396.875 152.005 396.955 151.792C397.035 151.58 397.16 151.387 397.321 151.225C397.481 151.064 397.674 150.939 397.887 150.858C398.1 150.776 398.328 150.741 398.555 150.754H402.043C402.269 150.74 402.496 150.776 402.707 150.857C402.918 150.939 403.11 151.065 403.268 151.226C403.426 151.388 403.547 151.582 403.624 151.795C403.7 152.007 403.729 152.234 403.71 152.459V174.996H415.128C415.341 174.967 415.557 174.987 415.761 175.056C415.964 175.124 416.149 175.238 416.301 175.39C416.453 175.541 416.568 175.725 416.636 175.928C416.705 176.131 416.725 176.347 416.696 176.559V178.941C416.72 179.151 416.696 179.362 416.625 179.561C416.554 179.759 416.438 179.938 416.287 180.085C416.135 180.232 415.952 180.342 415.751 180.407C415.55 180.472 415.337 180.49 415.128 180.461H399.235C398.914 180.479 398.593 180.428 398.293 180.312C397.993 180.197 397.721 180.019 397.496 179.79C397.271 179.561 397.097 179.288 396.987 178.987C396.876 178.686 396.831 178.365 396.855 178.045Z" fill="black"/>
<path d="M421.852 178.045V153.136C421.828 152.807 421.876 152.478 421.993 152.17C422.11 151.862 422.293 151.583 422.528 151.352C422.764 151.121 423.047 150.944 423.358 150.833C423.67 150.722 424.001 150.68 424.33 150.71H440.42C440.64 150.677 440.864 150.697 441.074 150.767C441.284 150.838 441.474 150.956 441.629 151.114C441.785 151.272 441.9 151.464 441.966 151.675C442.033 151.886 442.048 152.109 442.011 152.327V154.622C442.04 154.835 442.02 155.052 441.95 155.256C441.881 155.46 441.766 155.645 441.612 155.796C441.459 155.948 441.273 156.062 441.068 156.13C440.863 156.197 440.645 156.216 440.431 156.185H428.718V162.601H437.141C437.509 162.561 437.881 162.601 438.232 162.718C438.582 162.836 438.903 163.029 439.171 163.283C439.44 163.536 439.649 163.846 439.786 164.189C439.922 164.531 439.981 164.9 439.96 165.268V165.443C439.981 165.811 439.922 166.179 439.786 166.522C439.649 166.865 439.44 167.174 439.171 167.428C438.903 167.682 438.582 167.874 438.232 167.992C437.881 168.11 437.509 168.15 437.141 168.11H428.718V174.995H440.42C440.639 174.963 440.861 174.983 441.071 175.053C441.28 175.123 441.469 175.24 441.624 175.397C441.779 175.553 441.895 175.744 441.962 175.953C442.029 176.163 442.046 176.385 442.011 176.602V178.897C442.038 179.111 442.016 179.328 441.945 179.532C441.875 179.735 441.758 179.92 441.604 180.071C441.45 180.222 441.263 180.336 441.058 180.404C440.853 180.471 440.634 180.49 440.42 180.46H424.33C424.002 180.489 423.672 180.447 423.361 180.337C423.051 180.227 422.768 180.051 422.533 179.821C422.297 179.592 422.114 179.314 421.997 179.007C421.879 178.701 421.83 178.372 421.852 178.045V178.045Z" fill="black"/>
<path d="M193.639 109.319C193.639 109.163 193.608 109.008 193.548 108.865C193.488 108.721 193.399 108.59 193.288 108.48C193.177 108.371 193.045 108.284 192.9 108.225C192.755 108.166 192.6 108.137 192.443 108.138H178.547V107.341C178.547 104.824 177.544 102.411 175.758 100.632C173.973 98.8531 171.552 97.8536 169.027 97.8536H152.454V82.1913C152.454 81.8791 152.331 81.5794 152.112 81.3566C151.892 81.1338 151.594 81.0057 151.28 81H95.5516C93.6905 81.0023 91.8937 81.6781 90.4953 82.9018L90.3527 83.0111L90.1992 83.1859L90.0346 83.3499L70.2921 103.023C69.5657 103.736 68.9904 104.587 68.6004 105.526C68.2104 106.465 68.0136 107.472 68.0217 108.488V179.531C68.0302 179.837 68.1573 180.127 68.3762 180.341C68.595 180.555 68.8887 180.676 69.1953 180.679H82.5873V229.01C82.5902 233.248 84.2802 237.312 87.2865 240.31C90.2928 243.307 94.3697 244.994 98.6226 245H144.897C146.149 245.002 147.388 244.757 148.544 244.279C149.7 243.8 150.749 243.098 151.631 242.213L175.487 218.474C176.418 217.545 177.145 216.435 177.623 215.212C178.101 213.989 178.318 212.68 178.262 211.369C178.262 211.238 178.262 211.107 178.262 210.976V196.483L191.511 183.28C191.564 183.237 191.608 183.185 191.643 183.127C192.938 181.719 193.658 179.879 193.661 177.968L193.639 109.319ZM117.126 136.512H137.373V189.204C137.373 189.52 137.499 189.823 137.723 190.046C137.947 190.27 138.251 190.395 138.568 190.395H167.524V209.785H122.445C121.038 209.785 119.689 209.229 118.692 208.24C117.695 207.25 117.132 205.908 117.126 204.505V136.512ZM191.259 177.968C191.256 179.376 190.693 180.726 189.694 181.721C188.695 182.717 187.341 183.277 185.928 183.28H149.383C147.971 183.277 146.618 182.716 145.621 181.72C144.623 180.725 144.063 179.375 144.063 177.968V153.923H164.31V165.465C164.31 165.781 164.436 166.084 164.661 166.307C164.885 166.53 165.189 166.656 165.506 166.656H169.816C170.132 166.653 170.433 166.526 170.655 166.303C170.876 166.08 171.001 165.779 171.001 165.465V131.091C171.001 130.777 170.876 130.475 170.655 130.252C170.433 130.029 170.132 129.902 169.816 129.899H144.59L151.719 110.51H191.259V177.968ZM169.027 99.4384C171.131 99.4384 173.149 100.271 174.638 101.752C176.127 103.234 176.965 105.244 176.968 107.341V108.138H147.485L151.982 104.914L152.125 104.794L152.245 104.663V104.597C152.274 104.561 152.296 104.52 152.311 104.477V104.411C152.316 104.35 152.316 104.287 152.311 104.226V104.226C152.37 104.141 152.418 104.049 152.454 103.952V99.4384H169.027ZM150.096 83.3717V102.761H111.708C111.548 102.757 111.39 102.784 111.242 102.842C111.093 102.9 110.958 102.988 110.845 103.099C110.731 103.21 110.641 103.343 110.58 103.49C110.519 103.636 110.489 103.794 110.49 103.952V109.319C110.489 109.475 110.518 109.629 110.577 109.774C110.636 109.918 110.723 110.05 110.833 110.161C110.943 110.271 111.074 110.359 111.219 110.419C111.363 110.479 111.518 110.51 111.675 110.51H144.14L137.099 129.899H111.675C111.518 129.899 111.363 129.93 111.219 129.99C111.074 130.05 110.943 130.138 110.833 130.249C110.723 130.36 110.636 130.491 110.577 130.636C110.518 130.78 110.489 130.935 110.49 131.091V158.524H90.2321V88.6508C90.2321 87.2439 90.7922 85.8945 91.7894 84.8986C92.7867 83.9028 94.1397 83.3418 95.5516 83.339L150.096 83.3717ZM176.649 210.976V211.402C176.699 212.502 176.518 213.599 176.117 214.625C175.717 215.65 175.106 216.582 174.324 217.359L150.513 241.098C149.777 241.835 148.902 242.42 147.938 242.817C146.974 243.215 145.94 243.418 144.897 243.415H98.6226C94.7905 243.409 91.1169 241.89 88.4072 239.19C85.6974 236.489 84.1725 232.829 84.1667 229.01V180.679H90.923V229.01C90.923 231.039 91.7319 232.985 93.1718 234.42C94.6116 235.855 96.5645 236.661 98.6007 236.661H144.897C145.21 236.657 145.509 236.532 145.73 236.311L169.553 212.572C169.666 212.462 169.755 212.331 169.815 212.187C169.875 212.042 169.906 211.887 169.904 211.73V204.385C170.528 204.027 171.1 203.586 171.604 203.074C171.622 203.07 171.641 203.07 171.659 203.074L176.649 198.09V210.976Z" fill="black"/>
</g>
<defs>
<clipPath id="clip0_496_73">
<rect width="374" height="164" fill="white" transform="translate(68 81)"/>
</clipPath>
</defs>
</svg>
