<svg width="511" height="325" viewBox="0 0 511 325" fill="none" xmlns="http://www.w3.org/2000/svg">
<path fill-rule="evenodd" clip-rule="evenodd" d="M142.156 44.0887C145.028 43.6462 147.45 45.1894 150.121 45.9724C156.274 47.7764 163.027 49.1252 169.526 50.4643C178.217 52.2557 187.277 54.0542 196.46 55.3909C232.418 60.6254 279.996 60.6888 316.074 55.246C324.775 53.9335 334.029 51.9954 342.864 50.1745C348.842 48.9429 355.943 47.4124 362.124 45.5377C364.401 44.847 366.648 43.7814 368.496 43.9438C371.529 44.2107 373.91 46.6855 373.999 49.8847C374.047 51.6253 372.896 53.9932 372.261 56.1154C370.456 62.1529 368.941 69.1799 367.627 75.3871C365.749 84.2598 364.043 93.5811 362.703 102.194C357.168 137.773 357.413 185.511 362.558 221.446C364.567 235.471 367.153 248.624 370.378 261.438C370.906 263.534 371.365 265.727 371.971 267.814C372.557 269.83 373.487 271.751 373.854 273.755C374.554 277.579 371.806 281.028 367.772 281C366.057 280.988 363.689 279.906 361.545 279.261C355.494 277.44 348.55 275.928 342.285 274.624C333.626 272.823 324.403 271.018 315.495 269.698C280.182 264.464 232.177 264.143 196.316 269.553C182.486 271.639 169.27 274.158 156.493 277.377C154.434 277.896 152.27 278.346 150.121 278.972C146.826 279.93 142.302 282.269 139.115 279.551C137.942 278.55 137.166 277.221 137.088 275.204C137.007 273.118 138.022 270.921 138.681 268.683C140.451 262.672 141.974 255.926 143.315 249.412C147.02 231.413 150.252 214.003 151.424 193.77C153.164 163.755 152.481 129.735 148.383 102.773C146.242 88.6853 143.729 75.9425 140.419 62.9257C139.911 60.9303 139.466 58.691 138.826 56.5501C138.104 54.1351 136.625 51.795 137.088 49.0153C137.571 46.1167 139.771 44.4564 142.156 44.0887" fill="black"/>
<path fill-rule="evenodd" clip-rule="evenodd" d="M186.758 110.887H179.083C178.914 110.912 178.926 111.116 178.938 111.322C179.751 115.098 177.434 122.376 179.952 124.508C181.335 125.678 184.32 125.232 186.758 125.232H194.433C193.655 121.209 195.891 114.101 193.419 111.756C192.103 110.508 189.203 110.887 186.758 110.887Z" fill="#F5E3CE"/>
<path fill-rule="evenodd" clip-rule="evenodd" d="M238.021 181.453C234.171 184.782 227.849 184.973 221.657 183.047V155.081C221.657 153.759 221.416 152.171 221.657 151.169C221.863 150.319 223.291 149.149 224.409 148.271C227.122 146.139 232.681 143.562 237.007 146.097C241.481 148.719 242.602 155.965 242.945 163.34C243.27 170.355 241.953 178.053 238.021 181.453ZM237.007 132.332C230.672 132.38 225.638 135.382 222.237 138.273C222.156 138.341 221.93 139.041 221.657 138.562V124.652C221.657 121.122 222.481 113.497 220.644 111.756C219.296 110.48 216.378 110.887 213.982 110.887H206.307C206.139 110.911 206.151 111.116 206.163 111.321V182.032C206.163 185.12 205.608 189.949 206.742 191.596C207.715 193.009 210.346 193.449 212.245 193.914C218.561 195.463 226.604 196.275 233.822 195.508C253.069 193.465 260.507 179.432 259.019 157.834C258.003 143.094 252.349 132.215 237.007 132.332" fill="#F5E3CE"/>
<path fill-rule="evenodd" clip-rule="evenodd" d="M275.528 110.889H267.998C267.829 110.914 267.84 111.118 267.852 111.324C268.599 115.37 266.278 122.969 269.301 124.799C270.834 125.728 273.653 125.234 276.107 125.234H283.348C282.535 121.258 284.911 113.749 282.189 111.613C280.761 110.493 277.998 110.889 275.528 110.889Z" fill="#F5E3CE"/>
<path fill-rule="evenodd" clip-rule="evenodd" d="M314.336 155.951C311.347 154.587 307.536 152.927 307.385 150.01C307.133 145.147 312.974 144.705 317.956 145.083C323.105 145.474 326.857 146.395 330.265 147.257C329.768 142.653 331.34 138.737 329.252 136.389C327.88 134.848 323.738 134.332 321.432 133.926C309.521 131.828 298.716 134.573 294.497 141.751C291.619 146.648 291.454 155.874 295.366 161.167C297.859 164.542 302.536 167.205 307.095 169.282C311.265 171.181 318.048 173.435 318.246 178.121C318.494 183.993 311.432 184.412 305.648 183.917C300.51 183.476 296.585 182.52 292.904 181.743C293.219 185.779 292.066 190.642 294.062 192.755C294.867 193.607 296.452 193.97 297.972 194.349C305.656 196.266 316.361 196.331 322.445 193.77C328.259 191.322 332.926 186.481 333.451 179.135C334.506 164.391 323.87 160.3 314.336 155.951Z" fill="#F5E3CE"/>
<path fill-rule="evenodd" clip-rule="evenodd" d="M186.758 133.926H179.083C178.914 133.95 178.926 134.155 178.938 134.361V187.539C178.938 190.137 178.763 193.199 179.951 194.205C181.314 195.357 184.391 194.929 186.758 194.929H194.433V141.461C194.433 138.77 194.552 135.869 193.419 134.796C192.138 133.582 189.12 133.926 186.758 133.926Z" fill="#F5E3CE"/>
<path fill-rule="evenodd" clip-rule="evenodd" d="M275.817 133.926H267.997C267.829 133.95 267.839 134.155 267.852 134.361V187.974C267.852 190.666 267.729 193.334 269.155 194.349C270.578 195.361 273.655 194.929 275.962 194.929H283.347V141.751C283.347 139.224 283.5 136.017 282.478 134.94C281.188 133.582 278.259 133.926 275.817 133.926Z" fill="#F5E3CE"/>
<path fill-rule="evenodd" clip-rule="evenodd" d="M243.09 237.529C238.544 239.356 238.11 229.947 241.207 228.98C245.736 227.567 245.474 236.572 243.09 237.529ZM244.827 226.952C243.811 226.474 242.438 226.412 240.917 226.662C239.806 226.845 239.246 226.932 238.601 227.386C236.182 229.09 235.551 235.621 237.587 238.254C238.924 239.983 242.681 240.475 244.683 239.558C249.073 237.546 248.483 228.67 244.827 226.952" fill="#F5E3CE"/>
<path fill-rule="evenodd" clip-rule="evenodd" d="M288.27 233.762C287.753 232.998 286.627 232.543 285.518 232.023C284.741 231.659 282.793 231.21 283.202 229.705C283.632 228.123 286.976 229.051 288.126 229.416C288.101 228.668 288.215 227.78 287.981 227.242C285.412 226.288 282.027 226.479 280.885 228.112C279.907 229.51 280.24 231.583 281.03 232.603C282.345 234.303 286.119 234.228 286.098 236.225C286.074 238.524 282.353 237.504 280.451 237.24V238.979C282.859 240.438 286.919 240.216 288.27 238.254C289.063 237.104 289.144 235.052 288.27 233.762Z" fill="#F5E3CE"/>
<path fill-rule="evenodd" clip-rule="evenodd" d="M234.256 226.954C233.559 226.686 232.424 226.855 231.505 226.809C231.409 228.451 231.697 230.479 231.36 231.88H226.727C226.649 230.268 226.894 228.331 226.581 226.954C225.883 226.686 224.749 226.855 223.83 226.809V233.474C223.83 235.604 223.605 237.807 224.119 239.56C224.729 239.868 225.884 239.63 226.727 239.705C226.822 237.869 226.533 235.648 226.871 234.054H231.505C231.573 235.869 231.351 237.975 231.65 239.56C232.348 239.827 233.483 239.658 234.401 239.705C234.308 235.499 234.59 230.918 234.256 226.954Z" fill="#F5E3CE"/>
<path fill-rule="evenodd" clip-rule="evenodd" d="M258.294 226.808C255.218 226.979 250.54 226.452 248.447 227.098C248.156 227.531 248.365 228.465 248.302 229.126H251.922V239.414C252.458 239.893 253.719 239.645 254.674 239.704C254.77 236.226 254.481 232.362 254.819 229.126C255.917 229.066 257.277 229.268 258.149 228.981C258.446 228.506 258.228 227.514 258.294 226.808" fill="#F5E3CE"/>
<path fill-rule="evenodd" clip-rule="evenodd" d="M262.783 234.052H267.707C268.111 233.636 267.981 232.684 267.997 231.879H262.783C262.878 231.007 262.593 229.756 262.928 229.125C264.682 229.045 266.768 229.297 268.286 228.981C268.622 228.496 268.593 227.646 268.576 226.807H260.031C260.316 229.551 259.66 234.369 260.031 236.95C260.561 240.624 265.462 240.201 268.865 239.268C269.088 238.767 268.993 237.947 269.01 237.24C266.165 237.834 261.759 238.47 262.783 234.052Z" fill="#F5E3CE"/>
<path fill-rule="evenodd" clip-rule="evenodd" d="M274.224 237.24C272.47 235.722 274.469 229.021 273.499 226.952C272.843 226.691 271.768 226.849 270.892 226.807C271.356 230.436 269.926 237.142 271.762 238.979C273.162 240.38 276.723 239.974 278.857 239.268C279.08 238.767 278.985 237.948 279.002 237.24C277.279 237.343 275.354 238.219 274.224 237.24Z" fill="#F5E3CE"/>
</svg>
