<svg width="214" height="56" viewBox="0 0 214 56" fill="none" xmlns="http://www.w3.org/2000/svg">
<path d="M33.8985 17.9135C33.3893 17.4907 32.8015 17.1721 32.1687 16.9758C31.5359 16.7795 30.8705 16.7093 30.2104 16.7693C29.5504 16.8293 28.9087 17.0183 28.322 17.3255C27.7353 17.6327 27.2151 18.0521 26.7911 18.5596L16.612 30.7246C15.8555 31.6283 15.4412 32.7678 15.4412 33.9446C15.4412 35.1214 15.8555 36.2609 16.612 37.1646L26.7911 49.323C27.6479 50.3472 28.8779 50.9904 30.2106 51.111C31.5433 51.2315 32.8695 50.8197 33.8974 49.9659C34.9253 49.1122 35.5708 47.8866 35.6918 46.5587C35.8128 45.2308 35.3994 43.9094 34.5426 42.8852L27.057 33.9446L34.5426 24.9953C34.9672 24.4882 35.2872 23.9028 35.4846 23.2724C35.682 22.642 35.7528 21.9791 35.693 21.3214C35.6332 20.6638 35.4439 20.0243 35.136 19.4396C34.8281 18.8548 34.4076 18.3363 33.8985 17.9135V17.9135ZM9.29497 16.7482C8.63224 16.7482 7.976 16.8783 7.36375 17.1311C6.7515 17.3839 6.19522 17.7544 5.7267 18.2214C5.25818 18.6884 4.8866 19.2429 4.63318 19.853C4.37976 20.4632 4.24947 21.1171 4.24976 21.7775V46.1159C4.27708 47.4315 4.82075 48.6839 5.76414 49.6047C6.70753 50.5254 7.97549 51.0411 9.29605 51.0411C10.6166 51.0411 11.8846 50.5254 12.828 49.6047C13.7713 48.6839 14.315 47.4315 14.3423 46.1159V21.7775C14.3423 20.4436 13.8106 19.1644 12.864 18.2213C11.9174 17.2781 10.6336 16.7482 9.29497 16.7482ZM64.2497 16.7482C63.587 16.7482 62.9308 16.8783 62.3185 17.1311C61.7063 17.3839 61.15 17.7544 60.6815 18.2214C60.2129 18.6884 59.8414 19.2429 59.5879 19.853C59.3345 20.4632 59.2042 21.1171 59.2045 21.7775V41.0846H47.9252V21.7775C47.9391 21.1084 47.8189 20.4433 47.5715 19.8212C47.3241 19.199 46.9547 18.6323 46.4847 18.1542C46.0147 17.6761 45.4537 17.2963 44.8346 17.037C44.2154 16.7777 43.5505 16.6442 42.8789 16.6442C42.2073 16.6442 41.5424 16.7777 40.9233 17.037C40.3041 17.2963 39.7431 17.6761 39.2731 18.1542C38.8032 18.6323 38.4337 19.199 38.1863 19.8212C37.939 20.4433 37.8187 21.1084 37.8326 21.7775V46.1159C37.8326 46.7763 37.9632 47.4302 38.2169 48.0402C38.4706 48.6503 38.8424 49.2045 39.3111 49.6714C39.7798 50.1382 40.3363 50.5085 40.9486 50.761C41.561 51.0135 42.2173 51.1433 42.88 51.143H64.2497C64.9125 51.1433 65.5688 51.0135 66.1811 50.761C66.7935 50.5085 67.3499 50.1382 67.8186 49.6714C68.2874 49.2045 68.6592 48.6503 68.9129 48.0402C69.1665 47.4302 69.2971 46.7763 69.2971 46.1159V21.7775C69.2974 21.117 69.167 20.4628 68.9135 19.8525C68.6599 19.2422 68.2881 18.6877 67.8194 18.2206C67.3506 17.7536 66.7941 17.3831 66.1816 17.1305C65.5691 16.8779 64.9126 16.748 64.2497 16.7482V16.7482ZM170.169 17.2092C169.292 16.8074 168.319 16.6645 167.363 16.7974C166.408 16.9302 165.51 17.3333 164.778 17.9587L157.374 24.2824L149.964 17.9566C149.231 17.3313 148.334 16.9285 147.378 16.796C146.423 16.6635 145.449 16.8069 144.573 17.209C143.696 17.6112 142.954 18.2553 142.434 19.065C141.914 19.8747 141.637 20.8161 141.638 21.7775V46.1159C141.665 47.4315 142.209 48.6839 143.152 49.6047C144.096 50.5254 145.363 51.0411 146.684 51.0411C148.005 51.0411 149.273 50.5254 150.216 49.6047C151.159 48.6839 151.703 47.4315 151.73 46.1159V32.6996L154.108 34.7221C155.023 35.5027 156.187 35.9317 157.392 35.9317C158.596 35.9317 159.76 35.5027 160.675 34.7221L163.029 32.7104V46.1138C163.029 47.4476 163.561 48.7268 164.507 49.67C165.454 50.6132 166.738 51.143 168.076 51.143C169.415 51.143 170.699 50.6132 171.646 49.67C172.592 48.7268 173.124 47.4476 173.124 46.1138V21.7753C173.123 20.8128 172.844 19.8709 172.322 19.0615C171.799 18.2521 171.054 17.6092 170.175 17.2092H170.169ZM208.574 36.8092L193.316 18.5575C192.842 17.9912 192.25 17.5355 191.58 17.2229C190.91 16.9102 190.179 16.7482 189.44 16.7482H180.279C179.616 16.748 178.959 16.8779 178.347 17.1305C177.734 17.3831 177.178 17.7536 176.709 18.2206C176.24 18.6877 175.869 19.2422 175.615 19.8525C175.362 20.4628 175.231 21.117 175.231 21.7775V46.1159C175.232 46.7761 175.362 47.4298 175.616 48.0396C175.87 48.6494 176.242 49.2034 176.711 49.67C177.179 50.1366 177.736 50.5067 178.348 50.759C178.96 51.0114 179.616 51.1411 180.279 51.1409H192.911C194.232 51.1136 195.489 50.5719 196.413 49.6319C197.337 48.6919 197.854 47.4285 197.854 46.1127C197.854 44.7969 197.337 43.5335 196.413 42.5935C195.489 41.6535 194.232 41.1118 192.911 41.0846H185.324V26.8046H187.073L199.656 41.8492V46.1138C199.683 47.4293 200.227 48.6818 201.17 49.6025C202.113 50.5233 203.381 51.0389 204.702 51.0389C206.022 51.0389 207.29 50.5233 208.234 49.6025C209.177 48.6818 209.721 47.4293 209.748 46.1138V40.0292C209.749 38.8528 209.336 37.7135 208.581 36.8092H208.574ZM123.082 18.5575C122.609 17.9914 122.016 17.5359 121.347 17.2233C120.677 16.9106 119.946 16.7485 119.207 16.7482H110.046C109.383 16.7482 108.727 16.8783 108.115 17.1311C107.502 17.3839 106.946 17.7544 106.477 18.2214C106.009 18.6884 105.637 19.2429 105.384 19.853C105.131 20.4632 105 21.1171 105.001 21.7775V46.1159C105.001 47.4492 105.532 48.7279 106.478 49.6706C107.424 50.6134 108.708 51.143 110.046 51.143H122.68C124.001 51.1158 125.258 50.5741 126.182 49.6341C127.106 48.6941 127.623 47.4307 127.623 46.1149C127.623 44.7991 127.106 43.5356 126.182 42.5956C125.258 41.6556 124.001 41.1139 122.68 41.0867H115.093V26.8067H116.842L129.425 41.8513V46.1159C129.452 47.4315 129.996 48.6839 130.939 49.6047C131.882 50.5254 133.15 51.0411 134.471 51.0411C135.791 51.0411 137.059 50.5254 138.003 49.6047C138.946 48.6839 139.49 47.4315 139.517 46.1159V40.0292C139.516 38.852 139.101 37.7126 138.343 36.8092L123.082 18.5575ZM97.8348 26.8046C99.155 26.7773 100.412 26.2356 101.336 25.2956C102.26 24.3556 102.778 23.0922 102.778 21.7764C102.778 20.4606 102.26 19.1972 101.336 18.2572C100.412 17.3172 99.155 16.7755 97.8348 16.7482H76.4629C75.1242 16.7482 73.8404 17.2781 72.8938 18.2213C71.9473 19.1644 71.4155 20.4436 71.4155 21.7775V30.9033C71.416 31.9962 71.7736 33.0592 72.4343 33.9316C73.0949 34.804 74.0227 35.4384 75.0773 35.7387L92.7874 40.7809V41.0846H76.4629C75.7914 41.0707 75.1239 41.1905 74.4995 41.437C73.8751 41.6835 73.3063 42.0516 72.8265 42.5199C72.3467 42.9882 71.9655 43.5472 71.7053 44.1641C71.4451 44.781 71.311 45.4435 71.311 46.1127C71.311 46.7819 71.4451 47.4444 71.7053 48.0613C71.9655 48.6783 72.3467 49.2372 72.8265 49.7055C73.3063 50.1738 73.8751 50.542 74.4995 50.7884C75.1239 51.0349 75.7914 51.1547 76.4629 51.1409H97.8348C99.1728 51.1409 100.456 50.6112 101.402 49.6685C102.348 48.7257 102.88 47.4471 102.88 46.1138V36.9879C102.88 35.8949 102.523 34.8315 101.862 33.959C101.201 33.0865 100.273 32.4523 99.2182 32.1526L81.5081 27.1104V26.8046H97.8348ZM134.798 14.4566V14.6461C134.798 14.6461 141.748 11.9107 143.099 12.6172L142.284 12.8562C142.355 12.8562 143.676 12.9424 143.676 12.9424C143.707 13.2141 143.798 13.4757 143.943 13.7081C144.088 13.9405 144.282 14.138 144.513 14.2864C145.308 14.8098 145.323 15.0941 145.323 15.0941C145.323 15.0941 144.91 15.2621 144.91 15.4753C145.294 15.3658 145.691 15.3086 146.091 15.3052C146.451 15.318 146.808 15.3751 147.154 15.4753C147.154 15.4753 147.113 15.2599 146.558 15.0941C146.002 14.9282 145.466 14.3424 145.196 14.0172C145.034 13.8093 144.929 13.563 144.891 13.3025C144.853 13.042 144.883 12.7762 144.98 12.531C145.172 12.0399 145.844 11.7664 147.208 11.0599C148.827 10.2264 149.197 9.60179 149.424 9.12148C149.651 8.64117 149.992 7.6784 150.18 7.22609C150.337 6.80333 150.606 6.43101 150.959 6.14917C151.199 5.96609 152.292 5.55471 152.292 5.55471C152.292 5.55471 151.458 4.84609 151.186 4.63286C150.845 4.31161 150.415 4.10126 149.951 4.02979C149.372 3.9544 148.784 4.33779 148.386 4.59409C147.989 4.8504 147.219 5.59994 146.908 5.81532C146.597 6.03071 145.799 6.24609 144.53 7.01932C143.261 7.79255 138.225 10.9953 138.225 10.9953L139.522 11.0082L133.7 14.0172H134.282L133.443 14.6633C133.908 14.7693 134.395 14.6954 134.807 14.4566H134.798Z" fill="white"/>
</svg>
