<svg width="350" height="315" viewBox="0 0 350 315" fill="none" xmlns="http://www.w3.org/2000/svg">
<path d="M55.0329 226.457C54.2001 225.764 53.2388 225.241 52.2038 224.918C51.1689 224.596 50.0805 224.481 49.001 224.579C47.9215 224.678 46.872 224.988 45.9125 225.492C44.9529 225.997 44.1021 226.685 43.4087 227.518L26.7607 247.486C25.5234 248.969 24.8458 250.84 24.8458 252.771C24.8458 254.703 25.5234 256.573 26.7607 258.056L43.4087 278.014C44.81 279.695 46.8217 280.75 49.0013 280.948C51.181 281.146 53.35 280.47 55.0311 279.069C56.7123 277.668 57.768 275.656 57.9659 273.476C58.1638 271.297 57.4877 269.128 56.0864 267.446L43.8435 252.771L56.0864 238.082C56.7807 237.249 57.3042 236.288 57.6271 235.254C57.9499 234.219 58.0657 233.131 57.9679 232.051C57.87 230.972 57.5605 229.922 57.0569 228.962C56.5533 228.003 55.8655 227.151 55.0329 226.457ZM14.7935 224.545C13.7096 224.545 12.6363 224.758 11.635 225.173C10.6336 225.588 9.72383 226.196 8.95756 226.963C8.19129 227.73 7.58356 228.64 7.16909 229.641C6.75462 230.643 6.54153 231.716 6.54199 232.8V272.749C6.58669 274.909 7.47586 276.965 9.01879 278.476C10.5617 279.987 12.6355 280.834 14.7953 280.834C16.9551 280.834 19.0288 279.987 20.5718 278.476C22.1147 276.965 23.0039 274.909 23.0486 272.749V232.8C23.049 231.716 22.8358 230.642 22.4211 229.64C22.0064 228.639 21.3984 227.728 20.6317 226.962C19.8651 226.195 18.9549 225.587 17.9531 225.172C16.9514 224.758 15.8777 224.544 14.7935 224.545ZM159.602 241.051C161.761 241.007 163.817 240.118 165.328 238.575C166.839 237.032 167.686 234.958 167.686 232.798C167.686 230.638 166.839 228.565 165.328 227.022C163.817 225.479 161.761 224.59 159.602 224.545H124.648C122.458 224.545 120.358 225.415 118.81 226.963C117.262 228.511 116.392 230.611 116.392 232.8V247.779C116.393 249.573 116.978 251.318 118.059 252.75C119.139 254.182 120.657 255.223 122.381 255.716L151.347 263.992V264.491H124.648C123.549 264.468 122.458 264.665 121.436 265.069C120.415 265.474 119.485 266.078 118.7 266.847C117.916 267.615 117.292 268.533 116.866 269.546C116.441 270.558 116.222 271.646 116.222 272.744C116.222 273.843 116.441 274.93 116.866 275.943C117.292 276.955 117.916 277.873 118.7 278.641C119.485 279.41 120.415 280.014 121.436 280.419C122.458 280.823 123.549 281.02 124.648 280.997H159.602C161.79 280.997 163.889 280.128 165.436 278.581C166.984 277.033 167.853 274.934 167.853 272.746V257.767C167.853 255.972 167.269 254.227 166.188 252.795C165.108 251.363 163.59 250.322 161.864 249.83L132.899 241.553V241.051H159.602ZM104.673 224.545C103.589 224.545 102.516 224.758 101.514 225.173C100.513 225.588 99.6031 226.196 98.8368 226.963C98.0706 227.73 97.4629 228.64 97.0484 229.641C96.6339 230.643 96.4208 231.716 96.4213 232.8V264.491H77.9738V232.8C77.9965 231.702 77.7999 230.61 77.3953 229.589C76.9908 228.568 76.3865 227.637 75.6178 226.853C74.8492 226.068 73.9317 225.444 72.919 225.019C71.9064 224.593 70.819 224.374 69.7205 224.374C68.6221 224.374 67.5347 224.593 66.522 225.019C65.5094 225.444 64.5919 226.068 63.8232 226.853C63.0546 227.637 62.4503 228.568 62.0457 229.589C61.6412 230.61 61.4445 231.702 61.4672 232.8V272.749C61.4672 273.833 61.6808 274.907 62.0957 275.908C62.5106 276.909 63.1187 277.819 63.8853 278.585C64.6519 279.352 65.562 279.959 66.5635 280.374C67.565 280.788 68.6384 281.001 69.7223 281.001H104.673C105.757 281.001 106.83 280.788 107.832 280.374C108.833 279.959 109.743 279.352 110.51 278.585C111.276 277.819 111.885 276.909 112.299 275.908C112.714 274.907 112.928 273.833 112.928 272.749V232.8C112.928 231.716 112.715 230.642 112.3 229.64C111.886 228.639 111.278 227.728 110.511 226.962C109.744 226.195 108.834 225.587 107.832 225.172C106.831 224.758 105.757 224.544 104.673 224.545ZM200.895 227.515C200.12 226.585 199.151 225.837 198.056 225.324C196.96 224.811 195.765 224.545 194.556 224.545H179.573C178.489 224.545 177.416 224.758 176.414 225.173C175.413 225.588 174.503 226.196 173.737 226.963C172.971 227.73 172.363 228.64 171.948 229.641C171.534 230.643 171.321 231.716 171.321 232.8V272.749C171.321 274.938 172.191 277.037 173.738 278.584C175.286 280.132 177.384 281.001 179.573 281.001H200.237C202.396 280.956 204.452 280.067 205.963 278.524C207.475 276.981 208.321 274.907 208.321 272.748C208.321 270.588 207.475 268.514 205.963 266.971C204.452 265.428 202.396 264.539 200.237 264.494H187.828V241.055H190.688L211.267 265.749V272.749C211.312 274.909 212.201 276.965 213.744 278.476C215.287 279.987 217.361 280.834 219.521 280.834C221.68 280.834 223.754 279.987 225.297 278.476C226.84 276.965 227.729 274.909 227.774 272.749V262.758C227.772 260.826 227.093 258.956 225.854 257.473L200.895 227.515ZM340.728 257.473L315.762 227.515C314.988 226.585 314.018 225.837 312.923 225.324C311.827 224.811 310.633 224.545 309.423 224.545H294.44C293.356 224.544 292.282 224.758 291.28 225.172C290.279 225.587 289.368 226.195 288.602 226.962C287.835 227.728 287.227 228.639 286.812 229.64C286.398 230.642 286.184 231.716 286.185 232.8V272.749C286.185 273.833 286.399 274.906 286.814 275.907C287.23 276.908 287.838 277.817 288.604 278.583C289.371 279.349 290.281 279.956 291.282 280.371C292.283 280.785 293.356 280.998 294.44 280.997H315.101C317.26 280.953 319.316 280.064 320.827 278.521C322.338 276.978 323.185 274.904 323.185 272.744C323.185 270.584 322.338 268.511 320.827 266.968C319.316 265.425 317.26 264.536 315.101 264.491H302.692V241.051H305.552L326.131 265.746V272.746C326.176 274.905 327.065 276.961 328.608 278.472C330.151 279.984 332.224 280.83 334.384 280.83C336.544 280.83 338.618 279.984 340.161 278.472C341.704 276.961 342.593 274.905 342.637 272.746V262.758C342.639 260.828 341.963 258.957 340.728 257.473ZM277.916 225.301C276.482 224.642 274.89 224.407 273.327 224.625C271.764 224.844 270.297 225.505 269.099 226.532L256.99 236.912L244.86 226.528C243.662 225.502 242.194 224.841 240.631 224.623C239.068 224.406 237.475 224.641 236.042 225.301C234.608 225.961 233.394 227.019 232.544 228.348C231.693 229.677 231.241 231.222 231.242 232.8V272.749C231.287 274.909 232.176 276.965 233.719 278.476C235.262 279.987 237.336 280.834 239.495 280.834C241.655 280.834 243.729 279.987 245.272 278.476C246.815 276.965 247.704 274.909 247.749 272.749V250.728L251.637 254.047C253.133 255.329 255.038 256.033 257.008 256.033C258.977 256.033 260.882 255.329 262.378 254.047L266.228 250.745V272.746C266.228 274.935 267.098 277.035 268.646 278.583C270.194 280.131 272.294 281.001 274.483 281.001C276.672 281.001 278.772 280.131 280.32 278.583C281.868 277.035 282.738 274.935 282.738 272.746V232.796C282.736 231.217 282.281 229.67 281.426 228.342C280.571 227.013 279.353 225.958 277.916 225.301Z" fill="black"/>
<path fill-rule="evenodd" clip-rule="evenodd" d="M174.591 190.434C217.547 190.434 252.369 155.612 252.369 112.657C252.369 69.7012 217.547 34.8789 174.591 34.8789C131.636 34.8789 96.8137 69.7012 96.8137 112.657C96.8137 155.612 131.636 190.434 174.591 190.434ZM228.28 79.3941C228.428 79.5128 228.574 79.6292 228.718 79.7424C230.45 81.1212 235.859 85.8232 235.859 85.8232C235.859 85.8232 228.753 88.4748 227.198 89.6768C225.607 90.8788 223.698 92.8939 222.142 96.6768C221.655 97.8321 221.02 99.5026 220.338 101.296C219.288 104.056 218.128 107.108 217.228 109.015C215.743 112.162 213.339 116.192 202.839 121.636C201.586 122.283 200.423 122.874 199.348 123.42C192.777 126.758 189.443 128.453 188.379 131.217C186.895 135 188.097 138.783 189.829 140.904C191.561 143.025 195.061 146.879 198.667 147.904C202.238 148.894 202.521 150.379 202.521 150.379C202.521 150.379 199.304 149.389 195.627 149.283C191.95 149.177 187.99 150.379 187.99 150.379C187.99 149 190.677 147.904 190.677 147.904C190.677 147.904 190.571 146.03 185.41 142.636C180.248 139.207 179.965 133.869 179.965 133.869C179.965 133.869 171.41 133.303 170.95 133.303L176.253 131.747C167.556 127.152 122.516 144.899 122.516 144.899V143.732C118.485 146.278 113.677 145.005 113.677 145.005L119.122 140.869H115.339L153.167 121.389L144.682 121.283C144.682 121.283 177.278 100.354 185.586 95.3687C190.559 92.3851 194.405 90.6934 197.123 89.4975C198.946 88.6954 200.262 88.1163 201.071 87.5202C201.906 86.9049 203.233 85.707 204.684 84.3966C206.735 82.5446 209.035 80.4681 210.546 79.495L210.679 79.4091C213.257 77.7485 217.009 75.3317 220.692 75.8182C224.375 76.2745 226.526 77.9928 228.28 79.3941Z" fill="black"/>
</svg>
