<svg width="640" height="168" viewBox="0 0 640 168" fill="none" xmlns="http://www.w3.org/2000/svg">
<path d="M101.379 53.7406C99.8558 52.4723 98.0979 51.5164 96.2054 50.9275C94.3129 50.3385 92.3228 50.128 90.3489 50.308C88.3749 50.488 86.4558 51.055 84.7012 51.9766C82.9466 52.8982 81.3908 54.1563 80.1228 55.679L49.6808 92.1738C47.4184 94.8849 46.1792 98.3034 46.1792 101.834C46.1792 105.364 47.4184 108.783 49.6808 111.494L80.1228 147.969C82.6852 151.042 86.3638 152.971 90.3494 153.333C94.335 153.695 98.3012 152.459 101.375 149.898C104.449 147.337 106.38 143.66 106.742 139.676C107.104 135.693 105.867 131.728 103.305 128.656L80.918 101.834L103.305 74.9861C104.575 73.4648 105.532 71.7085 106.122 69.8173C106.712 67.9262 106.924 65.9374 106.745 63.9644C106.566 61.9915 106 60.0731 105.08 58.3188C104.159 56.5646 102.901 55.0089 101.379 53.7406V53.7406ZM27.798 50.2449C25.816 50.2449 23.8534 50.6352 22.0224 51.3935C20.1913 52.1518 18.5277 53.2632 17.1265 54.6643C15.7253 56.0654 14.614 57.7288 13.8562 59.5592C13.0983 61.3897 12.7086 63.3515 12.7095 65.3326V138.348C12.7912 142.295 14.4171 146.052 17.2385 148.814C20.0598 151.576 23.8519 153.123 27.8012 153.123C31.7505 153.123 35.5426 151.576 38.3639 148.814C41.1853 146.052 42.8112 142.295 42.8929 138.348V65.3326C42.8929 61.3311 41.3026 57.4934 38.4717 54.664C35.6408 51.8345 31.8014 50.2449 27.798 50.2449ZM192.149 50.2449C190.167 50.2449 188.204 50.6352 186.373 51.3935C184.542 52.1518 182.878 53.2632 181.477 54.6643C180.076 56.0654 178.965 57.7288 178.207 59.5592C177.449 61.3897 177.059 63.3515 177.06 65.3326V123.254H143.328V65.3326C143.369 63.3254 143.01 61.3301 142.27 59.4636C141.53 57.5971 140.425 55.8969 139.02 54.4627C137.614 53.0285 135.936 51.8891 134.085 51.1112C132.233 50.3333 130.245 49.9327 128.236 49.9327C126.227 49.9327 124.239 50.3333 122.387 51.1112C120.536 51.8891 118.858 53.0285 117.452 54.4627C116.047 55.8969 114.942 57.5971 114.202 59.4636C113.462 61.3301 113.103 63.3254 113.144 65.3326V138.348C113.144 140.329 113.535 142.291 114.293 144.121C115.052 145.951 116.164 147.614 117.566 149.014C118.968 150.415 120.632 151.526 122.463 152.283C124.294 153.041 126.257 153.43 128.239 153.429H192.149C194.131 153.43 196.093 153.041 197.925 152.283C199.756 151.526 201.42 150.415 202.822 149.014C204.224 147.614 205.336 145.951 206.094 144.121C206.853 142.291 207.244 140.329 207.244 138.348V65.3326C207.244 63.351 206.855 61.3887 206.096 59.5577C205.338 57.7268 204.226 56.0632 202.824 54.6621C201.422 53.2609 199.758 52.1495 197.926 51.3916C196.094 50.6337 194.131 50.244 192.149 50.2449V50.2449ZM508.916 51.6276C506.295 50.4224 503.383 49.9937 500.526 50.3922C497.668 50.7908 494.985 51.9999 492.794 53.8762L470.652 72.8473L448.491 53.8698C446.299 51.994 443.615 50.7857 440.757 50.3882C437.899 49.9907 434.987 50.4207 432.366 51.6272C429.745 52.8337 427.525 54.766 425.97 57.1952C424.414 59.6243 423.588 62.4484 423.589 65.3326V138.348C423.671 142.295 425.297 146.052 428.118 148.814C430.94 151.576 434.732 153.123 438.681 153.123C442.631 153.123 446.423 151.576 449.244 148.814C452.065 146.052 453.691 142.295 453.773 138.348V98.099L460.884 104.166C463.619 106.508 467.102 107.795 470.704 107.795C474.305 107.795 477.788 106.508 480.524 104.166L487.564 98.1313V138.341C487.564 142.343 489.154 146.181 491.985 149.01C494.816 151.84 498.655 153.429 502.659 153.429C506.662 153.429 510.501 151.84 513.332 149.01C516.163 146.181 517.754 142.343 517.754 138.341V65.3261C517.75 62.4386 516.917 59.6129 515.354 57.1846C513.791 54.7564 511.563 52.8276 508.936 51.6276H508.916ZM623.774 110.428L578.14 55.6726C576.724 53.9736 574.952 52.6067 572.949 51.6687C570.946 50.7307 568.761 50.2446 566.549 50.2449H539.152C537.169 50.244 535.206 50.6337 533.374 51.3916C531.542 52.1495 529.878 53.2609 528.476 54.6621C527.074 56.0632 525.962 57.7268 525.204 59.5577C524.446 61.3887 524.056 63.351 524.057 65.3326V138.348C524.057 140.328 524.449 142.289 525.208 144.119C525.967 145.948 527.079 147.61 528.48 149.01C529.882 150.41 531.546 151.52 533.377 152.277C535.208 153.034 537.17 153.424 539.152 153.423H576.931C580.879 153.341 584.639 151.716 587.402 148.896C590.166 146.076 591.713 142.286 591.713 138.338C591.713 134.391 590.166 130.601 587.402 127.781C584.639 124.961 580.879 123.335 576.931 123.254H554.24V80.4138H559.47L597.101 125.548V138.341C597.182 142.288 598.808 146.045 601.63 148.808C604.451 151.57 608.243 153.117 612.192 153.117C616.142 153.117 619.934 151.57 622.755 148.808C625.576 146.045 627.202 142.288 627.284 138.341V120.088C627.286 116.559 626.051 113.14 623.793 110.428H623.774ZM368.097 55.6726C366.681 53.9743 364.908 52.6078 362.905 51.6699C360.903 50.732 358.718 50.2455 356.506 50.2449H329.109C327.127 50.2449 325.164 50.6352 323.333 51.3935C321.502 52.1518 319.838 53.2632 318.437 54.6643C317.036 56.0654 315.925 57.7288 315.167 59.5592C314.409 61.3897 314.019 63.3515 314.02 65.3326V138.348C314.02 142.348 315.61 146.184 318.439 149.012C321.269 151.84 325.107 153.429 329.109 153.429H366.895C370.843 153.347 374.602 151.722 377.366 148.902C380.129 146.082 381.677 142.292 381.677 138.345C381.677 134.397 380.129 130.607 377.366 127.787C374.602 124.967 370.843 123.342 366.895 123.26H344.204V80.4203H349.434L387.064 125.554V138.348C387.146 142.295 388.772 146.052 391.593 148.814C394.415 151.576 398.207 153.123 402.156 153.123C406.105 153.123 409.897 151.576 412.719 148.814C415.54 146.052 417.166 142.295 417.248 138.348V120.088C417.245 116.556 416.002 113.138 413.737 110.428L368.097 55.6726ZM292.59 80.4138C296.538 80.3321 300.298 78.707 303.061 75.887C305.825 73.067 307.372 69.2768 307.372 65.3293C307.372 61.3819 305.825 57.5917 303.061 54.7717C300.298 51.9517 296.538 50.3266 292.59 50.2449H228.674C224.67 50.2449 220.831 51.8345 218 54.664C215.169 57.4934 213.579 61.3311 213.579 65.3326V92.7101C213.58 95.9888 214.65 99.1778 216.626 101.795C218.602 104.412 221.376 106.315 224.53 107.216L277.495 122.343V123.254H228.674C226.666 123.212 224.669 123.572 222.802 124.311C220.935 125.051 219.234 126.155 217.799 127.56C216.364 128.965 215.224 130.642 214.446 132.492C213.667 134.343 213.267 136.331 213.267 138.338C213.267 140.346 213.667 142.333 214.446 144.184C215.224 146.035 216.364 147.712 217.799 149.117C219.234 150.522 220.935 151.626 222.802 152.365C224.669 153.105 226.666 153.464 228.674 153.423H292.59C296.592 153.423 300.429 151.834 303.259 149.006C306.089 146.177 307.678 142.341 307.678 138.341V110.964C307.679 107.685 306.61 104.495 304.634 101.877C302.658 99.2595 299.882 97.357 296.727 96.4578L243.762 81.3313V80.4138H292.59ZM403.135 43.3698V43.9384C403.135 43.9384 423.919 35.7323 427.96 37.8516L425.522 38.5689C425.736 38.5689 429.686 38.8273 429.686 38.8273C429.778 39.6426 430.051 40.4271 430.483 41.1243C430.916 41.8216 431.498 42.4142 432.187 42.8593C434.566 44.4295 434.612 45.2824 434.612 45.2824C434.612 45.2824 433.377 45.7864 433.377 46.4261C434.525 46.0976 435.712 45.9259 436.907 45.9156C437.984 45.9541 439.052 46.1255 440.087 46.4261C440.087 46.4261 439.964 45.7799 438.303 45.2824C436.642 44.7849 435.038 43.0273 434.23 42.0516C433.746 41.428 433.431 40.6892 433.318 39.9077C433.205 39.1262 433.296 38.3287 433.584 37.5932C434.159 36.1199 436.17 35.2993 440.249 33.1799C445.091 30.6793 446.196 28.8055 446.875 27.3646C447.554 25.9236 448.575 23.0353 449.138 21.6784C449.605 20.4101 450.41 19.2932 451.465 18.4476C452.183 17.8984 455.454 16.6642 455.454 16.6642C455.454 16.6642 452.958 14.5384 452.144 13.8987C451.126 12.935 449.838 12.3039 448.453 12.0895C446.72 11.8633 444.962 13.0135 443.772 13.7824C442.583 14.5513 440.281 16.7999 439.35 17.4461C438.419 18.0922 436.034 18.7384 432.239 21.0581C428.444 23.3778 413.382 32.9861 413.382 32.9861L417.261 33.0249L399.851 42.0516H401.59L399.082 43.9901C400.471 44.308 401.929 44.0862 403.161 43.3698H403.135Z" fill="black"/>
</svg>
