<svg width="511" height="325" viewBox="0 0 511 325" fill="none" xmlns="http://www.w3.org/2000/svg">
<path d="M328.941 108.868C328.941 114.872 324.076 119.737 318.073 119.737C312.069 119.737 307.204 114.872 307.204 108.868C307.204 102.865 312.069 97.9995 318.073 97.9995C324.076 97.9995 328.941 102.865 328.941 108.868Z" fill="black"/>
<path d="M395.5 169.097H384.613C383.759 169.097 382.964 169.545 382.535 170.284C379.187 176.053 372.883 179.893 365.693 179.726C355.962 179.5 347.847 171.716 347.243 162.001C346.604 151.725 354.167 143.075 364.01 141.971C365.229 141.834 366.145 140.795 366.145 139.57V129.633C366.145 128.235 364.964 127.104 363.57 127.21C345.376 128.585 331.218 144.417 332.553 163.248C333.737 179.926 347.301 193.364 363.99 194.403C379.445 195.366 392.83 185.895 397.781 172.363C398.36 170.779 397.187 169.097 395.5 169.097Z" fill="black"/>
<path d="M270 179.733C259.54 179.733 251.06 171.254 251.06 160.793C251.06 150.333 259.54 141.854 270 141.854C280.46 141.854 288.94 150.333 288.94 160.793C288.94 171.254 280.46 179.733 270 179.733ZM293.034 188.849C292.036 187.91 292.029 186.305 293.029 185.368C299.902 178.924 304.071 169.628 303.649 159.369C302.927 141.847 288.512 127.628 270.984 127.129C251.934 126.585 236.321 141.866 236.321 160.793C236.321 179.393 251.399 194.472 270 194.472C280.46 194.472 288.94 202.951 288.94 213.411C288.94 223.155 281.582 231.18 272.119 232.234C270.906 232.369 270 233.414 270 234.634V244.572C270 245.968 271.179 247.099 272.571 246.993C289.97 245.68 303.678 231.146 303.678 213.411C303.678 203.748 299.561 194.997 293.034 188.849" fill="black"/>
<path d="M124.938 127.114C115.148 127.036 106.314 131.135 100.113 137.737C99.1729 138.738 97.5671 138.737 96.627 137.735C90.4842 131.197 81.7574 127.113 72.0772 127.113C65.8387 127.113 59.9959 128.809 54.9852 131.766C54.1684 132.248 53.141 131.668 53.141 130.719C53.141 130.043 52.5924 129.496 51.9164 129.496H40.8183C39.4817 129.496 38.3978 130.577 38.3947 131.914L38.3423 158.364C38.3402 159.703 39.4252 160.791 40.7659 160.791H50.854C52.0746 160.791 53.1195 159.885 53.2551 158.673C54.3082 149.209 62.3332 141.852 72.0772 141.852C82.5372 141.852 91.0174 150.331 91.0174 160.791L90.9763 176.298C90.9722 177.639 92.0581 178.728 93.3999 178.728H103.289C104.626 178.728 105.711 177.644 105.712 176.306L105.725 160.791C105.725 150.331 114.204 141.852 124.664 141.852C135.124 141.852 143.604 150.331 143.604 160.791L143.602 192.047C143.602 193.385 144.687 194.471 146.026 194.471H155.92C157.257 194.471 158.343 193.385 158.343 192.047V161.41C158.343 142.814 143.533 127.262 124.938 127.114Z" fill="black"/>
<path d="M435.7 179.732C425.24 179.732 416.76 171.252 416.76 160.791C416.76 150.331 425.24 141.852 435.7 141.852C446.16 141.852 454.64 150.331 454.64 160.791C454.64 171.252 446.16 179.732 435.7 179.732ZM472.876 190.694C470.674 187.6 469.379 183.818 469.379 179.732V161.438C469.379 142.835 454.571 127.259 435.97 127.114C417.246 126.968 402.022 142.102 402.021 160.79C402.021 179.361 417.797 194.822 436.363 194.464C442.459 194.346 448.158 192.609 453.048 189.665C454.352 188.88 456.053 189.493 456.563 190.927C456.982 192.11 457.347 192.974 457.347 192.974C457.735 193.876 458.609 194.471 459.591 194.471H470.865C472.806 194.471 474.001 192.275 472.876 190.694" fill="black"/>
<path d="M197.328 179.732C186.868 179.732 178.388 171.252 178.388 160.791C178.388 150.331 186.868 141.852 197.328 141.852C207.788 141.852 216.267 150.331 216.267 160.791C216.267 171.252 207.788 179.732 197.328 179.732ZM231.006 179.732V161.438C231.006 142.835 216.198 127.259 197.596 127.114C178.874 126.968 163.649 142.102 163.649 160.79C163.648 179.361 179.425 194.822 197.99 194.464C204.086 194.346 209.785 192.609 214.676 189.665C215.979 188.88 217.681 189.493 218.19 190.927C218.609 192.11 218.974 192.974 218.974 192.974C219.363 193.876 220.237 194.471 221.218 194.471H232.493C234.434 194.471 235.628 192.275 234.503 190.694C232.302 187.6 231.006 183.818 231.006 179.732Z" fill="black"/>
</svg>
