<svg width="511" height="325" viewBox="0 0 511 325" fill="none" xmlns="http://www.w3.org/2000/svg">
<path d="M132.611 182.051C132.899 183.057 133.043 184.064 132.899 185.07C137.788 187.083 140.52 189.096 140.376 190.678C140.376 190.822 140.376 190.822 140.376 190.822C140.376 190.965 140.232 191.109 140.232 191.253C139.657 192.116 138.075 192.835 135.631 193.266C135.056 193.41 134.624 193.41 134.049 193.553C132.468 193.697 130.742 193.841 128.585 193.985C128.01 193.985 127.579 193.985 127.004 193.985H126.716C126.285 193.985 125.853 193.985 125.278 193.985C124.272 193.985 123.122 193.985 121.971 193.985C114.494 193.841 105.292 192.835 95.3708 191.397C87.3188 190.103 79.6981 188.521 73.3715 186.939C71.7899 186.508 70.2082 186.077 68.7703 185.645C58.5615 182.626 52.2349 179.462 52.6663 177.018C52.9539 175.005 58.274 173.855 66.4698 173.711C66.6136 173.136 66.7573 172.561 66.9011 171.986C60.1432 171.41 53.9604 171.267 48.7841 171.267C43.6078 171.267 39.2942 171.554 35.9871 171.986C35.5557 172.129 35.1244 172.129 34.693 172.273C34.2617 172.417 33.8303 172.417 33.5427 172.561C33.1114 172.704 32.8238 172.704 32.5362 172.848C30.5232 173.423 29.3729 174.286 29.2291 175.293C28.654 179.462 45.1894 185.789 69.6331 191.109C71.2147 191.397 72.9401 191.828 74.5218 192.116C81.7111 193.553 89.4755 194.991 97.5276 196.285C98.8217 196.429 100.116 196.717 101.266 196.861C102.56 197.004 103.71 197.292 105.004 197.436C106.299 197.579 107.593 197.867 108.887 198.011C110.037 198.155 111.187 198.298 112.338 198.442C113.488 198.586 114.782 198.73 115.932 198.874C116.939 199.017 117.945 199.161 118.952 199.161C120.677 199.305 122.259 199.449 123.984 199.736C133.762 200.743 142.389 201.174 149.578 201.174C151.016 201.174 152.454 201.174 153.892 201.174C154.467 201.174 155.186 201.174 155.761 201.03C161.081 200.743 165.107 200.168 167.264 199.161C167.695 199.017 167.983 198.73 168.27 198.586C168.414 198.442 168.558 198.298 168.702 198.155C168.846 198.011 168.989 197.867 168.989 197.723C169.133 197.579 169.133 197.436 169.133 197.292C169.708 193.122 154.898 187.371 132.611 182.051Z" fill="black"/>
<path d="M138.495 148.261C142.465 148.261 145.684 145.043 145.684 141.072C145.684 137.102 142.465 133.883 138.495 133.883C134.524 133.883 131.305 137.102 131.305 141.072C131.305 145.043 134.524 148.261 138.495 148.261Z" fill="black"/>
<path fill-rule="evenodd" clip-rule="evenodd" d="M109.577 151.07C112.759 155.786 116.487 160.516 120.358 164.761C125.564 170.456 128.425 177.838 128.428 185.535C128.428 187.715 128.201 189.843 127.77 191.897C126.481 191.816 125.222 191.734 123.99 191.653C124.445 189.687 124.685 187.641 124.685 185.538C124.685 178.773 122.168 172.293 117.594 167.281C113.997 163.34 110.579 158.976 107.531 154.596C109.218 158.205 111.031 161.788 112.965 165.071C116.282 170.703 118.107 177.973 118.107 185.535C118.107 187.477 117.987 189.378 117.757 191.222C116.481 191.13 115.239 191.037 114.029 190.945C114.249 189.194 114.364 187.382 114.363 185.527C114.363 178.62 112.722 172.027 109.741 166.963C107.295 162.801 104.962 158.201 102.935 153.617C103.81 157.715 104.775 161.806 105.799 165.52C107.318 171.025 108.159 178.13 108.159 185.531C108.159 187.178 108.117 188.828 108.033 190.46C106.755 190.351 105.518 190.241 104.319 190.131C104.389 188.667 104.427 187.136 104.427 185.538C104.427 178.463 103.638 171.713 102.202 166.522C100.994 162.154 99.8422 157.3 98.8586 152.487L98.5296 150.86C98.6156 152.547 98.7203 154.682 98.8287 157.188C99.0868 163.336 99.2588 171.537 99.3785 179.734C99.3968 183.087 99.4077 186.439 99.4041 189.652C98.0938 189.517 96.8354 189.381 95.6253 189.243C95.6231 186.154 95.6347 182.943 95.6537 179.731C95.7734 171.533 95.9454 163.336 96.2035 157.184C96.3119 154.652 96.4204 152.495 96.5101 150.797L96.1661 152.487C95.1638 157.39 94.0419 162.109 92.834 166.507C91.3943 171.698 90.6052 178.452 90.6052 185.527C90.6052 186.593 90.6219 187.628 90.6539 188.635C89.3389 188.461 88.0884 188.285 86.896 188.107C86.8732 187.251 86.8618 186.392 86.8618 185.535C86.8618 178.13 87.7032 171.025 89.2252 165.52C90.2537 161.777 91.2035 157.76 92.0824 153.628C89.9994 158.317 87.7256 162.816 85.2799 166.963C82.2994 172.031 80.6576 178.62 80.6576 185.531C80.6576 186.043 80.6665 186.551 80.6838 187.055C79.3535 186.801 78.1053 186.54 76.9238 186.272C76.9199 186.025 76.918 185.779 76.918 185.531C76.918 177.966 78.7429 170.696 82.06 165.064C83.9934 161.78 85.7922 158.235 87.5012 154.581C84.4198 159.009 81.069 163.291 77.4303 167.274C73.0846 172.035 70.5958 178.127 70.3586 184.526C69.0834 184.132 67.8691 183.723 66.6812 183.297C67.1801 176.418 69.9712 169.905 74.6667 164.757C78.5784 160.475 82.2021 155.872 85.4407 151.074L90.7249 143.235C89.5843 131.141 84.1393 124.006 84.0794 123.935L89.9208 119.26C90.0442 119.41 91.2895 121.07 92.7779 123.879V108H100.257C100.257 108 100.287 121.938 100.257 122.959C100.534 122.633 100.824 122.282 101.127 121.916C103.021 119.627 105.415 116.735 108.036 115.539L112.692 125.745C107.153 128.269 104.55 136.728 103.574 142.207L109.577 151.07ZM67.3463 192.303C70.4401 206.107 82.7907 216.451 97.5124 216.451H97.5161H97.5236C108.837 216.446 118.746 210.337 124.132 201.246C122.784 201.169 121.353 201.08 119.854 200.978C117.476 204.404 114.331 207.26 110.669 209.297C112.597 206.884 114.229 203.955 115.469 200.652C114.225 200.553 112.948 200.444 111.645 200.326C109.805 204.881 107.143 208.493 104.001 210.613C105.326 207.756 106.341 204.038 107.036 199.88C105.814 199.754 104.576 199.619 103.326 199.476C102.218 205.866 100.465 210.037 98.9671 211.78C99.0344 210.325 99.169 206.881 99.2775 202.292C99.3022 201.248 99.3228 200.145 99.3396 198.994C98.1264 198.839 96.9072 198.676 95.686 198.504C95.705 199.83 95.7288 201.094 95.7585 202.281C95.8669 206.873 96.0015 210.314 96.0688 211.769C94.4504 209.885 92.5311 205.166 91.452 197.874C90.1614 197.671 88.8736 197.458 87.5934 197.234C88.2733 202.456 89.4228 207.165 91.024 210.617C86.9783 207.882 83.7272 202.676 82.0043 196.175C80.6405 195.895 79.294 195.602 77.971 195.294C79.1991 200.815 81.4386 205.647 84.3562 209.293C78.3149 205.937 73.6763 200.343 71.5746 193.637C70.1139 193.214 68.701 192.769 67.3463 192.303Z" fill="black"/>
<path d="M219.735 158.878C215.105 158.878 211.13 158.207 207.808 156.865C204.52 155.489 201.987 153.594 200.209 151.178C198.431 148.763 197.542 145.978 197.542 142.824C197.542 139.771 198.431 137.037 200.209 134.621C201.987 132.206 204.52 130.293 207.808 128.884C211.13 127.475 215.105 126.771 219.735 126.771C224.365 126.771 228.341 127.475 231.662 128.884C234.984 130.293 237.517 132.206 239.262 134.621C241.04 137.037 241.929 139.771 241.929 142.824C241.929 145.978 241.04 148.763 239.262 151.178C237.517 153.594 234.984 155.489 231.662 156.865C228.341 158.207 224.365 158.878 219.735 158.878ZM219.735 156.261C223.627 156.261 226.999 155.707 229.851 154.6C232.703 153.493 234.9 151.933 236.443 149.92C238.02 147.874 238.809 145.508 238.809 142.824C238.809 140.207 238.02 137.892 236.443 135.879C234.9 133.866 232.703 132.273 229.851 131.098C226.999 129.924 223.627 129.337 219.735 129.337C215.81 129.337 212.421 129.924 209.57 131.098C206.718 132.273 204.52 133.866 202.977 135.879C201.467 137.892 200.712 140.207 200.712 142.824C200.712 145.508 201.467 147.874 202.977 149.92C204.52 151.933 206.718 153.493 209.57 154.6C212.421 155.707 215.81 156.261 219.735 156.261Z" fill="black"/>
<path d="M260.046 126.972H263.267L296.834 154.198V126.972H300.356V127.324C300.155 127.525 300.021 127.743 299.954 127.978C299.92 128.213 299.903 128.616 299.903 129.186V158.324H297.538L263.166 130.344V158.324H260.046V126.972Z" fill="black"/>
<path d="M322.952 158.324V155.758H337.798V129.538H323.657V126.972H355.261V129.538H340.918V155.808H355.865V158.324H322.952Z" fill="black"/>
<path d="M400.906 158.878C396.276 158.878 392.3 158.207 388.979 156.865C385.691 155.489 383.158 153.594 381.38 151.178C379.602 148.763 378.713 145.978 378.713 142.824C378.713 139.771 379.602 137.037 381.38 134.621C383.158 132.206 385.691 130.293 388.979 128.884C392.3 127.475 396.276 126.771 400.906 126.771C405.536 126.771 409.512 127.475 412.833 128.884C416.155 130.293 418.688 132.206 420.432 134.621C422.21 137.037 423.099 139.771 423.099 142.824C423.099 145.978 422.21 148.763 420.432 151.178C418.688 153.594 416.155 155.489 412.833 156.865C409.512 158.207 405.536 158.878 400.906 158.878ZM400.906 156.261C404.798 156.261 408.17 155.707 411.021 154.6C413.873 153.493 416.071 151.933 417.614 149.92C419.191 147.874 419.979 145.508 419.979 142.824C419.979 140.207 419.191 137.892 417.614 135.879C416.071 133.866 413.873 132.273 411.021 131.098C408.17 129.924 404.798 129.337 400.906 129.337C396.981 129.337 393.592 129.924 390.74 131.098C387.889 132.273 385.691 133.866 384.148 135.879C382.638 137.892 381.883 140.207 381.883 142.824C381.883 145.508 382.638 147.874 384.148 149.92C385.691 151.933 387.889 153.493 390.74 154.6C393.592 155.707 396.981 156.261 400.906 156.261Z" fill="black"/>
<path d="M441.216 126.972H444.437L478.004 154.198V126.972H481.527V127.324C481.326 127.525 481.191 127.743 481.124 127.978C481.091 128.213 481.074 128.616 481.074 129.186V158.324H478.709L444.337 130.344V158.324H441.216V126.972Z" fill="black"/>
<path d="M200.461 201.46V170.108H222.755C228.19 170.108 232.3 170.896 235.085 172.473C237.903 174.016 239.312 176.13 239.312 178.814C239.312 180.525 238.758 181.968 237.651 183.142C236.578 184.316 235.101 185.239 233.223 185.91C231.344 186.547 229.197 186.933 226.781 187.067L241.275 201.46H236.997L223.007 187.319H203.581V201.46H200.461ZM203.581 184.752H223.057C227.519 184.752 230.84 184.283 233.021 183.343C235.202 182.37 236.276 180.86 236.242 178.814C236.209 176.868 235.101 175.358 232.921 174.285C230.74 173.211 227.284 172.674 222.554 172.674H203.581V184.752Z" fill="black"/>
<path d="M262.562 201.46V198.894H277.408V172.674H263.267V170.108H294.871V172.674H280.528V198.944H295.475V201.46H262.562Z" fill="black"/>
<path d="M320.436 170.108H323.657L357.224 197.334V170.108H360.747V170.46C360.545 170.661 360.411 170.879 360.344 171.114C360.31 171.349 360.294 171.752 360.294 172.322V201.46H357.928L323.556 173.479V201.46H320.436V170.108Z" fill="black"/>
<path d="M403.271 201.964C398.272 201.964 393.961 201.293 390.338 199.95C386.748 198.608 383.98 196.746 382.034 194.364C380.122 191.949 379.166 189.147 379.166 185.96C379.132 183.343 379.585 181.095 380.524 179.217C381.497 177.338 382.806 175.794 384.45 174.587C386.127 173.345 388.006 172.372 390.086 171.668C392.166 170.93 394.313 170.426 396.528 170.158C398.742 169.856 400.889 169.722 402.969 169.755C405.452 169.789 407.868 170.024 410.216 170.46C412.598 170.896 414.745 171.5 416.658 172.272C418.604 173.043 420.164 173.966 421.338 175.04L419.325 176.851L418.973 177.254L418.721 177.002C418.721 176.7 418.62 176.482 418.419 176.348C418.251 176.18 417.949 175.945 417.513 175.643C416.306 174.939 414.88 174.352 413.236 173.882C411.592 173.379 409.864 172.993 408.052 172.725C406.274 172.456 404.546 172.322 402.869 172.322C400.386 172.322 397.92 172.523 395.471 172.926C393.055 173.295 390.841 173.966 388.828 174.939C386.849 175.878 385.255 177.22 384.047 178.965C382.839 180.676 382.235 182.873 382.235 185.558C382.235 188.51 383.124 191.026 384.903 193.106C386.714 195.153 389.197 196.713 392.351 197.787C395.504 198.86 399.145 199.397 403.271 199.397C404.882 199.397 406.66 199.296 408.606 199.095C410.552 198.86 412.414 198.558 414.192 198.189C415.97 197.82 417.396 197.401 418.469 196.931L418.419 189.181H403.775V186.665H421.539V198.692C418.553 199.766 415.551 200.588 412.531 201.158C409.512 201.695 406.425 201.964 403.271 201.964Z" fill="black"/>
<path d="M461.246 201.964C457.287 201.964 453.68 201.594 450.426 200.856C447.172 200.085 444.32 199.045 441.871 197.736L443.783 195.522L444.135 195.119L444.387 195.371C444.387 195.673 444.488 195.891 444.689 196.025C444.89 196.126 445.242 196.31 445.746 196.579C449.705 198.458 455.123 199.397 462.001 199.397C465.356 199.397 468.275 199.145 470.757 198.642C473.24 198.105 475.169 197.401 476.545 196.528C477.92 195.656 478.608 194.666 478.608 193.559C478.608 192.687 478.34 191.949 477.803 191.345C477.3 190.741 476.377 190.187 475.035 189.684C473.727 189.147 471.898 188.594 469.55 188.023C467.201 187.453 464.215 186.782 460.592 186.01C456.23 185.105 452.808 184.199 450.325 183.293C447.876 182.387 446.148 181.431 445.142 180.424C444.135 179.384 443.632 178.227 443.632 176.952C443.632 174.704 445.259 172.943 448.514 171.668C451.768 170.359 456.364 169.705 462.303 169.705C465.725 169.705 468.912 170.041 471.865 170.712C474.85 171.349 477.417 172.305 479.564 173.58L477.853 175.643L477.501 176.046L477.249 175.794C477.216 175.526 477.082 175.341 476.847 175.241C476.645 175.14 476.31 174.972 475.84 174.738C473.995 173.932 471.831 173.328 469.348 172.926C466.866 172.49 464.148 172.272 461.196 172.272C458.579 172.272 456.163 172.456 453.949 172.825C451.768 173.161 450.023 173.664 448.715 174.335C447.406 174.972 446.752 175.778 446.752 176.751C446.752 177.455 447.037 178.109 447.608 178.713C448.178 179.317 449.185 179.921 450.627 180.525C452.07 181.129 454.049 181.766 456.566 182.437C459.082 183.075 462.269 183.796 466.127 184.601C470.221 185.44 473.391 186.279 475.639 187.118C477.887 187.923 479.447 188.829 480.319 189.835C481.225 190.842 481.678 192.033 481.678 193.408C481.678 194.884 480.973 196.277 479.564 197.585C478.189 198.86 475.991 199.917 472.972 200.756C469.986 201.561 466.077 201.964 461.246 201.964Z" fill="black"/>
</svg>
