<svg width="511" height="325" viewBox="0 0 511 325" fill="none" xmlns="http://www.w3.org/2000/svg">
<path fill-rule="evenodd" clip-rule="evenodd" d="M330.384 103C327.658 103.29 324.469 101.904 320.816 98.8442C320.428 98.5196 320.035 98.176 319.638 97.8139L311.259 90.185L328.325 71.4242L335.427 77.8906C336.286 78.6724 337.07 79.4409 337.779 80.196C340.455 83.0436 342.073 85.7027 342.632 88.1725C343.339 91.2976 342.228 94.4702 339.299 97.6902C336.37 100.91 333.398 102.68 330.384 103ZM359.492 89.3649C358.688 83.1038 354.709 76.4653 347.555 69.4502C346.84 68.7498 346.095 68.0459 345.318 67.3382L325.608 49.3926L294.968 83.0743C292.99 78.8973 289.714 74.5661 285.14 70.081C284.426 69.3806 283.681 68.6767 282.904 67.969L263.193 50.0234L233.165 83.0335C231.185 78.8691 227.915 74.5515 223.356 70.081C222.642 69.3806 221.897 68.6767 221.119 67.969L201.409 50.0234L150.646 105.827L160.915 115.042L175.864 100.639L184.677 108.35C185.398 109.007 186.115 109.636 186.826 110.239C194.245 116.527 201.112 119.884 207.428 120.307C212.688 120.659 217.759 118.888 222.643 114.992L222.699 115.042L223.378 114.388C224.597 113.359 225.804 112.196 226.999 110.899L237.648 100.639L246.461 108.35C247.182 109.007 247.899 109.636 248.61 110.239C256.029 116.527 262.896 119.884 269.212 120.307C276.122 120.77 282.707 117.567 288.967 110.699L300.063 100.008L308.876 107.719C309.597 108.376 310.313 109.005 311.024 109.608C318.443 115.897 325.311 119.253 331.627 119.676C338.548 120.14 345.144 116.925 351.413 110.033C357.683 103.141 360.376 96.2515 359.492 89.3649ZM267.969 103.631C265.244 103.921 262.054 102.535 258.401 99.475C258.013 99.1504 257.621 98.8069 257.223 98.4447L248.844 90.8158L265.91 72.055L273.013 78.5214C273.871 79.3032 274.655 80.0717 275.365 80.8268C278.041 83.6744 279.659 86.3335 280.218 88.8033C280.925 91.9284 279.814 95.101 276.885 98.321C273.956 101.541 270.984 103.311 267.969 103.631ZM196.617 99.475C200.27 102.535 203.459 103.921 206.185 103.631C209.2 103.311 212.172 101.541 215.101 98.321C218.03 95.101 219.141 91.9284 218.434 88.8033C217.875 86.3335 216.257 83.6744 213.581 80.8268C212.871 80.0717 212.087 79.3032 211.228 78.5214L204.126 72.055L187.06 90.8158L195.439 98.4447C195.837 98.8069 196.229 99.1504 196.617 99.475Z" fill="black"/>
<path d="M318.648 269.312H321.274V253.29H318.648V269.312Z" fill="black"/>
<path d="M178.545 269.312H181.171V253.29H178.545V269.312Z" fill="black"/>
<path d="M243.706 250.355L246.418 244.485H243.585L242.462 247.665L241.511 250.355H242.462H243.706Z" fill="black"/>
<path d="M181.102 246.661H178.476V249.562H181.102V246.661Z" fill="black"/>
<path d="M218.529 253.982C217.999 253.562 217.423 253.268 216.79 253.112C216.162 252.957 215.568 252.877 215.004 252.877C213.789 252.877 212.729 253.158 211.819 253.728C210.909 254.292 210.097 255.075 209.389 256.076H209.32C208.894 255.087 208.283 254.31 207.494 253.734C206.705 253.164 205.709 252.877 204.516 252.877C203.918 252.877 203.365 252.946 202.858 253.078C202.351 253.21 201.885 253.4 201.458 253.642C201.038 253.884 200.652 254.166 200.312 254.482C199.967 254.805 199.65 255.144 199.356 255.518H199.305L198.798 253.291H196.765V269.312H199.391V257.929C200.001 257.055 200.687 256.37 201.453 255.869C202.219 255.369 203.071 255.121 204.004 255.121C204.505 255.121 204.949 255.196 205.352 255.34C205.749 255.484 206.095 255.714 206.383 256.03C206.671 256.347 206.889 256.75 207.039 257.239C207.195 257.728 207.269 258.315 207.269 259.011V269.312H209.896V257.929C210.5 257.055 211.186 256.37 211.952 255.869C212.718 255.369 213.57 255.121 214.497 255.121C214.993 255.121 215.436 255.196 215.833 255.34C216.231 255.484 216.571 255.714 216.859 256.03C217.141 256.347 217.36 256.75 217.515 257.239C217.665 257.728 217.74 258.315 217.74 259.011V269.312H220.366V258.591C220.366 257.423 220.193 256.468 219.842 255.725C219.496 254.983 219.058 254.402 218.529 253.982Z" fill="black"/>
<path d="M321.205 246.661H318.579V249.562H321.205V246.661Z" fill="black"/>
<path d="M246.988 263.943C246.746 264.714 246.407 265.364 245.975 265.894C245.537 266.423 245.024 266.826 244.431 267.102C243.838 267.379 243.187 267.517 242.479 267.517L242.462 267.516C241.76 267.514 241.109 267.376 240.515 267.102C239.916 266.826 239.398 266.423 238.96 265.894C238.516 265.364 238.177 264.714 237.935 263.943C237.693 263.172 237.572 262.297 237.572 261.319C237.572 260.329 237.693 259.448 237.935 258.677C238.177 257.906 238.516 257.25 238.948 256.715C239.386 256.18 239.899 255.777 240.498 255.5C241.097 255.224 241.753 255.086 242.462 255.086C243.17 255.086 243.827 255.224 244.425 255.5C245.024 255.777 245.537 256.18 245.975 256.715C246.407 257.25 246.746 257.906 246.988 258.677C247.23 259.448 247.351 260.329 247.351 261.319C247.351 262.297 247.23 263.172 246.988 263.943ZM248.054 255.201C247.403 254.459 246.603 253.889 245.652 253.48C244.708 253.078 243.642 252.876 242.462 252.876C241.304 252.876 240.25 253.078 239.311 253.48C238.372 253.889 237.572 254.459 236.91 255.201C236.253 255.944 235.741 256.83 235.384 257.866C235.021 258.896 234.842 260.047 234.842 261.319C234.842 262.579 235.015 263.724 235.366 264.754C235.718 265.79 236.219 266.676 236.875 267.407C237.537 268.144 238.338 268.714 239.277 269.122C240.211 269.523 241.276 269.725 242.462 269.727H242.479C243.636 269.727 244.685 269.525 245.623 269.122C246.557 268.714 247.351 268.144 248.014 267.407C248.67 266.676 249.183 265.79 249.54 264.754C249.903 263.724 250.081 262.579 250.081 261.319C250.081 260.047 249.908 258.896 249.557 257.866C249.206 256.83 248.705 255.944 248.054 255.201Z" fill="black"/>
<path d="M296.817 259.609H292.705C292.763 258.988 292.913 258.407 293.149 257.866C293.39 257.319 293.707 256.841 294.093 256.438C294.479 256.03 294.934 255.713 295.452 255.477C295.881 255.284 296.333 255.168 296.817 255.133C296.925 255.124 297.034 255.121 297.145 255.121C297.762 255.121 298.303 255.236 298.77 255.466C299.242 255.696 299.633 256.013 299.95 256.421C300.273 256.824 300.515 257.302 300.681 257.848C300.849 258.389 300.929 258.976 300.929 259.609H296.817ZM301.822 254.735C301.252 254.091 300.572 253.624 299.789 253.325C299.012 253.026 298.171 252.876 297.272 252.876C297.12 252.876 296.968 252.881 296.817 252.89C296.025 252.938 295.261 253.112 294.525 253.417C293.65 253.774 292.872 254.315 292.198 255.034C291.524 255.754 290.989 256.646 290.58 257.722C290.177 258.792 289.975 260.058 289.975 261.52C289.975 263.005 290.182 264.271 290.597 265.318C291.018 266.371 291.594 267.223 292.325 267.873C293.062 268.524 293.932 268.996 294.94 269.289C295.541 269.464 296.167 269.586 296.817 269.656C297.257 269.703 297.708 269.727 298.171 269.727C299.138 269.727 300.042 269.646 300.889 269.485C301.73 269.318 302.438 269.099 303.014 268.817V266.653C302.306 266.907 301.592 267.102 300.877 267.24C300.163 267.379 299.374 267.447 298.511 267.447C297.917 267.447 297.353 267.395 296.817 267.293C296.599 267.251 296.386 267.201 296.178 267.143C295.458 266.941 294.836 266.619 294.3 266.181C293.765 265.738 293.344 265.157 293.033 264.449C292.722 263.736 292.573 262.873 292.573 261.854H296.817H303.659C303.67 261.514 303.677 261.301 303.677 261.203V260.858C303.677 259.442 303.51 258.228 303.181 257.215C302.847 256.203 302.398 255.374 301.822 254.735Z" fill="black"/>
<path d="M271.566 262.194C270.909 264.007 270.385 265.497 269.999 266.665H269.93C269.527 265.44 269.009 263.949 268.375 262.194L265.196 253.291H262.57L268.629 269.312H271.335L277.394 253.291H274.768L271.566 262.194Z" fill="black"/>
<path d="M346.468 262.556C346.185 262.003 345.817 261.56 345.356 261.232C344.901 260.91 344.4 260.662 343.859 260.501C343.323 260.34 342.747 260.19 342.143 260.052C341.699 259.966 341.273 259.862 340.858 259.753C340.444 259.638 340.081 259.494 339.77 259.322C339.453 259.149 339.2 258.919 339.015 258.637C338.825 258.36 338.733 257.998 338.733 257.561C338.733 257.198 338.797 256.87 338.923 256.571C339.05 256.272 339.252 256.007 339.528 255.788C339.799 255.569 340.156 255.397 340.582 255.27C341.014 255.149 341.532 255.086 342.137 255.086C342.851 255.097 343.548 255.178 344.227 255.339C344.901 255.494 345.569 255.702 346.232 255.949V253.756C345.61 253.503 344.924 253.29 344.158 253.124C343.398 252.957 342.574 252.876 341.682 252.876C340.916 252.876 340.19 252.98 339.505 253.181C338.814 253.383 338.215 253.687 337.696 254.09C337.178 254.493 336.764 255.005 336.458 255.621C336.153 256.243 336.003 256.974 336.003 257.814C336.003 258.631 336.147 259.304 336.441 259.828C336.735 260.352 337.121 260.76 337.599 261.065C338.077 261.37 338.601 261.606 339.182 261.773C339.764 261.94 340.34 262.09 340.904 262.211C341.336 262.314 341.745 262.423 342.143 262.55C342.534 262.671 342.88 262.826 343.179 263.022C343.479 263.212 343.715 263.454 343.893 263.747C344.072 264.035 344.158 264.409 344.158 264.858C344.158 265.295 344.061 265.687 343.87 266.015C343.675 266.348 343.398 266.625 343.035 266.849C342.678 267.068 342.246 267.235 341.751 267.35C341.25 267.459 340.691 267.517 340.069 267.517C339.286 267.517 338.566 267.442 337.91 267.286C337.259 267.131 336.596 266.918 335.934 266.653V268.823C336.101 268.915 336.32 269.007 336.579 269.111C336.838 269.208 337.149 269.306 337.512 269.398C337.881 269.496 338.301 269.571 338.785 269.634C339.263 269.698 339.793 269.727 340.38 269.727C341.336 269.727 342.217 269.617 343.018 269.398C343.819 269.18 344.504 268.857 345.08 268.437C345.656 268.017 346.099 267.494 346.416 266.872C346.733 266.245 346.888 265.531 346.888 264.72C346.888 263.834 346.75 263.114 346.468 262.556Z" fill="black"/>
<path fill-rule="evenodd" clip-rule="evenodd" d="M160.922 186.469C158.819 188.833 155.017 190.129 149.518 190.355C148.935 190.38 148.333 190.391 147.711 190.391H134.625V161.125H145.717C147.058 161.125 148.325 161.172 149.518 161.265C154.017 161.616 157.466 162.628 159.863 164.301C162.895 166.418 164.412 169.988 164.412 175.011C164.412 180.034 163.248 183.853 160.922 186.469ZM175.192 152.221C169.639 147.503 161.081 144.93 149.518 144.502C148.364 144.459 147.181 144.437 145.967 144.437H115.183V231.488H134.625V207.204H146.216C147.342 207.204 148.443 207.184 149.518 207.146C160.743 206.748 169.218 204.277 174.943 199.732C181.216 194.75 184.352 186.884 184.352 176.132C184.352 165.38 181.299 157.41 175.192 152.221Z" fill="black"/>
<path fill-rule="evenodd" clip-rule="evenodd" d="M220.478 191.264H205.771C206.27 187.445 208.056 184.414 211.13 182.173C213.979 180.096 217.094 178.981 220.478 178.829C220.746 178.816 221.016 178.81 221.288 178.81C224.985 178.81 228.122 179.89 230.697 182.048C233.273 184.206 234.768 187.279 235.184 191.264H220.478ZM244.469 171.712C238.029 166.149 230.199 163.367 220.976 163.367C220.81 163.367 220.643 163.369 220.478 163.371C211.465 163.482 203.634 166.593 196.985 172.708C190.213 178.935 186.828 187.32 186.828 197.864C186.828 208.408 190.151 216.815 196.798 223.083C203.103 229.028 210.996 232.154 220.478 232.46C220.992 232.477 221.511 232.485 222.036 232.485C232.214 232.485 241.083 228.915 248.644 221.775L238.175 210.442C233.938 214.842 228.537 217.043 221.973 217.043C221.468 217.043 220.97 217.025 220.478 216.989C217.002 216.736 213.844 215.592 211.006 213.556C207.766 211.231 205.854 208.242 205.273 204.589H220.478H254.128V194.626C254.128 184.912 250.908 177.274 244.469 171.712Z" fill="black"/>
<path fill-rule="evenodd" clip-rule="evenodd" d="M260.915 188.062V231.488H279.61V201.969C279.61 195.381 279.267 189.092 282.008 185.08C284.75 181.069 287.077 179.7 292.642 179.714L299.715 179.733L299.675 163.178C285.447 163.026 261.493 164.768 260.915 188.062Z" fill="black"/>
<path fill-rule="evenodd" clip-rule="evenodd" d="M348.064 163.227H331.862V160.627C331.862 157.97 332.486 155.956 333.731 154.587C334.976 153.218 336.556 152.532 338.467 152.532C341.791 152.532 344.823 154.11 347.565 157.264L354.295 144.686C348.894 139.705 342.891 137.214 336.286 137.214C329.68 137.214 324.155 139.352 319.71 143.628C315.265 147.904 313.043 153.694 313.043 161.001V163.227H305.191V179.524H313.043V231.488H331.862V179.524H347.371V231.488H366.066V163.241H348.064V163.227Z" fill="black"/>
<path fill-rule="evenodd" clip-rule="evenodd" d="M377.305 231.489H396V139.084H377.305V231.489Z" fill="black"/>
</svg>
