<svg width="511" height="325" viewBox="0 0 511 325" fill="none" xmlns="http://www.w3.org/2000/svg">
<path fill-rule="evenodd" clip-rule="evenodd" d="M159.092 96.9454V121.254H167.954C175.907 121.254 181.456 118.519 181.456 109.489C181.456 100.833 176.658 96.9454 168.558 96.9454H159.092ZM133.721 174.345L133.898 76.5175H172.461C182.915 76.6016 191.397 79.189 197.909 84.2767C204.423 89.3616 207.677 97.5056 207.677 108.712C207.677 120.176 204.701 128.559 198.742 133.86C192.789 139.163 184.329 141.814 173.361 141.814H159.092V162.104C150.263 165.937 141.945 170.135 133.721 174.345Z" fill="black"/>
<path fill-rule="evenodd" clip-rule="evenodd" d="M234.836 96.2939V120.806L244.44 120.709C251.964 120.633 254.757 114.127 254.757 108.576C254.757 103.097 251.048 96.485 244.542 96.2939C242.917 96.2469 236.462 96.2939 234.836 96.2939ZM259.77 134.44L290.235 174.389H258.871L235.094 136.892H234.836V174.389H225.298C225.537 166.454 221.785 158.005 209.824 153.942L209.643 76.8996H247.306C266.194 77.0692 280.977 86.7015 280.977 107.025C280.977 120.368 273.324 132.18 259.77 134.568V134.44Z" fill="black"/>
<path fill-rule="evenodd" clip-rule="evenodd" d="M330.676 98.7162C345.64 98.7162 357.776 110.922 357.776 125.972C357.776 141.026 345.64 153.23 330.676 153.23C315.713 153.23 303.58 141.026 303.58 125.972C303.58 110.922 315.713 98.7162 330.676 98.7162ZM369.749 93.8509C375.563 101.388 381.223 114.592 380.991 125.972C380.414 153.916 358.457 176.586 330.676 176.586C302.895 176.586 280.365 153.923 280.365 125.972C280.365 98.0248 302.895 75.3589 330.676 75.3589C343.7 75.8606 353.259 79.1066 361.864 86.7745L366.542 77.6611L383.43 77.6369L369.749 93.8509Z" fill="black"/>
<path fill-rule="evenodd" clip-rule="evenodd" d="M233.451 199.144C232.871 200.125 232.161 200.957 231.373 201.628C230.586 202.298 229.717 202.806 228.827 203.132C227.933 203.455 227.014 203.596 226.123 203.533C225.233 203.47 224.37 203.208 223.591 202.719C222.813 202.23 222.188 201.566 221.723 200.782C221.258 200.001 220.958 199.098 220.823 198.133C220.693 197.168 220.73 196.144 220.941 195.112C221.156 194.082 221.549 193.048 222.128 192.07C222.705 191.091 223.414 190.258 224.202 189.587C224.994 188.913 225.86 188.407 226.752 188.083C227.646 187.761 228.565 187.62 229.452 187.68C230.343 187.745 231.206 188.008 231.984 188.496C232.767 188.983 233.389 189.647 233.852 190.429C234.32 191.215 234.622 192.117 234.752 193.082C234.886 194.047 234.848 195.072 234.634 196.102C234.423 197.134 234.026 198.166 233.451 199.144ZM314.844 209.935C313.115 210.815 311.518 211.228 310.145 211.284C308.772 211.343 307.622 211.046 306.788 210.494C305.953 209.942 305.43 209.141 305.314 208.199C305.193 207.249 305.48 206.159 306.255 205.027C306.993 204.291 307.663 203.577 308.28 202.884C308.899 202.196 309.466 201.529 309.999 200.887C310.527 200.243 311.026 199.624 311.5 199.028C311.976 198.434 312.433 197.864 312.885 197.319C313.041 197.034 313.063 196.726 312.997 196.438C312.928 196.146 312.774 195.871 312.568 195.655C312.363 195.432 312.106 195.269 311.845 195.192C311.58 195.117 311.312 195.132 311.079 195.275C308.405 196.618 305.838 198.166 303.371 199.935C300.902 201.704 298.532 203.695 296.249 205.916C293.964 208.142 291.765 210.594 289.641 213.295C287.521 215.991 285.474 218.936 283.492 222.132C281.953 223.197 280.468 223.696 279.15 223.77C277.829 223.845 276.674 223.49 275.79 222.849C274.906 222.203 274.289 221.269 274.053 220.177C273.812 219.086 273.953 217.84 274.575 216.568L277.738 211.872L280.903 207.177L284.067 202.481L287.232 197.785C287.321 197.607 287.375 197.456 287.396 197.336C287.414 197.218 287.399 197.127 287.346 197.068C287.297 197.011 287.206 196.993 287.084 197.001C286.964 197.018 286.801 197.068 286.608 197.158C284.12 198.549 281.617 200.294 279.106 202.353C276.596 204.413 274.077 206.787 271.548 209.448C269.023 212.108 266.488 215.048 263.947 218.239C261.409 221.426 258.863 224.866 256.315 228.518C254.776 229.84 253.231 230.587 251.827 230.865C250.419 231.147 249.15 230.964 248.155 230.433C247.161 229.9 246.446 229.02 246.147 227.898C245.848 226.781 245.967 225.425 246.639 223.945C247.629 222.585 248.638 221.264 249.623 219.952C250.606 218.642 251.566 217.342 252.46 216.023C253.353 214.708 254.18 213.372 254.895 211.992C255.61 210.614 256.218 209.184 256.673 207.684C256.825 207.229 256.822 206.766 256.7 206.343C256.582 205.924 256.343 205.54 256.021 205.244C255.701 204.949 255.299 204.739 254.851 204.661C254.403 204.579 253.911 204.636 253.408 204.869C251.41 205.583 249.374 207.075 247.271 209.065C245.172 211.053 243.011 213.536 240.766 216.229C238.517 218.92 236.185 221.821 233.744 224.648C231.305 227.472 228.755 230.223 226.074 232.614C224.588 234.195 222.757 235.548 220.829 236.537C218.902 237.529 216.875 238.161 214.99 238.312C213.107 238.459 211.368 238.126 210.021 237.187C208.669 236.249 207.706 234.702 207.38 232.429C202.789 237.556 198.115 241.503 193.504 244.216C188.891 246.926 184.341 248.402 180.001 248.59C175.66 248.777 171.53 247.677 167.752 245.241C163.976 242.806 160.554 239.029 157.633 233.863L154.175 242.168L150.719 250.473L147.263 258.777L143.806 267.08C143.011 268.55 141.89 269.487 140.686 269.967C139.487 270.446 138.2 270.47 137.082 270.117C135.958 269.759 135.002 269.029 134.45 267.996C133.899 266.959 133.753 265.625 134.261 264.061L138.374 254.722L142.485 245.385L146.595 236.044L150.709 226.705L149.697 226.966L148.688 227.228L147.679 227.489L146.667 227.747C145.151 228.143 144.017 227.898 143.258 227.281C142.494 226.668 142.106 225.687 142.08 224.615C142.049 223.543 142.382 222.379 143.061 221.401C143.74 220.424 144.764 219.634 146.129 219.306L148.293 218.883L150.461 218.464L152.622 218.041L154.789 217.62L158.513 209.071L162.239 200.519L165.963 191.975L169.687 183.426C170.543 181.352 171.791 179.935 173.132 179.089C174.472 178.244 175.909 177.966 177.145 178.168C178.378 178.369 179.412 179.051 179.951 180.13C180.487 181.203 180.526 182.669 179.779 184.441L176.466 191.975L173.153 199.509L169.843 207.041L166.53 214.572C171.421 213.864 176.385 212.468 181.187 210.569C185.986 208.671 190.619 206.264 194.846 203.533C199.072 200.802 202.892 197.738 206.063 194.524C209.233 191.313 211.755 187.948 213.386 184.609C214.679 181.968 215.585 179.39 215.984 176.958C216.383 174.528 216.273 172.241 215.542 170.181C214.806 168.121 213.446 166.287 211.341 164.761C209.235 163.233 206.383 162.01 202.664 161.178C195.273 160.82 187.749 161.788 180.244 163.649C172.735 165.51 165.243 168.267 157.915 171.487C150.584 174.706 143.419 178.391 136.562 182.116C129.706 185.836 123.156 189.593 117.063 192.957C115.461 193.725 114.075 193.939 112.973 193.764C111.87 193.588 111.058 193.017 110.598 192.219C110.139 191.416 110.037 190.385 110.361 189.279C110.684 188.177 111.434 186.998 112.684 185.912C119.347 182.285 126.261 178.391 133.371 174.598C140.48 170.804 147.788 167.111 155.249 163.888C162.712 160.66 170.326 157.903 178.048 155.987C185.768 154.067 193.599 152.985 201.491 153.108C206.393 153.155 210.507 154.1 213.867 155.686C217.227 157.272 219.827 159.49 221.699 162.08C223.567 164.673 224.703 167.634 225.13 170.7C225.561 173.766 225.28 176.944 224.318 179.955C222.443 185.58 219.765 190.662 216.273 195.251C212.785 199.837 208.482 203.931 203.356 207.577C198.227 211.224 192.277 214.428 185.488 217.235C178.695 220.042 171.067 222.458 162.59 224.525C164.928 231.05 167.924 235.472 171.419 237.951C174.909 240.433 178.898 240.975 183.227 239.74C187.555 238.508 192.223 235.498 197.07 230.888C201.918 226.272 206.944 220.052 211.992 212.388C213.013 210.584 214.221 209.356 215.42 208.632C216.62 207.912 217.809 207.7 218.792 207.938C219.78 208.173 220.561 208.857 220.945 209.932C221.328 211.007 221.316 212.471 220.704 214.264L219.44 216.78L218.179 219.299L216.915 221.814L215.651 224.33C215.323 225.743 215.308 226.702 215.536 227.284C215.76 227.867 216.22 228.071 216.844 227.971C217.463 227.87 218.247 227.466 219.11 226.833C219.973 226.2 220.917 225.336 221.863 224.314C224.287 221.418 226.628 218.557 228.929 215.805C231.23 213.06 233.491 210.421 235.747 207.972C237.997 205.523 240.246 203.258 242.522 201.258C244.798 199.256 247.103 197.519 249.473 196.115C251.46 194.906 253.54 193.909 255.511 193.305C257.482 192.698 259.347 192.488 260.907 192.854C262.468 193.218 263.726 194.16 264.477 195.861C265.234 197.563 265.483 200.018 265.031 203.42C266.511 201.559 268.021 199.782 269.574 198.123C271.125 196.462 272.722 194.916 274.37 193.506C276.014 192.096 277.714 190.827 279.474 189.725C281.233 188.619 283.055 187.68 284.951 186.931C286.72 186.254 288.457 185.909 290.037 185.896C291.616 185.886 293.036 186.207 294.181 186.853C295.328 187.5 296.196 188.478 296.67 189.778C297.14 191.078 297.218 192.703 296.776 194.653C297.894 193.571 299.036 192.593 300.195 191.707C301.354 190.824 302.531 190.035 303.722 189.333C304.923 188.632 306.134 188.013 307.36 187.479C308.587 186.94 309.833 186.482 311.091 186.097C312.462 185.681 313.812 185.395 315.083 185.305C316.357 185.211 317.549 185.315 318.609 185.678C319.671 186.042 320.592 186.668 321.33 187.617C322.066 188.572 322.611 189.849 322.912 191.523C322.984 191.928 322.916 192.384 322.763 192.864C322.607 193.343 322.365 193.851 322.087 194.345C321.808 194.843 321.492 195.335 321.194 195.792C320.895 196.247 320.607 196.668 320.39 197.024C325.475 194.79 330.463 192.531 335.347 190.321C340.23 188.109 345.007 185.946 349.672 183.911C354.337 181.872 358.886 179.96 363.317 178.25C367.749 176.538 372.062 175.027 376.244 173.792C376.848 173.627 377.405 173.473 377.935 173.336C378.465 173.191 378.969 173.065 379.467 172.947C379.963 172.83 380.45 172.722 380.952 172.623C381.454 172.523 381.968 172.434 382.509 172.348C384.129 172.272 385.458 172.677 386.421 173.35C387.38 174.024 387.962 174.964 388.084 175.963C388.206 176.957 387.859 178.009 386.963 178.908C386.062 179.808 384.611 180.546 382.509 180.92C381.279 181.095 380.071 181.308 378.873 181.561C377.673 181.812 376.478 182.106 375.272 182.438C374.065 182.767 372.843 183.139 371.595 183.556C370.346 183.969 369.062 184.428 367.733 184.926L354.512 191.178L341.289 197.432L328.067 203.684L314.844 209.935Z" fill="black"/>
<path fill-rule="evenodd" clip-rule="evenodd" d="M159.092 96.9454V121.254H167.954C175.907 121.254 181.456 118.519 181.456 109.489C181.456 100.833 176.658 96.9454 168.558 96.9454H159.092ZM133.721 174.345L133.898 76.5175H172.461C182.915 76.6016 191.397 79.189 197.909 84.2767C204.423 89.3616 207.677 97.5056 207.677 108.712C207.677 120.176 204.701 128.559 198.742 133.86C192.789 139.163 184.329 141.814 173.361 141.814H159.092V162.104C150.263 165.937 141.945 170.135 133.721 174.345Z" fill="black"/>
<path fill-rule="evenodd" clip-rule="evenodd" d="M234.836 96.2939V120.806L244.44 120.709C251.964 120.633 254.757 114.127 254.757 108.576C254.757 103.097 251.048 96.485 244.542 96.2939C242.917 96.2469 236.462 96.2939 234.836 96.2939ZM259.77 134.44L290.235 174.389H258.871L235.094 136.892H234.836V174.389H225.298C225.537 166.454 221.785 158.005 209.824 153.942L209.643 76.8996H247.306C266.194 77.0692 280.977 86.7015 280.977 107.025C280.977 120.368 273.324 132.18 259.77 134.568V134.44Z" fill="black"/>
<path fill-rule="evenodd" clip-rule="evenodd" d="M330.676 98.7162C345.64 98.7162 357.776 110.922 357.776 125.972C357.776 141.026 345.64 153.23 330.676 153.23C315.713 153.23 303.58 141.026 303.58 125.972C303.58 110.922 315.713 98.7162 330.676 98.7162ZM369.749 93.8509C375.563 101.388 381.223 114.592 380.991 125.972C380.414 153.916 358.457 176.586 330.676 176.586C302.895 176.586 280.365 153.923 280.365 125.972C280.365 98.0248 302.895 75.3589 330.676 75.3589C343.7 75.8606 353.259 79.1066 361.864 86.7745L366.542 77.6611L383.43 77.6369L369.749 93.8509Z" fill="black"/>
<path fill-rule="evenodd" clip-rule="evenodd" d="M233.451 199.144C232.871 200.125 232.161 200.957 231.373 201.628C230.586 202.298 229.717 202.806 228.827 203.132C227.933 203.455 227.014 203.596 226.123 203.533C225.233 203.47 224.37 203.208 223.591 202.719C222.813 202.23 222.188 201.566 221.723 200.782C221.258 200.001 220.958 199.098 220.823 198.133C220.693 197.168 220.73 196.144 220.941 195.112C221.156 194.082 221.549 193.048 222.128 192.07C222.705 191.091 223.414 190.258 224.202 189.587C224.994 188.913 225.86 188.407 226.752 188.083C227.646 187.761 228.565 187.62 229.452 187.68C230.343 187.745 231.206 188.008 231.984 188.496C232.767 188.983 233.389 189.647 233.852 190.429C234.32 191.215 234.622 192.117 234.752 193.082C234.886 194.047 234.848 195.072 234.634 196.102C234.423 197.134 234.026 198.166 233.451 199.144ZM314.844 209.935C313.115 210.815 311.518 211.228 310.145 211.284C308.772 211.343 307.622 211.046 306.788 210.494C305.953 209.942 305.43 209.141 305.314 208.199C305.193 207.249 305.48 206.159 306.255 205.027C306.993 204.291 307.663 203.577 308.28 202.884C308.899 202.196 309.466 201.529 309.999 200.887C310.527 200.243 311.026 199.624 311.5 199.028C311.976 198.434 312.433 197.864 312.885 197.319C313.041 197.034 313.063 196.726 312.997 196.438C312.928 196.146 312.774 195.871 312.568 195.655C312.363 195.432 312.106 195.269 311.845 195.192C311.58 195.117 311.312 195.132 311.079 195.275C308.405 196.618 305.838 198.166 303.371 199.935C300.902 201.704 298.532 203.695 296.249 205.916C293.964 208.142 291.765 210.594 289.641 213.295C287.521 215.991 285.474 218.936 283.492 222.132C281.953 223.197 280.468 223.696 279.15 223.77C277.829 223.845 276.674 223.49 275.79 222.849C274.906 222.203 274.289 221.269 274.053 220.177C273.812 219.086 273.953 217.84 274.575 216.568L277.738 211.872L280.903 207.177L284.067 202.481L287.232 197.785C287.321 197.607 287.375 197.456 287.396 197.336C287.414 197.218 287.399 197.127 287.346 197.068C287.297 197.011 287.206 196.993 287.084 197.001C286.964 197.018 286.801 197.068 286.608 197.158C284.12 198.549 281.617 200.294 279.106 202.353C276.596 204.413 274.077 206.787 271.548 209.448C269.023 212.108 266.488 215.048 263.947 218.239C261.409 221.426 258.863 224.866 256.315 228.518C254.776 229.84 253.231 230.587 251.827 230.865C250.419 231.147 249.15 230.964 248.155 230.433C247.161 229.9 246.446 229.02 246.147 227.898C245.848 226.781 245.967 225.425 246.639 223.945C247.629 222.585 248.638 221.264 249.623 219.952C250.606 218.642 251.566 217.342 252.46 216.023C253.353 214.708 254.18 213.372 254.895 211.992C255.61 210.614 256.218 209.184 256.673 207.684C256.825 207.229 256.822 206.766 256.7 206.343C256.582 205.924 256.343 205.54 256.021 205.244C255.701 204.949 255.299 204.739 254.851 204.661C254.403 204.579 253.911 204.636 253.408 204.869C251.41 205.583 249.374 207.075 247.271 209.065C245.172 211.053 243.011 213.536 240.766 216.229C238.517 218.92 236.185 221.821 233.744 224.648C231.305 227.472 228.755 230.223 226.074 232.614C224.588 234.195 222.757 235.548 220.829 236.537C218.902 237.529 216.875 238.161 214.99 238.312C213.107 238.459 211.368 238.126 210.021 237.187C208.669 236.249 207.706 234.702 207.38 232.429C202.789 237.556 198.115 241.503 193.504 244.216C188.891 246.926 184.341 248.402 180.001 248.59C175.66 248.777 171.53 247.677 167.752 245.241C163.976 242.806 160.554 239.029 157.633 233.863L154.175 242.168L150.719 250.473L147.263 258.777L143.806 267.08C143.011 268.55 141.89 269.487 140.686 269.967C139.487 270.446 138.2 270.47 137.082 270.117C135.958 269.759 135.002 269.029 134.45 267.996C133.899 266.959 133.753 265.625 134.261 264.061L138.374 254.722L142.485 245.385L146.595 236.044L150.709 226.705L149.697 226.966L148.688 227.228L147.679 227.489L146.667 227.747C145.151 228.143 144.017 227.898 143.258 227.281C142.494 226.668 142.106 225.687 142.08 224.615C142.049 223.543 142.382 222.379 143.061 221.401C143.74 220.424 144.764 219.634 146.129 219.306L148.293 218.883L150.461 218.464L152.622 218.041L154.789 217.62L158.513 209.071L162.239 200.519L165.963 191.975L169.687 183.426C170.543 181.352 171.791 179.935 173.132 179.089C174.472 178.244 175.909 177.966 177.145 178.168C178.378 178.369 179.412 179.051 179.951 180.13C180.487 181.203 180.526 182.669 179.779 184.441L176.466 191.975L173.153 199.509L169.843 207.041L166.53 214.572C171.421 213.864 176.385 212.468 181.187 210.569C185.986 208.671 190.619 206.264 194.846 203.533C199.072 200.802 202.892 197.738 206.063 194.524C209.233 191.313 211.755 187.948 213.386 184.609C214.679 181.968 215.585 179.39 215.984 176.958C216.383 174.528 216.273 172.241 215.542 170.181C214.806 168.121 213.446 166.287 211.341 164.761C209.235 163.233 206.383 162.01 202.664 161.178C195.273 160.82 187.749 161.788 180.244 163.649C172.735 165.51 165.243 168.267 157.915 171.487C150.584 174.706 143.419 178.391 136.562 182.116C129.706 185.836 123.156 189.593 117.063 192.957C115.461 193.725 114.075 193.939 112.973 193.764C111.87 193.588 111.058 193.017 110.598 192.219C110.139 191.416 110.037 190.385 110.361 189.279C110.684 188.177 111.434 186.998 112.684 185.912C119.347 182.285 126.261 178.391 133.371 174.598C140.48 170.804 147.788 167.111 155.249 163.888C162.712 160.66 170.326 157.903 178.048 155.987C185.768 154.067 193.599 152.985 201.491 153.108C206.393 153.155 210.507 154.1 213.867 155.686C217.227 157.272 219.827 159.49 221.699 162.08C223.567 164.673 224.703 167.634 225.13 170.7C225.561 173.766 225.28 176.944 224.318 179.955C222.443 185.58 219.765 190.662 216.273 195.251C212.785 199.837 208.482 203.931 203.356 207.577C198.227 211.224 192.277 214.428 185.488 217.235C178.695 220.042 171.067 222.458 162.59 224.525C164.928 231.05 167.924 235.472 171.419 237.951C174.909 240.433 178.898 240.975 183.227 239.74C187.555 238.508 192.223 235.498 197.07 230.888C201.918 226.272 206.944 220.052 211.992 212.388C213.013 210.584 214.221 209.356 215.42 208.632C216.62 207.912 217.809 207.7 218.792 207.938C219.78 208.173 220.561 208.857 220.945 209.932C221.328 211.007 221.316 212.471 220.704 214.264L219.44 216.78L218.179 219.299L216.915 221.814L215.651 224.33C215.323 225.743 215.308 226.702 215.536 227.284C215.76 227.867 216.22 228.071 216.844 227.971C217.463 227.87 218.247 227.466 219.11 226.833C219.973 226.2 220.917 225.336 221.863 224.314C224.287 221.418 226.628 218.557 228.929 215.805C231.23 213.06 233.491 210.421 235.747 207.972C237.997 205.523 240.246 203.258 242.522 201.258C244.798 199.256 247.103 197.519 249.473 196.115C251.46 194.906 253.54 193.909 255.511 193.305C257.482 192.698 259.347 192.488 260.907 192.854C262.468 193.218 263.726 194.16 264.477 195.861C265.234 197.563 265.483 200.018 265.031 203.42C266.511 201.559 268.021 199.782 269.574 198.123C271.125 196.462 272.722 194.916 274.37 193.506C276.014 192.096 277.714 190.827 279.474 189.725C281.233 188.619 283.055 187.68 284.951 186.931C286.72 186.254 288.457 185.909 290.037 185.896C291.616 185.886 293.036 186.207 294.181 186.853C295.328 187.5 296.196 188.478 296.67 189.778C297.14 191.078 297.218 192.703 296.776 194.653C297.894 193.571 299.036 192.593 300.195 191.707C301.354 190.824 302.531 190.035 303.722 189.333C304.923 188.632 306.134 188.013 307.36 187.479C308.587 186.94 309.833 186.482 311.091 186.097C312.462 185.681 313.812 185.395 315.083 185.305C316.357 185.211 317.549 185.315 318.609 185.678C319.671 186.042 320.592 186.668 321.33 187.617C322.066 188.572 322.611 189.849 322.912 191.523C322.984 191.928 322.916 192.384 322.763 192.864C322.607 193.343 322.365 193.851 322.087 194.345C321.808 194.843 321.492 195.335 321.194 195.792C320.895 196.247 320.607 196.668 320.39 197.024C325.475 194.79 330.463 192.531 335.347 190.321C340.23 188.109 345.007 185.946 349.672 183.911C354.337 181.872 358.886 179.96 363.317 178.25C367.749 176.538 372.062 175.027 376.244 173.792C376.848 173.627 377.405 173.473 377.935 173.336C378.465 173.191 378.969 173.065 379.467 172.947C379.963 172.83 380.45 172.722 380.952 172.623C381.454 172.523 381.968 172.434 382.509 172.348C384.129 172.272 385.458 172.677 386.421 173.35C387.38 174.024 387.962 174.964 388.084 175.963C388.206 176.957 387.859 178.009 386.963 178.908C386.062 179.808 384.611 180.546 382.509 180.92C381.279 181.095 380.071 181.308 378.873 181.561C377.673 181.812 376.478 182.106 375.272 182.438C374.065 182.767 372.843 183.139 371.595 183.556C370.346 183.969 369.062 184.428 367.733 184.926L354.512 191.178L341.289 197.432L328.067 203.684L314.844 209.935Z" fill="black"/>
</svg>
