<svg width="161" height="120" viewBox="0 0 161 120" fill="none" xmlns="http://www.w3.org/2000/svg">
<path fill-rule="evenodd" clip-rule="evenodd" d="M37.264 30.871V41.7552H41.2385C44.8051 41.7552 47.2938 40.531 47.2938 36.4873C47.2938 32.6116 45.1419 30.871 41.5093 30.871H37.264ZM25.8861 65.5273L25.9655 21.7242H43.2595C47.9478 21.7618 51.7521 22.9203 54.6723 25.1984C57.5938 27.4752 59.053 31.1218 59.053 36.1395C59.053 41.2727 57.7184 45.0265 55.046 47.3997C52.3761 49.7742 48.5821 50.9614 43.6631 50.9614H37.264V60.0463C33.3046 61.7627 29.5741 63.6425 25.8861 65.5273Z" fill="black"/>
<path fill-rule="evenodd" clip-rule="evenodd" d="M71.233 30.58V41.5555L75.54 41.5121C78.914 41.4783 80.1666 38.5651 80.1666 36.0796C80.1666 33.6259 78.5035 30.6655 75.5858 30.58C74.8568 30.5589 71.962 30.58 71.233 30.58ZM82.4151 47.6602L96.0777 65.5479H82.0116L71.3487 48.7581H71.233V65.5479H66.9553C67.0627 61.9951 65.3798 58.2119 60.016 56.3927L59.9346 21.8959H76.825C85.296 21.9719 91.9258 26.2849 91.9258 35.3851C91.9258 41.3596 88.4933 46.6485 82.4151 47.7176V47.6602Z" fill="black"/>
<path fill-rule="evenodd" clip-rule="evenodd" d="M114.214 31.6642C120.925 31.6642 126.367 37.1293 126.367 43.8685C126.367 50.6089 120.925 56.0734 114.214 56.0734C107.504 56.0734 102.062 50.6089 102.062 43.8685C102.062 37.1293 107.504 31.6642 114.214 31.6642ZM131.737 29.4857C134.345 32.8604 136.883 38.773 136.779 43.8685C136.52 56.3804 126.673 66.5312 114.214 66.5312C101.755 66.5312 91.6511 56.3836 91.6511 43.8685C91.6511 31.3547 101.755 21.2057 114.214 21.2057C120.055 21.4304 124.342 22.8838 128.201 26.3172L130.299 22.2366L137.872 22.2257L131.737 29.4857Z" fill="black"/>
<path fill-rule="evenodd" clip-rule="evenodd" d="M70.6117 76.6318C70.3518 77.071 70.0334 77.4437 69.6801 77.7444C69.3267 78.0444 68.9371 78.2716 68.538 78.4178C68.137 78.562 67.7252 78.6252 67.3254 78.5971C66.9263 78.569 66.5393 78.4516 66.1897 78.2327C65.8408 78.0137 65.5606 77.7163 65.3521 77.3652C65.1437 77.0154 65.0089 76.6114 64.9486 76.1793C64.8901 75.7471 64.9066 75.2888 65.0013 74.8267C65.0979 74.3652 65.2739 73.9024 65.5339 73.4646C65.7925 73.0261 66.1103 72.6533 66.4637 72.3527C66.8189 72.0507 67.2072 71.8241 67.6076 71.6793C68.0086 71.535 68.4204 71.4718 68.8183 71.4986C69.218 71.528 69.6051 71.6454 69.954 71.8644C70.3048 72.082 70.5838 72.3795 70.7916 72.7299C71.0013 73.0816 71.1367 73.4856 71.1951 73.9178C71.2555 74.3499 71.2384 74.8088 71.1424 75.2697C71.0477 75.7318 70.8698 76.1939 70.6117 76.6318ZM107.114 81.4637C106.339 81.8576 105.622 82.0427 105.006 82.0676C104.391 82.0944 103.875 81.961 103.501 81.7139C103.127 81.4669 102.892 81.1082 102.84 80.6863C102.786 80.2612 102.914 79.7729 103.262 79.2661C103.593 78.9367 103.894 78.6169 104.17 78.3067C104.448 77.9984 104.702 77.6997 104.941 77.4124C105.178 77.1239 105.402 76.8469 105.614 76.5801C105.828 76.3139 106.033 76.0586 106.236 75.8148C106.305 75.6871 106.315 75.5493 106.286 75.4203C106.255 75.2895 106.185 75.1663 106.093 75.0699C106.001 74.9697 105.886 74.8969 105.769 74.8624C105.65 74.8286 105.53 74.8356 105.425 74.8995C104.226 75.5007 103.075 76.1939 101.969 76.9861C100.862 77.7782 99.7983 78.6699 98.7745 79.6644C97.75 80.6607 96.7637 81.7586 95.811 82.9682C94.8603 84.1752 93.9426 85.4939 93.0535 86.925C92.3633 87.4018 91.6973 87.6252 91.1062 87.6584C90.5139 87.6922 89.9959 87.5333 89.5994 87.2461C89.2028 86.9569 88.9264 86.5388 88.8202 86.0499C88.7122 85.561 88.7757 85.0031 89.0547 84.4337L90.4732 82.3312L91.8924 80.2286L93.3115 78.1261L94.7306 76.0235C94.7707 75.9437 94.7948 75.8761 94.8043 75.8224C94.8126 75.7695 94.8056 75.7286 94.7821 75.7024C94.7599 75.6769 94.7192 75.6686 94.6645 75.6724C94.6105 75.6801 94.5374 75.7024 94.451 75.7427C93.335 76.3656 92.2127 77.1469 91.0865 78.0686C89.961 78.991 88.831 80.0544 87.6972 81.2454C86.5647 82.4365 85.4278 83.7533 84.2883 85.1818C83.15 86.609 82.008 88.1493 80.8653 89.7846C80.1751 90.3763 79.4824 90.7107 78.8526 90.8352C78.2215 90.9616 77.6521 90.8799 77.206 90.6418C76.7605 90.4031 76.4395 90.0093 76.3054 89.5069C76.1713 89.0065 76.2247 88.3995 76.526 87.7369C76.9702 87.128 77.4227 86.5363 77.8644 85.949C78.3054 85.3625 78.7357 84.7803 79.1367 84.1899C79.5371 83.6007 79.9082 83.0027 80.2285 82.3848C80.5495 81.7676 80.8221 81.1273 81.0261 80.4559C81.0941 80.2522 81.0928 80.0448 81.0382 79.8552C80.9854 79.6676 80.878 79.4959 80.7338 79.3631C80.5901 79.231 80.4097 79.1371 80.2088 79.102C80.008 79.0656 79.7875 79.0912 79.5619 79.1952C78.6658 79.515 77.7525 80.1833 76.8094 81.0744C75.8682 81.9642 74.899 83.0761 73.8923 84.2818C72.8837 85.4869 71.8377 86.7859 70.7433 88.0516C69.6495 89.3161 68.5056 90.548 67.3032 91.6184C66.6371 92.3263 65.8161 92.932 64.9511 93.375C64.0868 93.8193 63.178 94.102 62.3327 94.1697C61.4881 94.2354 60.7083 94.0867 60.1039 93.6661C59.4976 93.2461 59.0661 92.5535 58.9199 91.5354C56.8608 93.8314 54.7649 95.5988 52.6969 96.8135C50.6282 98.0269 48.5875 98.6876 46.6409 98.7718C44.6943 98.8554 42.8424 98.3633 41.1481 97.2725C39.4544 96.1822 37.9196 94.4907 36.6098 92.1776L35.0591 95.8963L33.509 99.615L31.959 103.333L30.4089 107.051C30.0524 107.709 29.5497 108.129 29.0095 108.344C28.4718 108.558 27.8948 108.569 27.3934 108.411C26.8894 108.251 26.4604 107.924 26.2132 107.461C25.966 106.997 25.9005 106.399 26.128 105.699L27.973 101.518L29.8166 97.3369L31.6596 93.1542L33.5046 88.9727L33.0508 89.0895L32.5983 89.2069L32.1458 89.3237L31.6921 89.4393C31.012 89.6167 30.5036 89.5069 30.163 89.2305C29.8204 88.9561 29.6463 88.5169 29.6349 88.0369C29.6209 87.5569 29.7702 87.0354 30.0746 86.5976C30.3791 86.1603 30.8385 85.8067 31.4506 85.6599L32.421 85.4703L33.3934 85.2827L34.3625 85.0931L35.3343 84.9048L37.0044 81.0769L38.6752 77.2478L40.3454 73.4218L42.0156 69.5939C42.3994 68.6652 42.9593 68.0307 43.5605 67.6522C44.1617 67.2737 44.8062 67.1493 45.3603 67.2399C45.9132 67.3299 46.3772 67.635 46.6187 68.1182C46.8589 68.5988 46.8767 69.255 46.5418 70.0484L45.0559 73.4218L43.5701 76.7952L42.0855 80.168L40.5996 83.5401C42.7934 83.2229 45.0197 82.598 47.1729 81.7478C49.3254 80.8976 51.4029 79.8201 53.2987 78.5971C55.1938 77.3742 56.9072 76.0024 58.3289 74.5631C59.7506 73.1256 60.8818 71.6186 61.6133 70.1237C62.1929 68.941 62.5996 67.7869 62.7782 66.698C62.9574 65.6097 62.9079 64.5859 62.5799 63.6635C62.2501 62.7412 61.64 61.9197 60.6962 61.2367C59.7518 60.5524 58.4725 60.0048 56.8049 59.632C53.49 59.4718 50.116 59.9052 46.7502 60.7388C43.3826 61.5718 40.0225 62.8063 36.7362 64.2482C33.4487 65.6895 30.2354 67.3395 27.1601 69.0073C24.0854 70.6733 21.148 72.3552 18.4153 73.8616C17.6971 74.2056 17.0756 74.3014 16.5811 74.2229C16.0867 74.1444 15.7225 73.8884 15.516 73.531C15.3101 73.1716 15.2643 72.7101 15.4099 72.2148C15.5548 71.7214 15.8909 71.1935 16.4515 70.7071C19.4397 69.0833 22.5405 67.3395 25.7289 65.641C28.9173 63.9424 32.1948 62.2886 35.5408 60.8454C38.8875 59.4003 42.3022 58.1659 45.7652 57.308C49.2275 56.4482 52.7394 55.9637 56.2787 56.0186C58.477 56.0397 60.3219 56.4629 61.8288 57.1733C63.3356 57.8831 64.5018 58.8763 65.3413 60.0361C66.1789 61.1971 66.6886 62.5229 66.8799 63.8959C67.0731 65.2688 66.9473 66.6916 66.5158 68.0397C65.675 70.5584 64.4738 72.8339 62.9079 74.8886C61.3438 76.942 59.4137 78.7752 57.115 80.408C54.8151 82.0407 52.1465 83.4756 49.1017 84.7324C46.0556 85.9893 42.6346 87.0712 38.8328 87.9967C39.8815 90.9182 41.225 92.8982 42.7922 94.0082C44.3575 95.1195 46.1465 95.362 48.088 94.8093C50.0289 94.2578 52.1223 92.9097 54.2958 90.8454C56.47 88.7786 58.7242 85.9937 60.988 82.5622C61.4462 81.7542 61.9876 81.2046 62.5253 80.8803C63.0636 80.558 63.5968 80.4629 64.0378 80.5695C64.4808 80.6748 64.831 80.9812 65.0032 81.4624C65.1748 81.9437 65.1697 82.5993 64.8952 83.4022L64.3283 84.5288L63.7627 85.6567L63.1958 86.7827L62.6289 87.9093C62.4821 88.5418 62.4751 88.9714 62.5774 89.2318C62.6778 89.4929 62.8844 89.5842 63.164 89.5395C63.4417 89.4942 63.7932 89.3135 64.1802 89.0301C64.5672 88.7467 64.9905 88.3599 65.415 87.9022C66.5018 86.6052 67.5517 85.3242 68.5838 84.0922C69.6159 82.8629 70.6295 81.6814 71.6413 80.5848C72.6505 79.4882 73.6591 78.4739 74.6797 77.5784C75.7004 76.6822 76.7344 75.9042 77.797 75.2754C78.688 74.7342 79.621 74.288 80.505 74.0173C81.389 73.7454 82.2254 73.6516 82.9251 73.8156C83.6248 73.9784 84.1891 74.4003 84.526 75.1618C84.8653 75.9239 84.9772 77.0231 84.7745 78.5467C85.4379 77.7131 86.1154 76.9178 86.812 76.1748C87.5072 75.4312 88.2235 74.7386 88.9626 74.1073C89.6998 73.4761 90.4624 72.908 91.2517 72.4146C92.0404 71.9193 92.8577 71.4986 93.7081 71.1635C94.5012 70.8603 95.2804 70.7059 95.989 70.7001C96.6969 70.6956 97.3337 70.8393 97.8472 71.1284C98.3614 71.4182 98.751 71.8561 98.9632 72.4382C99.1742 73.0203 99.2092 73.748 99.0109 74.6212C99.5123 74.1367 100.025 73.6988 100.544 73.3018C101.064 72.9067 101.592 72.5531 102.126 72.239C102.665 71.925 103.208 71.648 103.758 71.4086C104.308 71.1673 104.867 70.9624 105.431 70.7901C106.046 70.6037 106.651 70.4754 107.221 70.4352C107.793 70.3931 108.327 70.4397 108.802 70.6024C109.278 70.7652 109.692 71.0454 110.023 71.4705C110.353 71.8982 110.597 72.4701 110.732 73.2195C110.764 73.4007 110.734 73.605 110.665 73.8201C110.595 74.0346 110.487 74.2618 110.362 74.4833C110.237 74.7061 110.095 74.9263 109.962 75.1312C109.828 75.3348 109.699 75.5231 109.601 75.6827C111.882 74.6824 114.119 73.6707 116.309 72.6814C118.499 71.6907 120.641 70.7224 122.733 69.811C124.825 68.8982 126.865 68.0422 128.853 67.2763C130.84 66.5097 132.775 65.8331 134.65 65.2803C134.921 65.2063 135.17 65.1373 135.408 65.0761C135.646 65.011 135.872 64.9548 136.095 64.9018C136.318 64.8495 136.536 64.801 136.761 64.7569C136.986 64.7122 137.217 64.672 137.46 64.6337C138.186 64.5999 138.782 64.7812 139.214 65.0824C139.644 65.3844 139.905 65.805 139.96 66.2524C140.014 66.6973 139.859 67.1684 139.457 67.5712C139.053 67.9739 138.402 68.3046 137.46 68.4718C136.908 68.5503 136.366 68.6454 135.829 68.759C135.291 68.8714 134.755 69.0029 134.214 69.1516C133.673 69.299 133.125 69.4656 132.565 69.652C132.005 69.8371 131.429 70.0427 130.833 70.2654L124.904 73.065L118.973 75.8652L113.044 78.6648L107.114 81.4637Z" fill="black"/>
<path fill-rule="evenodd" clip-rule="evenodd" d="M37.264 30.871V41.7552H41.2385C44.8051 41.7552 47.2938 40.531 47.2938 36.4873C47.2938 32.6116 45.1419 30.871 41.5093 30.871H37.264ZM25.8861 65.5273L25.9655 21.7242H43.2595C47.9478 21.7618 51.7521 22.9203 54.6723 25.1984C57.5938 27.4752 59.053 31.1218 59.053 36.1395C59.053 41.2727 57.7184 45.0265 55.046 47.3997C52.3761 49.7742 48.5821 50.9614 43.6631 50.9614H37.264V60.0463C33.3046 61.7627 29.5741 63.6425 25.8861 65.5273Z" fill="black"/>
<path fill-rule="evenodd" clip-rule="evenodd" d="M71.233 30.58V41.5555L75.54 41.5121C78.914 41.4783 80.1666 38.5651 80.1666 36.0796C80.1666 33.6259 78.5035 30.6655 75.5858 30.58C74.8568 30.5589 71.962 30.58 71.233 30.58ZM82.4151 47.6602L96.0777 65.5479H82.0116L71.3487 48.7581H71.233V65.5479H66.9553C67.0627 61.9951 65.3798 58.2119 60.016 56.3927L59.9346 21.8959H76.825C85.296 21.9719 91.9258 26.2849 91.9258 35.3851C91.9258 41.3596 88.4933 46.6485 82.4151 47.7176V47.6602Z" fill="black"/>
<path fill-rule="evenodd" clip-rule="evenodd" d="M114.214 31.6642C120.925 31.6642 126.367 37.1293 126.367 43.8685C126.367 50.6089 120.925 56.0734 114.214 56.0734C107.504 56.0734 102.062 50.6089 102.062 43.8685C102.062 37.1293 107.504 31.6642 114.214 31.6642ZM131.737 29.4857C134.345 32.8604 136.883 38.773 136.779 43.8685C136.52 56.3804 126.673 66.5312 114.214 66.5312C101.755 66.5312 91.6511 56.3836 91.6511 43.8685C91.6511 31.3547 101.755 21.2057 114.214 21.2057C120.055 21.4304 124.342 22.8838 128.201 26.3172L130.299 22.2366L137.872 22.2257L131.737 29.4857Z" fill="black"/>
<path fill-rule="evenodd" clip-rule="evenodd" d="M70.6117 76.6318C70.3518 77.071 70.0334 77.4437 69.6801 77.7444C69.3267 78.0444 68.9371 78.2716 68.538 78.4178C68.137 78.562 67.7252 78.6252 67.3254 78.5971C66.9263 78.569 66.5393 78.4516 66.1897 78.2327C65.8408 78.0137 65.5606 77.7163 65.3521 77.3652C65.1437 77.0154 65.0089 76.6114 64.9486 76.1793C64.8901 75.7471 64.9066 75.2888 65.0013 74.8267C65.0979 74.3652 65.2739 73.9024 65.5339 73.4646C65.7925 73.0261 66.1103 72.6533 66.4637 72.3527C66.8189 72.0507 67.2072 71.8241 67.6076 71.6793C68.0086 71.535 68.4204 71.4718 68.8183 71.4986C69.218 71.528 69.6051 71.6454 69.954 71.8644C70.3048 72.082 70.5838 72.3795 70.7916 72.7299C71.0013 73.0816 71.1367 73.4856 71.1951 73.9178C71.2555 74.3499 71.2384 74.8088 71.1424 75.2697C71.0477 75.7318 70.8698 76.1939 70.6117 76.6318ZM107.114 81.4637C106.339 81.8576 105.622 82.0427 105.006 82.0676C104.391 82.0944 103.875 81.961 103.501 81.7139C103.127 81.4669 102.892 81.1082 102.84 80.6863C102.786 80.2612 102.914 79.7729 103.262 79.2661C103.593 78.9367 103.894 78.6169 104.17 78.3067C104.448 77.9984 104.702 77.6997 104.941 77.4124C105.178 77.1239 105.402 76.8469 105.614 76.5801C105.828 76.3139 106.033 76.0586 106.236 75.8148C106.305 75.6871 106.315 75.5493 106.286 75.4203C106.255 75.2895 106.185 75.1663 106.093 75.0699C106.001 74.9697 105.886 74.8969 105.769 74.8624C105.65 74.8286 105.53 74.8356 105.425 74.8995C104.226 75.5007 103.075 76.1939 101.969 76.9861C100.862 77.7782 99.7983 78.6699 98.7745 79.6644C97.75 80.6607 96.7637 81.7586 95.811 82.9682C94.8603 84.1752 93.9426 85.4939 93.0535 86.925C92.3633 87.4018 91.6973 87.6252 91.1062 87.6584C90.5139 87.6922 89.9959 87.5333 89.5994 87.2461C89.2028 86.9569 88.9264 86.5388 88.8202 86.0499C88.7122 85.561 88.7757 85.0031 89.0547 84.4337L90.4732 82.3312L91.8924 80.2286L93.3115 78.1261L94.7306 76.0235C94.7707 75.9437 94.7948 75.8761 94.8043 75.8224C94.8126 75.7695 94.8056 75.7286 94.7821 75.7024C94.7599 75.6769 94.7192 75.6686 94.6645 75.6724C94.6105 75.6801 94.5374 75.7024 94.451 75.7427C93.335 76.3656 92.2127 77.1469 91.0865 78.0686C89.961 78.991 88.831 80.0544 87.6972 81.2454C86.5647 82.4365 85.4278 83.7533 84.2883 85.1818C83.15 86.609 82.008 88.1493 80.8653 89.7846C80.1751 90.3763 79.4824 90.7107 78.8526 90.8352C78.2215 90.9616 77.6521 90.8799 77.206 90.6418C76.7605 90.4031 76.4395 90.0093 76.3054 89.5069C76.1713 89.0065 76.2247 88.3995 76.526 87.7369C76.9702 87.128 77.4227 86.5363 77.8644 85.949C78.3054 85.3625 78.7357 84.7803 79.1367 84.1899C79.5371 83.6007 79.9082 83.0027 80.2285 82.3848C80.5495 81.7676 80.8221 81.1273 81.0261 80.4559C81.0941 80.2522 81.0928 80.0448 81.0382 79.8552C80.9854 79.6676 80.878 79.4959 80.7338 79.3631C80.5901 79.231 80.4097 79.1371 80.2088 79.102C80.008 79.0656 79.7875 79.0912 79.5619 79.1952C78.6658 79.515 77.7525 80.1833 76.8094 81.0744C75.8682 81.9642 74.899 83.0761 73.8923 84.2818C72.8837 85.4869 71.8377 86.7859 70.7433 88.0516C69.6495 89.3161 68.5056 90.548 67.3032 91.6184C66.6371 92.3263 65.8161 92.932 64.9511 93.375C64.0868 93.8193 63.178 94.102 62.3327 94.1697C61.4881 94.2354 60.7083 94.0867 60.1039 93.6661C59.4976 93.2461 59.0661 92.5535 58.9199 91.5354C56.8608 93.8314 54.7649 95.5988 52.6969 96.8135C50.6282 98.0269 48.5875 98.6876 46.6409 98.7718C44.6943 98.8554 42.8424 98.3633 41.1481 97.2725C39.4544 96.1822 37.9196 94.4907 36.6098 92.1776L35.0591 95.8963L33.509 99.615L31.959 103.333L30.4089 107.051C30.0524 107.709 29.5497 108.129 29.0095 108.344C28.4718 108.558 27.8948 108.569 27.3934 108.411C26.8894 108.251 26.4604 107.924 26.2132 107.461C25.966 106.997 25.9005 106.399 26.128 105.699L27.973 101.518L29.8166 97.3369L31.6596 93.1542L33.5046 88.9727L33.0508 89.0895L32.5983 89.2069L32.1458 89.3237L31.6921 89.4393C31.012 89.6167 30.5036 89.5069 30.163 89.2305C29.8204 88.9561 29.6463 88.5169 29.6349 88.0369C29.6209 87.5569 29.7702 87.0354 30.0746 86.5976C30.3791 86.1603 30.8385 85.8067 31.4506 85.6599L32.421 85.4703L33.3934 85.2827L34.3625 85.0931L35.3343 84.9048L37.0044 81.0769L38.6752 77.2478L40.3454 73.4218L42.0156 69.5939C42.3994 68.6652 42.9593 68.0307 43.5605 67.6522C44.1617 67.2737 44.8062 67.1493 45.3603 67.2399C45.9132 67.3299 46.3772 67.635 46.6187 68.1182C46.8589 68.5988 46.8767 69.255 46.5418 70.0484L45.0559 73.4218L43.5701 76.7952L42.0855 80.168L40.5996 83.5401C42.7934 83.2229 45.0197 82.598 47.1729 81.7478C49.3254 80.8976 51.4029 79.8201 53.2987 78.5971C55.1938 77.3742 56.9072 76.0024 58.3289 74.5631C59.7506 73.1256 60.8818 71.6186 61.6133 70.1237C62.1929 68.941 62.5996 67.7869 62.7782 66.698C62.9574 65.6097 62.9079 64.5859 62.5799 63.6635C62.2501 62.7412 61.64 61.9197 60.6962 61.2367C59.7518 60.5524 58.4725 60.0048 56.8049 59.632C53.49 59.4718 50.116 59.9052 46.7502 60.7388C43.3826 61.5718 40.0225 62.8063 36.7362 64.2482C33.4487 65.6895 30.2354 67.3395 27.1601 69.0073C24.0854 70.6733 21.148 72.3552 18.4153 73.8616C17.6971 74.2056 17.0756 74.3014 16.5811 74.2229C16.0867 74.1444 15.7225 73.8884 15.516 73.531C15.3101 73.1716 15.2643 72.7101 15.4099 72.2148C15.5548 71.7214 15.8909 71.1935 16.4515 70.7071C19.4397 69.0833 22.5405 67.3395 25.7289 65.641C28.9173 63.9424 32.1948 62.2886 35.5408 60.8454C38.8875 59.4003 42.3022 58.1659 45.7652 57.308C49.2275 56.4482 52.7394 55.9637 56.2787 56.0186C58.477 56.0397 60.3219 56.4629 61.8288 57.1733C63.3356 57.8831 64.5018 58.8763 65.3413 60.0361C66.1789 61.1971 66.6886 62.5229 66.8799 63.8959C67.0731 65.2688 66.9473 66.6916 66.5158 68.0397C65.675 70.5584 64.4738 72.8339 62.9079 74.8886C61.3438 76.942 59.4137 78.7752 57.115 80.408C54.8151 82.0407 52.1465 83.4756 49.1017 84.7324C46.0556 85.9893 42.6346 87.0712 38.8328 87.9967C39.8815 90.9182 41.225 92.8982 42.7922 94.0082C44.3575 95.1195 46.1465 95.362 48.088 94.8093C50.0289 94.2578 52.1223 92.9097 54.2958 90.8454C56.47 88.7786 58.7242 85.9937 60.988 82.5622C61.4462 81.7542 61.9876 81.2046 62.5253 80.8803C63.0636 80.558 63.5968 80.4629 64.0378 80.5695C64.4808 80.6748 64.831 80.9812 65.0032 81.4624C65.1748 81.9437 65.1697 82.5993 64.8952 83.4022L64.3283 84.5288L63.7627 85.6567L63.1958 86.7827L62.6289 87.9093C62.4821 88.5418 62.4751 88.9714 62.5774 89.2318C62.6778 89.4929 62.8844 89.5842 63.164 89.5395C63.4417 89.4942 63.7932 89.3135 64.1802 89.0301C64.5672 88.7467 64.9905 88.3599 65.415 87.9022C66.5018 86.6052 67.5517 85.3242 68.5838 84.0922C69.6159 82.8629 70.6295 81.6814 71.6413 80.5848C72.6505 79.4882 73.6591 78.4739 74.6797 77.5784C75.7004 76.6822 76.7344 75.9042 77.797 75.2754C78.688 74.7342 79.621 74.288 80.505 74.0173C81.389 73.7454 82.2254 73.6516 82.9251 73.8156C83.6248 73.9784 84.1891 74.4003 84.526 75.1618C84.8653 75.9239 84.9772 77.0231 84.7745 78.5467C85.4379 77.7131 86.1154 76.9178 86.812 76.1748C87.5072 75.4312 88.2235 74.7386 88.9626 74.1073C89.6998 73.4761 90.4624 72.908 91.2517 72.4146C92.0404 71.9193 92.8577 71.4986 93.7081 71.1635C94.5012 70.8603 95.2804 70.7059 95.989 70.7001C96.6969 70.6956 97.3337 70.8393 97.8472 71.1284C98.3614 71.4182 98.751 71.8561 98.9632 72.4382C99.1742 73.0203 99.2092 73.748 99.0109 74.6212C99.5123 74.1367 100.025 73.6988 100.544 73.3018C101.064 72.9067 101.592 72.5531 102.126 72.239C102.665 71.925 103.208 71.648 103.758 71.4086C104.308 71.1673 104.867 70.9624 105.431 70.7901C106.046 70.6037 106.651 70.4754 107.221 70.4352C107.793 70.3931 108.327 70.4397 108.802 70.6024C109.278 70.7652 109.692 71.0454 110.023 71.4705C110.353 71.8982 110.597 72.4701 110.732 73.2195C110.764 73.4007 110.734 73.605 110.665 73.8201C110.595 74.0346 110.487 74.2618 110.362 74.4833C110.237 74.7061 110.095 74.9263 109.962 75.1312C109.828 75.3348 109.699 75.5231 109.601 75.6827C111.882 74.6824 114.119 73.6707 116.309 72.6814C118.499 71.6907 120.641 70.7224 122.733 69.811C124.825 68.8982 126.865 68.0422 128.853 67.2763C130.84 66.5097 132.775 65.8331 134.65 65.2803C134.921 65.2063 135.17 65.1373 135.408 65.0761C135.646 65.011 135.872 64.9548 136.095 64.9018C136.318 64.8495 136.536 64.801 136.761 64.7569C136.986 64.7122 137.217 64.672 137.46 64.6337C138.186 64.5999 138.782 64.7812 139.214 65.0824C139.644 65.3844 139.905 65.805 139.96 66.2524C140.014 66.6973 139.859 67.1684 139.457 67.5712C139.053 67.9739 138.402 68.3046 137.46 68.4718C136.908 68.5503 136.366 68.6454 135.829 68.759C135.291 68.8714 134.755 69.0029 134.214 69.1516C133.673 69.299 133.125 69.4656 132.565 69.652C132.005 69.8371 131.429 70.0427 130.833 70.2654L124.904 73.065L118.973 75.8652L113.044 78.6648L107.114 81.4637Z" fill="black"/>
</svg>
