<svg width="511" height="325" viewBox="0 0 511 325" fill="none" xmlns="http://www.w3.org/2000/svg">
<path d="M218.397 131.129C217.894 129.894 216.895 128.779 215.396 127.776C213.9 126.777 211.792 125.974 209.077 125.366C206.361 124.759 202.767 124.457 198.297 124.457H185.787V146.018H202.659C205.396 146.018 207.794 145.689 209.86 145.041C211.92 144.39 213.634 143.541 215.007 142.502C216.373 141.459 217.408 140.274 218.098 138.947C218.791 137.626 219.145 136.268 219.145 134.877C219.145 133.618 218.895 132.37 218.397 131.129ZM222.468 169.404L201.814 149.339H185.787V169.404H182.271V121.132H198.816C207.112 121.132 213.161 122.333 216.955 124.749C220.761 127.155 222.667 130.539 222.667 134.877C222.667 136.831 222.234 138.615 221.389 140.224C220.545 141.828 219.379 143.245 217.906 144.484C216.429 145.721 214.689 146.736 212.693 147.517C210.695 148.298 208.549 148.818 206.243 149.081L227.351 169.404H222.468Z" fill="black"/>
<path d="M257.512 138.07C256.73 136.204 255.929 134.338 255.108 132.467C254.279 130.599 253.454 128.663 252.63 126.671C251.803 128.623 250.996 130.515 250.215 132.334C249.435 134.162 248.656 135.986 247.875 137.808L242.598 149.992H262.661L257.512 138.07ZM271.328 169.404L264.093 153.313H241.098L233.926 169.404H230.152L251.521 121.132H253.737L275.167 169.404H271.328Z" fill="black"/>
<path d="M325.234 161.523C324.167 163.262 322.681 164.76 320.772 166.017C318.818 167.362 316.475 168.417 313.739 169.178C311 169.935 308.003 170.319 304.744 170.319C299.273 170.319 294.81 169.602 291.355 168.171C287.906 166.734 285.049 164.71 282.791 162.107L285.529 159.827C287.265 162.043 289.695 163.803 292.824 165.104C295.95 166.405 299.945 167.06 304.808 167.06C307.853 167.06 310.532 166.712 312.86 166.017C315.178 165.32 317.19 164.413 318.884 163.282C320.271 162.369 321.358 161.276 322.141 159.995C322.922 158.714 323.312 157.357 323.312 155.919C323.312 154.007 322.846 152.51 321.911 151.425C320.976 150.34 319.991 149.493 318.95 148.884C318.383 148.58 317.739 148.288 317.032 148C316.313 147.723 315.398 147.421 314.293 147.093C313.184 146.764 311.815 146.408 310.185 146.018C308.56 145.625 306.552 145.171 304.161 144.646C301.643 144.086 299.573 143.607 297.973 143.219C296.364 142.827 295.035 142.478 293.996 142.174C292.953 141.872 292.098 141.575 291.427 141.291C290.746 141.009 290.13 140.716 289.567 140.414C288.262 139.719 287.093 138.67 286.052 137.257C285.009 135.84 284.482 134.01 284.482 131.75C284.482 130.142 284.931 128.549 285.822 126.963C286.709 125.374 288.196 124.062 290.288 123.019C292.156 122.02 294.326 121.306 296.796 120.871C299.273 120.437 302.033 120.219 305.072 120.219C307.763 120.219 310.141 120.393 312.207 120.739C314.265 121.087 316.083 121.606 317.643 122.303C319.212 122.999 320.559 123.868 321.688 124.911C322.812 125.948 323.768 127.145 324.549 128.491L321.494 130.12C320.882 129.077 320.129 128.148 319.238 127.321C318.349 126.495 317.252 125.804 315.951 125.233C314.652 124.669 313.108 124.238 311.326 123.932C309.547 123.63 307.459 123.478 305.072 123.478C302.422 123.478 299.939 123.674 297.609 124.062C295.287 124.457 293.411 125.061 291.98 125.89C289.325 127.362 288.002 129.381 288.002 131.948C288.002 133.247 288.338 134.388 289.015 135.367C289.687 136.344 290.586 137.117 291.713 137.678C292.322 137.984 292.997 138.256 293.733 138.488C294.474 138.731 295.395 139.001 296.502 139.305C297.609 139.613 298.956 139.936 300.546 140.284C302.13 140.632 304.075 141.067 306.382 141.585C308.374 142.024 310.127 142.422 311.653 142.79C313.172 143.163 314.53 143.517 315.725 143.87C316.916 144.218 317.971 144.596 318.884 145.009C319.797 145.423 320.665 145.881 321.494 146.408C322.836 147.275 324.067 148.48 325.17 150.023C326.277 151.567 326.831 153.489 326.831 155.793C326.831 157.871 326.301 159.789 325.234 161.523Z" fill="black"/>
<path d="M352.566 124.457V169.404H349.05V124.457H330.022V121.132H371.586V124.457H352.566Z" fill="black"/>
<path d="M419.113 131.129C418.615 129.894 417.616 128.779 416.118 127.776C414.617 126.777 412.509 125.974 409.798 125.366C407.082 124.759 403.488 124.457 399.02 124.457H386.51V146.018H403.382C406.119 146.018 408.515 145.689 410.577 145.041C412.645 144.39 414.357 143.541 415.726 142.502C417.097 141.459 418.126 140.274 418.817 138.947C419.516 137.626 419.866 136.268 419.866 134.877C419.866 133.618 419.618 132.37 419.113 131.129ZM423.187 169.404L402.535 149.339H386.51V169.404H382.988V121.132H399.54C407.834 121.132 413.882 122.333 417.682 124.749C421.48 127.155 423.383 130.539 423.383 134.877C423.383 136.831 422.955 138.615 422.112 140.224C421.267 141.828 420.104 143.245 418.629 144.484C417.149 145.721 415.406 146.736 413.416 147.517C411.412 148.298 409.27 148.818 406.964 149.081L428.072 169.404H423.187Z" fill="black"/>
<path d="M480.58 135.562C479.315 132.804 477.638 130.54 475.532 128.754C473.421 126.974 470.979 125.639 468.204 124.75C465.422 123.857 462.533 123.413 459.536 123.413H459.474C456.475 123.413 453.594 123.857 450.84 124.75C448.089 125.639 445.651 126.974 443.547 128.754C441.436 130.54 439.755 132.804 438.492 135.562C437.236 138.317 436.604 141.544 436.604 145.236C436.604 148.927 437.236 152.14 438.492 154.875C439.755 157.614 441.436 159.874 443.547 161.654C445.651 163.433 448.093 164.771 450.874 165.658C453.652 166.552 456.541 166.995 459.536 166.995C462.533 166.995 465.422 166.552 468.204 165.658C470.979 164.771 473.421 163.433 475.532 161.654C477.638 159.874 479.315 157.614 480.58 154.875C481.84 152.14 482.468 148.927 482.468 145.236C482.468 141.544 481.84 138.317 480.58 135.562ZM483.776 156.312C482.296 159.436 480.33 162.042 477.88 164.13C475.421 166.212 472.601 167.768 469.41 168.791C466.214 169.804 462.929 170.32 459.536 170.32C456.151 170.32 452.862 169.804 449.666 168.791C446.479 167.768 443.651 166.212 441.2 164.13C438.746 162.042 436.78 159.436 435.305 156.312C433.827 153.179 433.088 149.514 433.088 145.304V145.236C433.088 141.026 433.827 137.348 435.305 134.227C436.78 131.1 438.746 128.492 441.2 126.41C443.651 124.325 446.479 122.772 449.666 121.749C452.862 120.73 456.151 120.22 459.536 120.22C462.929 120.22 466.214 120.73 469.41 121.749C472.601 122.772 475.421 124.325 477.88 126.41C480.33 128.492 482.296 131.11 483.776 134.257C485.245 137.408 485.986 141.092 485.986 145.304C485.986 149.514 485.245 153.179 483.776 156.312Z" fill="black"/>
<path d="M62.4403 108.772C34.4332 122.684 28.2473 128.534 26.3454 158.891C24.4456 189.25 29.8528 195.825 55.9041 213.122C71.4031 223.412 79.9693 228 89.7588 228C96.9438 228 104.936 225.486 117.35 219.322C144.876 205.644 156.746 198.279 149.563 166.911C147.757 159.017 146.936 152.621 146.212 146.981C144.22 131.432 143.117 122.868 124.18 110.292C110.685 101.331 102.543 98 94.1531 98C85.6288 98 77.1366 101.473 62.4403 108.772M91.1282 207.122C68.0018 204.259 64.4404 198.147 55.6538 177.395C46.8733 156.641 44.9634 149.83 59.005 131.234C69.0647 117.907 75.3088 114.058 86.828 114.058C90.984 114.058 95.7106 114.54 102.479 115.379C124.843 118.146 131.697 119.899 140.78 141.356C147.309 156.773 144.228 162.825 139.131 172.851C137.127 176.796 134.851 181.265 132.628 187.202C126.697 203.06 120.144 208.411 106.657 208.411C102.421 208.411 97.5724 207.917 91.1282 207.122" fill="black"/>
<path d="M92.6539 139.967L91.5048 141.014C81.9615 149.698 78.7504 152.619 81.5951 165.65C84.4379 178.682 88.582 180.004 100.872 183.92L102.355 184.39C107.823 186.136 111.772 187.397 115.284 187.397C119.57 187.397 123.318 185.507 128.647 180.656C138.641 171.558 141.754 166.933 134.769 154.353C132.779 150.765 131.672 147.749 130.701 145.088C128.539 139.18 127.111 135.274 118.111 132.406C114.281 131.182 111.346 130.616 108.882 130.616C102.92 130.616 99.2724 133.939 92.6539 139.967M106.403 181.297C105.644 181.053 104.834 180.795 103.959 180.522C103.08 180.258 102.263 180.02 101.498 179.798C95.4065 178.032 92.6259 177.227 90.9663 170.044C89.3067 162.865 91.4507 160.919 96.1493 156.659C96.7378 156.125 97.3665 155.552 98.0392 154.927C98.7078 154.303 99.3223 153.712 99.8929 153.162C103.182 150.001 105.168 148.097 108.669 148.055C110.055 148.037 111.626 148.311 113.608 148.916C118.859 150.517 119.638 153.076 120.719 156.617C121.276 158.443 121.904 160.513 123.28 162.889C127.742 170.617 126.655 173.427 120.587 179.091C117.78 181.707 115.64 182.788 113.198 182.818C113.162 182.821 113.128 182.82 113.094 182.82C111.156 182.82 109.154 182.178 106.403 181.297Z" fill="black"/>
<path d="M188.624 206.557C186.35 206.557 184.308 205.747 182.498 204.125L183.237 203.278C184.092 204.073 184.938 204.649 185.779 205.004C186.618 205.36 187.589 205.536 188.69 205.536C189.819 205.536 190.742 205.25 191.459 204.677C192.175 204.107 192.534 203.386 192.534 202.517V202.473C192.534 201.635 192.233 200.968 191.633 200.475C191.032 199.983 189.897 199.571 188.234 199.236C186.408 198.876 185.097 198.361 184.302 197.695C183.505 197.028 183.107 196.117 183.107 194.958V194.914C183.107 193.785 183.569 192.836 184.496 192.069C185.423 191.301 186.59 190.918 187.993 190.918C189.066 190.918 190.003 191.066 190.808 191.363C191.611 191.659 192.412 192.127 193.208 192.764L192.49 193.655C191.172 192.51 189.659 191.939 187.951 191.939C186.85 191.939 185.955 192.213 185.269 192.764C184.58 193.314 184.236 193.995 184.236 194.806V194.85C184.236 195.703 184.544 196.383 185.159 196.89C185.775 197.398 186.944 197.825 188.668 198.173C190.42 198.536 191.691 199.046 192.48 199.705C193.268 200.363 193.663 201.25 193.663 202.365V202.409C193.663 203.624 193.192 204.621 192.252 205.394C191.311 206.171 190.101 206.557 188.624 206.557Z" fill="black"/>
<path d="M208.805 206.579C206.937 206.579 205.429 206.007 204.286 204.864C203.143 203.719 202.571 202.105 202.571 200.019V191.134H203.7V199.911C203.7 201.693 204.156 203.078 205.069 204.071C205.98 205.062 207.241 205.558 208.849 205.558C210.426 205.558 211.665 205.084 212.562 204.135C213.461 203.188 213.91 201.815 213.91 200.019V191.134H215.039V199.889C215.039 202.017 214.474 203.664 213.345 204.832C212.216 205.997 210.702 206.579 208.805 206.579Z" fill="black"/>
<path d="M229.897 206.557C227.623 206.557 225.581 205.747 223.771 204.125L224.51 203.278C225.365 204.073 226.211 204.649 227.052 205.004C227.891 205.36 228.862 205.536 229.963 205.536C231.092 205.536 232.015 205.25 232.732 204.677C233.448 204.107 233.807 203.386 233.807 202.517V202.473C233.807 201.635 233.506 200.968 232.906 200.475C232.305 199.983 231.17 199.571 229.507 199.236C227.681 198.876 226.37 198.361 225.575 197.695C224.778 197.028 224.38 196.117 224.38 194.958V194.914C224.38 193.785 224.842 192.836 225.769 192.069C226.696 191.301 227.863 190.918 229.266 190.918C230.339 190.918 231.276 191.066 232.081 191.363C232.884 191.659 233.685 192.127 234.481 192.764L233.763 193.655C232.445 192.51 230.932 191.939 229.224 191.939C228.123 191.939 227.228 192.213 226.542 192.764C225.853 193.314 225.509 193.995 225.509 194.806V194.85C225.509 195.703 225.817 196.383 226.432 196.89C227.048 197.398 228.217 197.825 229.941 198.173C231.693 198.536 232.964 199.046 233.753 199.705C234.541 200.363 234.936 201.25 234.936 202.365V202.409C234.936 203.624 234.465 204.621 233.524 205.394C232.584 206.171 231.374 206.557 229.897 206.557Z" fill="black"/>
<path d="M247.97 206.34V192.177H242.668V191.134H254.4V192.177H249.099V206.34H247.97Z" fill="black"/>
<path d="M263.263 206.34V191.134H274.081V192.177H264.392V198.15H273.102V199.193H264.392V205.297H274.19V206.34H263.263Z" fill="black"/>
<path d="M283.247 206.34V191.134H284.312L294.805 204.364V191.134H295.89V206.34H295.043L284.334 192.829V206.34H283.247Z" fill="black"/>
<path d="M310.052 206.34V192.177H304.751V191.134H316.483V192.177H311.181V206.34H310.052Z" fill="black"/>
<path d="M325.671 201.062H333.687L329.689 192.263L325.671 201.062ZM322.088 206.341L329.169 191.026H330.254L337.336 206.341H336.097L334.165 202.083H325.193L323.261 206.341H322.088Z" fill="black"/>
<path d="M356.886 202.148C356.886 201.207 356.488 200.479 355.691 199.966C354.894 199.452 353.751 199.193 352.26 199.193H347.111V205.297H352.628C353.931 205.297 354.966 205.019 355.735 204.463C356.502 203.904 356.886 203.147 356.886 202.192V202.148ZM356.039 195.023V194.979C356.039 194.126 355.705 193.446 355.04 192.937C354.374 192.431 353.439 192.179 352.238 192.179H347.111V198.15H352.129C353.303 198.15 354.247 197.876 354.964 197.326C355.681 196.775 356.039 196.008 356.039 195.023M345.981 206.34V191.136H352.26C353.997 191.136 355.314 191.584 356.213 192.481C356.864 193.134 357.19 193.93 357.19 194.871V194.915C357.19 196.623 356.327 197.826 354.606 198.521C356.894 199.115 358.037 200.324 358.037 202.148V202.192C358.037 203.452 357.541 204.459 356.55 205.211C355.557 205.964 354.235 206.34 352.586 206.34H345.981Z" fill="black"/>
<path d="M367.248 191.134H368.377V206.341H367.248V191.134Z" fill="black"/>
<path d="M378.477 206.34V191.134H379.606V205.297H388.535V206.34H378.477Z" fill="black"/>
<path d="M397.505 191.134H398.635V206.341H397.505V191.134Z" fill="black"/>
<path d="M413.797 192.177H409.866V205.298H413.797C415.867 205.298 417.537 204.675 418.804 203.43C420.072 202.185 420.706 200.636 420.706 198.782V198.738C420.706 196.884 420.072 195.326 418.804 194.067C417.537 192.808 415.867 192.177 413.797 192.177ZM408.737 206.341V191.134H413.797C416.158 191.134 418.096 191.855 419.609 193.296C421.121 194.738 421.877 196.536 421.877 198.694V198.738C421.877 200.91 421.121 202.72 419.609 204.169C418.096 205.616 416.158 206.341 413.797 206.341H408.737Z" fill="black"/>
<path d="M432.457 201.062H440.473L436.475 192.263L432.457 201.062ZM428.874 206.341L435.955 191.026H437.04L444.123 206.341H442.884L440.952 202.083H431.979L430.047 206.341H428.874Z" fill="black"/>
<path d="M457.829 192.177H453.897V205.298H457.829C459.899 205.298 461.569 204.675 462.836 203.43C464.103 202.185 464.738 200.636 464.738 198.782V198.738C464.738 196.884 464.103 195.326 462.836 194.067C461.569 192.808 459.899 192.177 457.829 192.177ZM452.768 206.341V191.134H457.829C460.189 191.134 462.127 191.855 463.641 193.296C465.152 194.738 465.909 196.536 465.909 198.694V198.738C465.909 200.91 465.152 202.72 463.641 204.169C462.127 205.616 460.189 206.341 457.829 206.341H452.768Z" fill="black"/>
<path d="M475.185 206.34V191.134H486.004V192.177H476.314V198.15H485.025V199.193H476.314V205.297H486.112V206.34H475.185Z" fill="black"/>
</svg>
