<svg width="511" height="325" viewBox="0 0 511 325" fill="none" xmlns="http://www.w3.org/2000/svg">
<path d="M47.1293 180.46C49.3387 180.46 51.1453 180.08 52.5467 179.316C53.9493 178.554 54.6507 177.558 54.6507 176.33C54.6507 175.102 53.9507 174.106 52.5507 173.345C51.152 172.584 49.4693 171.948 47.5013 171.442C45.5333 170.936 43.5453 170.425 41.5373 169.906C39.5293 169.39 37.824 168.436 36.4213 167.044C35.02 165.65 34.3187 163.858 34.3187 161.664C34.3187 159.217 35.508 157.108 37.888 155.336C40.2667 153.564 43.2627 152.677 46.8747 152.677C50.4853 152.677 53.4293 153.396 55.7027 154.829C57.9747 156.264 59.112 157.72 59.112 159.196C59.112 159.872 58.8573 160.473 58.348 161C57.8373 161.528 57.1787 161.792 56.372 161.792C55.648 161.792 54.8627 161.369 54.0133 160.525C52.1427 158.669 49.7427 157.74 46.8107 157.74C44.644 157.74 42.9547 158.113 41.744 158.856C40.5333 159.601 39.928 160.469 39.928 161.461C39.928 162.577 40.6453 163.477 42.084 164.16C43.5213 164.841 45.2453 165.446 47.2547 165.974C49.2653 166.504 51.284 167.036 53.3147 167.569C55.344 168.104 57.0627 169.074 58.4693 170.481C59.8747 171.889 60.5787 173.676 60.5787 175.841C60.5787 178.793 59.2493 181.156 56.5947 182.928C53.9387 184.7 50.7627 185.585 47.0653 185.585C43.2827 185.585 40.16 184.817 37.6973 183.276C35.232 181.737 34 180.249 34 178.814C34 178.054 34.2547 177.422 34.764 176.916C35.2747 176.409 35.912 176.157 36.6773 176.157C37.4413 176.157 38.1627 176.494 38.844 177.169C40.9253 179.364 43.688 180.46 47.1293 180.46Z" fill="black"/>
<path d="M97.9917 155.715V182.548C97.9917 183.392 97.6824 184.109 97.0677 184.7C96.4504 185.289 95.7384 185.585 94.9317 185.585C94.1251 185.585 93.4131 185.289 92.7971 184.7C92.1811 184.109 91.8731 183.392 91.8731 182.548V181.915C88.9411 184.363 85.4771 185.585 81.4837 185.585C76.9797 185.585 73.1664 183.983 70.0424 180.776C66.9197 177.571 65.3584 173.667 65.3584 169.068C65.3584 164.471 66.9291 160.588 70.0744 157.424C73.2184 154.259 77.0211 152.677 81.4837 152.677C85.5197 152.677 88.9824 153.901 91.8731 156.348V155.715C91.8731 154.872 92.1811 154.155 92.7971 153.563C93.4131 152.973 94.1251 152.677 94.9317 152.677C95.7824 152.677 96.5037 152.973 97.0997 153.563C97.6931 154.155 97.9917 154.872 97.9917 155.715ZM89.4197 177.075C91.3517 174.859 92.3184 172.191 92.3184 169.068C92.3184 165.947 91.3411 163.3 89.3877 161.125C87.4317 158.953 84.9464 157.867 81.9304 157.867C78.8277 157.867 76.2464 158.964 74.1864 161.157C72.1237 163.351 71.0944 165.989 71.0944 169.068C71.0944 172.191 72.1237 174.859 74.1864 177.075C76.2464 179.289 78.8277 180.396 81.9304 180.396C84.9891 180.396 87.4851 179.289 89.4197 177.075Z" fill="black"/>
<path d="M137.318 140.526V182.547C137.318 183.393 137.009 184.11 136.394 184.699C135.777 185.29 135.065 185.586 134.258 185.586C133.451 185.586 132.739 185.29 132.123 184.699C131.507 184.11 131.199 183.393 131.199 182.547V180.902C128.394 184.025 124.803 185.586 120.427 185.586C116.094 185.586 112.386 183.982 109.305 180.775C106.223 177.57 104.685 173.667 104.685 169.069C104.685 164.513 106.235 160.641 109.337 157.455C112.438 154.27 116.135 152.677 120.427 152.677C124.803 152.677 128.394 154.239 131.199 157.361V140.526C131.199 139.683 131.507 138.966 132.123 138.374C132.739 137.785 133.451 137.489 134.258 137.489C135.109 137.489 135.83 137.785 136.426 138.374C137.019 138.966 137.318 139.683 137.318 140.526ZM131.645 169.385V168.625C131.645 165.587 130.667 163.046 128.714 160.999C126.758 158.954 124.273 157.93 121.255 157.93C118.154 157.93 115.573 159.017 113.513 161.19C111.45 163.362 110.421 165.989 110.421 169.069C110.421 172.191 111.45 174.858 113.513 177.074C115.573 179.289 118.154 180.397 121.255 180.397C124.315 180.397 126.811 179.342 128.745 177.231C130.678 175.123 131.645 172.507 131.645 169.385Z" fill="black"/>
<path d="M176.644 155.715V182.548C176.644 183.392 176.334 184.109 175.72 184.7C175.102 185.289 174.39 185.585 173.584 185.585C172.777 185.585 172.065 185.289 171.449 184.7C170.833 184.109 170.525 183.392 170.525 182.548V181.915C167.593 184.363 164.129 185.585 160.136 185.585C155.632 185.585 151.818 183.983 148.694 180.776C145.572 177.571 144.01 173.667 144.01 169.068C144.01 164.471 145.581 160.588 148.726 157.424C151.87 154.259 155.673 152.677 160.136 152.677C164.172 152.677 167.634 153.901 170.525 156.348V155.715C170.525 154.872 170.833 154.155 171.449 153.563C172.065 152.973 172.777 152.677 173.584 152.677C174.434 152.677 175.156 152.973 175.752 153.563C176.345 154.155 176.644 154.872 176.644 155.715ZM168.072 177.075C170.004 174.859 170.97 172.191 170.97 169.068C170.97 165.947 169.993 163.3 168.04 161.125C166.084 158.953 163.598 157.867 160.582 157.867C157.48 157.867 154.898 158.964 152.838 161.157C150.776 163.351 149.746 165.989 149.746 169.068C149.746 172.191 150.776 174.859 152.838 177.075C154.898 179.289 157.48 180.396 160.582 180.396C163.641 180.396 166.137 179.289 168.072 177.075Z" fill="black"/>
<path d="M191.048 140.526V182.547C191.048 183.35 190.74 184.057 190.124 184.667C189.508 185.279 188.796 185.586 187.989 185.586C187.181 185.586 186.469 185.279 185.853 184.667C185.237 184.057 184.929 183.35 184.929 182.547V140.526C184.929 139.726 185.237 139.018 185.853 138.406C186.469 137.795 187.181 137.489 187.989 137.489C188.796 137.489 189.508 137.795 190.124 138.406C190.74 139.018 191.048 139.726 191.048 140.526Z" fill="black"/>
<path d="M205.452 140.526V182.547C205.452 183.35 205.144 184.057 204.528 184.667C203.912 185.279 203.2 185.586 202.393 185.586C201.585 185.586 200.873 185.279 200.257 184.667C199.641 184.057 199.333 183.35 199.333 182.547V140.526C199.333 139.726 199.641 139.018 200.257 138.406C200.873 137.795 201.585 137.489 202.393 137.489C203.2 137.489 203.912 137.795 204.528 138.406C205.144 139.018 205.452 139.726 205.452 140.526Z" fill="black"/>
<path d="M244.778 155.715V182.548C244.778 183.392 244.469 184.109 243.854 184.7C243.237 185.289 242.525 185.585 241.718 185.585C240.912 185.585 240.198 185.289 239.584 184.7C238.968 184.109 238.66 183.392 238.66 182.548V181.915C235.728 184.363 232.264 185.585 228.27 185.585C223.765 185.585 219.952 183.983 216.829 180.776C213.706 177.571 212.144 173.667 212.144 169.068C212.144 164.471 213.716 160.588 216.861 157.424C220.005 154.259 223.808 152.677 228.27 152.677C232.306 152.677 235.769 153.901 238.66 156.348V155.715C238.66 154.872 238.968 154.155 239.584 153.563C240.198 152.973 240.912 152.677 241.718 152.677C242.569 152.677 243.29 152.973 243.886 153.563C244.48 154.155 244.778 154.872 244.778 155.715ZM236.205 177.075C238.138 174.859 239.105 172.191 239.105 169.068C239.105 165.947 238.128 163.3 236.173 161.125C234.218 158.953 231.733 157.867 228.716 157.867C225.614 157.867 223.033 158.964 220.973 161.157C218.91 163.351 217.881 165.989 217.881 169.068C217.881 172.191 218.91 174.859 220.973 177.075C223.033 179.289 225.614 180.396 228.716 180.396C231.776 180.396 234.272 179.289 236.205 177.075Z" fill="black"/>
<path d="M286.67 166.562L284.95 166.11L280.61 164.967C278.675 164.459 276.998 163.871 275.622 163.219C274.062 162.479 274.062 161.713 274.062 161.461C274.062 161.237 274.062 160.553 275.382 159.742C276.419 159.105 277.938 158.782 279.897 158.782C282.563 158.782 284.677 159.593 286.358 161.261C287.421 162.318 288.435 162.833 289.458 162.833C290.543 162.833 291.489 162.447 292.19 161.719C292.891 160.997 293.247 160.146 293.247 159.195C293.247 157.347 291.937 155.582 289.351 153.95C286.914 152.414 283.755 151.635 279.961 151.635C276.134 151.635 272.898 152.599 270.343 154.502C267.698 156.473 266.355 158.882 266.355 161.663C266.355 164.134 267.166 166.191 268.766 167.779C270.295 169.299 272.179 170.355 274.361 170.915L278.349 171.942L280.323 172.45C282.195 172.931 283.814 173.541 285.133 174.258C286.526 175.017 286.687 175.805 286.687 176.33C286.687 176.857 286.526 177.643 285.13 178.402C283.891 179.077 282.238 179.418 280.215 179.418C277.045 179.418 274.585 178.449 272.694 176.454C271.79 175.558 270.811 175.115 269.762 175.115C268.713 175.115 267.819 175.473 267.109 176.179C266.398 176.885 266.037 177.771 266.037 178.814C266.037 180.65 267.406 182.398 270.225 184.157C272.845 185.797 276.185 186.627 280.151 186.627C284.043 186.627 287.446 185.673 290.266 183.791C293.217 181.822 294.713 179.146 294.713 175.841C294.713 173.401 293.901 171.351 292.299 169.747C290.765 168.213 288.871 167.141 286.67 166.562Z" fill="black"/>
<path d="M338.089 151.636C333.488 151.636 329.502 153.488 326.225 157.142C322.884 153.488 318.925 151.636 314.442 151.636C309.881 151.636 306.016 153.198 302.956 156.281C299.901 159.36 298.352 163.385 298.352 168.245V182.548C298.352 183.633 298.766 184.594 299.584 185.405C300.398 186.216 301.366 186.628 302.46 186.628C303.55 186.628 304.518 186.216 305.337 185.405C306.154 184.593 306.568 183.632 306.568 182.548V167.486C306.568 164.833 307.305 162.794 308.82 161.252C310.326 159.718 312.145 158.972 314.378 158.972C316.608 158.972 318.414 159.717 319.901 161.248C321.398 162.79 322.126 164.832 322.126 167.486V182.548C322.126 183.633 322.54 184.594 323.358 185.405C324.173 186.216 325.141 186.628 326.234 186.628C327.33 186.628 328.292 186.212 329.09 185.393C329.88 184.581 330.28 183.625 330.28 182.548V167.486C330.28 164.833 331.016 162.794 332.53 161.252C334.037 159.718 335.856 158.972 338.089 158.972C340.274 158.972 342.069 159.736 343.576 161.306C345.096 162.892 345.836 164.913 345.836 167.486V182.548C345.836 183.64 346.265 184.606 347.113 185.418C347.95 186.22 348.924 186.628 350.008 186.628C351.1 186.628 352.081 186.196 352.848 185.378C353.605 184.569 353.989 183.618 353.989 182.548V168.245C353.989 163.388 352.462 159.365 349.454 156.288C346.436 153.201 342.612 151.636 338.089 151.636Z" fill="black"/>
<path d="M387.519 151.636C386.434 151.636 385.47 152.032 384.655 152.814C384.166 153.282 383.82 153.816 383.619 154.408C380.864 152.566 377.662 151.636 374.07 151.636C369.338 151.636 365.248 153.337 361.914 156.692C358.584 160.042 356.896 164.206 356.896 169.069C356.896 173.926 358.571 178.109 361.875 181.5C365.188 184.902 369.291 186.628 374.07 186.628C377.632 186.628 380.835 185.693 383.616 183.846C383.816 184.444 384.164 184.98 384.656 185.45C385.47 186.23 386.434 186.628 387.519 186.628C388.602 186.628 389.566 186.232 390.382 185.45C391.208 184.657 391.627 183.681 391.627 182.548V155.714C391.627 154.59 391.224 153.618 390.428 152.828C389.63 152.036 388.652 151.636 387.519 151.636ZM383.856 169.069C383.856 171.957 382.991 174.353 381.212 176.392C379.472 178.385 377.282 179.354 374.516 179.354C371.695 179.354 369.414 178.377 367.543 176.368C365.651 174.333 364.731 171.946 364.731 169.069C364.731 166.236 365.65 163.88 367.539 161.868C369.411 159.876 371.692 158.908 374.516 158.908C377.244 158.908 379.427 159.861 381.191 161.82C382.984 163.816 383.856 166.186 383.856 169.069Z" fill="black"/>
<path d="M411.264 151.636C406.952 151.636 403.31 153.126 400.441 156.066C397.58 158.997 396.129 162.625 396.129 166.853V182.548C396.129 183.633 396.544 184.594 397.361 185.405C398.177 186.216 399.145 186.628 400.237 186.628C401.329 186.628 402.296 186.216 403.114 185.405C403.932 184.593 404.346 183.632 404.346 182.548V165.968C404.346 163.944 404.953 162.312 406.2 160.981C407.426 159.672 408.98 159.036 410.945 159.036C412.202 159.036 413.649 159.609 415.244 160.74C416.016 161.288 416.886 161.566 417.829 161.566C418.802 161.566 419.678 161.172 420.433 160.392C421.177 159.626 421.556 158.733 421.556 157.74C421.556 156.552 421.028 155.488 420.03 154.661C417.641 152.656 414.689 151.636 411.264 151.636Z" fill="black"/>
<path d="M440.034 178.532H437.548C437.174 178.532 436.843 178.388 436.506 178.08C436.19 177.791 436.048 177.471 436.048 177.043V159.731H440.863C441.863 159.731 442.751 159.367 443.502 158.649C444.266 157.919 444.652 157.017 444.652 155.968C444.652 154.932 444.266 154.016 443.534 153.319C442.802 152.621 441.903 152.268 440.863 152.268H436.048V147.868C436.048 146.779 435.63 145.824 434.804 145.031C433.986 144.248 433.023 143.852 431.94 143.852C430.812 143.852 429.827 144.248 429.012 145.029C428.186 145.823 427.767 146.777 427.767 147.868V152.268H426.331C425.315 152.268 424.428 152.653 423.694 153.411C422.971 154.157 422.604 155.017 422.604 155.968C422.604 157.001 422.96 157.893 423.662 158.62C424.372 159.357 425.271 159.731 426.331 159.731H427.767V177.043C427.767 179.469 428.651 181.589 430.396 183.343C432.143 185.103 434.314 185.995 436.847 185.995H440.034C441.075 185.995 441.974 185.641 442.704 184.944C443.436 184.247 443.824 183.331 443.824 182.295C443.824 181.255 443.452 180.357 442.72 179.629C441.986 178.9 441.082 178.532 440.034 178.532Z" fill="black"/>
<path d="M259.01 182.141C259.01 183.958 257.526 185.431 255.695 185.431C253.866 185.431 252.382 183.958 252.382 182.141C252.382 180.323 253.866 178.85 255.695 178.85C257.526 178.85 259.01 180.323 259.01 182.141Z" fill="black"/>
<path d="M307.341 248.999C307.341 252.634 304.373 255.58 300.713 255.58C297.052 255.58 294.085 252.634 294.085 248.999C294.085 245.364 297.052 242.418 300.713 242.418C304.373 242.418 307.341 245.364 307.341 248.999Z" fill="black"/>
<path d="M390.711 265.043C390.711 270.495 386.259 274.915 380.768 274.915C375.277 274.915 370.825 270.495 370.825 265.043C370.825 259.591 375.277 255.171 380.768 255.171C386.259 255.171 390.711 259.591 390.711 265.043Z" fill="black"/>
<path d="M461.934 220.387C461.934 227.657 456 233.55 448.677 233.55C441.356 233.55 435.421 227.657 435.421 220.387C435.421 213.118 441.356 207.225 448.677 207.225C456 207.225 461.934 213.118 461.934 220.387Z" fill="black"/>
<path d="M477.798 140.965C477.798 148.234 471.864 154.127 464.542 154.127C457.221 154.127 451.285 148.234 451.285 140.965C451.285 133.695 457.221 127.802 464.542 127.802C471.864 127.802 477.798 133.695 477.798 140.965Z" fill="black"/>
<path d="M429.368 73.4268C429.368 78.8788 424.918 83.2988 419.426 83.2988C413.935 83.2988 409.483 78.8788 409.483 73.4268C409.483 67.9748 413.935 63.5548 419.426 63.5548C424.918 63.5548 429.368 67.9748 429.368 73.4268Z" fill="black"/>
<path d="M345.906 57.5813C345.906 61.216 342.938 64.1627 339.278 64.1627C335.617 64.1627 332.65 61.216 332.65 57.5813C332.65 53.9467 335.617 51 339.278 51C342.938 51 345.906 53.9467 345.906 57.5813Z" fill="black"/>
<path d="M274.687 102.673C274.687 104.49 273.203 105.964 271.372 105.964C269.543 105.964 268.059 104.49 268.059 102.673C268.059 100.856 269.543 99.3823 271.372 99.3823C273.203 99.3823 274.687 100.856 274.687 102.673Z" fill="black"/>
</svg>
