<svg width="511" height="325" viewBox="0 0 511 325" fill="none" xmlns="http://www.w3.org/2000/svg">
<g clip-path="url(#clip0_496_95)">
<path d="M47 176.112H62.5888C63.0406 183.985 68.9711 189.696 78.9683 189.696C90.0386 189.696 94.783 185.26 94.783 180.326C94.783 175.391 91.5071 172.675 85.4636 171.067L72.0776 167.519C59.7647 164.192 51.0102 158.26 51.0102 145.508C51.0666 131.924 62.2499 122 80.1544 122C98.0589 122 110.315 133.754 110.541 147.947H94.9525C94.7265 142.237 89.9256 136.304 80.1544 136.304C70.3832 136.304 66.7684 140.961 66.7684 144.842C66.7684 149.999 70.3832 151.717 76.5396 153.27L90.6034 157.04C104.554 160.81 110.598 169.016 110.598 180.326C110.598 194.63 96.6469 203.945 78.9683 203.945C59.1999 204 47.4518 192.357 47 176.112Z" fill="black"/>
<path d="M116.924 122.998H171.597V137.302H132.625V155.876H168.434V170.18H132.625V188.753H171.597V202.947H116.924V122.998Z" fill="black"/>
<path d="M177.867 122.998H193.568V188.92H229.66V202.947H177.867V122.998Z" fill="black"/>
<path d="M235.929 122.998H290.603V137.302H251.631V155.876H287.44V170.18H251.631V202.947H235.929V122.998Z" fill="black"/>
<path d="M305.175 123.054H316.697C325.565 123.054 331.269 128.598 331.269 137.58V141.35C331.269 150.276 325.565 155.876 316.697 155.876H305.175V123.054ZM324.83 141.294V137.524C324.83 131.37 321.159 128.986 316.697 128.986H311.614V149.833H316.697C321.159 149.833 324.83 147.449 324.83 141.294Z" fill="black"/>
<path d="M333.867 123.054H356.234V128.931H340.25V136.526H354.935V142.403H340.25V149.999H356.234V155.82H333.867V123.054Z" fill="black"/>
<path d="M357.138 144.787H363.52C363.69 148.003 366.118 150.332 370.241 150.332C374.76 150.332 376.737 148.502 376.737 146.506C376.737 144.51 375.381 143.346 372.896 142.736L367.417 141.295C362.39 139.909 358.776 137.524 358.776 132.257C358.776 126.713 363.351 122.61 370.693 122.61C378.036 122.61 383.063 127.434 383.119 133.255H376.737C376.624 130.927 374.703 128.487 370.693 128.487C366.683 128.487 365.215 130.372 365.215 131.98C365.215 134.087 366.683 134.808 369.225 135.418L374.986 136.97C380.69 138.522 383.176 141.849 383.176 146.506C383.176 152.383 377.471 156.153 370.241 156.153C362.108 156.209 357.307 151.441 357.138 144.787Z" fill="black"/>
<path d="M384.475 149.943H391.252V128.875H384.475V123.054H404.582V128.931H397.691V149.999H404.582V155.82H384.475V149.943Z" fill="black"/>
<path d="M405.881 142.237V136.638C405.881 127.711 411.585 122.666 420.001 122.666C428.417 122.666 433.783 126.991 434.065 134.586H427.626C427.457 130.816 424.633 128.709 420.001 128.709C415.031 128.709 412.32 131.426 412.32 136.582V142.182C412.32 147.394 414.974 150.055 420.001 150.055C425.31 150.055 427.683 147.893 427.683 143.956V143.623H419.945V137.913H434.121V144.067C434.121 151.441 428.53 156.209 420.001 156.209C411.472 156.209 405.881 151.164 405.881 142.237Z" fill="black"/>
<path d="M436.663 123.054H448.919L457.505 154.878V123.054H463.718V155.765H451.122L442.876 124.218V155.82H436.663V123.054Z" fill="black"/>
<path d="M302.295 191.969H308.677C308.846 195.185 311.275 197.513 315.398 197.513C319.917 197.513 321.894 195.684 321.894 193.688C321.894 191.692 320.538 190.528 318.053 189.918L312.574 188.476C307.547 187.09 303.933 184.706 303.933 179.439C303.933 173.895 308.508 169.792 315.85 169.792C323.193 169.792 328.22 174.616 328.276 180.437H321.894C321.781 178.108 319.86 175.669 315.85 175.669C311.84 175.669 310.371 177.554 310.371 179.162C310.371 181.269 311.84 181.989 314.382 182.599L320.143 184.152C325.847 185.704 328.332 189.031 328.332 193.688C328.332 199.565 322.628 203.335 315.398 203.335C307.322 203.39 302.521 198.622 302.295 191.969Z" fill="black"/>
<path d="M339.29 176.112H329.632V170.235H355.443V176.112H345.729V202.947H339.346L339.29 176.112Z" fill="black"/>
<path d="M358.042 191.193V170.235H364.48V191.082C364.48 194.519 365.949 197.513 371.202 197.513C376.454 197.513 378.036 194.519 378.036 191.082V170.235H384.475V191.193C384.475 198.733 379.165 203.39 371.202 203.39C363.238 203.39 358.042 198.733 358.042 191.193Z" fill="black"/>
<path d="M387.016 170.235H398.539C407.406 170.235 413.111 175.78 413.111 184.761V188.531C413.111 197.458 407.406 203.058 398.539 203.058H387.016V170.235ZM406.672 188.476V184.706C406.672 178.552 403.001 176.168 398.539 176.168H393.455V197.014H398.539C403.001 197.07 406.672 194.63 406.672 188.476Z" fill="black"/>
<path d="M414.41 197.125H421.187V176.057H414.41V170.235H434.517V176.112H427.626V197.181H434.517V203.058H414.41C414.41 203.002 414.41 197.125 414.41 197.125Z" fill="black"/>
<path d="M435.816 189.419V183.819C435.816 174.893 441.521 169.848 449.936 169.848C458.296 169.848 464.057 174.893 464.057 183.819V189.419C464.057 198.345 458.352 203.391 449.936 203.391C441.521 203.391 435.816 198.345 435.816 189.419ZM449.88 197.569C454.624 197.569 457.561 194.742 457.561 189.419V183.764C457.561 178.441 454.624 175.891 449.88 175.891C445.136 175.891 442.199 178.441 442.199 183.764V189.364C442.199 194.742 445.136 197.569 449.88 197.569Z" fill="black"/>
</g>
<defs>
<clipPath id="clip0_496_95">
<rect width="417" height="82" fill="white" transform="translate(47 122)"/>
</clipPath>
</defs>
</svg>
