<svg width="511" height="325" viewBox="0 0 511 325" fill="none" xmlns="http://www.w3.org/2000/svg">
<g opacity="0.199997">
<path d="M178.798 151.993C167.212 181.322 180.312 186.334 203.939 194.188C223.162 200.575 236.189 188.281 241.952 171.39C246.663 157.593 228.63 139.025 218.451 133.719C197.516 122.813 187.156 130.829 178.798 151.993ZM250.695 175.169C244.512 196.808 223.829 212.329 200.586 205.184C171.989 196.393 156.258 181.935 169.231 149.078C178.701 125.102 196.909 110.465 221.804 122.723C240.84 132.091 256.746 154.012 250.695 175.169Z" fill="black"/>
</g>
<g opacity="0.399994">
<path d="M200.587 131.682C170.013 139.421 173.601 152.978 181.04 176.743C187.091 196.074 204.679 199.463 221.757 194.265C235.704 190.023 240.234 164.545 238.588 153.182C235.205 129.819 222.646 126.099 200.587 131.682ZM223.794 203.567C202.624 211.193 177.939 203.483 170.152 180.451C160.573 152.1 163.115 130.888 197.366 122.218C222.352 115.89 244.867 122.109 249.47 149.474C252.992 170.398 244.495 196.116 223.794 203.567Z" fill="black"/>
</g>
<g opacity="0.699997">
<path d="M207.29 132.596C190.152 133.257 172.943 148.334 176.368 165.267C179.24 179.442 191.6 197.043 209.267 195.943C221.483 195.18 240.339 174.226 240.189 163.272C239.955 146.417 218.443 132.17 207.29 132.596ZM209.567 205.431C186.439 205.888 165.816 189.495 165.455 165.604C165.095 141.315 181.89 124.094 206.995 123.108C226.032 122.357 248.536 147.823 251.101 162.93C254.34 182.008 230.316 205.023 209.567 205.431Z" fill="black"/>
</g>
<path d="M86.0278 172.314C87.9266 188.575 97.6551 196.17 116.055 196.17C132.669 196.17 140.145 191.777 140.145 182.878C140.145 176.466 136.467 173.023 126.973 171.245L99.6741 166.263C85.4329 163.769 77.9577 156.883 77.6032 145.731C77.6032 131.609 90.6547 123.299 111.902 123.299C134.688 123.299 148.569 134.692 150.354 154.75H139.436C137.891 140.154 128.631 132.793 111.902 132.793C96.4714 132.793 88.5215 137.42 88.5215 145.731C88.7558 152.022 92.3192 155.345 101.573 157.003L128.872 161.991C143.468 164.719 151.063 171.605 151.063 182.878C151.063 197.594 138.366 205.664 116.055 205.664C91.4899 205.664 77.3628 194.151 74.9893 172.314H86.0278Z" fill="black"/>
<path d="M284.962 170.534H320.805L303.475 132.726H302.286L284.962 170.534ZM257.308 205.873L296 123.087H309.767L348.453 205.873H337.06L325.312 180.173H280.455L268.701 205.873H257.308Z" fill="black"/>
<path d="M373.338 158.797H410.72C419.86 158.797 424.373 154.47 424.373 145.95C424.373 136.93 420.689 132.976 412.144 132.976H373.338V158.797ZM362.654 205.871V123.091H412.385C427.455 123.091 435.291 132.477 435.291 144.586C435.291 154.969 430.069 161.759 420.1 163.862V165.1C425.797 166.951 427.575 170.412 429.594 178.813L436 205.871H424.847L419.265 180.051C417.486 171.524 414.993 168.682 405.144 168.682H373.338V205.871H362.654Z" fill="black"/>
<path d="M210.242 196.513C225.511 197.727 243.033 171.96 242.101 158.867C240.809 140.762 217.933 131.448 201.348 132.007C179.68 132.728 176.075 149.979 177.072 165.26C178.466 186.496 188.946 194.818 210.242 196.513ZM201.348 122.512C212.777 122.44 231.892 124.159 239.98 133.016C244.283 137.733 252.371 153.092 252.845 159.648C254.089 176.816 231.027 209.823 211.227 205.665C187.011 200.575 165.841 197.691 166.154 165.26C166.37 143.303 176.225 122.663 201.348 122.512Z" fill="black"/>
</svg>
