<svg width="511" height="325" viewBox="0 0 511 325" fill="none" xmlns="http://www.w3.org/2000/svg">
<path d="M133.935 184.234C126.919 196.383 116.521 214.395 116.521 214.395C110.725 224.434 100.012 230.619 88.4185 230.619H40.9843C39.8395 230.619 38.7678 230.002 38.1931 229.008L14.4772 187.929C14.4772 187.929 4.12396 173.408 14.4749 155.476C24.8269 137.547 31.8885 125.318 31.8885 125.318C36.3656 117.561 44.6417 112.784 53.5981 112.784H75.3066L64.951 130.723C64.4611 130.583 63.9548 130.484 63.4208 130.484L58.4607 130.308C54.7708 130.308 51.3619 132.275 49.517 135.47L33.1018 163.902C32.3158 165.265 33.2992 166.971 34.8736 166.971L79.1114 166.969L93.3821 142.252L95.4186 138.725L111.468 166.522C112.31 167.981 112.31 169.778 111.468 171.238L98.1401 194.321L91.7659 183.38L91.3641 184.076C90.7708 185.105 89.6724 185.737 88.4858 185.737L66.9539 185.736C65.7742 185.74 64.6712 185.105 64.0768 184.075L57.3565 172.438H50.8789L59.2154 186.879C60.0119 188.258 61.1509 189.376 62.4884 190.148C63.8271 190.921 65.3644 191.349 66.955 191.348H88.4858C88.9572 191.349 89.4217 191.3 89.8791 191.227C90.0034 191.668 90.1636 192.105 90.4039 192.521L96.3695 202.473C97.1567 203.837 99.1258 203.837 99.913 202.473L116.327 174.044C118.172 170.849 118.172 166.912 116.327 163.717L99.8666 135.153C98.4257 132.652 95.1341 131.677 92.7377 133.285C92.0491 133.748 91.4535 134.371 91.01 135.137L75.872 161.357L41.0493 161.358L54.3749 138.279C55.219 136.818 56.7771 135.918 58.4653 135.918L68.3239 136.095C68.5306 135.717 68.6537 135.541 68.9265 135.058L91.8971 95.2728C92.4904 94.243 93.5876 93.6102 94.7753 93.6102L116.307 93.6114C116.898 93.6102 117.468 93.7693 117.968 94.0572C118.463 94.344 118.888 94.7597 119.184 95.2728L129.95 113.918C130.544 114.947 130.544 116.214 129.95 117.243L113.291 146.097L116.53 151.708L123.079 140.366L133.933 159.165C133.933 159.165 140.95 172.084 133.935 184.234ZM145.099 167.284L126.91 135.781C126.722 135.455 126.477 135.183 126.196 134.966L134.809 120.048C136.401 117.292 136.402 113.868 134.809 111.113L124.045 92.4689C122.453 89.7102 119.487 87.9976 116.305 87.9999H94.7753C91.594 87.9976 88.6287 89.7113 87.038 92.4665L78.424 107.385C78.0966 107.25 77.739 107.175 77.3617 107.175L40.9832 107.173C37.8367 107.175 34.9061 108.868 33.3341 111.592L1.1795 167.284C-0.392585 170.008 -0.393746 173.393 1.1795 176.119L33.3341 231.813C34.1201 233.175 35.2463 234.279 36.5688 235.042C37.8924 235.806 39.4111 236.23 40.9843 236.229L105.296 236.23C108.441 236.229 111.372 234.536 112.944 231.812L145.099 176.119C146.671 173.395 146.673 170.011 145.099 167.284Z" fill="black"/>
<path d="M65.3607 204.044L62.5034 208.994C61.3272 211.032 59.1328 212.297 56.7781 212.298L49.7014 212.297L46.1613 206.169C44.9852 204.129 44.984 201.597 46.1602 199.559L49.0187 194.61L51.7751 199.383C53.4343 202.256 56.5273 204.042 59.848 204.044H65.3607ZM56.633 196.579L49.0187 183.386L41.3011 196.754C39.1265 200.522 39.1265 205.203 41.3034 208.973L46.4609 217.909L56.7781 217.908C61.1321 217.908 65.1877 215.568 67.3624 211.8L75.08 198.432L59.848 198.434C58.529 198.432 57.2936 197.724 56.633 196.579Z" fill="black"/>
<path d="M206.258 171.054C197.857 170.306 192.163 169.188 192.163 163.213C192.163 158.734 197.39 156.028 203.831 156.028C208.964 156.028 215.31 157.707 218.951 161.534L228.098 153.508C221.377 145.667 213.817 143.427 203.737 143.427C190.298 143.427 177.977 150.333 177.885 163.307C177.696 178.708 190.018 182.159 203.831 183.467C212.697 184.213 217.084 186.734 216.99 192.241C216.99 196.907 211.67 199.988 203.924 199.988C197.298 199.988 188.99 197.188 183.951 190.748L175.271 199.801C180.778 208.947 192.537 213.334 203.831 213.241C217.924 213.147 231.364 206.801 231.364 192.241C231.364 177.122 219.137 172.174 206.258 171.054Z" fill="black"/>
<path d="M257.588 200.173C249.468 200.173 246.015 193.92 246.015 188.133C246.015 182.346 249.562 176.001 257.588 176.001C265.708 176.001 269.255 182.346 269.255 188.133C269.255 194.2 265.802 200.173 257.588 200.173ZM257.588 163.961C242.282 163.961 232.389 174.227 232.389 188.133C232.389 202.04 242.001 212.121 257.588 212.121C273.267 212.121 282.881 202.04 282.881 188.133C282.881 174.227 272.988 163.961 257.588 163.961Z" fill="black"/>
<path d="M381.436 181.88L376.023 197.094L370.609 181.88L363.983 164.986H349.704V164.893H338.037V152.388L324.597 153.881V164.893H317.318V164.884H304.532V163.122C304.532 158.267 307.333 156.028 311.346 156.028C313.4 156.028 315.826 156.587 317.973 157.893L322.546 148.468C318.533 145.947 314.892 144.548 309.76 144.548C300.799 144.548 291.092 149.774 291.092 163.122V164.884H282.973V176.179H291.092V211.093H304.532V176.095H324.597V193.827C324.597 208.2 332.158 212.588 342.144 212.121C345.784 211.934 348.49 211.373 351.852 210.067L348.77 198.867C347.278 199.614 344.758 199.988 343.17 199.988C340.651 199.988 337.944 198.68 337.944 193.827V176.095H349.704V166.96L368.65 211.373H383.396L403.182 164.986H388.063L381.436 181.88Z" fill="black"/>
<path d="M404.582 211.094H418.022V164.894H404.582V211.094Z" fill="black"/>
<path d="M403.648 152.76C403.648 162.841 418.954 162.841 418.954 152.76C418.954 142.68 403.648 142.68 403.648 152.76Z" fill="black"/>
<path d="M424.927 211.094H438.274V145.854H424.927V211.094Z" fill="black"/>
<path d="M445.365 211.094H458.712V145.854H445.365V211.094Z" fill="black"/>
<path d="M476.632 182.627C477.938 178.055 482.045 175.253 487.459 175.253C493.057 175.253 498.19 177.587 498.473 182.627H476.632ZM487.459 163.775C472.432 163.775 463.004 173.574 463.004 187.574C463.004 202.321 472.151 212.12 488.858 212.12C495.765 212.12 503.699 210.161 508.645 205.306L501.085 196.907C497.818 199.706 492.779 200.548 489.138 200.548C481.579 200.548 477.284 196.907 476.632 192.426H510.512C513.405 173.574 503.138 163.775 487.459 163.775Z" fill="black"/>
</svg>
