<svg width="511" height="325" viewBox="0 0 511 325" fill="none" xmlns="http://www.w3.org/2000/svg">
<path d="M264.973 175.219C257.749 183.27 253.738 187.709 251.525 190.147V176.668C252.434 175.683 255.096 172.759 262.834 164.138C267.686 158.73 268.558 153.524 267.917 149.283C271.406 154.954 274.453 164.656 264.973 175.219ZM249.964 164.183L250.703 163.451C250.673 163.421 249.868 162.587 241.953 153.766C236.356 147.531 238.932 141.861 240.967 139.035L244.712 133.832L239.509 137.578C236.685 139.611 231.012 142.187 224.777 136.591C219.358 131.727 216.954 129.549 215.9 128.586C216.956 127.622 219.36 125.442 224.777 120.58C231.014 114.986 236.685 117.561 239.509 119.594L244.715 123.342L240.967 118.136C238.932 115.311 236.356 109.643 241.953 103.404C249.866 94.5873 250.672 93.7529 250.703 93.7207L249.958 92.9885H251.003V82.2538C252.311 83.6859 255.226 86.9023 261.667 94.0818C270.005 103.371 265.625 111.928 263.077 115.467C265.069 114.034 268.654 112.018 273.06 112.018C276.483 112.018 280.403 113.233 284.462 116.877C296.64 127.806 297.421 128.586 297.421 128.586C297.421 128.586 296.64 129.367 284.462 140.296C280.403 143.94 276.482 145.154 273.06 145.154C268.652 145.154 265.069 143.139 263.077 141.705C265.625 145.245 270.005 153.802 261.667 163.091C255.226 170.27 252.311 173.486 251.003 174.919V164.183H249.964ZM251.525 67.026C253.739 69.4636 257.749 73.9044 264.973 81.9538C274.453 92.5163 271.404 102.218 267.917 107.89C268.558 103.649 267.686 98.4426 262.834 93.0352C255.096 84.4136 252.434 81.4905 251.525 80.505V67.026ZM281.88 107.259C286.974 107.26 291.924 109.383 296.59 113.571C307.101 123.003 311.457 126.956 313.238 128.586C311.454 130.22 307.097 134.173 296.59 143.602C291.924 147.79 286.974 149.914 281.88 149.914C277.342 149.914 273.467 148.266 270.657 146.544C271.428 146.658 272.23 146.721 273.06 146.721C277.432 146.721 281.62 144.951 285.509 141.462C297.376 130.812 298.446 129.777 298.529 129.694L299.637 128.586L298.529 127.478C298.446 127.396 297.376 126.361 285.509 115.71C281.62 112.22 277.432 110.452 273.06 110.452C272.23 110.452 271.429 110.515 270.657 110.628C273.467 108.907 277.342 107.259 281.88 107.259ZM281.88 151.48C286.61 151.48 292.027 149.802 297.637 144.767C314.466 129.665 315.545 128.586 315.545 128.586C315.545 128.586 314.466 127.508 297.637 112.405C292.027 107.371 286.61 105.692 281.88 105.692C275.789 105.691 270.84 108.476 268.086 110.457C271.607 105.568 277.658 93.744 266.138 80.9072C251.037 64.0784 249.958 63.0007 249.958 63.0007V68.9047H248.914V92.5775C248.274 93.2696 246.316 95.415 240.398 102.009C235.518 107.447 236.056 112.612 237.465 116.092C233.983 114.684 228.819 114.146 223.381 119.027C214.331 127.148 213.646 127.824 213.622 127.847L212.882 128.587L213.622 129.325C213.648 129.35 214.332 130.023 223.381 138.145C228.819 143.025 233.984 142.49 237.465 141.078C236.056 144.56 235.518 149.726 240.398 155.162C246.317 161.758 248.275 163.903 248.914 164.596V182.713H249.958V194.172C249.958 194.172 251.037 193.093 266.138 176.266C277.658 163.429 271.607 151.605 268.086 146.715C270.84 148.697 275.79 151.48 281.88 151.48ZM288.702 177.076C278.502 176.525 278.321 167.166 278.317 166.794L278.457 156.453L288.782 156.313C289.303 156.319 298.533 156.569 299.08 166.698C299.414 172.857 299.572 176.028 299.649 177.646C298.029 177.568 294.858 177.409 288.702 177.076ZM288.778 154.746L276.911 154.907L276.751 166.773C276.751 166.773 276.751 177.999 288.618 178.64C300.483 179.282 301.286 179.282 301.286 179.282C301.286 179.282 301.286 178.48 300.645 166.613C300.004 154.747 288.779 154.746 288.778 154.746ZM221.459 100.72L211.143 100.859C210.746 100.857 201.387 100.676 200.835 90.4754C200.503 84.3181 200.344 81.1483 200.267 79.5273C201.887 79.604 205.058 79.7639 211.214 80.0961C221.415 80.6483 221.596 90.0065 221.599 90.3776L221.459 100.72ZM223.166 90.3987C223.166 90.3987 223.166 79.174 211.299 78.5329C199.432 77.8907 198.631 77.8907 198.631 77.8907C198.631 77.8907 198.631 78.6929 199.272 90.5587C199.913 102.425 211.137 102.426 211.138 102.426L223.005 102.266L223.166 90.3987Z" fill="black"/>
<path d="M223.165 166.774L223.004 154.907L211.138 154.747C211.138 154.747 199.913 154.747 199.272 166.614C198.631 178.481 198.63 179.282 198.63 179.282C198.63 179.282 199.433 179.282 211.298 178.64C223.165 177.999 223.165 166.774 223.165 166.774ZM236.839 141.705C233.299 144.253 224.742 148.633 215.454 140.296C203.276 129.367 202.495 128.586 202.495 128.586C202.495 128.586 203.276 127.805 215.454 116.876C224.743 108.54 233.299 112.92 236.839 115.467C234.291 111.928 229.912 103.372 238.249 94.0811C249.178 81.9031 249.958 81.1231 249.958 81.1231V63C249.958 63 248.879 64.0788 233.777 80.9065C222.258 93.7433 228.309 105.567 231.829 110.458C226.938 106.938 215.115 100.885 202.279 112.405C185.45 127.508 184.372 128.586 184.372 128.586C184.372 128.586 185.45 129.665 202.279 144.767C215.115 156.288 226.938 150.235 231.829 146.715C228.309 151.606 222.258 163.429 233.777 176.265C248.88 193.094 249.958 194.173 249.958 194.173V176.05C249.958 176.05 249.178 175.269 238.249 163.092C229.912 153.801 234.291 145.245 236.839 141.705ZM284.463 116.876C275.174 108.54 266.617 112.92 263.077 115.467C265.625 111.928 270.004 103.372 261.668 94.0811C250.739 81.9031 249.958 81.1231 249.958 81.1231V92.9889C249.958 92.9889 250.543 93.5745 258.741 102.707C264.993 109.674 261.708 116.093 259.797 118.747C262.451 116.836 268.87 113.551 275.837 119.804C284.97 128.001 285.555 128.586 285.555 128.586C285.555 128.586 284.97 129.172 275.837 137.369C268.87 143.622 262.451 140.337 259.797 138.426C261.708 141.08 264.992 147.497 258.741 154.464C250.543 163.598 249.958 164.184 249.958 164.184V176.05C249.958 176.05 250.739 175.269 261.668 163.092C270.004 153.801 265.625 145.245 263.077 141.705C266.617 144.253 275.174 148.633 284.463 140.296C296.641 129.367 297.421 128.586 297.421 128.586C297.421 128.586 296.641 127.805 284.463 116.876ZM288.778 102.426C288.778 102.426 300.003 102.426 300.644 90.5591C301.285 78.6922 301.285 77.8912 301.285 77.8912C301.285 77.8912 300.484 77.8911 288.617 78.5322C276.75 79.1733 276.75 90.3991 276.75 90.3991L276.911 102.265L288.778 102.426ZM254.568 239.338H248.928V225.97H254.568C260.197 225.97 263.258 227.62 263.258 232.337C263.258 236.974 260.197 239.338 254.568 239.338ZM270.48 232.337C270.48 223.143 263.848 220.124 255.322 220.124H241.574V261.244H248.928V245.185H255.005L263.854 261.244H272.067L262.248 244.106C267.178 242.387 270.48 238.567 270.48 232.337ZM297.542 255.41H291.753V242.578H297.542C303.691 242.578 306.805 244.354 306.805 248.687C306.805 253.337 303.571 255.41 297.542 255.41ZM291.753 225.958H296.748C302.062 225.958 304.686 227.363 304.686 231.112C304.686 234.941 302.341 237.022 296.589 237.022H291.753V225.958ZM304.711 239.409V239.157C309.571 237.901 311.829 234.113 311.829 230.233C311.829 222.701 305.713 220.124 297.238 220.124H284.478V261.244H298.298C307.381 261.244 313.948 257.397 313.948 249.169C313.948 243.6 310.657 240.423 304.711 239.409ZM335.382 244.359L336.808 239.379C338.047 235.042 339.276 230.375 340.435 225.825H340.687C341.806 230.375 343.12 235.042 344.359 239.379L345.768 244.359H335.382ZM336.38 220.124L323.058 261.244H330.544L333.727 250.136H347.401L350.543 261.244H358.328L345.004 220.124H336.38ZM390.707 238C390.707 242.593 391.394 247.802 391.699 252.005H391.526L387.795 243.221L376.919 220.124H369.239V261.244H376.21V243.25C376.21 238.695 375.522 233.739 375.218 229.363H375.39L379.122 238.125L389.998 261.244H397.677V220.124H390.707V238ZM91.5861 237.722L86.8686 235.773C82.7811 234.262 80.4535 233.571 80.4535 231.684C80.4535 229.798 82.0879 228.917 84.4788 228.917C88.3785 228.917 90.705 229.923 93.6615 231.873L99.07 225.079C95.108 221.37 89.9506 219.609 85.1076 219.609C75.7983 219.609 69.5099 225.332 69.5099 232.312C69.5099 238.225 73.4085 241.936 78.1259 243.697L83.2211 245.836C86.9942 247.408 89.1329 247.911 89.1329 250.301C89.1329 251.622 87.8741 252.691 84.6043 252.691C80.8935 252.691 77.246 251.055 74.164 248.729L68 256.15C72.5919 260.113 78.5037 262 83.8488 262C94.4159 262 100.202 255.836 100.202 248.918C100.202 243.257 97.0579 239.735 91.5861 237.722ZM126.867 239.735H122.842V228.917H126.867C130.892 228.917 133.156 230.3 133.156 233.949C133.156 237.596 131.143 239.735 126.867 239.735ZM127.37 220.362H112.023V261.244H122.842V248.288H127.37C135.924 248.288 143.722 243.949 143.722 233.949C143.722 223.634 136.175 220.362 127.37 220.362ZM219.725 246.097C219.725 252.763 216.898 255.636 212.483 255.636C208.108 255.636 205.367 252.763 205.367 246.097V220.124H198.012V245.555C198.012 256.779 203.422 262 212.483 262C221.503 262 226.782 256.779 226.782 245.555V220.124H219.725V246.097ZM165.77 244.199L166.424 241.37C167.305 237.471 168.374 232.564 169.255 228.412H169.506C170.386 232.564 171.581 237.471 172.461 241.37L173.116 244.199H165.77ZM163.091 220.362L150.763 261.244H161.832L163.837 252.565H175.048L177.053 261.244H188.5L176.173 220.362H163.091ZM426.224 255.636C420.99 255.636 417.577 250.184 417.577 240.495C417.577 231.064 420.99 225.732 426.224 225.732C431.458 225.732 434.87 231.064 434.87 240.495C434.87 250.184 431.458 255.636 426.224 255.636ZM426.224 219.37C416.685 219.37 410.051 226.978 410.051 240.495C410.051 254.273 416.685 262 426.224 262C435.763 262 442.396 254.273 442.396 240.495C442.396 226.978 435.763 219.37 426.224 219.37Z" fill="black"/>
</svg>
