<svg width="511" height="325" viewBox="0 0 511 325" fill="none" xmlns="http://www.w3.org/2000/svg">
<g clip-path="url(#clip0_628_454)">
<path d="M131.887 172.801H147.86C149.001 180.256 154.324 183.541 162.057 183.541C169.663 183.541 173.973 180.635 173.973 176.087C173.973 169.896 165.734 169.265 156.86 167.496C145.197 165.222 133.789 162.063 133.789 147.913C133.789 133.889 145.451 127.193 160.282 127.193C177.396 127.193 186.903 135.657 188.171 148.67H172.579C171.819 141.722 167.381 139.195 160.029 139.195C153.31 139.195 148.874 141.722 148.874 146.397C148.874 151.956 157.494 152.461 166.748 154.356C177.649 156.63 189.692 159.662 189.692 174.823C189.692 187.837 178.537 195.67 162.311 195.67C143.423 195.67 132.901 186.573 131.887 172.801" fill="black"/>
<path d="M239.897 193.775V186.194H239.517C235.08 192.132 230.009 195.544 220.882 195.544C206.431 195.544 198.318 186.321 198.318 172.171V128.961H215.431V169.265C215.431 176.844 218.854 181.014 226.206 181.014C234.319 181.014 239.263 174.949 239.263 166.358V128.961H256.503V193.775H239.897Z" fill="black"/>
<path d="M314.564 161.937C314.564 149.681 310.254 141.09 299.606 141.09C288.83 141.09 284.521 150.313 284.521 161.937C284.521 173.687 289.971 181.394 300.239 181.394C308.986 181.394 314.564 174.192 314.564 161.937ZM267.661 128.961H284.266V137.047H284.647C288.83 131.361 294.915 127.193 303.789 127.193C321.029 127.193 332.057 141.216 332.057 161.431C332.057 182.405 320.649 195.67 303.916 195.67C294.789 195.67 288.83 192.005 285.154 186.448H284.901V215H267.661V128.961" fill="black"/>
<path d="M355.517 154.356H384.419C383.912 146.144 378.461 140.458 370.602 140.458C361.475 140.458 357.038 145.892 355.517 154.356ZM338.277 161.305C338.277 142.1 351.333 127.193 370.348 127.193C391.264 127.193 402.419 143.111 402.419 166.233H355.263C356.531 176.214 362.109 182.405 371.869 182.405C378.588 182.405 382.518 179.372 384.419 174.444H401.405C398.997 185.941 388.729 195.67 371.996 195.67C350.446 195.67 338.277 180.635 338.277 161.305Z" fill="black"/>
<path d="M428.413 139.322H428.794C432.724 131.993 437.16 128.203 444.766 128.203C446.667 128.203 447.81 128.329 448.824 128.709V143.743H448.441C437.16 142.606 429.047 148.543 429.047 162.19V193.775H411.807V128.961H428.413V139.322" fill="black"/>
<path d="M453.195 172.801H469.167C470.31 180.256 475.634 183.541 483.366 183.541C490.97 183.541 495.28 180.635 495.28 176.087C495.28 169.896 487.04 169.265 478.165 167.496C466.503 165.222 455.096 162.063 455.096 147.913C455.096 133.889 466.759 127.193 481.588 127.193C498.702 127.193 508.212 135.657 509.478 148.67H493.886C493.127 141.722 488.69 139.195 481.337 139.195C474.619 139.195 470.182 141.722 470.182 146.397C470.182 151.956 478.801 152.461 488.055 154.356C498.958 156.63 511 159.662 511 174.823C511 187.837 499.845 195.67 483.617 195.67C464.73 195.67 454.21 186.573 453.195 172.801" fill="black"/>
<path d="M51.0157 173.577C43.4196 173.577 37.2392 167.417 37.2392 159.846C37.2392 152.275 43.4196 146.115 51.0157 146.115C58.6122 146.115 64.7927 152.275 64.7927 159.846C64.7927 167.417 58.6122 173.577 51.0157 173.577ZM101.846 164.031C101.959 162.649 102.032 161.257 102.032 159.846C102.032 158.436 101.959 157.042 101.846 155.661H65.5884C65.2704 154.563 64.8372 153.513 64.2907 152.532L89.9281 126.981C88.1143 124.849 86.129 122.871 83.991 121.063L58.3537 146.615C57.3696 146.071 56.3167 145.639 55.2145 145.322V109.186C53.8286 109.073 52.4312 109 51.0157 109C49.6007 109 48.2034 109.073 46.8175 109.186V145.322C45.7152 145.639 44.6632 146.07 43.6794 146.614L18.0417 121.063C15.9036 122.87 13.9179 124.849 12.1042 126.98L37.7413 152.532C37.1949 153.513 36.7616 154.562 36.4435 155.661H0.185911C0.0728827 157.042 0 158.436 0 159.846C0 161.257 0.0730551 162.649 0.186084 164.031H36.4435C36.7614 165.129 37.1944 166.178 37.7406 167.159L12.1035 192.711C13.9172 194.842 15.9026 196.82 18.0407 198.628L43.6777 173.077C44.6619 173.621 45.7148 174.053 46.8175 174.37V210.506C48.2034 210.618 49.6007 210.691 51.0157 210.691C52.4312 210.691 53.8286 210.618 55.2145 210.506V174.37C56.3167 174.053 57.3696 173.621 58.3541 173.077L83.991 198.629C86.129 196.82 88.1147 194.842 89.9285 192.711L64.2916 167.159C64.8377 166.178 65.2704 165.129 65.5884 164.031H101.846" fill="black"/>
</g>
<defs>
<clipPath id="clip0_628_454">
<rect width="511" height="106" fill="white" transform="translate(0 109)"/>
</clipPath>
</defs>
</svg>
