<svg width="511" height="325" viewBox="0 0 511 325" fill="none" xmlns="http://www.w3.org/2000/svg">
<g clip-path="url(#clip0_648_11)">
<path d="M128 236.245V216.725C128 208.736 134.548 202.109 142.642 202.109C150.645 202.109 157.011 208.736 157.011 216.725C157.011 217.542 157.011 233.612 157.011 234.52C157.011 235.61 157.829 236.79 159.011 236.79C160.103 236.79 161.012 235.61 161.012 234.52V216.725C161.012 208.736 167.56 202.109 175.654 202.109C183.384 202.109 190.023 208.736 190.023 216.725V236.245C190.023 253.132 175.927 267.204 159.011 267.204C142.005 267.204 128 253.132 128 236.245Z" fill="black"/>
<path d="M232.494 262.301C227.128 257.127 221.944 252.224 216.852 246.867C216.579 246.323 215.761 247.14 216.033 247.775L221.217 255.765C219.853 262.029 213.942 266.75 207.121 266.75C199.118 266.75 192.57 260.395 192.57 252.224V216.453C192.57 208.554 199.118 201.927 207.121 201.927C211.486 201.927 215.488 204.288 218.216 207.011L233.04 221.537C233.313 222.082 234.131 221.537 233.858 220.993L228.493 213.185C229.857 207.011 235.768 201.927 242.498 201.927C250.592 201.927 257.14 208.554 257.14 216.453V252.224C257.14 266.205 240.679 270.563 232.494 262.301" fill="black"/>
<path d="M292.881 234.247C292.881 232.341 291.425 230.707 289.334 230.707H287.424V237.516H289.334C291.425 237.516 292.881 236.063 292.881 234.247ZM274.601 266.478C266.416 266.478 259.868 260.213 259.868 252.315V216.453C259.868 208.554 266.144 201.927 274.328 201.927H288.334C306.067 201.927 320.164 216.453 320.164 234.157C320.164 252.043 305.613 266.478 287.697 266.478H274.601" fill="black"/>
<path d="M351.812 225.441V231.614C352.266 231.887 352.721 231.887 353.449 231.887C355.359 231.887 356.723 230.435 356.723 228.529C356.723 226.621 355.359 224.987 353.449 224.987C352.721 224.987 352.266 225.169 351.812 225.441ZM322.801 252.043V216.453C322.801 208.464 329.44 202.109 337.534 202.109H357.905C372.183 202.109 383.733 213.639 383.733 227.892C383.733 236.79 379.55 244.597 372.638 249.409C372.183 249.682 372.638 250.589 373.184 250.317C376.185 248.955 379.003 247.049 381.368 244.325C385.461 250.135 384.733 257.762 379.55 262.937C374.366 268.112 364.544 269.111 359.633 262.483L351.812 253.222C351.357 260.848 345.173 266.75 337.262 266.75C329.44 266.75 322.801 260.123 322.801 252.043" fill="black"/>
<path d="M189.6 288.979V288.934C189.6 287.092 191.107 285.609 192.953 285.609C194.798 285.609 196.307 287.092 196.307 288.934V288.979C196.307 290.822 194.798 292.305 192.953 292.305C191.107 292.305 189.6 290.822 189.6 288.979Z" fill="black"/>
<path d="M225.97 293.832C227.5 293.832 228.424 293.293 228.424 292.125V292.08C228.424 291.024 227.636 290.372 225.858 290.372H221.852V293.832H225.97ZM225.048 287.496C226.578 287.496 227.545 287.002 227.545 285.834V285.789C227.545 284.756 226.735 284.171 225.272 284.171H221.852V287.496H225.048ZM218.476 282.868C218.476 281.902 219.241 281.138 220.209 281.138H225.79C227.591 281.138 229.008 281.633 229.909 282.531C230.629 283.25 230.989 284.126 230.989 285.205V285.249C230.989 287.025 230.043 288.013 228.918 288.642C230.742 289.339 231.867 290.395 231.867 292.507V292.552C231.867 295.427 229.526 296.865 225.97 296.865H220.209C219.241 296.865 218.476 296.101 218.476 295.136V282.868" fill="black"/>
<path d="M261.597 290.283L259.414 285.093L257.231 290.283H261.597ZM251.852 294.641L257.344 282.262C257.726 281.408 258.424 280.891 259.369 280.891H259.572C260.517 280.891 261.192 281.408 261.574 282.262L267.066 294.641C267.178 294.888 267.246 295.113 267.246 295.338C267.246 296.259 266.526 297 265.603 297C264.793 297 264.253 296.528 263.938 295.809L262.88 293.338H255.948L254.845 295.922C254.553 296.596 253.968 297 253.248 297C252.347 297 251.65 296.281 251.65 295.383C251.65 295.136 251.74 294.888 251.852 294.641" fill="black"/>
<path d="M294.951 288.777C296.639 288.777 297.607 287.878 297.607 286.553V286.508C297.607 285.025 296.572 284.261 294.884 284.261H291.44V288.777H294.951ZM287.975 282.868C287.975 281.902 288.74 281.138 289.708 281.138H295.176C297.179 281.138 298.732 281.7 299.768 282.734C300.646 283.609 301.118 284.845 301.118 286.328V286.373C301.118 288.845 299.88 290.372 297.967 291.159L300.375 294.079C300.713 294.507 300.938 294.866 300.938 295.405C300.938 296.371 300.127 297 299.295 297C298.507 297 297.989 296.618 297.584 296.101L294.208 291.833H291.44V295.27C291.44 296.237 290.675 297 289.708 297C288.74 297 287.975 296.237 287.975 295.27V282.868" fill="black"/>
<path d="M322.634 288.979V288.934C322.634 287.092 324.142 285.609 325.987 285.609C327.833 285.609 329.341 287.092 329.341 288.934V288.979C329.341 290.822 327.833 292.305 325.987 292.305C324.142 292.305 322.634 290.822 322.634 288.979Z" fill="black"/>
<path d="M286.322 117.891C281.773 117.891 278.274 114.249 278.274 109.907V78.7124C278.274 74.3714 281.773 70.8787 286.322 70.8787C290.72 70.8787 294.219 74.3714 294.219 78.7124V109.907C294.219 114.249 290.72 117.891 286.322 117.891Z" fill="black"/>
<path d="M226.403 70.9327C230.37 70.9332 233.549 74.107 233.455 77.9724L233.476 91.0413L233.675 90.8422L248.169 76.3727C250.908 73.6389 255.315 73.6389 258.086 76.4042C260.951 79.2647 260.951 83.6642 258.212 86.398L243.718 100.868L243.519 101.067L253.162 101.287C257.034 101.193 260.214 104.368 260.214 108.327C260.214 112.287 257.034 115.461 253.162 115.367C253.162 115.367 225.437 115.408 224.42 115.167C223.175 114.832 222.089 114.164 221.237 113.284C221.224 113.271 221.209 113.259 221.195 113.246C221.193 113.244 221.19 113.242 221.189 113.239C221.178 113.229 221.17 113.218 221.16 113.208C220.317 112.369 219.677 111.314 219.352 110.107C219.111 109.092 219.352 77.9724 219.352 77.9724C219.257 74.107 222.437 70.9332 226.403 70.9327" fill="black"/>
<path d="M258.601 161.52C242.608 161.52 227.368 153.852 217.836 141.009C215.285 137.573 216.008 132.723 219.45 130.178C222.892 127.632 227.75 128.353 230.3 131.789C237.019 140.841 247.334 146.033 258.601 146.033C270.313 146.033 281.225 140.24 287.791 130.536C290.189 126.992 295.011 126.059 298.562 128.454C302.111 130.848 303.044 135.662 300.647 139.206C291.19 153.178 275.473 161.52 258.601 161.52" fill="black"/>
<path d="M259.47 27.9977C213.218 27.9977 175.723 65.429 175.723 111.603C175.723 157.776 213.218 195.208 259.47 195.208C305.722 195.208 343.217 157.776 343.217 111.603C343.217 65.429 305.722 27.9977 259.47 27.9977V27.9977ZM259.47 45.6318C277.122 45.6318 293.716 52.4938 306.198 64.954C318.679 77.4143 325.553 93.9815 325.553 111.603C325.553 129.224 318.679 145.791 306.198 158.251C293.716 170.712 277.122 177.574 259.47 177.574C241.819 177.574 225.224 170.712 212.743 158.251C200.261 145.791 193.387 129.224 193.387 111.603C193.387 93.9815 200.261 77.4143 212.743 64.954C225.224 52.4938 241.819 45.6318 259.47 45.6318" fill="black"/>
</g>
<defs>
<clipPath id="clip0_648_11">
<rect width="256" height="269" fill="white" transform="translate(128 28)"/>
</clipPath>
</defs>
</svg>
