<svg width="511" height="325" viewBox="0 0 511 325" fill="none" xmlns="http://www.w3.org/2000/svg">
<path d="M119.361 212.776H116.594C116.334 211.408 115.729 210.297 114.691 209.442C113.567 208.502 112.097 208.075 110.194 208.075C107.946 208.075 106.216 208.673 105.006 209.955C103.709 211.237 103.103 213.118 103.103 215.597C103.103 217.563 103.622 219.187 104.66 220.384C105.871 221.837 107.687 222.607 110.108 222.607C113.653 222.607 115.815 220.897 116.594 217.478H119.361C119.101 219.615 118.237 221.324 116.594 222.692C114.864 224.145 112.702 224.915 110.108 224.915C107.427 224.915 105.265 224.231 103.536 222.777C101.46 221.068 100.422 218.589 100.422 215.255C100.422 212.434 101.287 210.212 102.93 208.502C104.66 206.621 107.081 205.767 110.108 205.767C112.356 205.767 114.345 206.28 115.988 207.22C117.977 208.417 119.101 210.297 119.361 212.776M127.922 215.341C127.922 212.691 128.7 210.554 130.257 208.758C132.073 206.707 134.754 205.681 138.213 205.681C141.672 205.681 144.353 206.707 146.169 208.758C147.725 210.468 148.504 212.691 148.504 215.341C148.504 217.991 147.725 220.128 146.169 221.923C144.353 223.974 141.672 225 138.213 225C134.754 225 132.073 223.974 130.257 221.923C128.7 220.213 127.922 217.991 127.922 215.341ZM145.823 215.341C145.823 213.033 145.131 211.237 143.661 209.87C142.277 208.673 140.548 208.075 138.299 208.075C136.051 208.075 134.321 208.673 132.938 209.87C131.468 211.152 130.776 212.947 130.776 215.341C130.776 217.649 131.468 219.444 132.938 220.811C134.321 222.008 136.051 222.607 138.299 222.607C140.548 222.607 142.277 222.008 143.661 220.811C145.045 219.529 145.823 217.649 145.823 215.341ZM172.804 224.487L160.87 209.955V224.487H158.103V206.194H161.302L173.236 220.726V206.194H176.003V224.487H172.804ZM191.656 224.487V208.588H184.651V206.194H201.341V208.588H194.336V224.487H191.656ZM223.566 224.487L221.231 219.187H212.151L209.816 224.487H206.876L215.264 206.194H218.377L226.765 224.487H223.566V224.487ZM220.193 216.794L216.647 208.673L213.188 216.794H220.193ZM235.067 224.487V206.194H245.358C249.163 206.194 251.065 207.733 251.065 210.81C251.065 212.776 250.201 214.058 248.385 214.657V214.742C250.719 215.255 251.844 216.794 251.844 219.273C251.844 220.726 251.411 221.923 250.46 222.863C249.422 223.974 247.866 224.487 246.05 224.487H235.067V224.487ZM237.834 213.802H245.358C246.309 213.802 247.087 213.545 247.606 213.033C248.125 212.605 248.385 212.007 248.385 211.237C248.385 209.442 247.347 208.588 245.185 208.588H237.834V213.802ZM237.834 222.179H245.271C247.866 222.179 249.163 221.153 249.163 219.102C249.163 217.136 247.952 216.195 245.531 216.195H237.834V222.179ZM261.961 206.194H264.729V224.487H261.961V206.194ZM275.538 224.487V206.194H278.306V222.179H289.548V224.487H275.538ZM298.541 206.194H301.308V224.487H298.541V206.194ZM311.945 224.487V206.194H321.371C324.052 206.194 326.127 207.049 327.511 208.673C328.808 210.212 329.5 212.349 329.5 215.084C329.5 217.82 328.895 220.042 327.684 221.666C326.3 223.547 324.311 224.487 321.631 224.487H311.945ZM314.712 222.179H321.371C324.917 222.179 326.646 219.871 326.646 215.17C326.646 210.81 324.744 208.588 320.852 208.588H314.712V222.179V222.179ZM353.713 224.487L351.379 219.187H342.298L339.964 224.487H337.023L345.412 206.194H348.525L356.913 224.487H353.713V224.487ZM350.341 216.794L346.795 208.673L343.336 216.794H350.341ZM365.215 224.487V206.194H374.641C377.322 206.194 379.397 207.049 380.781 208.673C382.078 210.212 382.77 212.349 382.77 215.084C382.77 217.82 382.164 220.042 380.954 221.666C379.57 223.547 377.581 224.487 374.9 224.487H365.215ZM367.982 222.179H374.641C378.186 222.179 379.916 219.871 379.916 215.17C379.916 210.81 378.013 208.588 374.122 208.588H367.982V222.179V222.179ZM392.369 224.487V206.194H407.243V208.588H395.136V213.887H406.897V216.195H395.136V222.179H407.502V224.487H392.369ZM269.225 175.934C266.372 175.848 264.383 175.421 263.259 174.651C262.134 173.882 261.616 172.258 261.616 169.779V103.36C261.616 102.334 261.183 101.564 260.405 100.966C259.627 100.368 258.502 100.111 257.119 100.111H255.043C252.19 100.026 249.163 99.9403 245.963 99.6839C242.677 99.4274 241.38 99.3419 238.094 99C238.094 99 238.18 105.24 242.677 106.608V165.932C242.677 169.437 242.936 172.514 243.542 175.164C244.061 177.814 245.098 180.037 246.655 181.746C248.125 183.541 250.114 184.824 252.622 185.678C255.13 186.533 258.243 186.961 262.134 186.961C264.642 186.961 266.891 186.875 269.053 186.619C271.128 186.362 273.203 186.02 275.192 185.593V179.353C275.192 177.985 274.674 177.045 273.722 176.703C272.771 176.275 271.214 176.019 269.225 175.934ZM137.435 116.438L123.944 117.464C123.771 121.824 123.425 126.525 122.734 131.569C122.128 136.612 121.263 141.655 120.226 146.784C119.188 151.913 117.891 156.871 116.507 161.744C115.124 166.616 113.394 169.95 111.664 173.967C108.984 170.377 89.2669 137.21 83.2135 111.395C82.7812 109.685 81.484 108.83 79.668 108.659C79.668 108.659 67.4747 108.061 59 106.18C59.173 109.856 59.3459 115.669 66.1776 115.583C73.0093 140.031 94.6285 175.421 101.633 184.311C102.325 185.251 103.103 185.935 103.795 186.362C104.487 186.79 105.698 186.961 107.341 186.875H121.09C126.02 176.874 131.554 165.676 134.754 155.76C137.953 145.844 140.115 136.014 141.24 126.354C141.413 124.815 141.499 123.448 141.585 122.251C141.672 121.054 141.672 119.943 141.672 118.917C141.326 117.208 139.942 116.267 137.435 116.438M430.332 108.659C428.43 108.83 427.132 109.685 426.786 111.395C420.733 137.21 401.016 170.377 398.336 173.967C396.606 170.035 394.876 166.616 393.493 161.744C392.109 156.871 390.899 151.913 389.774 146.784C388.737 141.655 387.872 136.612 387.18 131.569C386.488 126.525 386.142 121.824 385.969 117.464L372.479 116.438C369.971 116.267 368.588 117.122 368.328 119.088C368.328 120.028 368.328 121.14 368.415 122.422C368.501 123.619 368.587 124.986 368.76 126.525C369.885 136.185 372.047 145.929 375.246 155.931C378.446 165.847 383.98 177.045 388.91 187.046H402.659C404.302 187.132 405.513 187.046 406.205 186.533C406.897 186.106 407.675 185.422 408.367 184.482C415.372 175.592 436.991 140.117 443.822 115.754C450.568 115.84 450.827 110.027 451 106.351C442.525 108.147 430.332 108.659 430.332 108.659M223.479 132.851C222.441 129.346 220.712 126.354 218.031 123.704C215.437 121.14 211.805 119.003 207.221 117.464C202.638 115.925 196.671 115.156 189.494 115.156C183.008 115.156 177.387 115.84 172.458 117.208C167.615 118.575 163.551 120.712 160.265 123.79C156.978 126.782 154.471 130.714 152.914 135.415C151.271 140.117 150.493 145.844 150.493 152.597C150.493 159.265 151.271 164.992 152.914 169.693C154.557 174.395 157.065 178.242 160.437 181.148C163.897 184.054 168.22 186.191 173.409 187.474C178.598 188.756 184.824 189.44 191.915 189.44C198.66 189.44 204.627 189.098 209.729 188.414C214.918 187.73 218.982 186.875 221.923 185.935V180.037C221.923 177.985 220.452 176.959 217.599 176.959C216.129 176.959 213.361 177.13 209.383 177.558C205.405 177.9 200.995 178.156 196.152 178.156C190.704 178.156 186.208 177.729 182.662 177.045C169.518 174.309 168.22 163.624 167.788 161.658C166.75 156.016 166.318 149.178 168.653 139.689C169.604 135.843 171.507 133.022 172.89 131.739C174.706 130.03 176.695 128.406 179.462 127.38C182.23 126.354 185.689 125.841 189.926 125.841C197.017 125.841 201.773 127.38 204.195 130.372C206.616 133.364 207.827 137.894 207.827 143.792V145.588C207.827 146.015 207.74 146.784 207.654 147.639L174.014 150.887C174.014 150.887 174.36 160.119 179.895 160.119C190.618 160.119 222.96 157.555 222.96 157.555C223.566 156.273 224.085 154.307 224.43 151.828C224.776 149.349 224.949 146.699 224.949 144.049C224.949 140.031 224.517 136.355 223.479 132.851M357.778 132.851C356.74 129.346 355.011 126.354 352.33 123.704C349.736 121.14 346.103 119.003 341.52 117.464C336.937 115.925 330.97 115.156 323.792 115.156C317.307 115.156 311.686 115.84 306.756 117.208C301.914 118.575 297.849 120.712 294.563 123.79C291.277 126.782 288.769 130.714 287.213 135.415C285.57 140.117 284.791 145.844 284.791 152.597C284.791 159.265 285.57 164.992 287.213 169.693C288.856 174.395 291.364 178.242 294.736 181.148C298.195 184.054 302.519 186.191 307.708 187.474C312.896 188.756 319.123 189.44 326.214 189.44C332.959 189.44 338.926 189.098 344.028 188.414C349.217 187.73 353.281 186.875 356.221 185.935V180.037C356.221 177.985 354.751 176.959 351.897 176.959C350.427 176.959 347.66 177.13 343.682 177.558C339.704 177.9 335.294 178.156 330.451 178.156C325.003 178.156 320.506 177.729 316.961 177.045C303.816 174.309 302.519 163.624 302.087 161.658C301.049 156.016 300.617 149.178 302.951 139.689C303.903 135.843 305.805 133.022 307.189 131.739C309.005 130.03 310.994 128.406 313.761 127.38C316.528 126.354 319.987 125.841 324.225 125.841C331.316 125.841 336.072 127.38 338.494 130.372C340.915 133.364 342.126 137.894 342.126 143.792V145.588C342.126 146.015 342.039 146.784 341.953 147.639L308.14 150.887C308.14 150.887 308.486 160.119 314.021 160.119C324.744 160.119 357.086 157.555 357.086 157.555C357.691 156.273 358.21 154.307 358.556 151.828C358.902 149.349 359.075 146.699 359.075 144.049C359.334 140.031 358.816 136.355 357.778 132.851" fill="black"/>
</svg>
