<svg width="511" height="325" viewBox="0 0 511 325" fill="none" xmlns="http://www.w3.org/2000/svg">
<path d="M214.738 317.73V317.733H250.843V307.415H225.053V281.626H250.843V271.308H225.053V245.52H250.843V235.204H214.738V317.73Z" fill="black"/>
<path d="M183.791 235.204H142.528V245.52H173.066L142.528 306.595V317.73H183.791V307.412H153.249L183.791 246.36V235.204Z" fill="black"/>
<path d="M286.946 317.73H297.262V235.204H286.946V317.73Z" fill="black"/>
<path d="M369.471 235.204H328.206V245.52H343.683V317.73H353.996V245.52H369.471V235.204Z" fill="black"/>
<path d="M270.32 166.375L270.302 166.349C272.483 173.887 272.073 181.993 272.073 181.993C271.423 182.525 271.014 182.846 269.571 183.523C268.711 183.926 267.206 184.081 266.083 184.021C267.51 187.36 271.979 186.72 271.979 186.72C271.979 186.72 271.89 189.193 271.667 189.823C271.445 190.456 269.229 192.51 268.442 193.084C267.655 193.662 266.554 194.058 266.444 195.681C265.728 196.415 265.505 197.543 265.505 197.543C265.505 197.543 264.406 196.546 263.987 194.45C262.701 187.402 263.101 175.528 264.53 170.635C265.956 165.743 268.577 161.721 268.577 161.721C268.578 161.725 268.578 161.73 268.581 161.732C273.568 153.065 279.129 146.888 280.81 145.435C280.004 146.743 268.948 161.848 270.32 166.375ZM315.002 44.7626C310.117 38.0599 309.11 31.5619 311.211 27.711C313.433 23.6476 319.092 24.9621 320.391 24.9975C321.764 25.0386 322.217 24.6832 322.217 24.6832L322.945 25.0787C322.945 25.0787 323.952 23.859 323.182 21.9548C322.336 19.8699 319.21 18.2377 319.21 18.2377C319.21 18.2377 319.487 17.1952 318.464 16.6066C318.069 15.3893 316.832 15.3299 316.832 15.3299C316.832 15.3299 316.752 14.8201 316.243 14.6235C315.731 14.4234 315.513 14.2886 315.339 13.6771C315.16 13.0701 314.651 13.229 314.651 13.229C314.651 13.229 314.926 13.0324 314.16 12.7375C313.393 12.4403 312.489 10.7326 312.489 10.7326C311.999 10.1405 311.702 10.5943 310.918 10.3771C310.517 10.2686 310.269 9.0021 309.362 9.11869C309.11 8.48888 308.146 8.68777 308.146 8.68777C308.146 8.68777 307.947 8.27513 307.398 8.41344C307.083 8.21684 306.081 8.09568 306.041 8.88665C305.884 9.9268 307.202 9.92681 307.477 11.1841C306.005 10.0228 304.195 10.1028 304.195 10.1028C304.195 10.1028 305.078 10.4492 306.121 11.2436C300.303 9.66963 295.841 11.695 292.892 15.3116C290.09 18.7475 287.567 19.4596 281.2 26.6126C274.833 33.7645 273.655 41.6273 271.374 57.3483C269.913 67.4286 267.13 79.5972 262.858 85.2449C259.106 90.2056 250.676 92.8139 247.846 95.8521C247.954 95.2268 248.478 94.1055 249.351 93.0254C243.893 95.5926 236.48 100.148 231.779 107.543C237.646 95.1285 251.802 90.561 255.202 87.8349C255.213 75.5292 252.485 51.0663 236.601 36.2562C210.118 11.5659 174.996 21.3456 167.706 27.791C168.451 28.1454 169.236 28.4586 170.77 29.3421C152.847 37.4244 144.008 52.3876 142.686 68.5111C141.342 84.8997 149.053 94.9251 149.997 94.5319C150.514 94.3136 145.35 74.1965 156.365 56.2476C167.81 37.6027 188.753 37.381 192.528 39.0578C191.374 39.6967 191.108 40.2454 191.229 41.6273C186.531 41.8216 183.507 43.2572 183.565 43.6299C183.585 43.8265 183.997 44.2974 183.997 44.2974C183.997 44.2974 182.091 44.3374 180.683 44.7169C179.636 50.2742 185.098 58.3336 185.098 58.3336C185.098 58.3336 177.422 58.7063 174.646 61.1992C174.996 68.9511 181.008 76.0561 181.008 76.0561C181.008 76.0561 173.946 78.3365 170.751 83.3303C172.637 89.5003 179.361 95.3983 179.361 95.3983C179.361 95.3983 175.517 98.2936 174.171 102.668C177.691 108.838 189.269 114.075 189.698 114.303C189.396 120.867 191.858 123.894 192.647 123.775C193.43 123.659 194.307 118.872 194.718 115.986C199.758 117.476 203.166 117.984 203.166 117.984C203.166 117.984 200.704 128.206 205.927 137.101C205.496 143.742 207.305 149.167 208.801 148.538C210.294 147.911 211.473 141.78 214.893 132.738C218.313 123.699 222.046 120.397 222.046 120.397C222.046 120.397 221.733 123.146 222.559 127.906C215.835 140.441 215.353 152.547 216.474 152.706C217.603 152.862 220.25 150.111 222.611 144.138C226.171 142.59 227.511 140.73 227.511 140.73C227.511 140.73 230.87 145.879 233.351 151.056C234.348 153.13 235.133 155.284 236.184 154.931C238.778 154.067 236.681 142.957 236.681 142.957C236.681 142.957 237.756 145.524 240.113 146.363C239.014 155.116 241.164 161.876 243.544 162.243C245.931 162.609 248.525 158.602 248.525 158.602C248.525 158.602 251.878 157.66 255.914 152.889C255.7 155.739 257.932 154.985 257.932 154.985C257.932 154.985 256.194 157.524 256.464 161.301C256.787 165.773 258.933 168.289 257.384 193.848C253.983 196.335 254.367 199.139 251.983 199.007C249.601 198.881 249.704 200.502 249.704 200.502C249.704 200.502 251.278 200.164 252.351 200.842C253.425 201.525 254.414 200.895 254.414 200.895C255.253 201.052 255.939 200.139 257.042 200.139C257.015 204.092 262.176 206.582 264.065 208.31C265.95 210.04 266.711 211.878 268.282 212.166C269.155 213.314 269.845 214.574 269.845 214.574C269.845 214.574 270.981 213.454 270.215 210.131C270.903 207.674 266.816 205.43 266.816 205.43C269.016 205.664 272.075 206.385 273.444 206.606C277.887 207.332 282.535 207.37 285.446 207.922C288.355 208.468 289.036 207.133 289.036 207.133C289.036 207.133 290.556 207.316 292.677 208.104C292.889 207.316 291.238 204.695 288.905 204.301C288.514 202.338 284.441 202.472 281.2 202.233C278.988 202.068 277.166 201.76 277.166 201.76C276.978 200.607 275.671 200.056 275.671 200.056C275.671 200.056 275.597 199.483 274.726 199.112C273.873 198.752 272.243 198.605 269.409 198.64C268.543 198.143 267.547 198.197 267.547 198.197C267.547 198.197 267.967 197.593 268.336 197.464C269.941 197.879 271.972 194.792 274.088 193.852C274.632 193.944 275.304 193.801 275.304 193.801C275.304 193.801 281.251 197.417 284.527 200.188C285.497 201.007 286.127 201.326 286.741 201.438C287.638 201.601 288.071 201.298 288.453 201.168C289.552 201.956 290.4 202.887 290.4 202.887C290.4 202.887 291.474 201.068 289.297 198.654C289.289 197.433 287.439 196.549 285.897 195.883C284.535 195.299 283.127 194.468 283.127 194.468C284.254 194.285 287.429 194.995 291.291 195.136C293.852 195.225 298.064 195.562 300.558 195.272C302.272 195.078 302.584 194.216 302.584 194.216C302.584 194.216 303.823 194.075 305.36 194.66C305.467 194.29 305.512 192.503 302.485 191.774C301.181 189.758 296.524 191.037 293.644 190.932C290.758 190.825 288.746 190.021 286.338 189.838C287.058 189.575 287.156 188.907 287.156 188.907C287.156 188.907 287.905 188.495 288.956 188.579C288.826 187.559 287.385 186.956 286.049 187.322C284.817 186.903 283.696 188.023 281.96 188.03C280.082 187.402 278.479 185.612 278.479 185.612C278.479 185.612 276.957 178.459 276.978 171.404C277.035 154.003 285.054 148.066 291.421 141.306C297.787 134.547 323.73 119.217 329.939 99.7212C332.918 90.3782 333.513 81.8432 330.066 70.9217C326.979 61.142 320.884 52.8323 315.002 44.7626" fill="black"/>
</svg>
